<svg width="30" height="30" viewBox="0 0 30 30" fill="none" xmlns="http://www.w3.org/2000/svg">
<path fill-rule="evenodd" clip-rule="evenodd" d="M14.8561 28.3198C15.2385 28.3198 15.6172 28.3038 15.9915 28.2723L16.521 28.1917C16.521 28.1917 17.2581 28.0637 17.4175 28.0637C17.8418 28.0637 18.1859 28.4079 18.1859 28.8321C18.1859 29.1863 18.1859 29.4724 17.6736 29.6005L17.6298 29.598C16.7312 29.7681 15.804 29.8566 14.8561 29.8566C6.6513 29.8566 0 23.2055 0 15.0006C0 6.79564 6.6513 0.144531 14.8561 0.144531C22.7282 0.144531 29.1702 6.26735 29.6797 14.0106C29.6828 14.0576 29.6817 14.1121 29.6807 14.1661C29.6802 14.1928 29.6797 14.2195 29.6797 14.2451C29.6797 14.2936 29.6752 14.3406 29.6667 14.3866L29.6674 14.4036L29.6635 14.4026C29.5907 14.7513 29.314 15.0006 28.9437 15.0006C28.5194 15.0006 28.1753 14.6564 28.1753 14.2322V14.1041V13.976L28.0322 13.041C27.0846 6.61404 21.5464 1.68137 14.8561 1.68137C7.50007 1.68137 1.53683 7.6446 1.53683 15.0006C1.53683 22.3566 7.50007 28.3198 14.8561 28.3198ZM13.9136 8.42172C13.3987 8.42172 12.959 8.60454 12.5942 8.96964C12.2295 9.33474 12.0469 9.77473 12.0469 10.3009C12.0469 10.8163 12.2295 11.2676 12.5942 11.6542C12.959 12.0408 13.3987 12.2231 13.9136 12.2231C14.4392 12.2231 14.8895 12.03 15.2649 11.6542C15.651 11.2783 15.8332 10.8271 15.8332 10.3009C15.8332 9.77473 15.6403 9.33474 15.2649 8.96964C14.8895 8.60454 14.4392 8.42172 13.9136 8.42172ZM13.9136 13.8338C12.9482 13.8338 12.1219 13.4905 11.4462 12.7925C10.7704 12.0945 10.4379 11.2673 10.4379 10.3009C10.4379 9.33446 10.7704 8.50783 11.4462 7.83133C12.1219 7.15482 12.9482 6.81099 13.9136 6.81099C14.8897 6.81099 15.7152 7.15482 16.4124 7.83133C17.1097 8.50783 17.4531 9.33446 17.4531 10.3009C17.4531 11.2673 17.1097 12.1053 16.4124 12.7925C15.7152 13.4797 14.8897 13.8338 13.9136 13.8338ZM19.1155 13.8338C19.8771 13.5546 20.51 13.5872 21.0141 13.9093C21.5183 14.2422 21.7652 14.7683 21.7652 15.4985V19.6897C21.7652 19.8937 21.6899 20.076 21.529 20.2371C21.3681 20.3874 21.175 20.4736 20.9283 20.4736C20.7244 20.4736 20.5423 20.3982 20.3815 20.2371C20.2206 20.076 20.1452 19.9045 20.1452 19.6897V15.6485C20.1452 15.3049 19.9201 15.2192 19.4696 15.3911L9.80525 18.7735V21.9949C9.80525 22.2419 9.72993 22.4353 9.56904 22.5963C9.41887 22.7574 9.21527 22.8323 8.97929 22.8323C8.76476 22.8323 8.58213 22.7574 8.43196 22.5963C8.27106 22.4353 8.19627 22.2419 8.19627 21.9949V18.1936C8.19627 17.85 8.36762 17.5923 8.7216 17.4097L19.1155 13.8338ZM22.0136 27.2836C22.0873 27.276 22.1469 27.2457 22.192 27.1888L25.9251 22.5782C25.9806 22.5081 26.0038 22.4294 25.9873 22.3467C25.9709 22.2641 25.9366 22.1994 25.8808 22.153C25.825 22.1066 25.7561 22.0856 25.6738 22.0861C25.5919 22.0906 25.5211 22.1262 25.4656 22.1963L21.9317 26.5732L20.6219 25.4844L26.0249 18.6391L27.3562 19.7458L27.0373 20.1486C26.9922 20.2055 26.9721 20.2759 26.973 20.3601C26.9778 20.444 27.0129 20.5167 27.0816 20.5738C27.137 20.6162 27.2058 20.6372 27.2951 20.6279C27.3844 20.6186 27.4517 20.5875 27.4968 20.5306L27.9624 19.9157C27.974 19.9145 27.9818 19.9137 27.981 19.9057C27.9806 19.9018 27.9879 19.897 27.9995 19.8958L29.9307 17.4572C29.9411 17.4441 29.9545 17.4226 29.9637 17.3976C29.9681 17.383 29.9735 17.3694 29.979 17.3558C29.9844 17.3421 29.9898 17.3285 29.9942 17.314C29.993 17.302 29.9948 17.2818 30.0001 17.2572C30.0011 17.2289 29.9947 17.2055 29.9801 17.1789C29.9777 17.1551 29.9713 17.1316 29.9653 17.1121C29.9555 17.093 29.9375 17.0708 29.9117 17.0494L28.9115 16.2216C28.6062 15.9642 28.2851 15.8571 27.9475 15.8922C27.6099 15.9274 27.3104 16.1031 27.0526 16.4152L19.9833 25.342C19.9716 25.3432 19.9643 25.348 19.9647 25.352C19.9656 25.3599 19.9582 25.3647 19.9466 25.3659C19.942 25.3784 19.9375 25.392 19.933 25.4055C19.9286 25.419 19.9241 25.4325 19.9195 25.445C19.9097 25.4643 19.9023 25.4855 19.8953 25.5055L19.8886 25.5246L19.3173 28.2514C19.2956 28.3822 19.3258 28.4835 19.4074 28.5513C19.4632 28.5977 19.5394 28.6139 19.6403 28.6034L19.7179 28.5953L21.2668 27.948C21.3509 27.9271 21.4084 27.8769 21.439 27.7934C21.4699 27.7139 21.466 27.6379 21.4344 27.5609C21.4033 27.4878 21.3504 27.4331 21.2769 27.4046C21.2029 27.3721 21.1322 27.3714 21.0575 27.4073L19.9988 27.8269L20.3832 26.0555L21.7961 27.23C21.8558 27.276 21.9243 27.2929 22.0136 27.2836Z" fill="#1B0088"/>
</svg>
