<svg width="28" height="28" viewBox="0 0 28 28" fill="none" xmlns="http://www.w3.org/2000/svg">
<rect width="28" height="28" rx="14" fill="#4C4C4C"/>
<path d="M14 24C12.6333 24 11.3417 23.7375 10.125 23.2125C8.90833 22.6875 7.84583 21.9708 6.9375 21.0625C6.02917 20.1542 5.3125 19.0917 4.7875 17.875C4.2625 16.6583 4 15.3667 4 14C4 12.6167 4.2625 11.3208 4.7875 10.1125C5.3125 8.90417 6.02917 7.84583 6.9375 6.9375C7.84583 6.02917 8.90833 5.3125 10.125 4.7875C11.3417 4.2625 12.6333 4 14 4C15.3833 4 16.6792 4.2625 17.8875 4.7875C19.0958 5.3125 20.1542 6.02917 21.0625 6.9375C21.9708 7.84583 22.6875 8.90417 23.2125 10.1125C23.7375 11.3208 24 12.6167 24 14C24 15.3667 23.7375 16.6583 23.2125 17.875C22.6875 19.0917 21.9708 20.1542 21.0625 21.0625C20.1542 21.9708 19.0958 22.6875 17.8875 23.2125C16.6792 23.7375 15.3833 24 14 24ZM14 21.95C14.4333 21.35 14.8083 20.725 15.125 20.075C15.4417 19.425 15.7 18.7333 15.9 18H12.1C12.3 18.7333 12.5583 19.425 12.875 20.075C13.1917 20.725 13.5667 21.35 14 21.95ZM11.4 21.55C11.1 21 10.8375 20.4292 10.6125 19.8375C10.3875 19.2458 10.2 18.6333 10.05 18H7.1C7.58333 18.8333 8.1875 19.5583 8.9125 20.175C9.6375 20.7917 10.4667 21.25 11.4 21.55ZM16.6 21.55C17.5333 21.25 18.3625 20.7917 19.0875 20.175C19.8125 19.5583 20.4167 18.8333 20.9 18H17.95C17.8 18.6333 17.6125 19.2458 17.3875 19.8375C17.1625 20.4292 16.9 21 16.6 21.55ZM6.25 16H9.65C9.6 15.6667 9.5625 15.3375 9.5375 15.0125C9.5125 14.6875 9.5 14.35 9.5 14C9.5 13.65 9.5125 13.3125 9.5375 12.9875C9.5625 12.6625 9.6 12.3333 9.65 12H6.25C6.16667 12.3333 6.10417 12.6625 6.0625 12.9875C6.02083 13.3125 6 13.65 6 14C6 14.35 6.02083 14.6875 6.0625 15.0125C6.10417 15.3375 6.16667 15.6667 6.25 16ZM11.65 16H16.35C16.4 15.6667 16.4375 15.3375 16.4625 15.0125C16.4875 14.6875 16.5 14.35 16.5 14C16.5 13.65 16.4875 13.3125 16.4625 12.9875C16.4375 12.6625 16.4 12.3333 16.35 12H11.65C11.6 12.3333 11.5625 12.6625 11.5375 12.9875C11.5125 13.3125 11.5 13.65 11.5 14C11.5 14.35 11.5125 14.6875 11.5375 15.0125C11.5625 15.3375 11.6 15.6667 11.65 16ZM18.35 16H21.75C21.8333 15.6667 21.8958 15.3375 21.9375 15.0125C21.9792 14.6875 22 14.35 22 14C22 13.65 21.9792 13.3125 21.9375 12.9875C21.8958 12.6625 21.8333 12.3333 21.75 12H18.35C18.4 12.3333 18.4375 12.6625 18.4625 12.9875C18.4875 13.3125 18.5 13.65 18.5 14C18.5 14.35 18.4875 14.6875 18.4625 15.0125C18.4375 15.3375 18.4 15.6667 18.35 16ZM17.95 10H20.9C20.4167 9.16667 19.8125 8.44167 19.0875 7.825C18.3625 7.20833 17.5333 6.75 16.6 6.45C16.9 7 17.1625 7.57083 17.3875 8.1625C17.6125 8.75417 17.8 9.36667 17.95 10ZM12.1 10H15.9C15.7 9.26667 15.4417 8.575 15.125 7.925C14.8083 7.275 14.4333 6.65 14 6.05C13.5667 6.65 13.1917 7.275 12.875 7.925C12.5583 8.575 12.3 9.26667 12.1 10ZM7.1 10H10.05C10.2 9.36667 10.3875 8.75417 10.6125 8.1625C10.8375 7.57083 11.1 7 11.4 6.45C10.4667 6.75 9.6375 7.20833 8.9125 7.825C8.1875 8.44167 7.58333 9.16667 7.1 10Z" fill="white" stroke="#4C4C4C"/>
</svg>
