<svg width="50" height="50" viewBox="0 0 50 50" fill="none" xmlns="http://www.w3.org/2000/svg">
<path d="M11.1871 24.958C11.1168 24.9229 11.0816 24.944 11.0816 25.0213V28.1856C11.0816 28.2665 11.1168 28.3245 11.1871 28.3596L21.5447 33.7283C21.7345 33.8268 21.9261 33.8285 22.1195 33.7336L38.7792 25.6278C38.93 25.5524 39.0535 25.4326 39.1325 25.285C39.2098 25.1373 39.2503 24.9774 39.2538 24.8051C39.2608 24.5801 39.3716 24.4957 39.586 24.552C40.1134 24.6926 40.472 24.9967 40.6619 25.4643C40.7334 25.64 40.7355 25.8361 40.6679 26.0125C40.6002 26.189 40.4679 26.3325 40.298 26.4136L22.5203 34.9993C22.3007 35.1058 22.0593 35.1598 21.815 35.157C21.5706 35.1543 21.3301 35.0949 21.1122 34.9835L11.1396 29.8099C11.0834 29.7783 11.0553 29.7959 11.0553 29.8627V32.9795C11.0555 33.0383 11.0718 33.096 11.1025 33.1462C11.1332 33.1964 11.177 33.2372 11.2293 33.2642L21.571 38.5908C21.7468 38.6822 21.9244 38.6839 22.1037 38.596L38.9215 30.4322C39.0798 30.3549 39.1729 30.2301 39.2011 30.0578L39.2802 29.6042C39.3188 29.3863 39.4401 29.3195 39.644 29.4038C40.0589 29.5831 40.3701 29.831 40.5775 30.1474C40.6408 30.2418 40.6831 30.3487 40.7014 30.4608C40.7197 30.573 40.7136 30.6877 40.6836 30.7973C40.6536 30.9069 40.6003 31.0088 40.5274 31.0959C40.4545 31.1831 40.3636 31.2535 40.2611 31.3024L22.61 39.8248C22.3611 39.9444 22.0875 40.0043 21.8111 39.9998C21.5346 39.9952 21.2629 39.9263 21.0173 39.7985C17.3609 37.8964 13.8064 36.0541 10.3539 34.2715C8.91942 33.5332 9.25166 30.4797 9.65774 29.3036C9.72805 29.1032 9.72981 28.9011 9.66301 28.6971C9.18486 27.2099 9.17607 25.7878 9.63664 24.4307C9.69641 24.2549 9.70168 24.0791 9.65246 23.9033C9.29385 22.5954 8.75593 19.853 10.3486 19.0672C16.4802 16.0506 22.4834 13.0762 28.3583 10.144C28.5491 10.0476 28.7602 9.99821 28.974 10C29.1877 10.0019 29.398 10.0549 29.5871 10.1545L40.2505 15.7131C40.321 15.7491 40.3823 15.801 40.4298 15.865C40.4774 15.929 40.5098 16.0033 40.5248 16.0823C40.6056 16.4901 40.4615 16.7854 40.0923 16.9683C34.0065 19.9743 28.1579 22.8626 22.5467 25.6331C22.3015 25.7541 22.0315 25.8157 21.7584 25.813C21.4854 25.8102 21.217 25.7432 20.9751 25.6173L11.1607 20.5281C11.0939 20.4929 11.0605 20.514 11.0605 20.5913L11.0816 23.3126C11.0852 23.4005 11.1256 23.4638 11.2029 23.5025L21.5183 28.8343C21.6148 28.8836 21.7214 28.9097 21.8294 28.9106C21.9374 28.9115 22.044 28.8872 22.1406 28.8395L38.9848 20.6652C39.1325 20.5949 39.1958 20.4788 39.1747 20.3171C39.1255 19.9198 39.2995 19.7264 39.6968 19.737C39.8341 19.7439 39.9667 19.7936 40.0765 19.8794C40.959 20.5931 40.9519 21.1732 40.0554 21.6197C34.1945 24.5379 28.4181 27.3295 22.726 29.9945C22.4195 30.1385 22.0839 30.2097 21.7454 30.2023C21.4069 30.195 21.0746 30.1094 20.7747 29.9523L11.1871 24.958Z" fill="#1B0088"/>
</svg>
