<svg width="50" height="50" viewBox="0 0 50 50" fill="none" xmlns="http://www.w3.org/2000/svg">
<path d="M24.9719 16.5916C23.3323 16.5916 22.015 17.0681 21.006 18.021C19.997 18.974 19.4644 20.1371 19.3804 21.4965L22.1271 21.8609C22.3233 20.9079 22.6737 20.1932 23.1782 19.7307C23.6827 19.2682 24.3273 19.03 25.0841 19.03C25.8689 19.03 26.4995 19.2542 26.962 19.7027C27.4245 20.1511 27.6627 20.6837 27.6627 21.3143C27.6627 21.7628 27.5365 22.1692 27.2703 22.5475C27.1441 22.7157 26.8639 23.01 26.4014 23.4304L25.3923 24.3274C24.6916 24.972 24.2152 25.5746 23.963 26.1072C23.6687 26.7238 23.5846 27.4804 23.5846 28.4334V29.2042H26.4014C26.3874 28.3213 26.3874 27.6206 26.5415 27.2703C26.6957 26.9199 27.018 26.5555 27.6487 25.9949L28.2793 25.4205C29.1482 24.5937 29.7367 23.9209 30.045 23.4024C30.4234 22.7717 30.6056 22.0992 30.6056 21.3844C30.6056 20.1092 30.1011 18.974 29.078 18.021C28.069 17.0821 26.6957 16.5916 24.9719 16.5916ZM26.4014 30.6056H23.5986V33.4084H26.4014V30.6056ZM25 11C32.7357 11 39 17.2783 39 25C39 32.7217 32.7217 39 25 39C17.2783 39 11 32.7217 11 25C11 17.2783 17.2643 11 25 11Z" fill="#1B0088"/>
</svg>
