<svg width="150" height="47" viewBox="0 0 150 47" fill="none" xmlns="http://www.w3.org/2000/svg">
<path d="M120.774 11.0819C119.821 14.7732 118.908 18.2819 118.056 21.7906C117.874 22.5207 117.631 22.8655 116.799 22.7844C115.927 22.7033 115.035 22.7438 114.163 22.7641C113.656 22.7844 113.514 22.6424 113.656 22.1354C114.893 17.4098 116.13 12.6841 117.347 7.95852C117.468 7.47176 117.671 7.30951 118.158 7.32979C119.436 7.37035 120.733 7.32979 122.011 7.35007C123.593 7.35007 123.999 7.63402 124.485 9.17542C125.215 11.4267 125.925 13.6577 126.635 15.9292C127.081 15.7467 127.061 15.3208 127.183 14.9963C127.994 12.6841 128.825 10.3518 129.596 8.01937C129.758 7.51233 129.961 7.32979 130.509 7.32979C131.786 7.37035 133.084 7.32979 134.362 7.35007C135.579 7.37036 136.208 7.81655 136.512 8.95232C137.688 13.5157 138.824 18.0993 140 22.7641C138.702 22.7641 137.445 22.7438 136.208 22.7641C135.559 22.7844 135.68 22.2368 135.579 21.9123C134.666 18.5253 133.794 15.1382 132.902 11.7512C132.861 11.6295 132.821 11.5078 132.78 11.3456C132.375 11.447 132.415 11.812 132.334 12.0554C131.442 14.4486 130.57 16.8622 129.718 19.2757C129.535 19.7827 129.312 19.9653 128.785 19.945C127.568 19.9044 126.351 19.9247 125.134 19.9247C124.222 19.9247 123.634 19.5393 123.35 18.6064C122.64 16.3551 121.889 14.1241 121.139 11.8932C121.017 11.6701 120.936 11.4672 120.774 11.0819Z" fill="#1B0088"/>
<path d="M111.668 22.7644C110.188 22.7644 108.87 22.7441 107.551 22.7847C107.065 22.8049 106.781 22.6224 106.679 22.1762C106.213 20.148 104.895 19.7018 102.968 19.9047C101.305 20.0872 99.6013 19.9655 97.8977 19.9249C97.2893 19.9047 96.8432 20.0061 96.6809 20.6551C96.2347 22.521 95.0382 23.1092 93.2129 22.8049C92.5234 22.6832 91.8136 22.7847 91.124 22.7847C90.9821 22.3993 91.2254 22.1559 91.3674 21.8923C93.6388 17.3086 95.9508 12.725 98.2222 8.14131C98.5264 7.53286 98.8509 7.30977 99.5202 7.35033C100.595 7.41117 101.69 7.37061 102.765 7.37061C103.434 7.37061 103.962 7.61399 104.266 8.22244C106.679 12.9886 109.133 17.7954 111.668 22.7644ZM101.264 10.7171C100.331 12.7047 99.4796 14.4692 98.6481 16.254C98.3845 16.8219 98.8509 16.761 99.1754 16.761C100.514 16.761 101.873 16.7407 103.211 16.7813C103.982 16.8016 103.962 16.5379 103.678 15.97C102.887 14.3069 102.116 12.6236 101.264 10.7171Z" fill="#1B0088"/>
<path d="M73.2974 22.7644C71.8372 22.7644 70.5392 22.7239 69.2615 22.7847C68.6937 22.805 68.3489 22.6427 68.2272 22.0951C67.8013 20.2292 66.6656 19.6816 64.7998 19.8844C62.9948 20.067 61.1493 19.9453 59.3443 19.9047C58.8373 19.9047 58.4925 20.0264 58.3708 20.5334C57.8841 22.4399 56.6876 23.1295 54.7609 22.7644C54.1119 22.6427 53.4224 22.7441 52.7734 22.7441C52.5909 22.3588 52.8545 22.1154 52.9762 21.872C55.2679 17.2681 57.5799 12.6642 59.8716 8.03995C60.1353 7.51263 60.4192 7.28953 61.0276 7.30981C62.0011 7.37066 62.9948 7.37066 63.9683 7.30981C65.0634 7.22869 65.7124 7.69516 66.1991 8.66868C68.1866 12.6844 70.235 16.6596 72.263 20.6551C72.5673 21.3244 72.912 21.9734 73.2974 22.7644ZM62.9137 10.7171C61.9808 12.6844 61.1493 14.4489 60.3178 16.1932C60.1353 16.5582 60.0947 16.8016 60.6625 16.8016C62.143 16.7813 63.6235 16.7813 65.104 16.8016C65.6719 16.8016 65.611 16.5785 65.4285 16.1932C64.597 14.4287 63.806 12.6642 62.9137 10.7171Z" fill="#1B0088"/>
<path d="M82.1598 7.35036C85.06 7.35036 87.9601 7.37064 90.8602 7.33008C91.4686 7.33008 91.6512 7.47205 91.6714 8.10078C91.6917 10.494 91.712 10.4737 89.2986 10.5954C87.9601 10.6563 86.6013 10.8185 85.2628 10.8185C84.3704 10.8388 84.1879 11.2039 84.1879 12.0354C84.2487 15.2805 84.1879 18.5255 84.2285 21.7503C84.2285 22.5007 84.1068 22.8455 83.255 22.7644C82.4235 22.6833 81.5717 22.7036 80.7199 22.7644C80.0507 22.805 79.8884 22.5819 79.8884 21.9329C79.929 18.5661 79.8884 15.1791 79.929 11.8123C79.929 11.1227 79.7667 10.8794 79.0569 10.8591C77.1708 10.778 75.2847 10.5954 73.3986 10.5143C72.628 10.494 72.4657 10.1898 72.486 9.47993C72.5266 7.35036 72.486 7.35036 74.656 7.35036C77.1708 7.35036 79.6653 7.35036 82.1598 7.35036Z" fill="#1B0088"/>
<path d="M26.7741 7.97852C26.7741 8.95203 26.7944 10.027 26.7741 11.1222C26.7539 11.974 26.3685 12.5216 25.4965 12.8258C19.3515 15.0162 13.2064 17.2472 7.0817 19.4782C6.41244 19.7216 5.80402 19.7621 5.13476 19.4985C3.55287 18.8698 1.93043 18.3019 0.166016 17.6529C9.15032 14.3875 17.9521 11.183 26.7741 7.97852Z" fill="#1B0088"/>
<path d="M51.1312 19.1326C50.5431 20.3089 50.0158 21.3635 49.5291 22.4182C49.3465 22.7832 49.0626 22.7427 48.7584 22.7427C44.8442 22.7427 40.9301 22.7427 37.0159 22.763C36.4684 22.763 36.3467 22.5804 36.3467 22.0734C36.367 17.3883 36.367 12.683 36.3467 7.99794C36.3467 7.43005 36.5495 7.30836 37.0565 7.34892C38.2936 7.43005 39.5307 7.22723 40.7678 7.47061C40.7881 8.64695 40.8287 9.82328 40.8287 10.9996C40.8287 13.3928 40.8693 15.7861 40.8084 18.1996C40.7881 19.0311 41.0721 19.1934 41.8224 19.1731C44.8645 19.1123 47.8863 19.1326 51.1312 19.1326Z" fill="#1B0088"/>
<path d="M6.30987 27.4286C6.30987 26.1306 6.35043 24.8731 6.28959 23.6359C6.26931 22.9058 6.83717 22.9464 7.2225 22.8044C13.0025 20.6951 18.8027 18.6061 24.603 16.5171C25.3331 16.2534 26.0226 15.9289 26.7527 15.4219C26.7527 16.7199 26.7933 17.9165 26.7324 19.0929C26.7121 19.7824 26.3268 20.2489 25.6373 20.5126C19.3706 22.7638 13.1039 25.0557 6.85745 27.3272C6.6952 27.3678 6.53296 27.388 6.30987 27.4286Z" fill="#1B0088"/>
<path d="M26.2058 7.04553C25.6988 7.69455 24.8673 7.79595 24.198 8.16102C21.5818 9.56046 19.0873 9.51989 16.3697 8.22187C13.9158 7.04553 11.259 6.3154 8.70366 5.36216C6.63504 4.61174 6.31055 4.12498 6.31055 1.95484C6.31055 -0.3167 6.31055 -0.296418 8.41973 0.454002C14.0172 2.48217 19.6146 4.51033 25.2323 6.55877C25.5568 6.70075 25.9422 6.74131 26.2058 7.04553Z" fill="#E8114C"/>
<path d="M16.2276 11.0214C14.017 11.8124 12.0498 12.5222 10.1029 13.2524C9.71756 13.3943 9.39307 13.3132 9.0483 13.1915C6.71603 12.3397 4.36348 11.4879 2.03122 10.6158C0.408769 10.0073 0.0234375 9.41913 0.0234375 7.65463C0.0234375 5.07886 0.0234378 5.09915 2.43683 5.97126C6.79715 7.55322 11.1575 9.15547 15.4975 10.7374C15.6598 10.7983 15.8017 10.8591 16.2276 11.0214Z" fill="#E8114C"/>
<path d="M6.31055 35.1153C6.31055 33.6956 6.33083 32.2556 6.31055 30.8156C6.31055 30.41 6.55391 30.3289 6.85812 30.2275C9.81909 29.1525 12.8003 28.0979 15.741 26.9824C16.532 26.6782 16.7753 27.0432 16.8159 27.6517C16.8767 28.4832 16.8565 29.3351 16.8159 30.1869C16.7956 31.1199 16.3494 31.6877 15.3962 32.0122C12.6178 32.9452 9.85965 33.9796 7.08121 34.9936C6.83784 35.0748 6.63504 35.1762 6.31055 35.1153Z" fill="#1B0088"/>
<path d="M71.6754 42.8435C70.4789 43.1477 69.7285 42.8638 69.3026 41.8497C69.262 41.728 69.1404 41.6266 69.0795 41.5049C68.5522 40.2069 67.599 39.7201 66.22 39.9635C65.6115 40.0649 64.9828 39.9432 64.4353 39.6998C63.766 39.4159 63.7052 39.7201 63.7254 40.2677C63.7457 40.937 63.6849 41.6266 63.7457 42.2959C63.7863 42.9043 63.4821 42.9652 63.0156 42.9246C62.5897 42.9043 62.1436 43.026 62.1436 42.2959C62.1638 39.4362 62.1638 36.5562 62.1638 33.6965C62.1638 33.372 62.1638 33.0677 62.61 33.088C64.7192 33.1691 66.8689 32.8852 68.9781 33.2503C70.3775 33.4734 71.4726 34.1832 71.7565 35.6638C72.0405 37.1443 71.4321 38.3207 70.1747 39.1117C69.6271 39.4564 69.6068 39.6795 69.9516 40.1663C70.56 41.0384 71.0873 41.9308 71.6754 42.8435ZM63.7457 36.1708C63.7457 36.617 63.766 37.0429 63.7457 37.4891C63.7254 37.7933 63.8066 38.0164 64.1108 38.1381C65.7738 38.7871 67.4571 38.9291 69.0998 38.1381C69.9313 37.7325 70.3369 37.0024 70.1949 36.0491C70.053 35.1162 69.404 34.7105 68.5522 34.5077C67.5585 34.2846 66.5444 34.3657 65.5304 34.3657C63.7457 34.3455 63.7457 34.3658 63.7457 36.1708Z" fill="#1B0088"/>
<path d="M108.139 40.7733C108.139 38.3598 108.159 36.2099 108.119 34.0398C108.098 33.4111 108.281 33.2488 108.91 33.2285C109.579 33.2285 109.68 33.4719 109.68 34.0601C109.66 36.6561 109.68 39.2522 109.66 41.8685C109.66 42.2336 109.924 42.7812 109.376 42.9231C108.828 43.0448 108.22 43.0854 107.774 42.5783C107.145 41.8685 106.516 41.1586 105.908 40.4488C104.407 38.7451 102.906 37.0415 101.203 35.1147C101.203 37.6499 101.162 39.8809 101.223 42.1322C101.243 42.9231 100.899 43.0043 100.27 42.984C99.8238 42.9637 99.6819 42.8014 99.6819 42.3755C99.7021 39.5361 99.6819 36.6967 99.6819 33.8572C99.6819 33.6341 99.6007 33.2894 99.9252 33.2894C100.534 33.2894 101.183 33.046 101.71 33.6544C103.332 35.5001 104.995 37.3254 106.658 39.1508C107.084 39.6172 107.53 40.0837 108.139 40.7733Z" fill="#1B0088"/>
<path d="M117.062 38.0567C117.062 36.6776 117.083 35.2782 117.062 33.899C117.062 33.4123 117.184 33.25 117.691 33.25C119.821 33.2703 121.95 33.2703 124.08 33.25C124.627 33.25 124.749 33.4123 124.769 33.9396C124.789 34.548 124.485 34.5683 124.039 34.5683C122.477 34.548 120.936 34.5886 119.374 34.548C118.867 34.548 118.685 34.6697 118.685 35.2173C118.644 37.1441 118.624 37.1441 120.53 37.1441C121.504 37.1441 122.498 37.1644 123.471 37.1441C123.978 37.1238 124.181 37.2658 124.181 37.8134C124.181 38.3813 124.019 38.5841 123.431 38.5638C122.072 38.5232 120.733 38.5841 119.374 38.5435C118.847 38.5232 118.705 38.6855 118.685 39.2128C118.624 41.4438 118.604 41.4438 120.855 41.4438C122.011 41.4438 123.147 41.4843 124.303 41.4235C124.972 41.4032 124.972 41.748 124.972 42.2348C124.992 42.7418 124.85 42.9649 124.303 42.9446C122.112 42.9243 119.922 42.9243 117.711 42.9446C117.204 42.9446 117.083 42.7621 117.083 42.2753C117.083 40.8759 117.062 39.4765 117.062 38.0567Z" fill="#1B0088"/>
<path d="M136.005 33.0686C136.917 33.028 137.81 33.2105 138.702 33.4336C139.27 33.5756 139.25 33.819 139.168 34.2855C139.067 34.8939 138.743 34.8331 138.317 34.7114C137.1 34.3869 135.863 34.2652 134.626 34.5288C133.956 34.6708 133.267 34.8939 133.206 35.7457C133.165 36.6381 133.875 36.8207 134.544 36.9829C135.66 37.2466 136.796 37.4494 137.87 37.7942C139.25 38.2404 139.959 39.1328 139.939 40.228C139.919 41.384 139.168 42.2967 137.769 42.7226C135.863 43.2905 133.977 43.108 132.111 42.4995C131.218 42.2156 131.705 41.7085 131.786 41.2421C131.928 40.4917 132.334 41.019 132.577 41.1001C133.895 41.6477 135.254 41.7288 136.654 41.5869C136.978 41.5463 137.323 41.4449 137.607 41.3029C138.54 40.8364 138.601 39.9035 137.708 39.3153C136.978 38.8286 136.126 38.7474 135.315 38.5852C134.585 38.4432 133.875 38.281 133.186 37.997C132.354 37.6522 131.746 37.1452 131.644 36.1717C131.543 35.117 131.949 34.326 132.821 33.7784C133.774 33.17 134.869 33.0077 136.005 33.0686Z" fill="#1B0088"/>
<path d="M46.6287 42.8213C45.5539 43.2067 44.8846 42.9025 44.6007 41.8681C44.2762 40.7121 43.5866 40.205 42.3292 40.3876C41.2746 40.5295 40.1795 40.4484 39.1046 40.4078C38.557 40.3875 38.2326 40.5295 38.0298 41.0771C37.8472 41.5842 37.5836 42.0506 37.3605 42.5374C37.0157 43.2675 36.3667 42.9228 35.8394 42.9228C35.5758 42.9228 35.7178 42.5982 35.7786 42.436C37.2185 39.5154 38.6382 36.5746 40.0984 33.654C40.4634 32.9239 41.8831 33.147 42.309 33.9786C43.1607 35.6619 43.972 37.3453 44.8035 39.049C45.4119 40.2861 46 41.5436 46.6287 42.8213ZM38.9627 39.049C40.4634 39.049 41.7817 39.049 43.2621 39.049C42.532 37.5481 41.8425 36.169 41.1124 34.6681C40.362 36.169 39.6928 37.5481 38.9627 39.049Z" fill="#1B0088"/>
<path d="M78.1852 38.0775C78.1852 36.6983 78.2258 35.3192 78.1649 33.9197C78.1446 33.2302 78.4894 33.2504 78.9761 33.2504C79.4426 33.2504 79.8076 33.2099 79.7874 33.8995C79.7468 36.1507 79.7874 38.4223 79.7468 40.6735C79.7265 41.3834 79.9496 41.6065 80.6594 41.5862C81.9777 41.5254 83.2959 41.5862 84.6141 41.5659C85.1009 41.5659 85.3442 41.647 85.3442 42.2149C85.3442 42.7828 85.182 42.9856 84.5939 42.9654C82.7078 42.9248 80.8217 42.9248 78.9356 42.9654C78.3474 42.9654 78.1852 42.7828 78.1852 42.2149C78.2055 40.8358 78.1852 39.4566 78.1852 38.0775Z" fill="#1B0088"/>
<path d="M6.31055 40.4887C6.31055 38.1563 6.31055 38.1563 8.52113 37.345C8.90646 37.2031 9.27151 37.0814 9.65684 36.9394C10.752 36.554 10.9345 36.696 10.9548 37.8723C10.9954 42.0504 10.9548 41.2188 7.85187 42.4154C6.33083 43.0036 6.31055 42.9833 6.31055 41.3811C6.31055 41.0971 6.31055 40.7929 6.31055 40.4887Z" fill="#1B0088"/>
<path d="M90.7585 37.9755C90.7585 36.6369 90.799 35.278 90.7382 33.9394C90.7179 33.2701 91.0424 33.2499 91.5291 33.2701C91.9753 33.2904 92.3607 33.189 92.3607 33.8989C92.3201 36.6977 92.3201 39.4966 92.3607 42.2752C92.3607 42.9039 92.1173 42.985 91.59 42.985C91.0221 42.985 90.7179 42.9039 90.7585 42.2143C90.799 40.7946 90.7585 39.3749 90.7585 37.9755Z" fill="#1B0088"/>
<path d="M53.2399 38.0954C53.2399 36.7162 53.2804 35.3371 53.2196 33.9579C53.179 33.2075 53.5846 33.2683 54.0917 33.2481C54.6392 33.2075 54.842 33.3698 54.842 33.9579C54.8015 36.7162 54.8015 39.4745 54.842 42.2328C54.842 42.821 54.6595 42.9833 54.0917 42.963C53.5644 42.9427 53.1993 42.9427 53.2196 42.2328C53.2804 40.8537 53.2399 39.4745 53.2399 38.0954Z" fill="#1B0088"/>
<path d="M26.2462 14.7112C25.8811 15.2385 25.3335 15.4413 24.8062 15.6441C23.8936 15.9889 22.9404 16.2323 22.0684 16.6582C20.669 17.3478 19.371 17.1855 17.9717 16.3134C19.6955 15.6847 21.3991 15.1371 23.0215 14.4272C24.2181 13.9202 25.2119 14.0622 26.2462 14.7112Z" fill="#E8114C"/>
<path d="M5.66168 14.8545C3.89727 15.4832 2.41679 16.0308 0.936308 16.5581C0.32789 16.7812 -0.0371599 16.6595 0.00340126 15.9091C0.0439624 15.1587 0.0439624 14.4286 0.00340126 13.6781C-0.0371599 12.948 0.28733 12.8669 0.855186 13.09C2.37623 13.6376 3.87699 14.1852 5.66168 14.8545Z" fill="#E8114C"/>
</svg>
