<svg width="75" height="75" viewBox="0 0 75 75" fill="none" xmlns="http://www.w3.org/2000/svg">
<path d="M10.5208 10.1562V21.0938H5.125V10.1562C5.125 8.70585 5.69349 7.31485 6.7054 6.28926C7.71732 5.26367 9.08977 4.6875 10.5208 4.6875H21.3125V10.1562H10.5208ZM64.4792 4.6875C65.9102 4.6875 67.2827 5.26367 68.2946 6.28926C69.3065 7.31485 69.875 8.70585 69.875 10.1562V21.0938H64.4792V10.1562H53.6875V4.6875H64.4792ZM10.5208 53.9062V64.8438H21.3125V70.3125H10.5208C9.08977 70.3125 7.71732 69.7363 6.7054 68.7107C5.69349 67.6852 5.125 66.2942 5.125 64.8438V53.9062H10.5208ZM64.4792 64.8438V53.9062H69.875V64.8438C69.875 66.2942 69.3065 67.6852 68.2946 68.7107C67.2827 69.7363 65.9102 70.3125 64.4792 70.3125H53.6875V64.8438H64.4792Z" fill="#1B0088"/>
<path fill-rule="evenodd" clip-rule="evenodd" d="M37.3987 14.9016C37.6663 15.443 37.6666 15.4429 37.6666 15.4429L37.3987 14.9016ZM20.0236 39V22.0942C20.0236 20.5892 20.0645 19.4115 20.1961 18.4724C20.3281 17.5307 20.5346 16.966 20.7711 16.6082C21.1334 16.06 21.9067 15.5016 24.6408 15.5016H37.3987C37.4913 15.5016 37.583 15.4815 37.6666 15.4429L37.6692 15.4417L37.6738 15.4396L37.6877 15.433C37.699 15.4275 37.7144 15.42 37.7334 15.4105C37.7712 15.3916 37.8234 15.3647 37.8853 15.3305C38.0077 15.2629 38.1747 15.1633 38.3451 15.0381C38.5124 14.9151 38.7033 14.7528 38.8572 14.5554C39.009 14.3608 39.1605 14.0858 39.1605 13.7513C39.1605 12.8241 38.4005 12.001 37.3987 12.001H24.6408C21.6371 12.001 19.2186 12.5787 17.8256 14.6866C17.1851 15.656 16.8733 16.7978 16.7062 17.9893C16.5389 19.1833 16.5 20.5653 16.5 22.0942V39H20.0236ZM57.5 39H53.9764V20.1274L44.5649 15.307C43.6952 14.8615 43.3714 13.8127 43.7968 12.968C44.2289 12.1099 45.2938 11.7417 46.1799 12.1956L56.5457 17.5047C57.1404 17.8093 57.5 18.4148 57.5 19.0604V39Z" fill="#1B0088"/>
<path fill-rule="evenodd" clip-rule="evenodd" d="M5.5 37C5.5 36.4477 5.94771 36 6.5 36C27.1664 36 47.8336 36 68.5 36C69.0523 36 69.5 36.4477 69.5 37C69.5 37.6667 69.5 38.3333 69.5 39C69.5 39.5523 69.0523 40 68.5 40C67.8781 40 67.2562 40 66.6343 40C46.5899 40 26.5445 40 6.5 40C5.94771 40 5.5 39.5523 5.5 39C5.5 38.3333 5.5 37.6667 5.5 37Z" fill="#1B0088"/>
<path fill-rule="evenodd" clip-rule="evenodd" d="M24.5 23C32.1666 23 39.8334 23 47.5 23C47.5 24.6667 47.5 26.3333 47.5 28C47.1567 28 46.8134 28 46.4701 28C39.1469 28 31.8233 28 24.5 28C24.5 26.3333 24.5 24.6667 24.5 23Z" fill="#1B0088"/>
<path fill-rule="evenodd" clip-rule="evenodd" d="M24.5 31C33.1665 31 41.8335 31 50.5 31C50.5 32 50.5 33 50.5 34C50.1119 34 49.7239 34 49.3358 34C41.0573 34 32.7785 34 24.5 34C24.5 33 24.5 32 24.5 31Z" fill="#1B0088"/>
<path fill-rule="evenodd" clip-rule="evenodd" d="M17.5 44.3108V42H19.4048V44.3108C19.4048 44.8048 18.9784 45.2053 18.4524 45.2053C17.9264 45.2053 17.5 44.8048 17.5 44.3108ZM57.5 42V45.4289C57.5 45.9229 57.0736 46.3234 56.5476 46.3234C56.0216 46.3234 55.5952 45.9229 55.5952 45.4289V42H57.5ZM18.4524 48.0379C18.9784 48.0379 19.4048 48.4384 19.4048 48.9324V53.554C19.4048 54.048 18.9784 54.4485 18.4524 54.4485C17.9264 54.4485 17.5 54.048 17.5 53.554V48.9324C17.5 48.4384 17.9264 48.0379 18.4524 48.0379ZM18.4524 57.281C18.9784 57.281 19.4048 57.6815 19.4048 58.1755V60.1882H21.7328C22.2588 60.1882 22.6852 60.5887 22.6852 61.0827C22.6852 61.5767 22.2588 61.9772 21.7328 61.9772H19.0873C18.2107 61.9772 17.5 61.3097 17.5 60.4863V58.1755C17.5 57.6815 17.9264 57.281 18.4524 57.281ZM56.3945 58.1851C56.8641 58.4078 57.0526 58.9458 56.8156 59.3868C56.6021 59.7839 56.3211 60.1751 55.9512 60.5225C55.5813 60.8699 55.1648 61.1339 54.742 61.3343C54.2724 61.557 53.6996 61.3799 53.4626 60.9389C53.2256 60.4979 53.4141 59.9599 53.8836 59.7373C54.1561 59.6081 54.3996 59.4498 54.6043 59.2575C54.8091 59.0652 54.9776 58.8365 55.1152 58.5806C55.3522 58.1396 55.925 57.9625 56.3945 58.1851ZM24.8016 61.0827C24.8016 60.5887 25.228 60.1882 25.754 60.1882H31.045C31.571 60.1882 31.9974 60.5887 31.9974 61.0827C31.9974 61.5767 31.571 61.9772 31.045 61.9772H25.754C25.228 61.9772 24.8016 61.5767 24.8016 61.0827ZM35.3836 61.0827C35.3836 60.5887 35.81 60.1882 36.336 60.1882H42.8968C43.4228 60.1882 43.8492 60.5887 43.8492 61.0827C43.8492 61.5767 43.4228 61.9772 42.8968 61.9772H36.336C35.81 61.9772 35.3836 61.5767 35.3836 61.0827ZM45.9656 61.0827C45.9656 60.5887 46.392 60.1882 46.918 60.1882H49.5635C49.5968 60.1882 49.63 60.1898 49.6631 60.1931L49.665 60.1933L49.6725 60.1939C49.682 60.1947 49.6985 60.1961 49.7213 60.1976C49.7669 60.2008 49.8377 60.2048 49.929 60.2077C50.1124 60.2133 50.3749 60.2138 50.681 60.1926C51.2056 60.1562 51.6623 60.5261 51.701 61.0187C51.7398 61.5114 51.3459 61.9403 50.8214 61.9767C50.4353 62.0035 50.1038 62.003 49.8664 61.9957C49.7474 61.992 49.651 61.9866 49.5822 61.9818C49.5578 61.9802 49.5368 61.9786 49.5194 61.9772H46.918C46.392 61.9772 45.9656 61.5767 45.9656 61.0827Z" fill="#1B0088"/>
<path d="M56.5476 48.0379C57.0736 48.0379 57.5 48.4384 57.5 48.9324V54.7466C57.5 55.2406 57.0736 55.6411 56.5476 55.6411C56.0216 55.6411 55.5952 55.2406 55.5952 54.7466V48.9324C55.5952 48.4384 56.0216 48.0379 56.5476 48.0379Z" fill="#1B0088"/>
<path d="M56.3946 58.1832C56.8642 58.4058 57.0527 58.9438 56.8157 59.3848C56.6022 59.7819 56.3212 60.1731 55.9513 60.5206C55.5814 60.868 55.1649 61.1319 54.7421 61.3324C54.2725 61.555 53.6997 61.378 53.4627 60.937C53.2257 60.4959 53.4142 59.958 53.8837 59.7353C54.1562 59.6061 54.3997 59.4478 54.6044 59.2556C54.8092 59.0633 54.9777 58.8346 55.1153 58.5786C55.3523 58.1376 55.9251 57.9606 56.3946 58.1832Z" fill="#1B0088"/>
<path fill-rule="evenodd" clip-rule="evenodd" d="M24.5 44V42H27.8485V44H24.5ZM29.8182 42H36.5152V44H29.8182V42ZM38.4848 42L45.1818 42V44L38.4848 44V42ZM47.1515 42H50.5V44H47.1515V42Z" fill="#1B0088"/>
<path fill-rule="evenodd" clip-rule="evenodd" d="M24.5 50V47H27.3068V50H24.5ZM28.1932 47H33.8068V50H28.1932V47ZM34.6932 47L40.3068 47V50L34.6932 50V47ZM41.1932 47H46.8068V50H41.1932V47ZM47.6932 47H50.5V50H47.6932V47Z" fill="#1B0088"/>
<path fill-rule="evenodd" clip-rule="evenodd" d="M24.5 57V53H27.8485V57H24.5ZM29.8182 53H36.5152V57H29.8182V53ZM38.4848 53L45.1818 53V57L38.4848 57V53ZM47.1515 53H50.5V57H47.1515V53Z" fill="#1B0088"/>
</svg>
