<svg width="33" height="34" viewBox="0 0 33 34" fill="none" xmlns="http://www.w3.org/2000/svg">
<rect x="0.5" y="0.5" width="32" height="33" rx="16" fill="#4CAF50"/>
<path d="M16.5 5.43843C10.3058 5.43843 5.2888 10.6122 5.2888 17C5.2888 23.3878 10.3058 28.5616 16.5 28.5616C22.6942 28.5616 27.7112 23.3878 27.7112 17C27.7112 10.6122 22.6942 5.43843 16.5 5.43843ZM16.5 2.5625C24.2358 2.5625 30.5 9.03697 30.5 17C30.5 24.963 24.2218 31.4375 16.5 31.4375C8.77829 31.4375 2.5 24.963 2.5 17C2.5 9.03697 8.76428 2.5625 16.5 2.5625Z" fill="white"/>
<path d="M7.52724 15.6215C7.5454 15.6935 7.60442 16.022 7.66797 16.355C7.72699 16.688 7.86319 17.408 7.96306 17.9525C8.06748 18.497 8.18098 19.1135 8.21729 19.325C8.25361 19.5365 8.40797 20.333 8.55324 21.1025C8.69852 21.8675 8.89373 22.9115 8.98453 23.42C9.07532 23.9285 9.15704 24.3785 9.17066 24.419C9.19336 24.4955 9.30232 24.5 10.6733 24.5H12.1488L12.2986 24.3515L12.4484 24.203L12.4802 22.97C12.4984 22.2905 12.5029 20.414 12.4984 18.8075C12.4802 15.5855 12.4984 15.779 12.1987 15.5855C12.0807 15.5045 11.9354 15.5 9.78808 15.5H7.5L7.52724 15.6215Z" fill="white"/>
<path d="M16.8885 24.4497C16.6977 24.4273 16.3551 24.3601 16.1295 24.2973C15.4573 24.1136 14.0825 23.6475 13.9176 23.5534C13.6835 23.4145 13.5707 23.2352 13.5273 22.9484C13.4709 22.5361 13.51 17.1584 13.5707 16.9254C13.6661 16.5579 13.8092 16.3248 14.2863 15.7423C14.707 15.2314 15.6655 13.9093 16.0732 13.2775C16.4158 12.7531 16.5372 12.4529 16.7107 11.7538C17.088 10.1942 17.3439 9.71918 17.8817 9.55785C18.6277 9.33378 19.1177 9.764 19.2782 10.7902C19.43 11.7269 19.2392 12.7486 18.645 14.2186C18.3111 15.0387 18.2937 15.1014 18.3197 15.2358C18.3414 15.3255 18.3935 15.3837 18.5062 15.4375C18.6493 15.5047 18.9313 15.5182 21.0304 15.5406L23.3941 15.563L23.5979 15.6885C24.3612 16.1501 24.3959 17.3063 23.6673 17.8037L23.4895 17.9247L23.6499 17.983C24.1574 18.1622 24.4957 18.6462 24.5 19.2019C24.5 19.4663 24.3742 19.8473 24.2268 20.031C24.1053 20.1834 23.6803 20.4702 23.5805 20.4702C23.4678 20.4702 23.4851 20.5464 23.6283 20.6539C23.6976 20.7077 23.8017 20.8421 23.8625 20.9587C24.1053 21.4202 24.0403 21.9311 23.6933 22.2897C23.4418 22.5541 23.2726 22.6213 22.8823 22.6213C22.7045 22.6213 22.5527 22.6347 22.5353 22.6482C22.5223 22.6616 22.5874 22.7512 22.6784 22.8454C23.1599 23.3428 22.9734 24.2032 22.3358 24.4363C22.1754 24.4945 21.8024 24.5035 19.6902 24.499C18.3414 24.4945 17.0793 24.4721 16.8885 24.4497Z" fill="white"/>
</svg>
