<svg width="162" height="163" viewBox="0 0 162 163" fill="none" xmlns="http://www.w3.org/2000/svg">
<rect width="162" height="163" rx="81" fill="#FED944"/>
<rect x="0.125" y="0.881348" width="161.75" height="161.994" rx="80.875" fill="#FED944"/>
<path d="M80.8555 93.7592C80.1005 93.7592 79.424 93.4715 78.828 92.8547C78.232 92.2378 77.9549 91.4974 77.9549 90.5516V53.7062C77.9549 52.7604 78.232 52.02 78.828 51.4031C79.3843 50.7863 80.0608 50.4986 80.8555 50.4986C81.7297 50.4986 82.4849 50.7863 83.0809 51.4031C83.6769 52.02 83.954 52.7604 83.954 53.7062V90.5516C83.954 91.4974 83.6769 92.2378 83.0809 92.8547C82.4849 93.4715 81.7694 93.7592 80.8555 93.7592ZM80.8555 108.316C79.8224 108.316 78.9486 107.946 78.2731 107.206C77.5579 106.466 77.2002 105.602 77.2002 104.533C77.2002 103.464 77.5579 102.559 78.2731 101.86C78.9884 101.12 79.8621 100.75 80.8555 100.75C81.8886 100.75 82.7635 101.12 83.5582 101.86C84.3131 102.6 84.7106 103.505 84.7106 104.533C84.7106 105.602 84.3131 106.507 83.5582 107.206C82.8032 107.946 81.8886 108.316 80.8555 108.316ZM29.6774 124.066C29.1609 125.259 28.286 125.875 26.9748 125.875C26.8556 125.875 26.6564 125.835 26.4179 125.752C26.1398 125.67 25.9026 125.588 25.6244 125.464C24.9886 125.053 24.5502 124.478 24.2721 123.655C24.0337 122.874 24.0746 122.051 24.4719 121.27L64.6841 39.4364C64.8033 39.4364 64.882 39.3545 64.882 39.2311C69.2528 31.6646 74.5774 27.8813 80.8555 27.8813C84.4316 27.8813 87.5303 28.8274 90.0733 30.6779C92.6163 32.5284 94.9616 35.4476 96.9881 39.4364L137.398 121.27C138.034 122.339 138.034 123.326 137.398 124.272C136.762 125.341 135.848 125.875 134.696 125.875H54.2731C53.3592 125.875 52.6437 125.547 52.0477 124.971C51.4914 124.354 51.1727 123.614 51.1727 122.668C51.1727 121.887 51.4517 121.188 52.0477 120.571C52.6437 119.954 53.3592 119.666 54.2731 119.666H129.888L91.7826 42.1918C90.2329 39.3955 88.6835 37.3394 87.0544 36.0235C85.465 34.7076 83.3578 34.0497 80.8148 34.0497C78.6293 34.0497 76.7232 34.7076 75.0544 36.0235C73.3855 37.3394 71.7156 39.4779 70.0468 42.3976L29.6774 124.066Z" fill="white"/>
</svg>
