<svg width="113" height="73" viewBox="0 0 113 73" fill="none" xmlns="http://www.w3.org/2000/svg">
<path fill-rule="evenodd" clip-rule="evenodd" d="M64.9651 63.1624C64.9651 69.2736 64.8151 71.0126 64.1651 71.907C63.4651 72.9503 63.0651 73 56.7651 73C51.0151 73 50.0151 72.9007 49.3151 72.1057C48.6151 71.3604 48.4651 69.6214 48.3651 60.7775L48.2151 50.3934L46.0651 50.2444C43.6151 50.0457 42.1151 48.4558 42.7151 46.6173C43.1151 45.3256 54.0651 25.6008 54.9651 24.5574C55.9151 23.4146 58.3151 23.6134 59.1651 24.9549C61.9151 29.1283 70.9651 46.1205 70.9651 47.0646C70.9651 49.8469 70.3651 50.145 64.7651 50.145C60.3651 50.145 59.5151 49.9959 58.7651 49.201C57.9151 48.3067 58.1151 46.7664 59.1651 46.0709C59.4651 45.8721 61.0151 45.6734 62.6151 45.6734H65.5651L63.6651 42.3445C62.6651 40.4565 60.7151 36.9785 59.3151 34.5937L56.8651 30.2214L52.6651 37.7736C50.3651 41.947 48.4651 45.425 48.4651 45.5243C48.4651 45.6236 49.1151 45.6734 49.9151 45.6734C52.8651 45.6734 52.9651 46.1702 52.9651 57.8959V68.5781L56.6151 68.429L60.2151 68.2799L60.3651 61.3241C60.5151 54.0701 60.6651 53.6229 62.8151 53.6229C64.6151 53.6229 64.9651 55.1135 64.9651 63.1624ZM43.5651 60.231C44.2651 61.3241 43.9651 63.0133 43.0151 63.5599C41.6651 64.2554 21.0651 64.1065 16.9651 63.3612C12.6651 62.5662 9.26511 60.7279 6.11512 57.4984C1.61512 52.8777 -0.484889 47.1142 0.165136 40.8042C1.26511 30.0724 9.46512 22.5202 20.4651 22.0234L24.6651 21.8247L26.0151 18.9927C27.7651 15.167 32.6651 9.006 34.2651 8.6085C35.5651 8.26073 37.4651 9.50285 37.4651 10.6456C37.4651 10.9934 36.2151 12.633 34.7151 14.3222C29.7651 19.8373 27.4651 25.7497 27.4651 32.954C27.4651 36.581 27.2651 37.8232 26.6651 38.4194C25.7151 39.4131 24.9151 39.4131 23.7151 38.5188C22.9151 37.9225 22.7651 37.1772 22.8151 32.0598L22.8651 26.2963H21.5151C16.8651 26.2963 10.2651 29.5756 7.76511 33.2025C2.76511 40.3571 3.76511 49.1513 10.2151 55.0141C14.6151 58.9889 15.7151 59.2373 30.4651 59.4858C39.4651 59.5851 43.3151 59.8335 43.5651 60.231ZM112.015 36.6804C115.715 48.6047 108.065 61.2247 95.7151 63.5102C91.9651 64.2058 71.0151 64.2058 69.8651 63.5102C68.9651 63.0133 68.6651 61.2743 69.3651 60.231C69.6151 59.8335 73.4651 59.5851 82.4651 59.4858C97.2151 59.2373 98.3151 58.9889 102.715 55.0141C106.665 51.4369 108.215 48.0085 108.165 42.9407C108.165 39.7609 107.915 38.4194 106.865 36.1835C104.515 31.1157 99.4651 27.3894 93.8651 26.5945C91.3151 26.197 85.5151 27.3894 83.7151 28.5819C82.2651 29.6252 80.1151 29.4265 79.4651 28.2837C78.7151 26.8925 79.5651 25.5013 81.9651 24.3089L83.9651 23.3152L82.7651 20.9303C80.8651 17.2537 77.1651 12.5833 74.4651 10.6456C65.9651 4.43503 54.3151 2.84514 45.5651 6.72057C44.0651 7.36638 42.4651 7.91296 41.9651 7.91296C40.7651 7.91296 39.8651 6.72057 40.0651 5.32938C40.2651 3.83883 44.2651 1.85144 49.3151 0.758403C64.2151 -2.47111 79.6151 4.83253 86.7151 18.4958L88.5151 22.0234L90.8651 21.8744C100.265 21.4272 109.165 27.6378 112.015 36.6804Z" fill="#1B0088"/>
</svg>
