<svg width="33" height="34" viewBox="0 0 33 34" fill="none" xmlns="http://www.w3.org/2000/svg">
<rect x="0.5" y="0.5" width="32" height="33" rx="16" fill="#E8114B"/>
<path d="M16.5 5.43843C10.3058 5.43843 5.2888 10.6122 5.2888 17C5.2888 23.3878 10.3058 28.5616 16.5 28.5616C22.6942 28.5616 27.7112 23.3878 27.7112 17C27.7112 10.6122 22.6942 5.43843 16.5 5.43843ZM16.5 2.5625C24.2358 2.5625 30.5 9.03697 30.5 17C30.5 24.963 24.2218 31.4375 16.5 31.4375C8.77829 31.4375 2.5 24.963 2.5 17C2.5 9.03697 8.76428 2.5625 16.5 2.5625Z" fill="white"/>
<path d="M7.52724 19.3785C7.5454 19.3065 7.60442 18.978 7.66797 18.645C7.72699 18.312 7.86319 17.592 7.96306 17.0475C8.06748 16.503 8.18098 15.8865 8.21729 15.675C8.25361 15.4635 8.40797 14.667 8.55324 13.8975C8.69852 13.1325 8.89373 12.0885 8.98453 11.58C9.07532 11.0715 9.15704 10.6215 9.17066 10.581C9.19336 10.5045 9.30232 10.5 10.6733 10.5H12.1488L12.2986 10.6485L12.4484 10.797L12.4802 12.03C12.4984 12.7095 12.5029 14.586 12.4984 16.1925C12.4802 19.4145 12.4984 19.221 12.1987 19.4145C12.0807 19.4955 11.9354 19.5 9.78808 19.5H7.5L7.52724 19.3785Z" fill="white"/>
<path d="M16.8885 10.5503C16.6977 10.5727 16.3551 10.6399 16.1295 10.7027C15.4573 10.8864 14.0825 11.3525 13.9176 11.4466C13.6835 11.5855 13.5707 11.7648 13.5273 12.0516C13.4709 12.4639 13.51 17.8416 13.5707 18.0746C13.6661 18.4421 13.8092 18.6752 14.2863 19.2577C14.707 19.7686 15.6655 21.0907 16.0732 21.7225C16.4158 22.2469 16.5372 22.5471 16.7107 23.2462C17.088 24.8058 17.3439 25.2808 17.8817 25.4422C18.6277 25.6662 19.1177 25.236 19.2782 24.2098C19.43 23.2731 19.2392 22.2514 18.645 20.7814C18.3111 19.9613 18.2937 19.8986 18.3197 19.7642C18.3414 19.6745 18.3935 19.6163 18.5062 19.5625C18.6493 19.4953 18.9313 19.4818 21.0304 19.4594L23.3941 19.437L23.5979 19.3115C24.3612 18.8499 24.3959 17.6937 23.6673 17.1963L23.4895 17.0753L23.6499 17.017C24.1574 16.8378 24.4957 16.3538 24.5 15.7981C24.5 15.5337 24.3742 15.1527 24.2268 14.969C24.1053 14.8166 23.6803 14.5298 23.5805 14.5298C23.4678 14.5298 23.4851 14.4536 23.6283 14.3461C23.6976 14.2923 23.8017 14.1579 23.8625 14.0413C24.1053 13.5798 24.0403 13.0689 23.6933 12.7103C23.4418 12.4459 23.2726 12.3787 22.8823 12.3787C22.7045 12.3787 22.5527 12.3653 22.5353 12.3518C22.5223 12.3384 22.5874 12.2488 22.6784 12.1546C23.1599 11.6572 22.9734 10.7968 22.3358 10.5637C22.1754 10.5055 21.8024 10.4965 19.6902 10.501C18.3414 10.5055 17.0793 10.5279 16.8885 10.5503Z" fill="white"/>
</svg>
