<svg width="150" height="47" viewBox="0 0 150 47" fill="none" xmlns="http://www.w3.org/2000/svg">
<path d="M120.774 11.081C119.821 14.7723 118.908 18.281 118.056 21.7897C117.874 22.5199 117.63 22.8647 116.799 22.7835C115.927 22.7024 115.035 22.743 114.162 22.7633C113.655 22.7835 113.513 22.6416 113.655 22.1345C114.893 17.4089 116.13 12.6833 117.346 7.95767C117.468 7.47091 117.671 7.30866 118.158 7.32894C119.435 7.3695 120.733 7.32894 122.011 7.34922C123.593 7.34922 123.999 7.63316 124.485 9.17457C125.215 11.4258 125.925 13.6568 126.635 15.9284C127.081 15.7458 127.061 15.3199 127.183 14.9954C127.994 12.6833 128.825 10.3509 129.596 8.01851C129.758 7.51147 129.961 7.32894 130.509 7.32894C131.786 7.3695 133.084 7.32894 134.362 7.34922C135.579 7.3695 136.207 7.8157 136.512 8.95147C137.688 13.5148 138.824 18.0985 140 22.7633C138.702 22.7633 137.445 22.743 136.207 22.7633C135.558 22.7835 135.68 22.2359 135.579 21.9114C134.666 18.5244 133.794 15.1374 132.902 11.7503C132.861 11.6286 132.821 11.507 132.78 11.3447C132.374 11.4461 132.415 11.8112 132.334 12.0546C131.442 14.4478 130.569 16.8613 129.718 19.2748C129.535 19.7819 129.312 19.9644 128.785 19.9441C127.568 19.9036 126.351 19.9238 125.134 19.9238C124.222 19.9238 123.633 19.5385 123.35 18.6055C122.64 16.3543 121.889 14.1233 121.139 11.8923C121.017 11.6692 120.936 11.4664 120.774 11.081Z" fill="white"/>
<path d="M111.668 22.7641C110.188 22.7641 108.869 22.7438 107.551 22.7844C107.064 22.8047 106.78 22.6222 106.679 22.176C106.213 20.1478 104.894 19.7016 102.968 19.9044C101.305 20.087 99.6011 19.9653 97.8975 19.9247C97.2891 19.9044 96.8429 20.0058 96.6807 20.6548C96.2345 22.5208 95.0379 23.1089 93.2127 22.8047C92.5231 22.683 91.8133 22.7844 91.1238 22.7844C90.9818 22.3991 91.2252 22.1557 91.3672 21.892C93.6386 17.3084 95.9506 12.7247 98.222 8.14107C98.5262 7.53262 98.8507 7.30952 99.5199 7.35009C100.595 7.41093 101.69 7.37037 102.765 7.37037C103.434 7.37037 103.961 7.61375 104.266 8.2222C106.679 12.9884 109.133 17.7951 111.668 22.7641ZM101.264 10.7168C100.331 12.7044 99.4794 14.4689 98.6479 16.2537C98.3842 16.8216 98.8507 16.7608 99.1752 16.7608C100.514 16.7608 101.872 16.7405 103.211 16.781C103.982 16.8013 103.961 16.5377 103.677 15.9698C102.887 14.3067 102.116 12.6233 101.264 10.7168Z" fill="white"/>
<path d="M73.2975 22.7636C71.8373 22.7636 70.5393 22.723 69.2616 22.7838C68.6938 22.8041 68.349 22.6419 68.2273 22.0943C67.8014 20.2284 66.6657 19.6808 64.7999 19.8836C62.9949 20.0661 61.1494 19.9444 59.3444 19.9039C58.8374 19.9039 58.4926 20.0255 58.371 20.5326C57.8842 22.4391 56.6877 23.1286 54.761 22.7636C54.112 22.6419 53.4225 22.7433 52.7735 22.7433C52.591 22.3579 52.8546 22.1146 52.9763 21.8712C55.268 17.2672 57.58 12.6633 59.8717 8.0391C60.1354 7.51177 60.4193 7.28868 61.0277 7.30896C62.0012 7.3698 62.9949 7.3698 63.9684 7.30896C65.0636 7.22783 65.7125 7.69431 66.1993 8.66783C68.1868 12.6836 70.2351 16.6588 72.2632 20.6543C72.5674 21.3236 72.9121 21.9726 73.2975 22.7636ZM62.9138 10.7163C61.9809 12.6836 61.1494 14.4481 60.3179 16.1923C60.1354 16.5574 60.0948 16.8008 60.6627 16.8008C62.1432 16.7805 63.6236 16.7805 65.1041 16.8008C65.672 16.8008 65.6111 16.5777 65.4286 16.1923C64.5971 14.4278 63.8062 12.6633 62.9138 10.7163Z" fill="white"/>
<path d="M82.1602 7.35024C85.0603 7.35024 87.9605 7.37052 90.8606 7.32996C91.469 7.32996 91.6515 7.47193 91.6718 8.10066C91.6921 10.4939 91.7124 10.4736 89.299 10.5953C87.9605 10.6561 86.6017 10.8184 85.2631 10.8184C84.3708 10.8387 84.1883 11.2037 84.1883 12.0353C84.2491 15.2804 84.1883 18.5254 84.2288 21.7502C84.2288 22.5006 84.1071 22.8454 83.2554 22.7643C82.4239 22.6832 81.5721 22.7034 80.7203 22.7643C80.051 22.8048 79.8888 22.5817 79.8888 21.9327C79.9293 18.566 79.8888 15.1789 79.9293 11.8122C79.9293 11.1226 79.7671 10.8792 79.0573 10.859C77.1712 10.7778 75.2851 10.5953 73.399 10.5142C72.6283 10.4939 72.4661 10.1897 72.4864 9.47981C72.5269 7.35024 72.4864 7.35024 74.6564 7.35024C77.1712 7.35024 79.6657 7.35024 82.1602 7.35024Z" fill="white"/>
<path d="M26.774 7.97803C26.774 8.95155 26.7943 10.0265 26.774 11.1217C26.7537 11.9735 26.3684 12.5211 25.4963 12.8253C19.3513 15.0158 13.2063 17.2467 7.08157 19.4777C6.41231 19.7211 5.8039 19.7617 5.13464 19.498C3.55275 18.8693 1.9303 18.3014 0.165894 17.6524C9.15019 14.387 17.952 11.1825 26.774 7.97803Z" fill="white"/>
<path d="M51.1309 19.1335C50.5427 20.3099 50.0154 21.3645 49.5287 22.4192C49.3462 22.7842 49.0622 22.7437 48.758 22.7437C44.8439 22.7437 40.9297 22.7437 37.0156 22.7639C36.468 22.7639 36.3463 22.5814 36.3463 22.0744C36.3666 17.3893 36.3666 12.684 36.3463 7.99891C36.3463 7.43103 36.5491 7.30934 37.0561 7.3499C38.2932 7.43103 39.5304 7.22821 40.7675 7.47159C40.7878 8.64792 40.8283 9.82426 40.8283 11.0006C40.8283 13.3938 40.8689 15.7871 40.808 18.2006C40.7878 19.0321 41.0717 19.1944 41.8221 19.1741C44.8642 19.1132 47.886 19.1335 51.1309 19.1335Z" fill="white"/>
<path d="M6.31036 27.4286C6.31036 26.1306 6.35092 24.8731 6.29008 23.6359C6.2698 22.9058 6.83766 22.9464 7.22299 22.8044C13.003 20.6951 18.8032 18.6061 24.6034 16.5171C25.3335 16.2534 26.0231 15.9289 26.7532 15.4219C26.7532 16.7199 26.7938 17.9165 26.7329 19.0929C26.7126 19.7824 26.3273 20.2489 25.6378 20.5126C19.3711 22.7638 13.1044 25.0557 6.85794 27.3272C6.69569 27.3678 6.53345 27.388 6.31036 27.4286Z" fill="white"/>
<path d="M26.2058 7.04553C25.6988 7.69455 24.8673 7.79595 24.198 8.16102C21.5818 9.56046 19.0873 9.51989 16.3697 8.22187C13.9158 7.04553 11.259 6.3154 8.70366 5.36216C6.63504 4.61174 6.31055 4.12498 6.31055 1.95484C6.31055 -0.3167 6.31055 -0.296418 8.41973 0.454002C14.0172 2.48217 19.6146 4.51033 25.2323 6.55877C25.5568 6.70075 25.9422 6.74131 26.2058 7.04553Z" fill="#E8114C"/>
<path d="M16.2279 11.0205C14.0173 11.8115 12.0501 12.5214 10.1031 13.2515C9.7178 13.3935 9.39331 13.3124 9.04854 13.1907C6.71628 12.3388 4.36373 11.487 2.03146 10.6149C0.409013 10.0064 0.0236816 9.41828 0.0236816 7.65378C0.0236816 5.07801 0.0236819 5.09829 2.43707 5.9704C6.7974 7.55237 11.1577 9.15462 15.4978 10.7366C15.66 10.7974 15.802 10.8583 16.2279 11.0205Z" fill="#E8114C"/>
<path d="M6.31055 35.1148C6.31055 33.6951 6.33083 32.2551 6.31055 30.8151C6.31055 30.4095 6.55391 30.3284 6.85812 30.227C9.81909 29.152 12.8003 28.0974 15.741 26.9819C16.532 26.6777 16.7753 27.0428 16.8159 27.6512C16.8767 28.4827 16.8565 29.3346 16.8159 30.1864C16.7956 31.1194 16.3494 31.6872 15.3962 32.0118C12.6178 32.9447 9.85965 33.9791 7.08121 34.9932C6.83784 35.0743 6.63504 35.1757 6.31055 35.1148Z" fill="white"/>
<path d="M71.6757 42.8426C70.4791 43.1468 69.7287 42.8629 69.3028 41.8488C69.2623 41.7271 69.1406 41.6257 69.0798 41.504C68.5525 40.206 67.5993 39.7192 66.2202 39.9626C65.6118 40.064 64.9831 39.9423 64.4355 39.699C63.7662 39.415 63.7054 39.7192 63.7257 40.2669C63.746 40.9361 63.6851 41.6257 63.746 42.295C63.7865 42.9035 63.4823 42.9643 63.0159 42.9237C62.59 42.9035 62.1438 43.0252 62.1438 42.295C62.1641 39.4353 62.1641 36.5553 62.1641 33.6956C62.1641 33.3711 62.1641 33.0669 62.6102 33.0872C64.7194 33.1683 66.8692 32.8843 68.9784 33.2494C70.3777 33.4725 71.4729 34.1824 71.7568 35.6629C72.0407 37.1435 71.4323 38.3198 70.1749 39.1108C69.6273 39.4556 69.6071 39.6787 69.9518 40.1654C70.5602 41.0376 71.0875 41.9299 71.6757 42.8426ZM63.746 36.17C63.746 36.6162 63.7662 37.0421 63.746 37.4883C63.7257 37.7925 63.8068 38.0156 64.111 38.1373C65.774 38.7863 67.4573 38.9283 69.1 38.1373C69.9315 37.7316 70.3372 37.0015 70.1952 36.0483C70.0532 35.1153 69.4042 34.7097 68.5525 34.5069C67.5587 34.2838 66.5447 34.3649 65.5307 34.3649C63.746 34.3446 63.746 34.3649 63.746 36.17Z" fill="white"/>
<path d="M108.139 40.7739C108.139 38.3604 108.159 36.2105 108.119 34.0404C108.099 33.4117 108.281 33.2494 108.91 33.2291C109.579 33.2291 109.68 33.4725 109.68 34.0607C109.66 36.6567 109.68 39.2528 109.66 41.8691C109.66 42.2342 109.924 42.7818 109.376 42.9237C108.829 43.0454 108.22 43.086 107.774 42.579C107.145 41.8691 106.517 41.1592 105.908 40.4494C104.407 38.7457 102.907 37.0421 101.203 35.1153C101.203 37.6505 101.163 39.8815 101.223 42.1328C101.244 42.9237 100.899 43.0049 100.27 42.9846C99.8241 42.9643 99.6821 42.8021 99.6821 42.3761C99.7024 39.5367 99.6821 36.6973 99.6821 33.8579C99.6821 33.6348 99.601 33.29 99.9255 33.29C100.534 33.29 101.183 33.0466 101.71 33.655C103.333 35.5007 104.996 37.326 106.659 39.1514C107.085 39.6178 107.531 40.0843 108.139 40.7739Z" fill="white"/>
<path d="M117.062 38.0559C117.062 36.6767 117.083 35.2773 117.062 33.8982C117.062 33.4114 117.184 33.2491 117.691 33.2491C119.821 33.2694 121.95 33.2694 124.079 33.2491C124.627 33.2491 124.749 33.4114 124.769 33.9387C124.789 34.5472 124.485 34.5675 124.039 34.5675C122.477 34.5472 120.936 34.5877 119.374 34.5472C118.867 34.5472 118.685 34.6689 118.685 35.2165C118.644 37.1432 118.624 37.1432 120.53 37.1432C121.504 37.1432 122.498 37.1635 123.471 37.1432C123.978 37.1229 124.181 37.2649 124.181 37.8125C124.181 38.3804 124.019 38.5832 123.43 38.5629C122.072 38.5224 120.733 38.5832 119.374 38.5427C118.847 38.5224 118.705 38.6846 118.685 39.2119C118.624 41.4429 118.604 41.4429 120.855 41.4429C122.011 41.4429 123.147 41.4835 124.303 41.4226C124.972 41.4024 124.972 41.7472 124.972 42.2339C124.992 42.741 124.85 42.964 124.303 42.9438C122.112 42.9235 119.922 42.9235 117.711 42.9438C117.204 42.9438 117.083 42.7612 117.083 42.2745C117.083 40.875 117.062 39.4756 117.062 38.0559Z" fill="white"/>
<path d="M136.005 33.0678C136.918 33.0273 137.81 33.2098 138.702 33.4329C139.27 33.5749 139.25 33.8183 139.169 34.2847C139.067 34.8932 138.743 34.8323 138.317 34.7107C137.1 34.3861 135.863 34.2645 134.626 34.5281C133.957 34.6701 133.267 34.8932 133.206 35.745C133.166 36.6374 133.876 36.8199 134.545 36.9822C135.66 37.2459 136.796 37.4487 137.871 37.7935C139.25 38.2397 139.96 39.132 139.939 40.2273C139.919 41.3833 139.169 42.296 137.769 42.7219C135.863 43.2898 133.977 43.1072 132.111 42.4988C131.219 42.2149 131.706 41.7078 131.787 41.2413C131.929 40.4909 132.334 41.0182 132.578 41.0994C133.896 41.647 135.255 41.7281 136.654 41.5861C136.978 41.5456 137.323 41.4442 137.607 41.3022C138.54 40.8357 138.601 39.9028 137.709 39.3146C136.978 38.8278 136.127 38.7467 135.315 38.5844C134.585 38.4425 133.876 38.2802 133.186 37.9963C132.355 37.6515 131.746 37.1444 131.645 36.1709C131.543 35.1163 131.949 34.3253 132.821 33.7777C133.774 33.1692 134.869 33.007 136.005 33.0678Z" fill="white"/>
<path d="M46.6286 42.8221C45.5537 43.2074 44.8845 42.9032 44.6005 41.8688C44.2761 40.7128 43.5865 40.2057 42.3291 40.3883C41.2745 40.5303 40.1794 40.4491 39.1045 40.4086C38.5569 40.3883 38.2324 40.5303 38.0296 41.0779C37.8471 41.5849 37.5835 42.0514 37.3604 42.5381C37.0156 43.2683 36.3666 42.9235 35.8393 42.9235C35.5757 42.9235 35.7176 42.599 35.7785 42.4367C37.2184 39.5162 38.638 36.5753 40.0982 33.6548C40.4633 32.9246 41.8829 33.1477 42.3088 33.9793C43.1606 35.6627 43.9718 37.346 44.8033 39.0497C45.4118 40.2869 45.9999 41.5443 46.6286 42.8221ZM38.9625 39.0497C40.4633 39.0497 41.7815 39.0497 43.262 39.0497C42.5319 37.5489 41.8424 36.1697 41.1123 34.6689C40.3619 36.1697 39.6926 37.5489 38.9625 39.0497Z" fill="white"/>
<path d="M78.1852 38.0766C78.1852 36.6975 78.2258 35.3183 78.1649 33.9189C78.1446 33.2293 78.4894 33.2496 78.9761 33.2496C79.4426 33.2496 79.8076 33.209 79.7874 33.8986C79.7468 36.1499 79.7874 38.4214 79.7468 40.6727C79.7265 41.3825 79.9496 41.6056 80.6594 41.5853C81.9777 41.5245 83.2959 41.5853 84.6141 41.5651C85.1009 41.5651 85.3442 41.6462 85.3442 42.2141C85.3442 42.782 85.182 42.9848 84.5939 42.9645C82.7078 42.9239 80.8217 42.9239 78.9356 42.9645C78.3474 42.9645 78.1852 42.782 78.1852 42.2141C78.2055 40.8349 78.1852 39.4558 78.1852 38.0766Z" fill="white"/>
<path d="M6.31055 40.4888C6.31055 38.1564 6.31055 38.1564 8.52113 37.3451C8.90646 37.2032 9.27151 37.0815 9.65684 36.9395C10.752 36.5542 10.9345 36.6961 10.9548 37.8725C10.9954 42.0505 10.9548 41.2189 7.85187 42.4156C6.33083 43.0037 6.31055 42.9834 6.31055 41.3812C6.31055 41.0972 6.31055 40.793 6.31055 40.4888Z" fill="white"/>
<path d="M90.7587 37.9754C90.7587 36.6368 90.7993 35.2779 90.7384 33.9393C90.7182 33.27 91.0427 33.2497 91.5294 33.27C91.9756 33.2903 92.3609 33.1889 92.3609 33.8988C92.3203 36.6976 92.3203 39.4965 92.3609 42.2751C92.3609 42.9038 92.1175 42.9849 91.5902 42.9849C91.0224 42.9849 90.7182 42.9038 90.7587 42.2142C90.7993 40.7945 90.7587 39.3748 90.7587 37.9754Z" fill="white"/>
<path d="M53.24 38.096C53.24 36.7168 53.2806 35.3377 53.2197 33.9585C53.1792 33.2081 53.5848 33.269 54.0918 33.2487C54.6394 33.2081 54.8422 33.3704 54.8422 33.9585C54.8016 36.7168 54.8016 39.4751 54.8422 42.2334C54.8422 42.8216 54.6596 42.9839 54.0918 42.9636C53.5645 42.9433 53.1994 42.9433 53.2197 42.2334C53.2806 40.8543 53.24 39.4751 53.24 38.096Z" fill="white"/>
<path d="M26.2466 14.7105C25.8816 15.2378 25.334 15.4406 24.8067 15.6434C23.8941 15.9882 22.9409 16.2316 22.0688 16.6575C20.6695 17.3471 19.3715 17.1848 17.9722 16.3127C19.696 15.684 21.3996 15.1364 23.022 14.4265C24.2186 13.9195 25.2123 14.0614 26.2466 14.7105Z" fill="#E8114C"/>
<path d="M5.66168 14.8541C3.89727 15.4828 2.41679 16.0304 0.936308 16.5578C0.32789 16.7809 -0.0371599 16.6592 0.00340126 15.9088C0.0439624 15.1583 0.0439624 14.4282 0.00340126 13.6778C-0.0371599 12.9476 0.28733 12.8665 0.855186 13.0896C2.37623 13.6372 3.87699 14.1848 5.66168 14.8541Z" fill="#E8114C"/>
</svg>
