<svg width="28" height="28" viewBox="0 0 28 28" fill="none" xmlns="http://www.w3.org/2000/svg">
<path d="M13.9719 5.59158C12.3323 5.59158 11.015 6.06809 10.006 7.02104C8.99703 7.974 8.46445 9.13713 8.38036 10.4965L11.1271 10.8609C11.3233 9.90792 11.6737 9.19317 12.1782 8.73071C12.6827 8.26825 13.3273 8.03001 14.0841 8.03001C14.8689 8.03001 15.4995 8.25421 15.962 8.70266C16.4245 9.1511 16.6627 9.68367 16.6627 10.3143C16.6627 10.7628 16.5365 11.1692 16.2703 11.5475C16.1441 11.7157 15.8639 12.01 15.4014 12.4304L14.3923 13.3274C13.6916 13.972 13.2152 14.5746 12.963 15.1072C12.6687 15.7238 12.5846 16.4804 12.5846 17.4334V18.2042H15.4014C15.3874 17.3213 15.3874 16.6206 15.5415 16.2703C15.6957 15.9199 16.018 15.5555 16.6487 14.9949L17.2793 14.4205C18.1482 13.5937 18.7367 12.9209 19.045 12.4024C19.4234 11.7717 19.6056 11.0992 19.6056 10.3844C19.6056 9.10917 19.1011 7.974 18.078 7.02104C17.069 6.0821 15.6957 5.59158 13.9719 5.59158ZM15.4014 19.6056H12.5986V22.4084H15.4014V19.6056ZM14 0C21.7357 0 28 6.27827 28 14C28 21.7217 21.7217 28 14 28C6.27827 28 0 21.7217 0 14C0 6.27827 6.26426 0 14 0Z" fill="#4D4D4D"/>
</svg>
