<svg width="46" height="47" viewBox="0 0 46 47" fill="none" xmlns="http://www.w3.org/2000/svg">
<rect width="46" height="46.2162" rx="23" fill="#E7E7EB"/>
<path d="M30.1773 28.9642C30.274 28.8669 30.2743 28.71 30.178 28.6124L24.7474 23.1084L30.1778 17.6143C30.274 17.517 30.2741 17.3604 30.178 17.263L28.772 15.8381C28.725 15.7905 28.6609 15.7637 28.5941 15.7637C28.5272 15.7637 28.4631 15.7905 28.4161 15.8381L22.9903 21.3372L17.5742 15.8382C17.5271 15.7905 17.4628 15.7636 17.3957 15.7637C17.3286 15.7638 17.2644 15.7908 17.2175 15.8387L15.8214 17.2636C15.726 17.3611 15.7262 17.5171 15.822 17.6142L21.243 23.1084L15.8219 28.6125C15.726 28.7099 15.726 28.8662 15.822 28.9635L17.2181 30.3784C17.265 30.426 17.3291 30.4528 17.3959 30.4529C17.4628 30.4529 17.5268 30.4261 17.5738 30.3786L22.9998 24.889L28.4161 30.3784C28.463 30.426 28.5269 30.4527 28.5936 30.4529C28.6604 30.453 28.7244 30.4264 28.7714 30.3791L30.1773 28.9642Z" fill="#303030" stroke="#303030" stroke-width="0.5" stroke-linejoin="round"/>
</svg>
