<svg width="18" height="27" viewBox="0 0 18 27" fill="none" xmlns="http://www.w3.org/2000/svg">
<path d="M7.68649 5.46553C8.23135 5.25148 8.65946 5.25148 9.00973 5.48499C9.36 5.7185 9.53514 6.12715 9.53514 6.71093V13.6385L15.8789 14.6893C17.28 14.9812 18 15.8763 18 17.3942V26.0731C18 26.2482 17.9416 26.3844 17.8443 26.4817C17.7276 26.5985 17.5914 26.6374 17.4162 26.6374C17.2605 26.6374 17.1438 26.579 17.027 26.4817C16.9103 26.365 16.8714 26.2288 16.8714 26.0731V17.3942C16.8714 16.9272 16.7741 16.5769 16.6184 16.3434C16.4432 16.1099 16.1319 15.9153 15.6649 15.7985L8.89297 14.7088C8.58162 14.6115 8.42595 14.4169 8.42595 14.125V6.69148C8.42595 6.49688 8.32865 6.4385 8.13405 6.51634L5.6627 7.50877C5.48757 7.54769 5.40973 7.68391 5.40973 7.91742V19.1844C5.40973 19.3207 5.35135 19.4569 5.25405 19.5736C5.1373 19.6904 5.00108 19.7293 4.82595 19.7293C4.65081 19.7293 4.51459 19.6709 4.4173 19.5736C4.32 19.4569 4.28108 19.3401 4.28108 19.1844V7.80066C4.28108 7.13904 4.61189 6.69147 5.29297 6.41904L7.70595 5.46553H7.68649ZM2.2573 9.3185C2.00432 9.3185 1.84865 9.22121 1.75135 8.98769C1.40108 8.28715 1.24541 7.48931 1.24541 6.61364C1.24541 5.03742 1.80973 3.67526 2.91892 2.54661C4.04757 1.41796 5.39027 0.853638 6.96649 0.853638C8.5427 0.853638 9.90487 1.41796 11.0335 2.54661C12.1622 3.67526 12.7265 5.03742 12.7265 6.61364C12.7265 7.41148 12.5514 8.18985 12.2205 8.94877C12.0454 9.26012 11.7924 9.35742 11.4616 9.24067C11.3449 9.16283 11.2476 9.06553 11.1892 8.90985C11.1308 8.77364 11.1308 8.61796 11.1892 8.46229C11.4616 7.85904 11.5978 7.23634 11.5978 6.59418C11.5978 5.7185 11.3838 4.92066 10.9362 4.20066C10.5081 3.48066 9.92432 2.9358 9.22378 2.54661C8.52324 2.15742 7.76432 1.96283 6.96649 1.96283C5.70162 1.96283 4.63135 2.41039 3.71676 3.30553C2.82162 4.20066 2.37405 5.29039 2.37405 6.59418C2.37405 7.19742 2.51027 7.83958 2.76324 8.48175C2.84108 8.61796 2.84108 8.77364 2.76324 8.90985C2.70486 9.06553 2.60757 9.14337 2.45189 9.20175C2.43243 9.22121 2.39351 9.24066 2.35459 9.26012C2.31568 9.26012 2.27676 9.26012 2.21838 9.26012M5.25405 26.6374C5.07892 26.6374 4.9427 26.579 4.82595 26.4817C4.70919 26.365 4.67027 26.2288 4.67027 26.0731V24.4385L0.252973 21.6169C0.0778378 21.5001 0 21.3444 0 21.1499V14.378C0 14.2028 0.0583784 14.0666 0.155676 13.9499C0.272432 13.8331 0.408649 13.7942 0.583784 13.7942C0.73946 13.7942 0.856216 13.8526 0.972973 13.9499C1.08973 14.0666 1.12865 14.2028 1.12865 14.378V20.858L5.54595 23.6212C5.72108 23.7185 5.79892 23.8742 5.79892 24.0882V26.0536C5.79892 26.2288 5.74054 26.365 5.64324 26.4623C5.52649 26.579 5.40973 26.618 5.25405 26.618" fill="white"/>
</svg>
