<svg width="30" height="30" viewBox="0 0 30 30" fill="none" xmlns="http://www.w3.org/2000/svg">
<path fill-rule="evenodd" clip-rule="evenodd" d="M5 0C2.23858 0 0 2.23858 0 5V25C0 27.7614 2.23858 30 5 30H25C27.7614 30 30 27.7614 30 25V5C30 2.23858 27.7614 0 25 0H5ZM19.2705 4.59548C18.5102 4.2666 17.6272 4.61639 17.2983 5.37674L9.59544 23.1858C9.26657 23.9462 9.61635 24.8292 10.3767 25.158C11.1371 25.4869 12.02 25.1371 12.3489 24.3768L20.0518 6.56769C20.3807 5.80734 20.0309 4.92435 19.2705 4.59548Z" fill="#1B0088"/>
</svg>
