<svg width="30" height="30" viewBox="0 0 30 30" fill="none" xmlns="http://www.w3.org/2000/svg">
<path fill-rule="evenodd" clip-rule="evenodd" d="M5 0C2.23853 0 0 2.23828 0 5V25C0 27.7617 2.23853 30 5 30H25C27.7615 30 30 27.7617 30 25V5C30 2.23828 27.7615 0 25 0H5ZM17.891 4.69531C17.6365 4.84961 17.4258 5.08203 17.2983 5.37695L9.59546 23.1855C9.2666 23.9453 9.61633 24.8301 10.3767 25.1582C11.1371 25.4863 12.02 25.1367 12.3489 24.377L20.0518 6.56836C20.3806 5.80664 20.0309 4.92383 19.2705 4.5957C18.8048 4.39453 18.2931 4.44922 17.891 4.69531Z" fill="#303030"/>
</svg>
