<?xml version="1.0" encoding="UTF-8"?>
<svg version="1.1" xmlns="http://www.w3.org/2000/svg" width="265" height="265">
<path d="M0 0 C23.17933827 20.02178135 40.06701736 51.99066591 43.0859375 82.6171875 C45.59688202 124.47883557 35.05738426 159.17846956 7.5234375 191.0546875 C-14.0414324 214.20691766 -46.95421605 230.5807273 -78.73722839 231.93095398 C-119.22053179 233.2703042 -153.81034206 221.70763028 -183.6875 193.87890625 C-209.61513514 167.5418874 -222.5301772 133.48762093 -222.40670776 96.94015503 C-222.03864416 60.99092223 -207.58322697 27.88734941 -181.9140625 2.6171875 C-128.69110839 -45.29164677 -54.5948606 -44.64191014 0 0 Z " fill="#273849" transform="translate(221.9140625,33.3828125)"/>
<path d="M0 0 C10.68525057 0.03950185 20.69632188 2.3135525 31.05200195 4.74072266 C36.47412493 6.00933643 41.8497871 7.17396198 47.35546875 8.01953125 C58.22946521 9.75625051 68.26285543 14.31322128 77 21 C78.546875 22.0828125 78.546875 22.0828125 80.125 23.1875 C86.8784238 29.03795905 90.65344633 37.58001331 93 46 C93.66 46 94.32 46 95 46 C95.020625 45.071875 95.04125 44.14375 95.0625 43.1875 C96.61388301 32.66784807 106.16149501 23.41153819 114.26953125 17.28515625 C123.86501112 11.03138579 134.94648388 8.0410332 146.19921875 6.59765625 C152.27719783 5.64192059 158.23790706 4.1797526 164.22290039 2.76367188 C171.80587239 0.98405687 179.18376165 -0.52991446 187 0 C187.99 1.485 187.99 1.485 189 3 C181.76664203 4.77482571 174.53042126 6.31252561 167.19921875 7.61328125 C166.0414946 7.82112747 166.0414946 7.82112747 164.86038208 8.03317261 C161.67534196 8.60444335 158.49041949 9.17491533 155.30102539 9.72143555 C139.88610185 12.37634227 125.4071245 15.96971927 113 26 C112.14535156 26.63035156 112.14535156 26.63035156 111.2734375 27.2734375 C103.91131483 32.89885431 99.81699469 40.75799377 96 49 C96.99 49 97.98 49 99 49 C100.51648766 47.40244858 100.51648766 47.40244858 101.875 45.3125 C104.34488215 41.85951979 106.87405472 38.89721758 110 36 C110.50015625 35.52949219 111.0003125 35.05898437 111.515625 34.57421875 C127.72335859 19.91909515 148.31654954 17.62469686 169.0300293 14.49316406 C171.40574546 14.09867605 173.67067603 13.59159928 176 13 C180.44329073 12.51313423 182.32808414 12.52105351 186.01953125 15.15234375 C186.94121094 16.07144531 187.86289063 16.99054688 188.8125 17.9375 C192.10908666 21.38031882 192.10908666 21.38031882 196 24 C196 24.66 196 25.32 196 26 C194.42557871 26.18638692 192.8511349 26.37258456 191.27661133 26.55810547 C189.81013454 26.73149351 188.34383187 26.90635898 186.87768555 27.08251953 C182.11356007 27.65046671 177.34743712 28.17413268 172.57421875 28.66015625 C149.33710418 31.07435807 129.6115142 35.880987 112 52 C115.52710573 52 118.44730823 49.55318208 121.4375 47.8125 C139.89268545 37.27197974 156.93103574 33.46061464 178 31.375 C179.91425781 31.17390625 179.91425781 31.17390625 181.8671875 30.96875 C202.75199638 28.87599819 202.75199638 28.87599819 207 31 C207 31.66 207 32.32 207 33 C196.71100463 34.75719685 186.56555313 36.1841637 176.125 36.5625 C155.15049626 37.38038335 133.83540305 41.73420758 116.7109375 54.73828125 C115 56 115 56 113 56 C113 56.66 113 57.32 113 58 C110.30573413 57.52454132 107.87306564 56.95191601 105.30859375 55.98046875 C101.54740113 54.86587684 98.074212 54.65743499 94.1875 54.6875 C93.48407471 54.68951416 92.78064941 54.69152832 92.0559082 54.69360352 C86.53249622 54.79990867 82.01256923 55.7760325 77 58 C75.515 58.495 75.515 58.495 74 59 C73.67 58.01 73.34 57.02 73 56 C70.91348343 54.57723977 68.89221091 53.33596904 66.6875 52.125 C66.05231445 51.77203857 65.41712891 51.41907715 64.76269531 51.05541992 C58.99946736 47.9081099 53.19556104 45.19890416 47 43 C45.17082031 42.33484375 45.17082031 42.33484375 43.3046875 41.65625 C32.39379869 38.01841311 21.5958563 37.26720536 10.15625 36.67163086 C-0.05689215 36.13310795 -9.95745327 34.89720656 -20 33 C-19.67 32.01 -19.34 31.02 -19 30 C-12.26079133 29.78605687 -5.77450497 30.30076949 0.90063477 31.14794922 C6.08863271 31.79820985 11.27616802 32.30960087 16.48583984 32.75366211 C37.12593081 34.5134941 57.51236896 39.5179267 74 53 C74.33 52.67 74.66 52.34 75 52 C69.62447977 47.47738068 64.35204312 43.35181228 58.10546875 40.10546875 C56 39 56 39 53.75390625 37.51953125 C50.23081669 35.57558538 46.61719552 34.51541795 42.75 33.5 C41.93297607 33.28496826 41.11595215 33.06993652 40.27416992 32.84838867 C30.28635769 30.37538441 20.12123497 29.36643061 9.90527344 28.30859375 C5.74195785 27.86637267 1.5901034 27.34476265 -2.5625 26.8125 C-3.82191406 26.65394531 -5.08132812 26.49539062 -6.37890625 26.33203125 C-7.24386719 26.22246094 -8.10882813 26.11289063 -9 26 C-9 24 -9 24 -7.42578125 22.4140625 C-6.72839844 21.82367188 -6.03101563 21.23328125 -5.3125 20.625 C-4.62800781 20.03976563 -3.94351563 19.45453125 -3.23828125 18.8515625 C-2.49964844 18.24054688 -1.76101562 17.62953125 -1 17 C-0.24074219 16.25492188 0.51851562 15.50984375 1.30078125 14.7421875 C4.87898774 12.43266493 7.48724292 12.83748101 11.5 13.5 C12.22832031 13.603125 12.95664062 13.70625 13.70703125 13.8125 C67.94069631 21.83361349 67.94069631 21.83361349 84.84765625 43.3515625 C85.84310795 44.73590073 86.81381176 46.13876249 87.74609375 47.56640625 C88.15988281 48.03949219 88.57367188 48.51257813 89 49 C89.99 49 90.98 49 92 49 C85.17416244 34.36909081 75.5495534 24.71517849 61 18 C60.32678711 17.67580078 59.65357422 17.35160156 58.95996094 17.01757812 C50.78375785 13.38758085 42.1204906 12.07746944 33.375 10.5 C30.27741802 9.93356651 27.18114413 9.36052166 24.0859375 8.78125 C23.33294373 8.64066162 22.57994995 8.50007324 21.80413818 8.35522461 C14.1215752 6.88857415 6.56090137 4.99209377 -1 3 C-0.67 2.01 -0.34 1.02 0 0 Z " fill="#DDA46A" transform="translate(36,146)"/>
<path d="M0 0 C0 0.33 0 0.66 0 1 C4.95 0.505 4.95 0.505 10 0 C10 1.65 10 3.3 10 5 C8.13794922 5.39832031 8.13794922 5.39832031 6.23828125 5.8046875 C0.50934085 7.07977032 -5.14833337 8.59067582 -10.8125 10.125 C-11.93760986 10.42849365 -13.06271973 10.7319873 -14.22192383 11.04467773 C-23.74407945 13.62788214 -33.22620976 16.342905 -42.70581055 19.07739258 C-51.22643051 21.52370631 -59.77658584 23.82527977 -68.36791992 26.01000977 C-73.56311178 27.33591414 -78.68289286 28.79212093 -83.78662109 30.43823242 C-86 31 -86 31 -90 31 C-90 34.3 -90 37.6 -90 41 C-101.64082208 47.12674846 -110.83466434 48.45371493 -123.5546875 44.94921875 C-126.19706119 43.923505 -127.9866109 43.0041108 -130 41 C-130.390625 38.73828125 -130.390625 38.73828125 -130.25 36.3125 C-130.21390625 35.50425781 -130.1778125 34.69601563 -130.140625 33.86328125 C-130.09421875 33.24839844 -130.0478125 32.63351563 -130 32 C-130.969375 31.75765625 -131.93875 31.5153125 -132.9375 31.265625 C-140.9375 29.265625 -140.9375 29.265625 -143.26147461 28.68334961 C-145.30578285 28.17322937 -147.35102098 27.66683296 -149.39672852 27.16235352 C-159.70518774 24.60921718 -169.97270934 21.91548796 -180.22973633 19.16333008 C-182.95770987 18.43208264 -185.68683437 17.70524089 -188.41601562 16.97851562 C-190.18236316 16.50547523 -191.94864173 16.03217719 -193.71484375 15.55859375 C-194.51502426 15.34601425 -195.31520477 15.13343475 -196.13963318 14.91441345 C-200.80285949 13.6578401 -205.38017818 12.24833489 -209.94378662 10.66662598 C-214.01223854 9.3476307 -218.2166984 8.49969715 -222.40039062 7.62695312 C-226.71923402 6.63157842 -229.1914016 5.45840266 -232 2 C-228.09366863 0.69788954 -225.80461827 1.52187654 -221.8125 2.4375 C-220.54019531 2.72496094 -219.26789063 3.01242188 -217.95703125 3.30859375 C-216.49330078 3.65083984 -216.49330078 3.65083984 -215 4 C-214.67 3.01 -214.34 2.02 -214 1 C-212.80890625 1.15082031 -211.6178125 1.30164063 -210.390625 1.45703125 C-206.35997902 1.90776508 -202.34856311 2.14887258 -198.296875 2.32421875 C-176.20735844 3.33293923 -157.39982433 7.06924916 -138 18 C-137.08863281 18.50015625 -136.17726563 19.0003125 -135.23828125 19.515625 C-133 20.8125 -133 20.8125 -130 23 C-130 23.99 -130 24.98 -130 26 C-128.948125 25.360625 -127.89625 24.72125 -126.8125 24.0625 C-119.67115679 19.72168354 -110.11405596 20.17046684 -102 21 C-98.14255666 21.98809231 -94.59458916 23.29409328 -91 25 C-91 24.34 -91 23.68 -91 23 C-72.37323118 9.12560884 -50.4891764 3.37870496 -27.625 2.5625 C-20.98607088 2.29383256 -14.62190596 1.810143 -8.109375 0.41015625 C-5.38641765 -0.11930768 -2.76398724 -0.14940472 0 0 Z " fill="#2B3C4A" transform="translate(240,179)"/>
<path d="M0 0 C4.50698341 1.10375104 6.68131205 3.86263895 9.0625 7.75 C11.65000819 13.59164083 11.42095903 19.46164017 11.46875 25.734375 C11.48015015 26.90397766 11.49155029 28.07358032 11.5032959 29.27862549 C11.52216673 31.75651454 11.53525229 34.23445345 11.54296875 36.71240234 C11.56222114 40.44592168 11.62422051 44.17716083 11.6875 47.91015625 C11.83575783 64.71551858 9.79809309 77.76011385 2.0625 92.75 C1.7325 92.75 1.4025 92.75 1.0625 92.75 C1.1346875 92.18796875 1.206875 91.6259375 1.28125 91.046875 C2.01284012 84.42192006 2.17322736 77.84568599 2.1875 71.1875 C2.19201172 70.29450195 2.19652344 69.40150391 2.20117188 68.48144531 C2.19923828 67.6406543 2.19730469 66.79986328 2.1953125 65.93359375 C2.19418457 65.17618896 2.19305664 64.41878418 2.19189453 63.63842773 C2.17810907 61.66036404 2.17810907 61.66036404 1.0625 59.75 C0.90983388 58.01131256 0.81317404 56.26752499 0.74609375 54.5234375 C0.70419922 53.4921875 0.66230469 52.4609375 0.61914062 51.3984375 C0.57982422 50.31820312 0.54050781 49.23796875 0.5 48.125 C0.45681641 47.03703125 0.41363281 45.9490625 0.36914062 44.828125 C0.2628547 42.1355483 0.16081943 39.44287747 0.0625 36.75 C0.03744385 37.39549805 0.0123877 38.04099609 -0.01342773 38.70605469 C-0.12964433 41.63755894 -0.25225442 44.56876217 -0.375 47.5 C-0.41431641 48.51578125 -0.45363281 49.5315625 -0.49414062 50.578125 C-0.53603516 51.5578125 -0.57792969 52.5375 -0.62109375 53.546875 C-0.67608032 54.89797363 -0.67608032 54.89797363 -0.73217773 56.27636719 C-0.92134218 58.55533766 -1.37926829 60.54162309 -1.9375 62.75 C-2.02597498 64.12286455 -2.06809156 65.49928928 -2.0703125 66.875 C-2.07224609 67.6589917 -2.07417969 68.4429834 -2.07617188 69.25073242 C-2.07166016 70.07549072 -2.06714844 70.90024902 -2.0625 71.75 C-2.05959961 73.01517456 -2.05959961 73.01517456 -2.05664062 74.3059082 C-2.01185265 80.82193652 -1.66164327 87.27150394 -0.9375 93.75 C-3.92614876 92.25567562 -4.21503202 90.05616995 -5.4375 87 C-5.8603125 85.95328125 -6.283125 84.9065625 -6.71875 83.828125 C-7.32203125 82.30445313 -7.32203125 82.30445313 -7.9375 80.75 C-8.47890625 79.50476563 -8.47890625 79.50476563 -9.03125 78.234375 C-10.73467162 73.5646502 -11.06416254 68.88563006 -11.09863281 63.94750977 C-11.10824036 62.82937393 -11.1178479 61.7112381 -11.12774658 60.55921936 C-11.13199646 59.36534103 -11.13624634 58.17146271 -11.140625 56.94140625 C-11.14632507 55.70132309 -11.15202515 54.46123993 -11.15789795 53.18357849 C-11.16732764 50.56534677 -11.17387384 47.94710328 -11.17773438 45.32885742 C-11.18213127 42.65293836 -11.19607627 39.97733953 -11.21875 37.30151367 C-11.24923288 33.43137869 -11.25978343 29.56164794 -11.265625 25.69140625 C-11.2779718 24.49955215 -11.2903186 23.30769806 -11.30303955 22.07972717 C-11.28189038 14.17785182 -10.61021727 9.14507329 -5.625 2.8125 C-2.9375 0.75 -2.9375 0.75 0 0 Z " fill="#E5AA69" transform="translate(129.9375,59.25)"/>
<path d="M0 0 C0.33 0 0.66 0 1 0 C1.02505615 0.86802246 1.0501123 1.73604492 1.07592773 2.63037109 C1.17099484 5.84713163 1.27023203 9.06372849 1.37231445 12.28027344 C1.41565846 13.6731259 1.45733396 15.06603131 1.49731445 16.45898438 C1.55502932 18.45976651 1.61921869 20.46035859 1.68359375 22.4609375 C1.73858032 24.26763916 1.73858032 24.26763916 1.79467773 26.11083984 C1.81052987 28.93996367 1.81052987 28.93996367 3 31 C3.09538312 32.41544952 3.13073475 33.83524809 3.1328125 35.25390625 C3.13474609 36.5368457 3.13474609 36.5368457 3.13671875 37.84570312 C3.13285156 38.74224609 3.12898438 39.63878906 3.125 40.5625 C3.13080078 41.86670898 3.13080078 41.86670898 3.13671875 43.19726562 C3.12825191 48.87428519 2.72034881 54.36870173 2 60 C2.99 58.02 3.98 56.04 5 54 C5.639375 54.268125 6.27875 54.53625 6.9375 54.8125 C11.7883852 56.69345549 16.70061121 58.39558923 21.734375 59.71875 C22.62640625 59.9559375 23.5184375 60.193125 24.4375 60.4375 C25.26121094 60.64246094 26.08492187 60.84742188 26.93359375 61.05859375 C29 62 29 62 30.28515625 63.91015625 C31 66 31 66 31 69 C30.39414063 69.25652344 29.78828125 69.51304687 29.1640625 69.77734375 C17.73547187 74.99933055 7.80323959 83.84505899 2.90625 95.6328125 C2.19156536 97.74377918 1.54772117 99.84041367 1 102 C0.34 102 -0.32 102 -1 102 C-1.77923828 100.37191406 -1.77923828 100.37191406 -2.57421875 98.7109375 C-3.27820848 97.26541192 -3.98266025 95.8201113 -4.6875 94.375 C-5.02716797 93.66214844 -5.36683594 92.94929688 -5.71679688 92.21484375 C-10.95612696 81.54032078 -19.18603227 74.83782767 -30 70 C-29.67 69.01 -29.34 68.02 -29 67 C-29.66 66.67 -30.32 66.34 -31 66 C-30.74121094 64.10644531 -30.74121094 64.10644531 -30 62 C-28.31347656 60.99511719 -28.31347656 60.99511719 -26.140625 60.296875 C-25.35429688 60.0390625 -24.56796875 59.78125 -23.7578125 59.515625 C-22.93023437 59.26296875 -22.10265625 59.0103125 -21.25 58.75 C-20.43789062 58.481875 -19.62578125 58.21375 -18.7890625 57.9375 C-14.76301312 56.6523116 -11.27047714 55.6520352 -7 56 C-6.01 56 -5.02 56 -4 56 C-3.34 57.98 -2.68 59.96 -2 62 C-2.0721875 61.42636719 -2.144375 60.85273438 -2.21875 60.26171875 C-2.91871949 53.85505358 -3.11028521 47.50083343 -3.125 41.0625 C-3.12951172 40.23387451 -3.13402344 39.40524902 -3.13867188 38.55151367 C-3.13673828 37.76236572 -3.13480469 36.97321777 -3.1328125 36.16015625 C-3.13168457 35.45511963 -3.13055664 34.75008301 -3.12939453 34.02368164 C-3 32 -3 32 -2.50927734 30.05200195 C-1.91788036 27.66912004 -1.80490751 25.46100998 -1.71875 23.0078125 C-1.68136719 22.05519531 -1.64398438 21.10257813 -1.60546875 20.12109375 C-1.57066406 19.13238281 -1.53585938 18.14367187 -1.5 17.125 C-1.08097891 5.31481297 -1.08097891 5.31481297 0 0 Z " fill="#2B3B4A" transform="translate(130,90)"/>
<path d="M0 0 C3.01953125 2.15234375 3.01953125 2.15234375 5.8125 4.9375 C9.10908666 8.38031882 9.10908666 8.38031882 13 11 C13 11.66 13 12.32 13 13 C11.42557871 13.18638692 9.8511349 13.37258456 8.27661133 13.55810547 C6.81013454 13.73149351 5.34383187 13.90635898 3.87768555 14.08251953 C-0.88643993 14.65046671 -5.65256288 15.17413268 -10.42578125 15.66015625 C-33.66289582 18.07435807 -53.3884858 22.880987 -71 39 C-67.47289427 39 -64.55269177 36.55318208 -61.5625 34.8125 C-43.10731455 24.27197974 -26.06896426 20.46061464 -5 18.375 C-3.08574219 18.17390625 -3.08574219 18.17390625 -1.1328125 17.96875 C19.75199638 15.87599819 19.75199638 15.87599819 24 18 C24 18.66 24 19.32 24 20 C13.71100463 21.75719685 3.56555313 23.1841637 -6.875 23.5625 C-27.84950374 24.38038335 -49.16459695 28.73420758 -66.2890625 41.73828125 C-68 43 -68 43 -70 43 C-70 43.66 -70 44.32 -70 45 C-74.75 44.125 -74.75 44.125 -77 43 C-77 42.34 -77 41.68 -77 41 C-78.98 40.67 -80.96 40.34 -83 40 C-82.319375 39.484375 -81.63875 38.96875 -80.9375 38.4375 C-78.68020638 36.56442657 -76.7151043 34.72236133 -74.6875 32.625 C-71.07553109 28.9661224 -67.2106166 25.93840301 -63 23 C-62.43152344 22.57976562 -61.86304688 22.15953125 -61.27734375 21.7265625 C-47.93015383 12.51553473 -31.66075427 10.29312306 -16 8 C-37.96700526 10.04344235 -55.99756533 15.13007409 -73 30 C-76.16284353 32.71788075 -76.58142465 33 -81 33 C-75.75914928 21.20808588 -62.5638349 13.56097857 -51 9 C-38.80265605 5.08531191 -26.02803404 3.37501185 -13.40332031 1.41723633 C-11.03778454 1.0371268 -11.03778454 1.0371268 -8.89428711 0.47119141 C-5.76202403 -0.30793835 -3.21511789 -0.3302013 0 0 Z " fill="#E1A568" transform="translate(219,159)"/>
<path d="M0 0 C0.61092911 7.20896348 0.61092911 7.20896348 -1.99414062 10.58203125 C-5.93937907 13.75565386 -8.65735468 13.81301593 -13.58203125 13.92578125 C-14.39621017 13.9630986 -15.2103891 14.00041595 -16.04924011 14.03886414 C-18.6366418 14.1523577 -21.22385674 14.23287534 -23.8125 14.3125 C-25.57235526 14.38389142 -27.33212459 14.45743559 -29.09179688 14.53320312 C-33.39393547 14.71374916 -37.69620909 14.86474434 -42 15 C-40.83428467 15.04487549 -39.66856934 15.08975098 -38.4675293 15.13598633 C-34.14507657 15.30615674 -29.82361262 15.49507993 -25.50219727 15.68969727 C-23.63132018 15.77132197 -21.76021355 15.84785062 -19.88891602 15.91918945 C-17.1999174 16.02258505 -14.51227548 16.14424919 -11.82421875 16.26953125 C-10.98662521 16.29779495 -10.14903168 16.32605865 -9.28605652 16.35517883 C-3.46291735 16.65219766 -3.46291735 16.65219766 -1.26667786 18.30229187 C0.76357164 21.02340289 0.18524821 23.72728163 0 27 C-0.83144531 26.89300781 -1.66289063 26.78601563 -2.51953125 26.67578125 C-3.60621094 26.55589844 -4.69289063 26.43601562 -5.8125 26.3125 C-6.89144531 26.18488281 -7.97039062 26.05726562 -9.08203125 25.92578125 C-12.01685056 25.70984708 -12.01685056 25.70984708 -13.88671875 27.48046875 C-14.25410156 27.98191406 -14.62148437 28.48335937 -15 29 C-15 27.02 -15 25.04 -15 23 C-17.31 23 -19.62 23 -22 23 C-22.433125 24.2065625 -22.433125 24.2065625 -22.875 25.4375 C-24 28 -24 28 -26 29 C-25.67 26.69 -25.34 24.38 -25 22 C-31.14689273 22.36881356 -33.69027374 23.90050429 -38 28 C-37.34 25.69 -36.68 23.38 -36 21 C-42.51722911 21.33709806 -45.32539218 22.44225737 -50 27 C-49.34 25.02 -48.68 23.04 -48 21 C-54.41923331 21.29112169 -58.62100206 22.45215029 -64 26 C-63.67 24.68 -63.34 23.36 -63 22 C-74.385 21.505 -74.385 21.505 -86 21 C-83.37005164 15.74010327 -83.37005164 15.74010327 -81 14 C-77.92578125 13.33984375 -77.92578125 13.33984375 -74.3125 12.9375 C-69.87542674 12.42832766 -65.68796196 11.69533443 -61.3684082 10.56420898 C-56.11138982 9.31186701 -50.76003778 8.48618466 -45.4375 7.5625 C-37.71045023 6.20650936 -29.99542593 4.83822196 -22.3125 3.25 C-17.20845905 2.19603331 -12.18155214 1.52693751 -7 1 C-4.53721199 -0.231394 -2.7204945 -0.07159196 0 0 Z " fill="#DCA46B" transform="translate(117,93)"/>
<path d="M0 0 C10.68525057 0.03950185 20.69632188 2.3135525 31.05200195 4.74072266 C36.47412493 6.00933643 41.8497871 7.17396198 47.35546875 8.01953125 C58.22946521 9.75625051 68.26285543 14.31322128 77 21 C78.546875 22.0828125 78.546875 22.0828125 80.125 23.1875 C86.8784238 29.03795905 90.65344633 37.58001331 93 46 C93.66 46 94.32 46 95 46 C95.020625 45.071875 95.04125 44.14375 95.0625 43.1875 C96.61388301 32.66784807 106.16149501 23.41153819 114.26953125 17.28515625 C123.86501112 11.03138579 134.94648388 8.0410332 146.19921875 6.59765625 C152.27719783 5.64192059 158.23790706 4.1797526 164.22290039 2.76367188 C171.80587239 0.98405687 179.18376165 -0.52991446 187 0 C187.99 1.485 187.99 1.485 189 3 C181.76664203 4.77482571 174.53042126 6.31252561 167.19921875 7.61328125 C166.0414946 7.82112747 166.0414946 7.82112747 164.86038208 8.03317261 C161.67534196 8.60444335 158.49041949 9.17491533 155.30102539 9.72143555 C139.88610185 12.37634227 125.4071245 15.96971927 113 26 C112.14535156 26.63035156 112.14535156 26.63035156 111.2734375 27.2734375 C103.91131483 32.89885431 99.81699469 40.75799377 96 49 C96.99 49 97.98 49 99 49 C99.66 48.01 100.32 47.02 101 46 C103.44381502 44.83918787 105.28294264 44 108 44 C109.49511803 42.68655966 110.94599031 41.32257573 112.375 39.9375 C121.80556485 31.27120669 132.9578327 25.61064354 145.4375 22.875 C146.21013184 22.70323242 146.98276367 22.53146484 147.77880859 22.35449219 C155.48465701 20.73766109 163.14453441 20.21404538 171 20 C167.98843655 21.68312499 165.36812568 22.41625728 161.96484375 22.9296875 C160.99571045 23.08300537 160.02657715 23.23632324 159.02807617 23.39428711 C158.00818604 23.55292236 156.9882959 23.71155762 155.9375 23.875 C147.94498671 25.1966746 140.39284703 26.55762621 133 30 C132.14664063 30.38027344 131.29328125 30.76054687 130.4140625 31.15234375 C121.41240044 35.3828546 114.46993099 41.33544832 107.19921875 48.046875 C105 50 105 50 102 52 C103.32 52.99 104.64 53.98 106 55 C100.39 54.67 94.78 54.34 89 54 C89 53.67 89 53.34 89 53 C91.31 53 93.62 53 96 53 C96 52.34 96 51.68 96 51 C93.69 51 91.38 51 89 51 C89.99 50.34 90.98 49.68 92 49 C85.17416244 34.36909081 75.5495534 24.71517849 61 18 C60.32678711 17.67580078 59.65357422 17.35160156 58.95996094 17.01757812 C50.78375785 13.38758085 42.1204906 12.07746944 33.375 10.5 C30.27741802 9.93356651 27.18114413 9.36052166 24.0859375 8.78125 C23.33294373 8.64066162 22.57994995 8.50007324 21.80413818 8.35522461 C14.1215752 6.88857415 6.56090137 4.99209377 -1 3 C-0.67 2.01 -0.34 1.02 0 0 Z " fill="#D79F6C" transform="translate(36,146)"/>
<path d="M0 0 C6.76639635 -0.41239887 12.56061031 0.49182168 19.109375 2.14453125 C23.90099218 3.19810973 28.70195577 3.85329974 33.5625 4.5 C40.24404324 5.39715171 46.6647391 6.52916178 53.17578125 8.3125 C59.64449395 9.88717972 66.33984327 10.51262893 72.93359375 11.390625 C78.56489801 12.29431127 81.52594953 13.36793271 85 18 C85 18.66 85 19.32 85 20 C73.615 20.495 73.615 20.495 62 21 C62.66 22.32 63.32 23.64 64 25 C61.0280615 23.87548273 58.66559313 22.77706209 56 21 C53.94290404 20.75944532 53.94290404 20.75944532 51.8125 20.875 C50.554375 20.91625 49.29625 20.9575 48 21 C48.495 22.98 48.495 22.98 49 25 C46.53199953 23.84826645 44.95216435 22.95216435 43 21 C39.91652174 20.83318891 39.91652174 20.83318891 37 21 C36.505 23.475 36.505 23.475 36 26 C35.2265625 25.0409375 35.2265625 25.0409375 34.4375 24.0625 C31.34064377 21.44208319 28.97932377 21.30610183 25 21 C25 22.98 25 24.96 25 27 C24.649375 26.525625 24.29875 26.05125 23.9375 25.5625 C21.15836457 23.32126175 18.4855283 23.32882342 15 23 C15 25.31 15 27.62 15 30 C12 26.25 12 26.25 12 24 C8.04 24.33 4.08 24.66 0 25 C-0.125 21.625 -0.125 21.625 0 18 C3.07553315 14.92446685 6.80229888 15.52734896 10.9453125 15.3671875 C11.8303244 15.32562531 12.7153363 15.28406311 13.62716675 15.24124146 C16.45945656 15.11027917 19.2921227 14.99249703 22.125 14.875 C24.04300795 14.78862656 25.96097759 14.70139787 27.87890625 14.61328125 C32.58555005 14.39892028 37.29257304 14.19637958 42 14 C40.83428467 13.92483154 39.66856934 13.84966309 38.4675293 13.7722168 C34.14473686 13.48980034 29.82336939 13.18919183 25.50219727 12.88305664 C23.63144248 12.75308226 21.76033745 12.62805095 19.88891602 12.50805664 C17.19960963 12.33476005 14.51206214 12.14374955 11.82421875 11.94921875 C10.56782845 11.87401253 10.56782845 11.87401253 9.28605652 11.79728699 C3.42603171 11.34808608 3.42603171 11.34808608 1.27326965 9.58918762 C-1.03462611 6.70866708 -0.17477736 3.55380634 0 0 Z " fill="#DEA56B" transform="translate(143,94)"/>
<path d="M0 0 C0 1.65 0 3.3 0 5 C-1.86205078 5.39832031 -1.86205078 5.39832031 -3.76171875 5.8046875 C-9.49065915 7.07977032 -15.14833337 8.59067582 -20.8125 10.125 C-21.93760986 10.42849365 -23.06271973 10.7319873 -24.22192383 11.04467773 C-33.74407945 13.62788214 -43.22620976 16.342905 -52.70581055 19.07739258 C-61.22643051 21.52370631 -69.77658584 23.82527977 -78.36791992 26.01000977 C-83.56311178 27.33591414 -88.68289286 28.79212093 -93.78662109 30.43823242 C-96 31 -96 31 -100 31 C-100 34.3 -100 37.6 -100 41 C-111.64082208 47.12674846 -120.83466434 48.45371493 -133.5546875 44.94921875 C-136.19706119 43.923505 -137.9866109 43.0041108 -140 41 C-140.390625 38.73828125 -140.390625 38.73828125 -140.25 36.3125 C-140.21390625 35.50425781 -140.1778125 34.69601563 -140.140625 33.86328125 C-140.09421875 33.24839844 -140.0478125 32.63351563 -140 32 C-140.969375 31.75765625 -141.93875 31.5153125 -142.9375 31.265625 C-150.9375 29.265625 -150.9375 29.265625 -153.26147461 28.68334961 C-155.30578285 28.17322937 -157.35102098 27.66683296 -159.39672852 27.16235352 C-169.70518774 24.60921718 -179.97270934 21.91548796 -190.22973633 19.16333008 C-192.95770987 18.43208264 -195.68683437 17.70524089 -198.41601562 16.97851562 C-200.18236316 16.50547523 -201.94864173 16.03217719 -203.71484375 15.55859375 C-204.51502426 15.34601425 -205.31520477 15.13343475 -206.13963318 14.91441345 C-210.80285949 13.6578401 -215.38017818 12.24833489 -219.94378662 10.66662598 C-224.01223854 9.3476307 -228.2166984 8.49969715 -232.40039062 7.62695312 C-236.71923402 6.63157842 -239.1914016 5.45840266 -242 2 C-238.74435963 0.91478654 -237.85877504 1.06961178 -234.6484375 1.890625 C-233.79636719 2.10589844 -232.94429687 2.32117188 -232.06640625 2.54296875 C-231.17824219 2.77628906 -230.29007813 3.00960937 -229.375 3.25 C-228.51003906 3.46785156 -227.64507812 3.68570313 -226.75390625 3.91015625 C-222.68591232 4.95307523 -218.69424495 6.09207214 -214.7175293 7.44262695 C-210.309998 8.92553734 -205.87089053 10.17160978 -201.37109375 11.33984375 C-200.57832535 11.54807266 -199.78555695 11.75630157 -198.96876526 11.97084045 C-197.30107417 12.40830169 -195.63301341 12.84435595 -193.96459961 13.27905273 C-191.46713956 13.92977728 -188.97078229 14.58459168 -186.47460938 15.24023438 C-177.43000656 17.61081004 -168.37353302 19.92237256 -159.29272461 22.15039062 C-155.83380377 23.04288299 -152.4729438 24.08798207 -149.10546875 25.2734375 C-145.11290676 26.65120472 -141.04945346 27.80227433 -137 29 C-136.505 33.95 -136.505 33.95 -136 39 C-128.03164559 42.90286746 -118.88093599 43.4555944 -110.25390625 41.3203125 C-107.88044841 40.47229153 -107.88044841 40.47229153 -105 39 C-104.67 35.7 -104.34 32.4 -104 29 C-97.29594846 26.29885302 -90.50572368 24.49967974 -83.5 22.75 C-73.68097243 20.25241021 -63.93839396 17.58219693 -54.22509766 14.70288086 C-44.95591866 11.96311281 -35.64342802 9.39071464 -26.32080078 6.84008789 C-25.1811084 6.5280542 -24.04141602 6.21602051 -22.8671875 5.89453125 C-21.74924805 5.58854004 -20.63130859 5.28254883 -19.47949219 4.96728516 C-14.56397323 3.6007902 -9.66656592 2.17401037 -4.77001953 0.7409668 C-2 0 -2 0 0 0 Z " fill="#D49E6A" transform="translate(250,179)"/>
<path d="M0 0 C10.68525057 0.03950185 20.69632188 2.3135525 31.05200195 4.74072266 C36.47412493 6.00933643 41.8497871 7.17396198 47.35546875 8.01953125 C58.22946521 9.75625051 68.26285543 14.31322128 77 21 C78.546875 22.0828125 78.546875 22.0828125 80.125 23.1875 C85.97234474 28.23226801 90.13464857 35.36917376 91 43 C90.34 43 89.68 43 89 43 C87.75500413 41.37583273 86.57957531 39.69811602 85.4375 38 C73.4705376 21.34011116 55.87067014 14.66258424 36.265625 11.02734375 C35.38396667 10.85876358 34.50230835 10.69018341 33.59393311 10.51649475 C30.81353641 9.98520748 28.03193738 9.46065515 25.25 8.9375 C22.45386702 8.41036018 19.65808766 7.88160476 16.86322021 7.34779358 C15.13436253 7.01766518 13.40477834 6.69131111 11.67437744 6.36936951 C7.31256899 5.53736644 3.18531738 4.52756499 -1 3 C-0.67 2.01 -0.34 1.02 0 0 Z " fill="#D6A16B" transform="translate(36,146)"/>
<path d="M0 0 C0 0.66 0 1.32 0 2 C-10.28899537 3.75719685 -20.43444687 5.1841637 -30.875 5.5625 C-51.84950374 6.38038335 -73.16459695 10.73420758 -90.2890625 23.73828125 C-92 25 -92 25 -94 25 C-94 25.66 -94 26.32 -94 27 C-98.75 26.25 -98.75 26.25 -101 24 C-100.01 24 -99.02 24 -98 24 C-97.67 23.34 -97.34 22.68 -97 22 C-95.67480289 21.63566293 -94.33978097 21.30639166 -93 21 C-90.44684768 19.62237935 -87.94086187 18.21230174 -85.4375 16.75 C-67.04140914 6.22665374 -50.0053674 2.4543192 -29 0.375 C-27.72382813 0.2409375 -26.44765625 0.106875 -25.1328125 -0.03125 C-4.24800362 -2.12400181 -4.24800362 -2.12400181 0 0 Z " fill="#D29B67" transform="translate(243,177)"/>
<path d="M0 0 C0.33 0 0.66 0 1 0 C1 5.28 1 10.56 1 16 C2.65 16 4.3 16 6 16 C4.68 16.33 3.36 16.66 2 17 C2.12375 18.27875 2.2475 19.5575 2.375 20.875 C2.44460937 21.59429687 2.51421875 22.31359375 2.5859375 23.0546875 C2.86374749 25.22668245 2.86374749 25.22668245 5 27 C7.25838096 27.4461975 7.25838096 27.4461975 9.90869141 27.59423828 C10.92959869 27.67417023 11.95050598 27.75410217 13.00234985 27.8364563 C14.10759003 27.91362885 15.2128302 27.99080139 16.3515625 28.0703125 C18.04531509 28.19924393 18.04531509 28.19924393 19.77328491 28.33078003 C23.38994036 28.604099 27.0073878 28.8646815 30.625 29.125 C33.07297925 29.30775744 35.52089701 29.49134051 37.96875 29.67578125 C43.97848523 30.12678031 49.98891975 30.56731824 56 31 C56 31.33 56 31.66 56 32 C55.35076065 32.02283554 54.7015213 32.04567108 54.03260803 32.06919861 C47.3009011 32.30690694 40.56945934 32.55126495 33.83813477 32.79956055 C31.32289763 32.8914525 28.80759706 32.98162435 26.29223633 33.07006836 C22.68553051 33.19718006 19.07909491 33.33039094 15.47265625 33.46484375 C14.34038101 33.50343002 13.20810577 33.5420163 12.04151917 33.58177185 C11.00051559 33.62173782 9.95951202 33.6617038 8.88696289 33.70288086 C7.96540909 33.73619003 7.04385529 33.76949921 6.09437561 33.80381775 C4.01323006 33.77407722 4.01323006 33.77407722 3 35 C2.92851801 36.35243917 2.91600546 37.70834367 2.9375 39.0625 C2.958125 40.361875 2.97875 41.66125 3 43 C2.34 43 1.68 43 1 43 C0.67 43.66 0.34 44.32 0 45 C0 30.15 0 15.3 0 0 Z " fill="#2B414D" transform="translate(141,77)"/>
<path d="M0 0 C0.33 0 0.66 0 1 0 C1.02505615 0.86802246 1.0501123 1.73604492 1.07592773 2.63037109 C1.17099484 5.84713163 1.27023203 9.06372849 1.37231445 12.28027344 C1.41565846 13.6731259 1.45733396 15.06603131 1.49731445 16.45898438 C1.55502932 18.45976651 1.61921869 20.46035859 1.68359375 22.4609375 C1.72025146 23.66540527 1.75690918 24.86987305 1.79467773 26.11083984 C1.81052987 28.93996367 1.81052987 28.93996367 3 31 C3.09537441 32.3802297 3.1307347 33.76491807 3.1328125 35.1484375 C3.13482666 35.98391113 3.13684082 36.81938477 3.13891602 37.68017578 C3.13432373 38.56946777 3.12973145 39.45875977 3.125 40.375 C3.12234131 41.27589355 3.11968262 42.17678711 3.11694336 43.10498047 C2.99005817 61.01988365 2.99005817 61.01988365 1 65 C0.071875 64.7215625 0.071875 64.7215625 -0.875 64.4375 C-3.04160178 63.76313824 -3.04160178 63.76313824 -5 65 C-5.33 62.36 -5.66 59.72 -6 57 C-5.01 56.505 -5.01 56.505 -4 56 C-3.34 57.98 -2.68 59.96 -2 62 C-2.0721875 61.42636719 -2.144375 60.85273438 -2.21875 60.26171875 C-2.91871949 53.85505358 -3.11028521 47.50083343 -3.125 41.0625 C-3.12951172 40.23387451 -3.13402344 39.40524902 -3.13867188 38.55151367 C-3.13673828 37.76236572 -3.13480469 36.97321777 -3.1328125 36.16015625 C-3.13112061 35.10260132 -3.13112061 35.10260132 -3.12939453 34.02368164 C-3 32 -3 32 -2.50927734 30.05200195 C-1.91788036 27.66912004 -1.80490751 25.46100998 -1.71875 23.0078125 C-1.68136719 22.05519531 -1.64398438 21.10257813 -1.60546875 20.12109375 C-1.57066406 19.13238281 -1.53585938 18.14367187 -1.5 17.125 C-1.08097891 5.31481297 -1.08097891 5.31481297 0 0 Z " fill="#3D464C" transform="translate(130,90)"/>
<path d="M0 0 C0.7528125 0.46535156 1.505625 0.93070313 2.28125 1.41015625 C7.60986824 4.83178611 12.34550539 8.71329925 17 13 C16.01 13.33 15.02 13.66 14 14 C11.42578125 12.59375 11.42578125 12.59375 8.3125 10.5 C1.9762403 6.37572079 -4.60441795 3.35537302 -11.56640625 0.4453125 C-15 -1 -15 -1 -16.93041992 -2.03710938 C-19.17650751 -3.0821217 -21.100678 -3.48793862 -23.546875 -3.8515625 C-24.39121094 -3.98046875 -25.23554687 -4.109375 -26.10546875 -4.2421875 C-26.97816406 -4.36851562 -27.85085937 -4.49484375 -28.75 -4.625 C-30.08224609 -4.82609375 -30.08224609 -4.82609375 -31.44140625 -5.03125 C-33.6267736 -5.36023003 -35.81287914 -5.68292466 -38 -6 C-37.01 -6.33 -36.02 -6.66 -35 -7 C-35 -7.66 -35 -8.32 -35 -9 C-24.13913333 -12.60313112 -9.15594751 -5.69022794 0 0 Z " fill="#32424E" transform="translate(96,186)"/>
<path d="M0 0 C0.33 0 0.66 0 1 0 C1 16.83 1 33.66 1 51 C0.67 51 0.34 51 0 51 C-0.05607422 49.96939453 -0.05607422 49.96939453 -0.11328125 48.91796875 C-0.17902344 48.01691406 -0.24476562 47.11585937 -0.3125 46.1875 C-0.37050781 45.29417969 -0.42851563 44.40085938 -0.48828125 43.48046875 C-1.09660783 40.53171012 -1.61071918 39.79030467 -4 38 C-6.83177146 37.43141532 -6.83177146 37.43141532 -10.1015625 37.34765625 C-11.35356445 37.28336426 -12.60556641 37.21907227 -13.89550781 37.15283203 C-15.26359698 37.09991499 -16.63176577 37.04902324 -18 37 C-18.69411987 36.97282898 -19.38823975 36.94565796 -20.10339355 36.91766357 C-25.19304725 36.72157172 -30.28347232 36.57470021 -35.375 36.4375 C-36.90104946 36.3941537 -38.42709122 36.35053531 -39.953125 36.30664062 C-43.63533358 36.20130413 -47.31763128 36.09960138 -51 36 C-51 35.67 -51 35.34 -51 35 C-47.06282578 34.68331124 -43.12519105 34.37268951 -39.1875 34.0625 C-38.0116333 33.96751221 -36.8357666 33.87252441 -35.62426758 33.7746582 C-30.15478614 33.34466636 -24.70426411 32.9539638 -19.21875 32.8203125 C-17.93254761 32.78345337 -17.93254761 32.78345337 -16.62036133 32.74584961 C-15.039828 32.70794219 -13.45866788 32.68942589 -11.87768555 32.69360352 C-8.38394619 32.60104624 -6.08654063 32.04909297 -3.0390625 30.3203125 C0.26121988 24.94628946 -0.21628849 19.37062859 -0.1875 13.1875 C-0.16236328 11.92228516 -0.13722656 10.65707031 -0.11132812 9.35351562 C-0.05249509 6.23536457 -0.01618494 3.11861633 0 0 Z " fill="#2F414D" transform="translate(118,73)"/>
<path d="M0 0 C0.495 2.475 0.495 2.475 1 5 C0.44054687 5.08636719 -0.11890625 5.17273438 -0.6953125 5.26171875 C-14.9829662 7.76550372 -30.82047642 13.68749817 -42.3046875 22.8359375 C-42.86414063 23.22007812 -43.42359375 23.60421875 -44 24 C-44.99 23.67 -45.98 23.34 -47 23 C-34.99870988 11.05401536 -17.54102454 0 0 0 Z " fill="#33414D" transform="translate(193,176)"/>
<path d="M0 0 C13.99585692 0.05174069 27.4647312 3.7911952 41 7 C41 8.32 41 9.64 41 11 C41.99 11.33 42.98 11.66 44 12 C37.0024104 11.03961279 30.07157664 9.76792995 23.12963867 8.47094727 C20.94068328 8.06309312 18.7506546 7.66137942 16.56054688 7.25976562 C15.15357542 6.99777369 13.74667197 6.73541623 12.33984375 6.47265625 C11.07519287 6.23812744 9.81054199 6.00359863 8.50756836 5.76196289 C5.23130866 5.05024809 2.15449907 4.12706139 -1 3 C-0.67 2.01 -0.34 1.02 0 0 Z " fill="#C89A67" transform="translate(36,146)"/>
<path d="M0 0 C0.66 2.97 1.32 5.94 2 9 C-6.58 9.33 -15.16 9.66 -24 10 C-23.67 8.68 -23.34 7.36 -23 6 C-21.31347656 4.99511719 -21.31347656 4.99511719 -19.140625 4.296875 C-18.35429688 4.0390625 -17.56796875 3.78125 -16.7578125 3.515625 C-15.93023437 3.26296875 -15.10265625 3.0103125 -14.25 2.75 C-13.43789062 2.481875 -12.62578125 2.21375 -11.7890625 1.9375 C-7.77838868 0.65721976 -4.26197129 -0.3811519 0 0 Z " fill="#DAA46C" transform="translate(123,146)"/>
<path d="M0 0 C6.92454929 -0.21982696 13.59325089 0.3437903 20.45214844 1.21826172 C26.28306211 1.95196138 32.07713635 2.37495264 37.94921875 2.65625 C41.18991847 3.02139926 43.95045235 3.86613521 47 5 C47 5.33 47 5.66 47 6 C30.70403651 6.32864959 14.99908187 6.34725499 -1 3 C-0.67 2.01 -0.34 1.02 0 0 Z " fill="#E1A66A" transform="translate(17,176)"/>
<path d="M0 0 C3.5625 0.25 3.5625 0.25 7 1 C8.29004296 3.58008592 8.20410224 5.55741574 8.25 8.4375 C8.28867188 9.88962891 8.28867188 9.88962891 8.328125 11.37109375 C8 14 8 14 6.64453125 15.859375 C5 17 5 17 2.4375 16.8125 C0 16 0 16 -2 14 C-2.265625 11.25 -2.265625 11.25 -2.25 8 C-2.25515625 6.9275 -2.2603125 5.855 -2.265625 4.75 C-2 2 -2 2 0 0 Z " fill="#CE9D6A" transform="translate(86,79)"/>
<path d="M0 0 C3.5625 0.25 3.5625 0.25 7 1 C8.84734221 4.69468442 8.47487755 8.96679345 8 13 C6.25 15.625 6.25 15.625 4 17 C2.68 17 1.36 17 0 17 C-2.31590289 13.52614567 -2.26991835 12.03569994 -2.25 7.9375 C-2.25515625 6.87402344 -2.2603125 5.81054688 -2.265625 4.71484375 C-2 2 -2 2 0 0 Z " fill="#CD9D6C" transform="translate(168,79)"/>
<path d="M0 0 C16.5021628 3.20959497 16.5021628 3.20959497 23 7 C23 7.66 23 8.32 23 9 C14.42 9 5.84 9 -3 9 C-2.24872886 5.24364431 -1.75994274 3.16789693 0 0 Z " fill="#DEA56A" transform="translate(137,146)"/>
<path d="M0 0 C-3.01156345 1.68312499 -5.63187432 2.41625728 -9.03515625 2.9296875 C-10.00428955 3.08300537 -10.97342285 3.23632324 -11.97192383 3.39428711 C-12.99181396 3.55292236 -14.0117041 3.71155762 -15.0625 3.875 C-23.05501329 5.1966746 -30.60715297 6.55762621 -38 10 C-38.85335937 10.38027344 -39.70671875 10.76054687 -40.5859375 11.15234375 C-50.00871862 15.58076791 -57.35571479 22.02812876 -65 29 C-65.66 28.67 -66.32 28.34 -67 28 C-49.30842314 8.66269506 -26.08637782 -0.46582818 0 0 Z " fill="#495053" transform="translate(207,166)"/>
<path d="M0 0 C22.68381438 0.7293831 41.10980581 6.89426997 59 21 C60.33115687 22.00289539 61.66373019 23.00392732 63 24 C62.67 24.66 62.34 25.32 62 26 C61.32195312 25.49210937 60.64390625 24.98421875 59.9453125 24.4609375 C44.29873569 12.88853858 29.92819926 6.16173697 10.6809082 3.29248047 C9.72917725 3.14955566 8.77744629 3.00663086 7.796875 2.859375 C6.94448242 2.74045898 6.09208984 2.62154297 5.21386719 2.49902344 C3 2 3 2 0 0 Z " fill="#545656" transform="translate(53,166)"/>
<path d="M0 0 C2 3 2 3 2 5 C2.66 5 3.32 5 4 5 C4.33 3.68 4.66 2.36 5 1 C5.93423645 4.01031744 6.04449911 4.86650268 5 8 C5.99 8 6.98 8 8 8 C8.66 7.01 9.32 6.02 10 5 C12.625 3.8125 12.625 3.8125 15 3 C14.6875 5.875 14.6875 5.875 14 9 C13.01 9.66 12.02 10.32 11 11 C12.32 11.99 13.64 12.98 15 14 C9.39 13.67 3.78 13.34 -2 13 C-2 12.67 -2 12.34 -2 12 C0.31 12 2.62 12 5 12 C5 11.34 5 10.68 5 10 C2.69 10 0.38 10 -2 10 C-1.01 9.34 -0.02 8.68 1 8 C0.649375 7.05125 0.29875 6.1025 -0.0625 5.125 C-1 2 -1 2 0 0 Z " fill="#D49C6B" transform="translate(127,187)"/>
<path d="M0 0 C0 0.66 0 1.32 0 2 C-3.20720862 2.5073957 -6.41592163 3.004579 -9.625 3.5 C-10.52863281 3.64308594 -11.43226563 3.78617188 -12.36328125 3.93359375 C-16.95439866 4.63734167 -21.33831815 5.18584778 -26 5 C-24.68 4.67 -23.36 4.34 -22 4 C-22 3.34 -22 2.68 -22 2 C-25.3 2 -28.6 2 -32 2 C-32 1.67 -32 1.34 -32 1 C-4.77580071 -2.38790036 -4.77580071 -2.38790036 0 0 Z " fill="#BA8F67" transform="translate(243,177)"/>
<path d="M0 0 C0.66 0.99 1.32 1.98 2 3 C-0.06081361 3.50690584 -2.12373526 4.00524619 -4.1875 4.5 C-5.91033203 4.91765625 -5.91033203 4.91765625 -7.66796875 5.34375 C-10.56818829 5.91495385 -13.06096385 6.13283779 -16 6 C-16.66 4.68 -17.32 3.36 -18 2 C-11.93671868 0.60842724 -6.23157542 -0.55639066 0 0 Z " fill="#C29567" transform="translate(223,146)"/>
<path d="M0 0 C6.38169044 -0.23539022 11.89577531 0.03792778 18 2 C18.66 2.66 19.32 3.32 20 4 C21.98821313 4.39764263 23.98944339 4.73775349 26 5 C26 5.33 26 5.66 26 6 C19.82260045 6.17159443 14.08370312 5.53731344 8 4.5 C6.69482422 4.28537109 6.69482422 4.28537109 5.36328125 4.06640625 C3.24124305 3.71661973 1.12047972 3.3591135 -1 3 C-0.67 2.01 -0.34 1.02 0 0 Z " fill="#D39E6A" transform="translate(17,176)"/>
<path d="M0 0 C8.38472237 1.79672622 16.68756669 3.89894324 25 6 C25 6.33 25 6.66 25 7 C24.39671875 6.98839844 23.7934375 6.97679687 23.171875 6.96484375 C22.37265625 6.95582031 21.5734375 6.94679687 20.75 6.9375 C19.96109375 6.92589844 19.1721875 6.91429687 18.359375 6.90234375 C16.04854333 6.88706834 16.04854333 6.88706834 14.15625 7.625 C10.75578325 8.21638552 8.01486337 7.06009714 4.75 6.0625 C3.48671875 5.68222656 2.2234375 5.30195313 0.921875 4.91015625 C-0.04234375 4.60980469 -1.0065625 4.30945313 -2 4 C-1.01 3.34 -0.02 2.68 1 2 C0.67 1.34 0.34 0.68 0 0 Z " fill="#C79768" transform="translate(69,196)"/>
<path d="M0 0 C1.90144501 0.23768063 3.80273485 0.47668377 5.703125 0.72265625 C7.18981256 0.90217125 8.6797104 1.05745753 10.171875 1.18359375 C14.30331587 1.5641212 16.96316065 2.08969562 20 5 C19.34 5 18.68 5 18 5 C18 5.66 18 6.32 18 7 C17.19820312 6.79503906 16.39640625 6.59007812 15.5703125 6.37890625 C5.68795306 4.03716802 -3.87702034 3.33284173 -14 3 C-14 2.67 -14 2.34 -14 2 C-9.38 1.67 -4.76 1.34 0 1 C0 0.67 0 0.34 0 0 Z " fill="#BE9366" transform="translate(61,180)"/>
<path d="M0 0 C0.33 0 0.66 0 1 0 C1 5.28 1 10.56 1 16 C2.65 16 4.3 16 6 16 C4.68 16.33 3.36 16.66 2 17 C2.08378906 17.63808594 2.16757813 18.27617188 2.25390625 18.93359375 C2.35574219 19.75988281 2.45757812 20.58617188 2.5625 21.4375 C2.66691406 22.26121094 2.77132812 23.08492187 2.87890625 23.93359375 C2.91886719 24.61550781 2.95882812 25.29742187 3 26 C2.67 26.33 2.34 26.66 2 27 C1.80846363 32.45878647 2.22829031 37.59803219 3 43 C2.34 43 1.68 43 1 43 C0.67 43.66 0.34 44.32 0 45 C0 30.15 0 15.3 0 0 Z " fill="#40484D" transform="translate(141,77)"/>
<path d="M0 0 C2.24658203 -0.34057617 2.24658203 -0.34057617 5.0078125 -0.29296875 C5.99394531 -0.28330078 6.98007813 -0.27363281 7.99609375 -0.26367188 C9.02863281 -0.23853516 10.06117188 -0.21339844 11.125 -0.1875 C12.68541016 -0.16719727 12.68541016 -0.16719727 14.27734375 -0.14648438 C16.85207627 -0.11105228 19.4257833 -0.06165221 22 0 C22 0.66 22 1.32 22 2 C19.00293305 2.86963087 16.35043474 3.11763099 13.234375 3.09765625 C12.34492188 3.09443359 11.45546875 3.09121094 10.5390625 3.08789062 C9.61867187 3.07951172 8.69828125 3.07113281 7.75 3.0625 C6.81414062 3.05798828 5.87828125 3.05347656 4.9140625 3.04882812 C2.60930959 3.03706918 0.30468773 3.02063426 -2 3 C-1.34 2.01 -0.68 1.02 0 0 Z " fill="#DDA26A" transform="translate(199,179)"/>
<path d="M0 0 C1.051875 0.4640625 1.051875 0.4640625 2.125 0.9375 C5.08936657 2.03302678 7.87698108 2.56422992 11 3 C8.66714557 6.49928164 7.79204931 6.6329098 3.875 7.6875 C2.50988281 8.06455078 2.50988281 8.06455078 1.1171875 8.44921875 C0.41851562 8.63097656 -0.28015625 8.81273438 -1 9 C-1.09765625 2.84765625 -1.09765625 2.84765625 -1 1 C-0.67 0.67 -0.34 0.34 0 0 Z " fill="#273A4A" transform="translate(143,103)"/>
<path d="M0 0 C5.91492272 0.45224761 11.35199888 1.1582605 17 3 C16.67 3.66 16.34 4.32 16 5 C4.47835991 5.3690205 4.47835991 5.3690205 -1 3 C-0.67 2.01 -0.34 1.02 0 0 Z " fill="#D8A36B" transform="translate(36,146)"/>
<path d="M0 0 C6.73742646 -0.11044961 13.29980211 0.29867087 20 1 C20 1.33 20 1.66 20 2 C15.545 2.495 15.545 2.495 11 3 C14.63 3.33 18.26 3.66 22 4 C22 4.33 22 4.66 22 5 C14.74 5 7.48 5 0 5 C1.32 4.34 2.64 3.68 4 3 C4.33 2.67 4.66 2.34 5 2 C3.35 1.67 1.7 1.34 0 1 C0 0.67 0 0.34 0 0 Z " fill="#4A504F" transform="translate(148,105)"/>
<path d="M0 0 C1.21724428 3.95604392 1.89679663 8.20640675 0 12 C-0.61875 11.814375 -1.2375 11.62875 -1.875 11.4375 C-4.04160178 10.76313824 -4.04160178 10.76313824 -6 12 C-6.33 9.36 -6.66 6.72 -7 4 C-6.34 3.67 -5.68 3.34 -5 3 C-4.34 4.98 -3.68 6.96 -3 9 C-3 7.02 -3 5.04 -3 3 C-2.01 3 -1.02 3 0 3 C0 2.01 0 1.02 0 0 Z " fill="#50514F" transform="translate(131,143)"/>
<path d="M0 0 C-1 3 -1 3 -2.890625 3.94921875 C-10.75674619 6.41063747 -10.75674619 6.41063747 -15 6 C-14.67 5.34 -14.34 4.68 -14 4 C-11.4375 3.375 -11.4375 3.375 -9 3 C-9 2.34 -9 1.68 -9 1 C-5.92677456 0.08941469 -3.19902639 -0.08886184 0 0 Z " fill="#DCA26D" transform="translate(167,203)"/>
<path d="M0 0 C2.625 0.375 2.625 0.375 5 1 C5.042721 2.66611905 5.04063832 4.33382885 5 6 C4 7 4 7 1.4375 7.0625 C0.2309375 7.0315625 0.2309375 7.0315625 -1 7 C-1.625 4.625 -1.625 4.625 -2 2 C-1.34 1.34 -0.68 0.68 0 0 Z " fill="#2D394A" transform="translate(169,80)"/>
<path d="M0 0 C2.625 0.375 2.625 0.375 5 1 C5.042721 2.66611905 5.04063832 4.33382885 5 6 C4 7 4 7 1.4375 7.0625 C0.2309375 7.0315625 0.2309375 7.0315625 -1 7 C-1.625 4.625 -1.625 4.625 -2 2 C-1.34 1.34 -0.68 0.68 0 0 Z " fill="#2C3A4B" transform="translate(87,80)"/>
<path d="M0 0 C-2.85478326 1.90318884 -4.41941308 2.4619099 -7.6875 3.125 C-8.49574219 3.29257813 -9.30398437 3.46015625 -10.13671875 3.6328125 C-10.75160156 3.75398437 -11.36648437 3.87515625 -12 4 C-11.67 3.01 -11.34 2.02 -11 1 C-13.31 1.33 -15.62 1.66 -18 2 C-11.71785723 -2.18809518 -6.82936949 -2.56101356 0 0 Z " fill="#C49568" transform="translate(212,193)"/>
<path d="M0 0 C2 3 2 3 2 5 C2.66 5 3.32 5 4 5 C4.33 3.68 4.66 2.36 5 1 C5.93423645 4.01031744 6.04449911 4.86650268 5 8 C5.99 8.66 6.98 9.32 8 10 C4.7 10 1.4 10 -2 10 C-1.01 9.34 -0.02 8.68 1 8 C0.649375 7.05125 0.29875 6.1025 -0.0625 5.125 C-1 2 -1 2 0 0 Z " fill="#A9805E" transform="translate(127,187)"/>
<path d="M0 0 C0.33 0.66 0.66 1.32 1 2 C-6.59 2.33 -14.18 2.66 -22 3 C-21.34 4.32 -20.68 5.64 -20 7 C-24.875 5.25 -24.875 5.25 -26 3 C-25.34 3 -24.68 3 -24 3 C-24 2.34 -24 1.68 -24 1 C-16.08 0.67 -8.16 0.34 0 0 Z " fill="#886F5A" transform="translate(227,112)"/>
<path d="M0 0 C0.33 0.66 0.66 1.32 1 2 C8.59 2 16.18 2 24 2 C24.33 3.32 24.66 4.64 25 6 C23.02 6.99 23.02 6.99 21 8 C21.33 6.68 21.66 5.36 22 4 C10.615 3.505 10.615 3.505 -1 3 C-0.67 2.01 -0.34 1.02 0 0 Z " fill="#856F5A" transform="translate(32,111)"/>
<path d="M0 0 C0.80244141 0.0515625 1.60488281 0.103125 2.43164062 0.15625 C3.68170898 0.25292969 3.68170898 0.25292969 4.95703125 0.3515625 C6.22450195 0.43664062 6.22450195 0.43664062 7.51757812 0.5234375 C9.60224342 0.66477074 11.68599991 0.819395 13.76953125 0.9765625 C13.76953125 1.3065625 13.76953125 1.6365625 13.76953125 1.9765625 C13.021875 2.03714844 12.27421875 2.09773437 11.50390625 2.16015625 C10.5190625 2.24394531 9.53421875 2.32773438 8.51953125 2.4140625 C7.545 2.49527344 6.57046875 2.57648438 5.56640625 2.66015625 C2.85142843 2.89392161 2.85142843 2.89392161 0.61328125 3.5703125 C-2.29475176 4.21106554 -4.52243075 3.02284991 -7.23046875 1.9765625 C-4.0556343 -0.1399938 -3.5634787 -0.25272899 0 0 Z " fill="#B98E66" transform="translate(121.23046875,221.0234375)"/>
<path d="M0 0 C4.7221901 0.48185613 7.70054372 2.69663433 11.3125 5.5625 C11.86228516 5.98724609 12.41207031 6.41199219 12.97851562 6.84960938 C14.3251827 7.89181259 15.66346201 8.94483843 17 10 C16.67 10.66 16.34 11.32 16 12 C14.26972464 10.75153512 12.54083043 9.50115598 10.8125 8.25 C9.84957031 7.55390625 8.88664062 6.8578125 7.89453125 6.140625 C5.20870786 4.15434805 2.59333207 2.10500812 0 0 Z " fill="#655C55" transform="translate(99,180)"/>
<path d="M0 0 C-3.87684087 1.19287411 -6.91621923 2 -11 2 C-11.33 0.68 -11.66 -0.64 -12 -2 C-7.25042248 -3.52664992 -4.27829671 -2.29194467 0 0 Z " fill="#C59567" transform="translate(238,187)"/>
<path d="M0 0 C-0.33 0.66 -0.66 1.32 -1 2 C-4.14930893 3.04976964 -6.38814456 3.10131595 -9.6875 3.0625 C-10.68136719 3.05347656 -11.67523438 3.04445312 -12.69921875 3.03515625 C-13.83810547 3.01775391 -13.83810547 3.01775391 -15 3 C-14.67 2.34 -14.34 1.68 -14 1 C-9.31604754 -0.14242743 -4.78644729 -0.08252495 0 0 Z " fill="#ECAD70" transform="translate(238,177)"/>
<path d="M0 0 C3.46941546 0.45822468 6.67395049 0.89131683 10 2 C10 2.66 10 3.32 10 4 C3.375 4.125 3.375 4.125 0 3 C0 2.01 0 1.02 0 0 Z " fill="#E4A96A" transform="translate(77,154)"/>
<path d="M0 0 C-0.99 1.485 -0.99 1.485 -2 3 C-4.1640625 3.29296875 -4.1640625 3.29296875 -6.625 3.1875 C-7.44226563 3.16042969 -8.25953125 3.13335937 -9.1015625 3.10546875 C-10.04128906 3.05326172 -10.04128906 3.05326172 -11 3 C-10 1 -10 1 -7.1875 -0.1875 C-4.14038924 -0.96421451 -2.86250637 -1.10096399 0 0 Z " fill="#E6A96C" transform="translate(197,152)"/>
<path d="M0 0 C0.33 0.66 0.66 1.32 1 2 C-2.9813783 3.3271261 -6.85045227 3.06915913 -11 3 C-8.21756596 -1.17365106 -4.53441502 -0.22300402 0 0 Z " fill="#E3A76B" transform="translate(224,147)"/>
<path d="M0 0 C2.00720923 0.28674418 4.0085944 0.61866701 6 1 C4.68 1.33 3.36 1.66 2 2 C2 2.66 2 3.32 2 4 C0.741875 3.87625 -0.51625 3.7525 -1.8125 3.625 C-2.87404297 3.52058594 -2.87404297 3.52058594 -3.95703125 3.4140625 C-6 3 -6 3 -9 1 C-7.700625 1.020625 -6.40125 1.04125 -5.0625 1.0625 C-3.70834367 1.08399454 -2.35243917 1.07148199 -1 1 C-0.67 0.67 -0.34 0.34 0 0 Z " fill="#B98E66" transform="translate(57,193)"/>
<path d="M0 0 C-1.125 1.5 -1.125 1.5 -3 3 C-6.1875 3.1875 -6.1875 3.1875 -9 3 C-8.67 2.01 -8.34 1.02 -8 0 C-5.04215769 -1.22393475 -3.00272755 -0.96516243 0 0 Z " fill="#E0A66D" transform="translate(185,199)"/>
<path d="M0 0 C-0.66 0 -1.32 0 -2 0 C-2 0.66 -2 1.32 -2 2 C-7.94 1.01 -7.94 1.01 -14 0 C-3.87234043 -2.53191489 -3.87234043 -2.53191489 0 0 Z " fill="#C49565" transform="translate(33,187)"/>
<path d="M0 0 C0.99 0.33 1.98 0.66 3 1 C-0.3 3.97 -3.6 6.94 -7 10 C-7.66 9.67 -8.32 9.34 -9 9 C-6.03 6.03 -3.06 3.06 0 0 Z " fill="#685753" transform="translate(149,185)"/>
<path d="M0 0 C0 0.66 0 1.32 0 2 C-3.47325181 3.1577506 -6.36067448 3.06866652 -10 3 C-10.33 2.34 -10.66 1.68 -11 1 C-7.27569643 0.30710631 -3.78916254 -0.11144596 0 0 Z " fill="#C7996C" transform="translate(217,164)"/>
<path d="M0 0 C0 0.66 0 1.32 0 2 C-2.95664519 3.4783226 -5.74229737 3.06032783 -9 3 C-9.33 2.34 -9.66 1.68 -10 1 C-6.59437148 0.22157062 -3.49234244 -0.09978121 0 0 Z " fill="#E8A86D" transform="translate(217,190)"/>
<path d="M0 0 C3.3 0 6.6 0 10 0 C10 0.66 10 1.32 10 2 C10.66 2.33 11.32 2.66 12 3 C10.35 4.32 8.7 5.64 7 7 C7.66 5.02 8.32 3.04 9 1 C6.03 1 3.06 1 0 1 C0 0.67 0 0.34 0 0 Z " fill="#B8906A" transform="translate(60,113)"/>
<path d="M0 0 C0 0.33 0 0.66 0 1 C-1.299375 1.3403125 -1.299375 1.3403125 -2.625 1.6875 C-6.61778814 3.24025095 -8.84248305 5.14319895 -12 8 C-9.83199867 1.31532922 -6.98981916 -0.47657858 0 0 Z " fill="#C4996A" transform="translate(133,60)"/>
<path d="M0 0 C-0.99 0.495 -0.99 0.495 -2 1 C-1.01 1.66 -0.02 2.32 1 3 C-1.31 3.33 -3.62 3.66 -6 4 C-6.33 2.68 -6.66 1.36 -7 0 C-3.86650268 -1.04449911 -3.01031744 -0.93423645 0 0 Z " fill="#C09267" transform="translate(172,202)"/>
<path d="M0 0 C3.3 0 6.6 0 10 0 C10 0.33 10 0.66 10 1 C8.02 1 6.04 1 4 1 C4 1.66 4 2.32 4 3 C2.35 3 0.7 3 -1 3 C-0.67 2.01 -0.34 1.02 0 0 Z " fill="#C39467" transform="translate(17,176)"/>
<path d="M0 0 C0.33 0.99 0.66 1.98 1 3 C1.66 3 2.32 3 3 3 C1.25 8.75 1.25 8.75 -1 11 C-0.67 7.37 -0.34 3.74 0 0 Z " fill="#CE9A63" transform="translate(132,141)"/>
<path d="M0 0 C5.75 0.875 5.75 0.875 8 2 C8 2.66 8 3.32 8 4 C5.125 3.6875 5.125 3.6875 2 3 C1.34 2.01 0.68 1.02 0 0 Z " fill="#D49F6E" transform="translate(87,188)"/>
<path d="M0 0 C0.66 0 1.32 0 2 0 C2 1.32 2 2.64 2 4 C0.1875 5.0625 0.1875 5.0625 -2 6 C-2.99 5.67 -3.98 5.34 -5 5 C-4.34 5 -3.68 5 -3 5 C-2.67 4.01 -2.34 3.02 -2 2 C-1.34 2 -0.68 2 0 2 C0 1.34 0 0.68 0 0 Z " fill="#1E3648" transform="translate(177,180)"/>
<path d="M0 0 C2.875 -0.125 2.875 -0.125 6 0 C6.66 0.66 7.32 1.32 8 2 C4.71303767 2.79953138 3.28976808 3.09658936 0 2 C0 1.34 0 0.68 0 0 Z " fill="#E1A76C" transform="translate(49,192)"/>
<path d="M0 0 C0.66 0 1.32 0 2 0 C1.74438677 2.3431213 1.40729228 4.67843403 1 7 C0.01 7.495 0.01 7.495 -1 8 C-1.125 2.25 -1.125 2.25 0 0 Z " fill="#D09765" transform="translate(133,183)"/>
<path d="M0 0 C-1.375 1.5 -1.375 1.5 -3 3 C-3.66 3 -4.32 3 -5 3 C-5 2.34 -5 1.68 -5 1 C-5.99 0.67 -6.98 0.34 -8 0 C-4.94736336 -0.98120464 -3.05263664 -0.98120464 0 0 Z " fill="#DBA36C" transform="translate(228,187)"/>
<path d="M0 0 C2.475 0.99 2.475 0.99 5 2 C2.84658021 4.15341979 1.96076291 4.64111965 -1 5 C-1.99 4.34 -2.98 3.68 -4 3 C-2.68 2.34 -1.36 1.68 0 1 C0 0.67 0 0.34 0 0 Z " fill="#404A51" transform="translate(85,181)"/>
<path d="M0 0 C0.66 0.66 1.32 1.32 2 2 C-1.4352048 4.29013653 -2.985331 4.17842973 -7 4 C-4.61426621 2.10786631 -2.92824652 0.97608217 0 0 Z " fill="#495151" transform="translate(169,173)"/>
<path d="M0 0 C0.99 0.33 1.98 0.66 3 1 C2.34 2.32 1.68 3.64 1 5 C2.32 5.33 3.64 5.66 5 6 C3.35 6 1.7 6 0 6 C-0.38218767 4.34385343 -0.71395102 2.67542976 -1 1 C-0.67 0.67 -0.34 0.34 0 0 Z " fill="#38414C" transform="translate(168,81)"/>
</svg>
