<svg width="24" height="26" viewBox="0 0 24 26" fill="none" xmlns="http://www.w3.org/2000/svg">
<path d="M17.0027 3.49706C16.8926 3.60833 16.8414 3.74923 16.8414 3.91244H16.8561V6.5757C16.8561 6.79083 16.9292 6.94655 17.0834 7.05782C17.2376 7.1691 17.4066 7.18399 17.5975 7.1098L19.5578 6.42728C19.6973 6.37535 19.8002 6.2789 19.859 6.13795C19.9104 5.997 19.9177 5.85609 19.8737 5.70772C19.7562 5.40356 19.5137 5.27747 19.1613 5.35165L17.9499 5.78188V3.91244C17.9499 3.74181 17.8983 3.60833 17.7882 3.49706C17.6781 3.38578 17.5608 3.33387 17.4139 3.33387C17.2451 3.33387 17.1055 3.38578 17.0027 3.49706Z" fill="#303030"/>
<path d="M14.7118 11.0045C15.5635 11.546 16.5257 11.813 17.5903 11.813C18.5595 11.813 19.4698 11.5757 20.3362 11.0786C21.1879 10.6038 21.8781 9.92878 22.4141 9.05342C22.9501 8.17805 23.2143 7.21364 23.2143 6.16023C23.2143 5.98961 23.1557 5.8487 23.053 5.74485C22.9428 5.63357 22.8033 5.58157 22.6417 5.58157C22.4949 5.58157 22.3699 5.63357 22.2671 5.74485C22.157 5.85612 22.1058 5.99702 22.1058 6.16023C22.1058 7.40652 21.6652 8.47481 20.7768 9.35759C19.8883 10.2404 18.831 10.6854 17.5975 10.6854C16.8119 10.6854 16.085 10.4999 15.4095 10.1142C14.734 9.72844 14.1833 9.17951 13.7575 8.47476C13.3316 7.77001 13.1186 6.99851 13.1186 6.16023C13.1186 4.92136 13.5518 3.84573 14.4329 2.9481C15.3066 2.05048 16.364 1.60533 17.5975 1.60533C18.4272 1.60533 19.2348 1.83533 20.0131 2.28786C20.138 2.38429 20.2628 2.41396 20.4096 2.37687C20.5492 2.33978 20.6666 2.25077 20.7621 2.10982C20.8575 1.99113 20.887 1.86499 20.8503 1.71663C20.8135 1.57568 20.7252 1.457 20.5857 1.36056C19.7046 0.789342 18.7135 0.5 17.5975 0.5C16.0556 0.5 14.7414 1.05638 13.6474 2.16914C12.5534 3.28189 12.0101 4.61722 12.0101 6.17508C12.0101 7.15431 12.2448 8.07415 12.7221 8.91984C13.1993 9.77296 13.8601 10.4629 14.7118 11.0045Z" fill="#303030"/>
<path d="M4.65491 20.7225H13.4732C13.6127 20.7225 13.7374 20.678 13.8475 20.5816C13.9576 20.4926 14.0092 20.359 14.0092 20.1884C14.0092 20.0178 13.9576 19.8842 13.8475 19.7729C13.7374 19.6617 13.6127 19.6098 13.4732 19.6098H4.65491C4.48604 19.6098 4.34685 19.6691 4.24406 19.7729C4.13393 19.8842 4.08237 20.0252 4.08237 20.1884C4.08237 20.3516 4.13393 20.4852 4.24406 20.5816C4.3542 20.6706 4.48604 20.7225 4.65491 20.7225Z" fill="#303030"/>
<path d="M4.65491 16.1232H13.4732C13.6127 16.1232 13.7374 16.0712 13.8475 15.9599C13.9576 15.8486 14.0092 15.7077 14.0092 15.5445C14.0092 15.4035 13.9576 15.27 13.8475 15.1662C13.7374 15.0549 13.6127 15.003 13.4732 15.003H4.65491C4.48604 15.003 4.34685 15.0549 4.24406 15.1662C4.13393 15.2774 4.08237 15.4035 4.08237 15.5445C4.08237 15.7151 4.13393 15.8486 4.24406 15.9599C4.3542 16.0712 4.48604 16.1232 4.65491 16.1232Z" fill="#303030"/>
<path d="M4.65491 11.4941H9.51376C9.68264 11.4941 9.82183 11.4347 9.92462 11.3308C10.0348 11.2195 10.0863 11.0861 10.0863 10.9154C10.0863 10.7745 10.0348 10.6484 9.92462 10.5371C9.82183 10.4332 9.68264 10.3739 9.51376 10.3739H4.65491C4.48604 10.3739 4.34685 10.4332 4.24406 10.5371C4.13393 10.6484 4.08237 10.7745 4.08237 10.9154C4.08237 11.0861 4.13393 11.2195 4.24406 11.3308C4.3542 11.4421 4.48604 11.4941 4.65491 11.4941Z" fill="#303030"/>
<path d="M15.6831 25.5C16.4394 25.5 17.0344 25.2849 17.4602 24.8546C17.8861 24.4243 18.0989 23.816 18.1063 23.037V14.7062C18.1063 14.5356 18.0547 14.402 17.9446 14.2907C17.8344 14.1795 17.7098 14.1276 17.5703 14.1276C17.4014 14.1276 17.2692 14.1795 17.1591 14.2907C17.0489 14.402 16.9974 14.5356 16.9974 14.7062V23.037C16.9974 23.5192 16.8873 23.8679 16.6744 24.0831C16.4321 24.2982 16.1018 24.402 15.6759 24.402H1.10135V3.0594C1.10135 2.59946 1.21881 2.25075 1.45376 1.99853C1.68872 1.7463 2.03374 1.62018 2.48162 1.62018H10.7911C10.938 1.62018 11.0557 1.56828 11.1658 1.457C11.2759 1.34572 11.3271 1.2196 11.3271 1.07866C11.3271 0.908033 11.2759 0.774458 11.1658 0.663183C11.0557 0.551907 10.9306 0.5 10.7911 0.5H2.48162C1.74739 0.5 1.1527 0.730017 0.690135 1.19737C0.227569 1.66473 0 2.28045 0 3.04454V24.9584C0 25.0993 0.0588963 25.2254 0.161689 25.3367C0.271823 25.448 0.404028 25.5 0.572901 25.5H15.6831Z" fill="#303030"/>
<path d="M17.0027 3.49706C16.8926 3.60833 16.8414 3.74923 16.8414 3.91244H16.8561V6.5757C16.8561 6.79083 16.9292 6.94655 17.0834 7.05782C17.2376 7.1691 17.4066 7.18399 17.5975 7.1098L19.5578 6.42728C19.6973 6.37535 19.8002 6.2789 19.859 6.13795C19.9104 5.997 19.9177 5.85609 19.8737 5.70772C19.7562 5.40356 19.5137 5.27747 19.1613 5.35165L17.9499 5.78188V3.91244C17.9499 3.74181 17.8983 3.60833 17.7882 3.49706C17.6781 3.38578 17.5608 3.33387 17.4139 3.33387C17.2451 3.33387 17.1055 3.38578 17.0027 3.49706Z" stroke="#303030" stroke-width="0.5"/>
<path d="M14.7118 11.0045C15.5635 11.546 16.5257 11.813 17.5903 11.813C18.5595 11.813 19.4698 11.5757 20.3362 11.0786C21.1879 10.6038 21.8781 9.92878 22.4141 9.05342C22.9501 8.17805 23.2143 7.21364 23.2143 6.16023C23.2143 5.98961 23.1557 5.8487 23.053 5.74485C22.9428 5.63357 22.8033 5.58157 22.6417 5.58157C22.4949 5.58157 22.3699 5.63357 22.2671 5.74485C22.157 5.85612 22.1058 5.99702 22.1058 6.16023C22.1058 7.40652 21.6652 8.47481 20.7768 9.35759C19.8883 10.2404 18.831 10.6854 17.5975 10.6854C16.8119 10.6854 16.085 10.4999 15.4095 10.1142C14.734 9.72844 14.1833 9.17951 13.7575 8.47476C13.3316 7.77001 13.1186 6.99851 13.1186 6.16023C13.1186 4.92136 13.5518 3.84573 14.4329 2.9481C15.3066 2.05048 16.364 1.60533 17.5975 1.60533C18.4272 1.60533 19.2348 1.83533 20.0131 2.28786C20.138 2.38429 20.2628 2.41396 20.4096 2.37687C20.5492 2.33978 20.6666 2.25077 20.7621 2.10982C20.8575 1.99113 20.887 1.86499 20.8503 1.71663C20.8135 1.57568 20.7252 1.457 20.5857 1.36056C19.7046 0.789342 18.7135 0.5 17.5975 0.5C16.0556 0.5 14.7414 1.05638 13.6474 2.16914C12.5534 3.28189 12.0101 4.61722 12.0101 6.17508C12.0101 7.15431 12.2448 8.07415 12.7221 8.91984C13.1993 9.77296 13.8601 10.4629 14.7118 11.0045Z" stroke="#303030" stroke-width="0.5"/>
<path d="M4.65491 20.7225H13.4732C13.6127 20.7225 13.7374 20.678 13.8475 20.5816C13.9576 20.4926 14.0092 20.359 14.0092 20.1884C14.0092 20.0178 13.9576 19.8842 13.8475 19.7729C13.7374 19.6617 13.6127 19.6098 13.4732 19.6098H4.65491C4.48604 19.6098 4.34685 19.6691 4.24406 19.7729C4.13393 19.8842 4.08237 20.0252 4.08237 20.1884C4.08237 20.3516 4.13393 20.4852 4.24406 20.5816C4.3542 20.6706 4.48604 20.7225 4.65491 20.7225Z" stroke="#303030" stroke-width="0.5"/>
<path d="M4.65491 16.1232H13.4732C13.6127 16.1232 13.7374 16.0712 13.8475 15.9599C13.9576 15.8486 14.0092 15.7077 14.0092 15.5445C14.0092 15.4035 13.9576 15.27 13.8475 15.1662C13.7374 15.0549 13.6127 15.003 13.4732 15.003H4.65491C4.48604 15.003 4.34685 15.0549 4.24406 15.1662C4.13393 15.2774 4.08237 15.4035 4.08237 15.5445C4.08237 15.7151 4.13393 15.8486 4.24406 15.9599C4.3542 16.0712 4.48604 16.1232 4.65491 16.1232Z" stroke="#303030" stroke-width="0.5"/>
<path d="M4.65491 11.4941H9.51376C9.68264 11.4941 9.82183 11.4347 9.92462 11.3308C10.0348 11.2195 10.0863 11.0861 10.0863 10.9154C10.0863 10.7745 10.0348 10.6484 9.92462 10.5371C9.82183 10.4332 9.68264 10.3739 9.51376 10.3739H4.65491C4.48604 10.3739 4.34685 10.4332 4.24406 10.5371C4.13393 10.6484 4.08237 10.7745 4.08237 10.9154C4.08237 11.0861 4.13393 11.2195 4.24406 11.3308C4.3542 11.4421 4.48604 11.4941 4.65491 11.4941Z" stroke="#303030" stroke-width="0.5"/>
<path d="M15.6831 25.5C16.4394 25.5 17.0344 25.2849 17.4602 24.8546C17.8861 24.4243 18.0989 23.816 18.1063 23.037V14.7062C18.1063 14.5356 18.0547 14.402 17.9446 14.2907C17.8344 14.1795 17.7098 14.1276 17.5703 14.1276C17.4014 14.1276 17.2692 14.1795 17.1591 14.2907C17.0489 14.402 16.9974 14.5356 16.9974 14.7062V23.037C16.9974 23.5192 16.8873 23.8679 16.6744 24.0831C16.4321 24.2982 16.1018 24.402 15.6759 24.402H1.10135V3.0594C1.10135 2.59946 1.21881 2.25075 1.45376 1.99853C1.68872 1.7463 2.03374 1.62018 2.48162 1.62018H10.7911C10.938 1.62018 11.0557 1.56828 11.1658 1.457C11.2759 1.34572 11.3271 1.2196 11.3271 1.07866C11.3271 0.908033 11.2759 0.774458 11.1658 0.663183C11.0557 0.551907 10.9306 0.5 10.7911 0.5H2.48162C1.74739 0.5 1.1527 0.730017 0.690135 1.19737C0.227569 1.66473 0 2.28045 0 3.04454V24.9584C0 25.0993 0.0588963 25.2254 0.161689 25.3367C0.271823 25.448 0.404028 25.5 0.572901 25.5H15.6831Z" stroke="#303030" stroke-width="0.5"/>
</svg>
