<svg width="28" height="28" viewBox="0 0 28 28" fill="none" xmlns="http://www.w3.org/2000/svg">
<rect width="28" height="28" rx="14" fill="#4C4C4C"/>
<path fill-rule="evenodd" clip-rule="evenodd" d="M13.9996 16.4275C12.6584 16.4275 11.571 15.3402 11.571 13.9989C11.571 12.6576 12.6584 11.5703 13.9996 11.5703C15.3409 11.5703 16.4282 12.6576 16.4282 13.9989C16.4282 14.643 16.1723 15.2607 15.7169 15.7161C15.2614 16.1716 14.6437 16.4275 13.9996 16.4275Z" stroke="white" stroke-linecap="round" stroke-linejoin="round"/>
<path fill-rule="evenodd" clip-rule="evenodd" d="M20.4564 18.9336V17.3041C20.4564 16.9006 20.6167 16.5136 20.902 16.2282L22.0544 15.0759C22.6485 14.4817 22.6485 13.5183 22.0544 12.9241L20.902 11.7718C20.6167 11.4864 20.4564 11.0995 20.4564 10.6959V9.06514C20.4564 8.22483 19.7752 7.54363 18.9349 7.54363L17.3041 7.54363C16.9005 7.54363 16.5136 7.38333 16.2282 7.09799L15.0759 5.94563C14.4817 5.35146 13.5183 5.35146 12.9241 5.94563L11.7718 7.09799C11.4864 7.38333 11.0995 7.54363 10.6959 7.54363H9.06514C8.6614 7.54363 8.27421 7.7041 7.98884 7.9897C7.70347 8.2753 7.54331 8.66261 7.54363 9.06635V10.6959C7.54363 11.0995 7.38333 11.4864 7.09799 11.7718L5.94563 12.9241C5.35146 13.5183 5.35146 14.4817 5.94563 15.0759L7.09799 16.2282C7.38333 16.5136 7.54363 16.9006 7.54363 17.3041L7.54363 18.9336C7.54363 19.774 8.22483 20.4552 9.06514 20.4552H10.6959C11.0995 20.4552 11.4864 20.6155 11.7718 20.9008L12.9241 22.0532C13.5183 22.6473 14.4817 22.6473 15.0759 22.0532L16.2282 20.9008C16.5136 20.6155 16.9005 20.4552 17.3041 20.4552H18.9336C19.3374 20.4555 19.7247 20.2953 20.0103 20.0099C20.2959 19.7246 20.4564 19.3374 20.4564 18.9336Z" stroke="white" stroke-linecap="round" stroke-linejoin="round"/>
</svg>
