<svg width="150" height="150" viewBox="0 0 150 150" fill="none" xmlns="http://www.w3.org/2000/svg">
<g clip-path="url(#clip0_2420_37814)">
<rect width="150" height="150" rx="75" fill="white"/>
<path d="M48.6883 112.261C56.7186 109.052 63.1071 109.024 63.1071 109.024C63.1071 109.024 73.2962 106.269 99.0427 110.643C102.899 111.298 106.262 112.507 109.216 114.184C126.392 121.876 138.491 140.299 145.908 155.325H8.36768C14.9663 140.012 20.4053 132.607 27.8656 124.607C33.5022 118.562 41.2941 114.664 48.6883 112.261Z" fill="#4658DF"/>
<path d="M62.7644 90.17V108.972H93.0091L93.851 63.2148L62.7644 90.17Z" fill="#E55CB4"/>
<path d="M67.3452 14.0139C59.8464 15.5729 46.0804 23.4614 48.1227 52.8798C50.165 82.2983 56.0736 89.3865 64.6482 90.6181C73.2227 91.8497 87.1758 81.9397 91.7437 71.697C96.3116 61.4544 97.4185 71.5879 102.392 67.4409C107.365 63.294 105.26 55.8576 102.392 54.5636C100.983 53.7332 99.326 53.4293 97.7147 53.7061C100.398 44.6701 100.35 35.0421 97.5744 26.0338C93.8639 14.388 85.3361 12.7511 79.8484 12.7511C75.6441 12.6421 71.4429 13.0664 67.3452 14.0139Z" fill="#F283C5"/>
<path d="M65.061 47.6999C65.061 47.6999 63.9229 44.3206 57.6918 44.9186C51.4607 45.5166 49.8389 49.5911 49.8389 49.5911C50.7756 50.8534 52.0518 51.8374 53.5259 52.4339C54.9999 53.0304 56.6142 53.2161 58.1897 52.9703C59.759 52.9184 61.2706 52.3796 62.5059 51.4321C63.7412 50.4846 64.6361 49.1775 65.061 47.6999V47.6999Z" fill="white"/>
<path d="M71.6433 47.405C71.6433 47.405 73.8693 43.7102 79.7179 44.0449C85.8429 44.3934 86.454 48.4786 86.454 48.4786C86.454 48.4786 86.163 52.5497 79.0778 52.6613C71.9925 52.7728 71.6433 47.405 71.6433 47.405Z" fill="white"/>
<path d="M57.8615 53.0746C60.0201 53.0746 61.7699 51.3247 61.7699 49.1662C61.7699 47.0077 60.0201 45.2578 57.8615 45.2578C55.703 45.2578 53.9531 47.0077 53.9531 49.1662C53.9531 51.3247 55.703 53.0746 57.8615 53.0746Z" fill="#10004F"/>
<path d="M78.843 52.6644C81.0015 52.6644 82.7513 50.9146 82.7513 48.756C82.7513 46.5975 81.0015 44.8477 78.843 44.8477C76.6844 44.8477 74.9346 46.5975 74.9346 48.756C74.9346 50.9146 76.6844 52.6644 78.843 52.6644Z" fill="#10004F"/>
<path d="M71.5863 40.2827C72.1008 41.7481 75.593 39.7058 79.3814 38.5989C80.7834 38.2806 82.2396 38.2864 83.6391 38.6161C85.0386 38.9457 86.3444 39.5903 87.457 40.5009C88.3924 41.2336 88.7977 40.2982 87.5505 38.9419C86.5378 37.8471 85.2659 37.0248 83.8519 36.5507C82.4379 36.0767 80.9273 35.9661 79.4593 36.2293C75.1253 36.6658 70.6509 37.7259 71.5863 40.2827Z" fill="#10004F"/>
<path d="M64.3829 40.6417C64.6623 40.6542 64.9399 40.5913 65.1866 40.4595C65.4334 40.3278 65.6401 40.1321 65.7852 39.8929C65.9303 39.6538 66.0083 39.38 66.0112 39.1003C66.0141 38.8206 65.9417 38.5453 65.8016 38.3032C65.2247 37.134 60.2047 35.9336 56.4475 36.4325C52.6903 36.9313 49.0578 40.5794 49.5723 41.7642C50.0868 42.9491 52.3318 38.35 56.4475 38.6462C60.5633 38.9424 61.982 40.6261 64.3829 40.6417Z" fill="#10004F"/>
<path d="M63.3849 58.3178C62.621 58.6764 60.797 59.7989 61.3582 60.6407C61.9195 61.4826 63.6655 60.5472 64.1332 59.9859C64.6009 59.4247 64.2424 57.9281 63.3849 58.3178Z" fill="#10004F"/>
<path d="M68.6078 58.3178C69.3874 58.6764 71.1958 59.7989 70.6346 60.6407C70.0733 61.4826 68.3272 60.5472 67.8595 59.9859C67.3918 59.4247 67.7504 57.9281 68.6078 58.3178Z" fill="#10004F"/>
<path d="M74.524 68.1163C74.524 68.1163 73.9728 64.1084 67.3244 64.6428C60.676 65.1772 60.1248 69.8767 60.1248 69.8767C62.4913 70.3388 64.9179 70.4659 67.3244 70.2539C69.8918 70.202 72.3899 69.4603 74.524 68.1163V68.1163Z" fill="#B30F3B"/>
<path d="M60.1248 70.1569C60.1248 70.1569 61.0446 73.6958 67.3586 73.649C73.6725 73.6023 74.9197 68.707 74.9197 68.707C72.6359 69.2951 70.3193 69.748 67.9822 70.0634C65.367 70.2446 62.7435 70.2759 60.1248 70.1569V70.1569Z" fill="#B30F3B"/>
<path d="M64.0217 70.754C60.5457 70.7189 57.0765 70.4428 53.6387 69.9278C53.4795 69.9009 53.3375 69.8119 53.244 69.6803C53.1504 69.5488 53.113 69.3854 53.1398 69.2262C53.1667 69.067 53.2557 68.925 53.3873 68.8315C53.5189 68.7379 53.6822 68.7004 53.8414 68.7273C58.2356 69.3918 62.6848 69.6216 67.1241 69.4133C71.3618 68.7513 75.4928 67.5299 79.4091 65.7808C79.4815 65.7475 79.5599 65.7291 79.6396 65.7268C79.7193 65.7245 79.7987 65.7383 79.8729 65.7674C79.9472 65.7966 80.0148 65.8404 80.0717 65.8962C80.1286 65.9521 80.1736 66.0189 80.2041 66.0926C80.2688 66.2398 80.2741 66.4064 80.2189 66.5575C80.1637 66.7085 80.0523 66.8324 79.9079 66.9033C75.8698 68.7098 71.6065 69.9631 67.2332 70.6293C66.1887 70.7228 65.0662 70.754 64.0217 70.754Z" fill="#10004F"/>
<path d="M53.517 23.7714C53.517 23.7714 52.4413 26.4685 69.107 26.4685C85.7728 26.4685 87.5189 23.7714 87.5189 23.7714C86.7668 30.0051 87.8505 36.3227 90.6369 41.9494C95.3139 51.054 97.8395 53.7355 97.8395 53.7355C97.8395 53.7355 101.534 42.1209 99.5076 31.6132C97.4809 21.1055 94.472 16.3817 85.3674 13.4196C78.6242 11.1807 71.2956 11.48 64.7574 14.2615C56.2764 17.9096 53.517 23.7714 53.517 23.7714Z" fill="#10004F"/>
<path d="M98.541 57.5568C99.0325 57.2338 99.5981 57.0415 100.185 56.9978C100.771 56.9542 101.359 57.0607 101.893 57.3073C102.516 57.6347 103.015 59.2717 101.893 59.334C100.77 59.3964 99.6011 58.9443 99.0711 59.8017C98.541 60.6592 97.7459 64.6035 96.0466 63.746C94.3473 62.8886 97.6212 58.4142 98.541 57.5568Z" fill="#B30F3B"/>
<path d="M61.92 105.994C61.92 105.994 58.9267 109.112 60.0492 110.515C61.1717 111.918 70.6504 111.606 79.7706 111.606C88.8908 111.606 93.3652 111.606 95.0333 110.873C96.7014 110.141 94.4876 107.069 93.0845 105.994C91.6814 104.918 61.92 105.994 61.92 105.994Z" fill="#10004F"/>
<path d="M46.0233 23.7117C47.8202 26.2039 53.0682 27.9408 60.6934 27.9408C74.6818 27.9408 89.5895 25.2183 84.0149 22.4474C78.4402 19.6766 81.5588 12.5412 65.8398 14.8336C53.3138 16.6603 44.2263 21.2194 46.0233 23.7117Z" fill="#10004F"/>
</g>
<rect x="2" y="2" width="146" height="146" rx="73" stroke="white" stroke-width="4"/>
<defs>
<clipPath id="clip0_2420_37814">
<rect width="150" height="150" rx="75" fill="white"/>
</clipPath>
</defs>
</svg>
