<svg width="150" height="150" viewBox="0 0 150 150" fill="none" xmlns="http://www.w3.org/2000/svg">
<g clip-path="url(#clip0_2420_37783)">
<rect width="150" height="150" rx="75" fill="white"/>
<path d="M30.877 127.096V66.9251C30.2173 55.5029 33.357 44.1832 39.8076 34.7269C43.3304 29.2026 48.0538 24.5412 53.6275 21.0886C59.2012 17.636 65.482 15.481 72.0039 14.7833C76.3081 14.2286 80.673 14.3573 84.9369 15.1646C96.3265 17.3376 103.771 23.8201 106.999 27.0012C110.073 29.7843 112.766 32.9597 115.009 36.4455C119.799 44.0269 122.422 52.771 122.595 61.7329V142.568H30.8508L30.877 127.096Z" fill="#10004F"/>
<path d="M3.44832 152.506L3.40918 152.605H146.591C145.835 143.665 134.006 121.039 81.6021 119.595C17.1394 117.819 8.60981 139.429 3.44832 152.506Z" fill="#7F8DE4"/>
<path d="M62.1572 141.545L93.964 147.582L82.6164 123.098L62.1572 141.545Z" fill="#DFE2F6"/>
<path d="M98.7465 108.266L82.2422 122.445L93.9416 147.61L111.499 128.928L98.7465 108.266Z" fill="white"/>
<path d="M115.654 57.0597C114.855 56.4855 113.945 56.0922 112.985 55.9063C112.026 55.7204 111.038 55.7462 110.089 55.9819C108.725 56.3714 107.522 57.2037 106.661 58.3532C108.243 36.4452 90.8382 23.322 67.7528 28.8031C51.1441 33.9014 46.115 47.5773 46.5844 62.479C45.2605 60.2694 43.1525 59.8072 41.1219 60.3785C40.4561 60.583 39.3949 61.6314 38.8872 62.1166C38.3795 62.6018 37.894 63.8547 38.0956 64.2277C37.2834 66.4859 38.6863 68.7063 39.8256 70.5063C40.7707 72.1249 42.112 73.464 43.7175 74.392C45.3229 75.32 47.1372 75.8048 48.9817 75.7988C51.8404 80.9564 55.0797 101.68 80.3486 94.7602C83.5554 94.4799 104.351 86.9063 105.97 69.865C107.468 70.4585 109.1 70.6028 110.675 70.2811C112.25 69.9594 113.703 69.1849 114.862 68.0488C117.579 65.2247 118.877 59.7476 115.654 57.0597Z" fill="#F283C5"/>
<path d="M98.6079 109.16L101.41 78C99.6386 81.2261 99.2341 81.7314 96.6007 84.3233C92.1916 88.6253 86.8095 91.8338 80.8973 93.6849C78.9947 94.3333 77.022 94.761 75.019 94.9596C71.305 95.3108 67.5577 94.878 64.0266 93.69C62.3041 93.2764 60.6781 92.5406 59.237 91.5225C57.227 90.0982 56.6249 87.9091 56.0125 86.9028C57.3106 93.5085 59.198 101.997 60.4962 108.603L82.4535 123.273L98.6079 109.16Z" fill="#F283C5"/>
<path d="M100.967 81.7305C100.967 81.7305 91.754 107.271 60.2049 108.412L56.2612 89.5948C56.2612 89.5948 60.2533 96.0262 71.4724 95.8672C73.9001 95.8416 77.5603 95.5096 79.9231 94.947C82.495 94.2942 84.9017 93.1239 87.247 91.8757C92.1723 89.3655 97.391 85.9677 100.967 81.7305Z" fill="#A31F81"/>
<path d="M50.9675 48.7434C53.3504 46.5052 56.1392 44.9467 59.1165 44.1896C60.7926 43.7085 62.5275 43.5801 64.2414 43.8101C65.8853 44.1137 67.4937 44.6415 69.0344 45.3831C69.6361 45.6463 70.1237 45.8973 70.466 46.0748C70.5231 46.0748 71.0885 46.3747 71.1404 46.8949C71.1922 47.4152 70.7202 47.8743 70.3467 48.0518C69.496 48.4496 68.9203 47.4825 67.0996 46.8276C66.152 46.5333 65.1828 46.3468 64.2051 46.2706C63.2713 46.1277 62.33 46.0643 61.3885 46.0809C60.6383 46.1058 59.89 46.1835 59.1477 46.3135C57.8437 46.5493 56.5557 46.895 55.2936 47.3479C53.5248 47.8926 52.0516 48.3823 50.9675 48.7434Z" fill="#10004F"/>
<path d="M101.683 50.0157C99.4801 47.5998 96.8201 45.8303 93.9103 44.8451C92.2765 44.2358 90.5567 43.9736 88.8301 44.0703C87.1677 44.2458 85.5233 44.6477 83.9299 45.2678C83.3096 45.4837 82.8041 45.6962 82.449 45.8467C82.3921 45.8423 81.8052 46.0976 81.7133 46.6122C81.6213 47.1269 82.0564 47.6211 82.415 47.827C83.2324 48.2895 83.8812 47.3698 85.7471 46.8577C86.7146 46.6376 87.6954 46.5266 88.676 46.5263C89.6181 46.456 90.5614 46.4656 91.4989 46.555C92.2449 46.6379 92.9849 46.7732 93.715 46.9602C94.9968 47.2962 96.2542 47.7405 97.4775 48.2896C99.1989 48.9696 100.63 49.5718 101.683 50.0157Z" fill="#10004F"/>
<path d="M49.9595 125.213L59.2191 107.258L82.5603 123.21L62.22 141.558L49.9595 125.213Z" fill="white"/>
<path d="M73.6639 52.1172H74.6073L73.6639 66.128C73.6639 66.128 71.9007 65.6383 71.374 66.128C71.6076 62.6559 72.8807 55.5256 73.6639 52.1172Z" fill="#10004F"/>
<path d="M75.626 64.9122C75.626 64.9122 76.1952 63.6336 76.9739 64.0053C77.7526 64.377 78.585 64.9965 78.5206 65.2789C78.4561 65.5614 78.5205 66.4733 77.7956 66.4733C77.0706 66.4733 76.4047 66.2701 76.3026 66.0223C76.2006 65.7745 75.626 64.9122 75.626 64.9122Z" fill="#10004F"/>
<path d="M74.0972 64.7511C74.0972 64.7511 73.9858 63.6793 73.1229 64.051C72.26 64.4227 71.333 65.0422 71.3739 65.3247C71.4147 65.6072 71.3739 66.5191 72.1843 66.5191C72.9946 66.5191 73.7467 66.3159 73.8633 66.0681C74.0972 65.687 73.8184 65.1096 74.0972 64.7511Z" fill="#10004F"/>
<path d="M64.083 75.4792C66.9086 71.5831 68.7748 72.0834 69.9873 72.2185C71.1998 72.3536 72.0117 73.354 73.7408 73.2907C74.6557 73.2358 75.5261 72.9523 76.229 72.4802C76.9289 72.1051 77.76 71.9188 78.6013 71.9484C81.2333 72.2185 81.2333 72.4497 83.251 74.4674C83.251 75.4793 83.251 76.7668 82.2421 78.0014C81.5557 78.7065 80.2784 79.7223 79.2814 80.1246C77.6834 80.8171 75.8676 81.1208 74.0571 80.9984C72.4625 81.032 70.8767 80.7976 69.4022 80.3103C67.2086 79.5667 65.0918 78.0013 64.083 75.4792Z" fill="#BA19A1"/>
<path fill-rule="evenodd" clip-rule="evenodd" d="M87.0371 72.5717C87.2506 72.9914 87.0834 73.5046 86.6637 73.718C86.2897 73.9082 83.8601 75.1128 83.4348 75.3051L83.434 75.3055C81.2524 76.2891 78.9419 77.049 76.5514 77.5701C76.5298 77.5748 76.5081 77.5786 76.4862 77.5816C75.1882 77.7605 73.8752 77.8489 72.5604 77.8459L72.5581 77.8459C70.4217 77.8353 68.2946 77.5996 66.2259 77.144C64.7128 76.8353 63.2288 76.4302 61.7868 75.932C61.3417 75.7783 61.1056 75.2929 61.2594 74.8479C61.4131 74.4029 61.8985 74.1668 62.3435 74.3205C63.716 74.7947 65.1299 75.1806 66.573 75.4747L66.5864 75.4774L66.5864 75.4775C68.5379 75.9079 70.5466 76.1309 72.5654 76.1409C73.7899 76.1437 75.0124 76.0621 76.2207 75.8971C78.4861 75.401 80.672 74.6804 82.7327 73.7514C83.1182 73.577 85.5131 72.3904 85.8908 72.1983C86.3105 71.9848 86.8237 72.152 87.0371 72.5717Z" fill="#10004F"/>
<path d="M107.463 64.8858L112.324 58.832C112.324 58.832 115.006 58.9671 112.324 61.5913L108.37 65.8939L107.463 64.8858Z" fill="#10004F"/>
<path d="M40.5631 64.9245C40.9635 62.0687 46.8952 69.8312 45.1175 69.634C44.2768 69.5049 43.1524 67.9131 42.6507 67.6196C42.149 67.3261 40.3223 66.1906 40.4427 65.5576" fill="#10004F"/>
<path d="M82.1511 54.4138C82.1511 54.4138 84.5809 50.7265 90.9648 51.0604C96.1619 51.3323 98.3174 55.4851 98.3174 55.4851C98.3174 55.4851 97.9998 59.5481 90.266 59.6594C82.5323 59.7707 82.1511 54.4138 82.1511 54.4138Z" fill="white"/>
<path d="M89.6514 59.5713C92.0075 59.5713 93.9175 57.6613 93.9175 55.3052C93.9175 52.9491 92.0075 51.0391 89.6514 51.0391C87.2953 51.0391 85.3853 52.9491 85.3853 55.3052C85.3853 57.6613 87.2953 59.5713 89.6514 59.5713Z" fill="#10004F"/>
<path d="M101.272 37.6484C102.757 40.2739 103.901 44.0544 104.596 46.9891C105.409 50.4253 105.404 53.0012 105.399 57.0919C105.361 61.4026 105.461 67.9573 105.032 72.2468C104.581 76.7625 103.097 80.8648 102.774 82.633C101.823 89.5794 101.359 91.2289 100.401 98.1788L107.427 92.7527C107.033 87.7382 107.35 82.6933 108.368 77.7673C109.424 72.7634 110.481 71.6497 111.083 66.9044C111.437 64.2019 112.055 59.0608 110.423 53.1806C108.816 47.5636 105.621 41.554 101.272 37.6484Z" fill="#10004F"/>
<path d="M59.729 16.5086L50.968 32.6998C50.968 32.6998 52.3805 34.7528 53.7611 32.6998L62.0653 16.5086C62.0653 16.5086 60.9547 14.1338 59.729 16.5086Z" fill="#E8B536"/>
<path fill-rule="evenodd" clip-rule="evenodd" d="M89.3167 51.3962C86.5726 51.7952 84.1217 53.5951 82.6371 55.102C82.4223 55.32 82.0715 55.3226 81.8535 55.1078C81.6355 54.893 81.6328 54.5422 81.8476 54.3242C83.412 52.7364 86.0725 50.748 89.1572 50.2995C90.7126 50.0734 92.3727 50.2399 94.0347 51.0434C95.693 51.8451 97.3201 53.2646 98.8414 55.4929C99.014 55.7456 98.949 56.0904 98.6962 56.2629C98.4435 56.4355 98.0987 56.3705 97.9262 56.1178C96.4882 54.0116 94.9991 52.7406 93.5524 52.0412C92.1094 51.3436 90.6758 51.1986 89.3167 51.3962Z" fill="#10004F"/>
<path d="M53.0078 54.2294C53.0078 54.2294 55.1117 50.347 61.5007 50.1311C67.0612 50.5004 69.2063 53.9076 69.2063 53.9076C69.2063 53.9076 69.239 57.9828 61.5434 58.7583C53.8478 59.5338 53.0078 54.2294 53.0078 54.2294Z" fill="white"/>
<path d="M60.9235 58.7239C63.2709 58.5215 65.0096 56.4544 64.8072 54.107C64.6047 51.7596 62.5377 50.0208 60.1903 50.2233C57.8429 50.4257 56.1041 52.4928 56.3065 54.8402C56.509 57.1876 58.5761 58.9264 60.9235 58.7239Z" fill="#10004F"/>
<path fill-rule="evenodd" clip-rule="evenodd" d="M59.6606 50.8851C57.0048 51.454 54.8103 53.3101 53.4606 54.9146C53.2636 55.1488 52.914 55.1789 52.6798 54.9819C52.4457 54.7849 52.4155 54.4354 52.6125 54.2012C54.0428 52.5009 56.4357 50.4425 59.4285 49.8015C62.4736 49.1492 66.0184 49.9896 69.6404 53.8641C69.8494 54.0876 69.8376 54.4383 69.6141 54.6473C69.3905 54.8563 69.0399 54.8444 68.8309 54.6209C65.4289 50.9818 62.264 50.3275 59.6606 50.8851Z" fill="#10004F"/>
</g>
<rect x="2" y="2" width="146" height="146" rx="73" stroke="white" stroke-width="4"/>
<defs>
<clipPath id="clip0_2420_37783">
<rect width="150" height="150" rx="75" fill="white"/>
</clipPath>
</defs>
</svg>
