<svg width="150" height="150" viewBox="0 0 150 150" fill="none" xmlns="http://www.w3.org/2000/svg">
<g clip-path="url(#clip0_2420_37743)">
<rect width="150" height="150" rx="75" fill="white"/>
<path d="M48.7539 35.6172C51.4753 33.1298 59.8408 26.0488 72.3972 25.3576C75.9676 25.178 89.4439 24.514 97.7822 32.6073C102.06 36.7602 102.681 42.4043 104.123 50.3562C105.106 55.8753 103.232 61.7411 102.856 67.3345C102.305 72.1024 100.34 80.1457 99.6832 85.0478C99.1063 89.3439 100.687 108.834 101.413 117.47C101.413 117.47 101.108 111.38 101.413 119.675C101.413 119.675 92.3449 139.617 77.8399 141.446C77.8399 141.446 63.2643 143.623 57.827 134.572C57.827 124.296 57.8923 110.02 57.8923 99.7382C54.0623 95.4575 50.9245 92.7324 48.7539 87.4144C45.2433 78.7549 45.2215 69.2207 45.1998 61.6607C45.1767 52.8571 43.3586 43.8693 48.7539 35.6172Z" fill="#F9ACAC"/>
<path d="M57.7184 99.6459V117.748C57.7184 117.748 89.2705 118.415 99.9202 93.5659C99.6371 95.1987 99.4468 88.3594 99.4468 88.3594C91.9413 99.4191 67.0853 106.765 57.7184 99.6459Z" fill="#F48787"/>
<path d="M66.9592 56.9975C66.292 56.0856 65.4814 55.2879 64.559 54.6353C63.6283 53.9694 62.6002 53.4516 61.511 53.1005C59.708 52.629 57.8087 52.6743 56.0302 53.2311C54.8251 53.6294 53.7117 54.2645 52.7556 55.0992C51.7994 55.9339 51.0197 56.9512 50.4622 58.0915C51.1284 58.6734 51.8589 59.1774 52.6393 59.5937C54.0662 60.3534 55.6257 60.832 57.233 61.0033C58.745 61.2142 60.284 61.1141 61.756 60.7094C63.8445 60.064 65.6692 58.7623 66.9592 56.9975V56.9975Z" fill="white"/>
<path d="M58.3895 61.237C56.0599 61.237 54.1714 59.3485 54.1714 57.0189C54.1714 54.6893 56.0599 52.8008 58.3895 52.8008C60.7191 52.8008 62.6077 54.6893 62.6077 57.0189C62.6077 59.3485 60.7191 61.237 58.3895 61.237Z" fill="#10004F"/>
<path d="M76.5978 57.4459C76.8209 57.1466 77.0876 56.82 77.3924 56.4826C77.8218 56.01 78.2838 55.5681 78.7749 55.16C79.3121 54.71 79.8835 54.3023 80.4839 53.9408C81.7223 53.1707 83.1358 52.7273 84.5922 52.6521C86.0486 52.5769 87.5002 52.8724 88.8113 53.5108C91.1136 54.5994 92.9152 56.3792 93.2581 57.0214C93.0022 57.6038 91.6252 58.7304 90.3734 59.7047C89.2245 60.5607 87.8641 61.0875 86.4383 61.2287C85.2819 61.2752 84.1246 61.1635 82.9985 60.8967C81.5908 60.5418 80.2492 59.9629 79.0253 59.1822C78.1675 58.6746 77.3553 58.0937 76.5978 57.4459V57.4459Z" fill="white"/>
<path d="M84.8832 61.237C82.5536 61.237 80.665 59.3485 80.665 57.0189C80.665 54.6893 82.5536 52.8008 84.8832 52.8008C87.2128 52.8008 89.1013 54.6893 89.1013 57.0189C89.1013 59.3485 87.2128 61.237 84.8832 61.237Z" fill="#10004F"/>
<path d="M71.312 58.4139L69.8384 58.3164L66.9601 68.554C66.9601 68.554 67.6477 69.9034 69.0034 68.6905L71.312 58.4139Z" fill="#10004F"/>
<path d="M71.8559 69.5594C71.1549 69.5594 70.5866 69.1535 70.5866 68.6528C70.5866 68.152 71.1549 67.7461 71.8559 67.7461C72.557 67.7461 73.1252 68.152 73.1252 68.6528C73.1252 69.1535 72.557 69.5594 71.8559 69.5594Z" fill="#10004F"/>
<path d="M63.9633 47.2866C64.6366 47.5161 65.287 47.8076 65.9064 48.1574C66.2543 48.36 66.5872 48.5874 66.9024 48.8378C67.5011 49.0718 67.7352 49.6161 67.5011 50.0297C67.2482 50.3727 66.8712 50.6032 66.4507 50.672C66.1102 50.6579 65.7733 50.5974 65.4492 50.4923C65.0067 50.3146 64.5909 50.0765 64.2137 49.7848C63.7184 49.4989 63.1878 49.2793 62.6353 49.1317C61.4687 48.7934 60.2575 48.6338 59.0431 48.6581C57.3164 48.5739 55.5886 48.8025 53.9432 49.333C53.0659 49.6262 52.2314 50.0343 51.4613 50.5468C50.9895 50.8613 50.5533 51.2263 50.1605 51.6353C49.3006 51.4013 49.1536 51.0911 49.1264 50.9387C48.9958 50.2964 50.3565 49.5725 51.3688 49.0391C52.4557 48.4801 53.5999 48.0403 54.7814 47.7274C55.8643 47.4104 56.9709 47.181 58.0906 47.0416C59.4295 46.8947 61.857 46.6008 63.9633 47.2866Z" fill="#10004F"/>
<path d="M80.1971 47.3355C79.5156 47.589 78.8587 47.9041 78.2344 48.2768C77.8855 48.4946 77.5514 48.7353 77.2343 48.9973C76.6294 49.2605 76.4164 49.7908 76.6763 50.2158C76.9567 50.55 77.356 50.7622 77.7899 50.8075C78.1427 50.7827 78.4904 50.7094 78.8232 50.5896C79.2709 50.399 79.6889 50.1452 80.0644 49.8358C80.564 49.5313 81.1015 49.2939 81.6631 49.1296C82.8562 48.7378 84.1006 48.5241 85.3561 48.4955C87.1379 48.3465 88.932 48.5088 90.6581 48.9752C91.5788 49.2348 92.4619 49.6127 93.2855 50.0993C93.7887 50.4035 94.2577 50.7612 94.6841 51.1661C95.5618 50.8926 95.6947 50.5823 95.7231 50.4255C95.8211 49.7814 94.3786 49.1104 93.31 48.6132C92.1554 48.0974 90.9509 47.7016 89.7154 47.4319C88.5798 47.1661 87.4253 46.9881 86.2623 46.8995C84.8673 46.7807 82.343 46.5707 80.1971 47.3355Z" fill="#10004F"/>
<path d="M56.5023 31.8084C53.8085 33.1973 51.5082 34.913 49.7726 36.8896C48.8149 38.3137 47.9237 39.9923 46.8319 41.9334L45.4794 48.8372V58.0669V61.3067L44.7782 66.9865L42.4117 62.2534L40.2817 46.102C40.2817 23.477 56.1132 17.4941 60.0021 16.292C68.4101 13.6932 79.4168 13.5403 87.519 16.2921C104.527 22.0687 107.851 39.3247 106.934 46.102L105.252 70.7143L102.05 63.0367V54.9904L101.737 51.5291C101.578 51.2488 101.407 50.9054 101.226 50.4938C94.2398 34.6378 83.0217 30.7311 66.6147 30.7311C62.1138 30.7311 58.9114 31.0852 56.5023 31.8084Z" fill="#10004F"/>
<path d="M57.7949 29.4329C50.1678 34.4198 45.4023 40.9816 45.4023 56.4742L43.9722 44.0802V38.5982L48.0241 31.2094L58.988 25.9658L76.8641 22.6289C81.5516 26.5219 93.4881 36.0876 84.064 33.2194C73.1777 29.9062 58.5113 32.6395 52.791 40.0283C51.8376 36.2147 59.5138 28.309 57.7949 29.4329Z" fill="#10004F"/>
<path d="M36.3108 65.5174C35.367 61.2426 37.0772 57.2307 40.1307 56.5566C43.1841 55.8825 46.4245 58.8014 47.3683 63.0762C48.3121 67.351 46.6019 71.3629 43.5484 72.037C40.495 72.7112 37.2546 69.7923 36.3108 65.5174Z" fill="#F9ACAC"/>
<path d="M100.866 116.1C72.4954 139.881 63.8613 126.009 57.0816 116.1C33.2719 116.1 13.0304 125.744 8.09584 140.88C5.16823 149.86 6.42075 146.081 5.39014 149.502H148.572C145.445 140.089 145.213 138.356 139.824 130.099C130.688 116.1 106.168 114.449 100.866 116.1Z" fill="#4658DF"/>
<path fill-rule="evenodd" clip-rule="evenodd" d="M55.5162 114.022C56.6247 113.417 58.0136 113.826 58.6182 114.934C61.0153 119.329 65.8961 124.481 72.6394 125.966C79.2236 127.416 88.2927 125.514 99.4927 114.406C100.389 113.516 101.837 113.522 102.726 114.419C103.615 115.316 103.609 116.763 102.713 117.652C90.815 129.453 80.2414 132.323 71.6559 130.432C63.2294 128.576 57.4133 122.275 54.6038 117.124C53.9992 116.015 54.4076 114.626 55.5162 114.022Z" fill="white"/>
<path d="M102.81 71.886C99.7259 70.8228 98.471 66.4545 100.007 62.1294C101.544 57.8042 105.289 55.1599 108.374 56.2232C111.458 57.2865 112.713 61.6547 111.177 65.9799C109.64 70.305 105.895 72.9493 102.81 71.886Z" fill="#F9ACAC"/>
<path d="M61.4093 78.9718C61.4906 78.5239 61.6518 78.0878 61.8872 77.6788C62.5096 76.6407 63.536 75.8169 64.7833 75.3543C66.0127 74.9011 67.2948 74.5686 68.6047 74.3632C71.2773 73.9497 74.0089 74.0548 76.5976 74.6708C77.1076 74.8112 77.6019 74.9881 78.0756 75.1997C78.636 75.4863 79.0942 75.8972 79.4035 76.3904C79.1579 77.1117 78.7959 77.8022 78.3283 78.4416C77.2554 79.87 75.7258 81.0075 73.9287 81.7131C72.9749 82.1056 69.7977 83.4138 66.2105 82.3424C64.2024 81.7209 62.5119 80.5342 61.4093 78.9718Z" fill="#B30F3B"/>
<path fill-rule="evenodd" clip-rule="evenodd" d="M81.8897 73.93C82.2895 74.4187 82.2174 75.1389 81.7287 75.5387C77.7509 78.7928 73.9598 80.2013 70.2194 80.4901C66.5146 80.7763 62.9461 79.9553 59.4424 78.9099C58.8373 78.7294 58.4932 78.0926 58.6737 77.4876C58.8542 76.8826 59.491 76.5385 60.0961 76.719C63.536 77.7453 66.7726 78.4631 70.0433 78.2105C73.2785 77.9607 76.6333 76.753 80.281 73.769C80.7697 73.3692 81.4899 73.4413 81.8897 73.93Z" fill="#10004F"/>
<path fill-rule="evenodd" clip-rule="evenodd" d="M104.733 68.4708C104.129 68.3083 103.78 67.6792 103.953 67.0656L106.239 58.9578C106.412 58.3442 107.042 57.9785 107.646 58.1409C108.249 58.3034 108.598 58.9325 108.425 59.5461L106.139 67.6539C105.966 68.2675 105.336 68.6332 104.733 68.4708Z" fill="#10004F"/>
<path fill-rule="evenodd" clip-rule="evenodd" d="M106.813 63.5814C106.506 64.1387 105.812 64.3459 105.263 64.0442L103.05 62.8263C102.501 62.5246 102.306 61.8283 102.614 61.271C102.921 60.7136 103.615 60.5064 104.164 60.8081L106.377 62.026C106.926 62.3277 107.121 63.0241 106.813 63.5814Z" fill="#10004F"/>
<path fill-rule="evenodd" clip-rule="evenodd" d="M39.6257 59.0022C40.2279 58.8168 40.8664 59.1551 41.0516 59.7578L43.5318 67.8273C43.717 68.43 43.3789 69.0689 42.7767 69.2543C42.1744 69.4398 41.536 69.1015 41.3507 68.4988L38.8706 60.4292C38.6853 59.8265 39.0234 59.1876 39.6257 59.0022Z" fill="#10004F"/>
<path fill-rule="evenodd" clip-rule="evenodd" d="M40.2916 62.7445C40.2684 62.1145 40.7603 61.585 41.3901 61.5618L43.9642 61.4669C44.5941 61.4436 45.1234 61.9355 45.1466 62.5655C45.1697 63.1955 44.6779 63.725 44.048 63.7482L41.474 63.8431C40.8441 63.8663 40.3147 63.3745 40.2916 62.7445Z" fill="#10004F"/>
<path d="M97.5532 46.7053C93.1987 43.2974 91.0846 36.8446 91.4002 33.9258C94.0823 36.0557 101.813 42.9188 103.706 46.7053C105.6 50.4919 103.154 56.3294 101.813 58.7749C102.286 51.9118 98.9732 44.1021 96.6067 41.9722C96.228 43.6761 97.0011 45.0487 97.5532 46.7053Z" fill="#10004F"/>
<path fill-rule="evenodd" clip-rule="evenodd" d="M91.0956 33.1992L91.6371 33.6292C92.9891 34.7029 95.6023 36.96 98.1158 39.4241C100.616 41.8746 103.068 44.5783 104.047 46.5368C105.055 48.5518 104.892 51.0675 104.343 53.3346C103.791 55.6141 102.829 57.7166 102.147 58.96L101.433 58.7505C101.665 55.384 100.968 51.7683 99.9146 48.7251C99.0204 46.1416 97.887 44.0213 96.8876 42.8226C96.8794 43.3074 96.9627 43.776 97.0976 44.2551C97.2006 44.6207 97.3324 44.9884 97.4763 45.3757C97.5023 45.4456 97.5287 45.5163 97.5553 45.5877C97.6748 45.9076 97.7996 46.2416 97.9147 46.5867L98.3148 47.7871L97.3183 47.0073C95.0765 45.2529 93.4257 42.7282 92.3753 40.2845C91.3287 37.8498 90.8536 35.4373 91.0212 33.8867L91.0956 33.1992ZM91.7523 34.7036C91.7846 36.078 92.2209 37.9956 93.0754 39.9835C93.9064 41.9165 95.1163 43.8772 96.6847 45.4318C96.5677 45.1112 96.456 44.7882 96.364 44.4617C96.1386 43.6611 96.0272 42.8247 96.2346 41.8914L96.3762 41.254L96.8615 41.6908C98.118 42.8217 99.5638 45.3817 100.635 48.4758C101.534 51.0749 102.187 54.1007 102.237 57.0656C102.737 55.9552 103.255 54.5889 103.602 53.1551C104.138 50.9455 104.251 48.6491 103.366 46.8776C102.451 45.0495 100.092 42.4284 97.5823 39.9683C95.4157 37.8444 93.1756 35.8767 91.7523 34.7036Z" fill="#10004F"/>
</g>
<rect x="2" y="2" width="146" height="146" rx="73" stroke="white" stroke-width="4"/>
<defs>
<clipPath id="clip0_2420_37743">
<rect width="150" height="150" rx="75" fill="white"/>
</clipPath>
</defs>
</svg>
