<svg width="150" height="150" viewBox="0 0 150 150" fill="none" xmlns="http://www.w3.org/2000/svg">
<g clip-path="url(#clip0_2420_37659)">
<rect width="150" height="150" rx="75" fill="white"/>
<path d="M74.4654 24.551C72.9399 27.4159 73.3312 32.7165 72.8545 33.1144C62.3672 30.7271 51.1072 43.1726 51.1072 50.3348C51.1072 57.497 53.2523 70.1502 54.4441 76.3574C55.6358 82.5646 61.1178 86.1457 61.3562 88.0556C61.5945 89.9655 62.2985 98.7989 62.2985 105.245C62.2985 111.691 63.978 111.343 61.3562 114.208C58.7343 117.073 43.197 117.166 36.0465 117.166C28.8961 117.166 24.6133 116.949 23.6599 112.174C22.7065 107.399 26.0806 109.065 27.749 105.245C29.4174 101.425 26.0806 103.335 24.8888 97.6052C23.6971 91.8755 27.749 93.3079 28.9408 89.7268C30.1325 86.1457 26.7956 86.1457 26.0806 81.3709C25.3655 76.5961 27.749 76.8349 29.8942 74.4475C32.0393 72.0601 28.2257 69.1952 27.749 64.6592C27.2723 60.1231 30.6092 59.6456 32.516 55.1096C34.4229 50.5736 32.7544 49.3799 32.516 44.1276C32.2777 38.8753 37.283 38.6366 39.6665 35.7717C42.05 32.9069 41.0966 31.4744 41.5733 27.4158C42.05 23.3573 47.7917 19.1847 49.1726 18.8129C53.9793 17.5188 51.9457 15.106 55.6432 12.3425C60.2754 8.88037 62.3257 12.764 65.6465 13.0916C71.1726 13.6367 70.2482 14.6405 77.0885 9.75444C80.1557 7.56358 79.4707 16.4339 79.4707 19.2988C79.4707 22.1637 76.3722 20.97 74.4654 24.551Z" fill="#10004F"/>
<path d="M59.542 122.038L60.6068 87.0636C80.3243 87.0636 91.0711 74.6474 93.7437 68.6094L94.668 116.677C88.0163 129.505 67.6586 123.622 59.542 122.038Z" fill="#F9ACAC"/>
<path d="M94.1632 76.0742C85.1477 90.4854 67.5413 94.7819 60.2825 93.1982V98.0047C60.2825 98.0047 83.3736 106.013 94.1632 95.4753V76.0742Z" fill="#DD5252"/>
<path d="M96.3149 64.8469C93.5417 92.7632 77.6591 95.7553 69.1137 95.7553C60.5682 95.7553 49.0124 90.8995 46.6017 62.6946C44.7529 41.0647 52.6299 29.4092 73.7782 30.8963C93.2842 34.627 96.3149 45.3001 96.3149 64.8469Z" fill="#F9ACAC"/>
<path d="M48.4143 53.6361C50.554 51.1751 53.0583 49.4615 55.7317 48.629C57.2368 48.1001 58.7946 47.9588 60.3336 48.2118C61.8097 48.5456 63.254 49.126 64.6374 49.9413C65.1777 50.2307 65.6155 50.5066 65.9229 50.7018C65.9742 50.7018 66.4819 51.0316 66.5285 51.6036C66.575 52.1757 66.1512 52.6804 65.8158 52.8756C65.0519 53.313 64.5349 52.2497 62.9001 51.5296C62.0492 51.206 61.1789 51.0009 60.301 50.9172C59.4625 50.76 58.6173 50.6903 57.7718 50.7085C57.0982 50.736 56.4263 50.8214 55.7597 50.9643C54.5888 51.2235 53.4323 51.6036 52.2989 52.1016C50.7106 52.7006 49.3878 53.239 48.4143 53.6361Z" fill="#10004F"/>
<path d="M92.2661 54.0032C90.1264 51.5423 87.6221 49.8287 84.9487 48.9962C83.4436 48.4673 81.8858 48.326 80.3468 48.579C78.8707 48.9128 77.4264 49.4931 76.043 50.3085C75.5027 50.5979 75.0649 50.8738 74.7575 51.069C74.7062 51.069 74.1985 51.3988 74.152 51.9708C74.1054 52.5429 74.5293 53.0476 74.8646 53.2428C75.6285 53.6802 76.1455 52.6169 77.7804 51.8968C78.6312 51.5732 79.5015 51.3681 80.3794 51.2844C81.2179 51.1272 82.0632 51.0575 82.9086 51.0757C83.5822 51.1031 84.2541 51.1885 84.9207 51.3315C86.0916 51.5907 87.2482 51.9708 88.3815 52.4688C89.9698 53.0678 91.2926 53.6062 92.2661 54.0032Z" fill="#10004F"/>
<path d="M75.5056 57.624C75.5056 57.624 77.5493 54.4155 82.9191 54.7061C87.2906 54.9427 89.1037 58.5562 89.1037 58.5562C89.1037 58.5562 88.8365 62.0915 82.3314 62.1884C75.8262 62.2852 75.5056 57.624 75.5056 57.624Z" fill="white"/>
<path d="M81.6018 61.721C83.6735 61.721 85.353 60.1465 85.353 58.2042C85.353 56.262 83.6735 54.6875 81.6018 54.6875C79.5301 54.6875 77.8506 56.262 77.8506 58.2042C77.8506 60.1465 79.5301 61.721 81.6018 61.721Z" fill="#10004F"/>
<path fill-rule="evenodd" clip-rule="evenodd" d="M81.6579 54.7225C79.2334 54.8789 77.0394 56.2129 75.8726 57.6908C75.7683 57.8229 75.5767 57.8455 75.4446 57.7411C75.3124 57.6368 75.2899 57.4452 75.3942 57.3131C76.6618 55.7074 79.012 54.2824 81.6186 54.1142C84.25 53.9445 87.1108 55.0576 89.3582 58.4703C89.4508 58.6109 89.4119 58.7999 89.2713 58.8925C89.1307 58.9851 88.9417 58.9462 88.8491 58.8056C86.7147 55.5644 84.0575 54.5677 81.6579 54.7225Z" fill="#10004F"/>
<path d="M50.749 57.6524C50.749 57.6524 52.5505 54.328 58.0211 54.1432C62.7824 54.4594 64.6192 57.3768 64.6192 57.3768C64.6192 57.3768 64.6472 60.8663 58.0578 61.5303C51.4684 62.1943 50.749 57.6524 50.749 57.6524Z" fill="white"/>
<path d="M57.5284 61.5C59.5384 61.3266 61.0272 59.5567 60.8539 57.5467C60.6805 55.5368 58.9106 54.0479 56.9006 54.2213C54.8906 54.3946 53.4018 56.1646 53.5751 58.1745C53.7485 60.1845 55.5184 61.6734 57.5284 61.5Z" fill="#10004F"/>
<path fill-rule="evenodd" clip-rule="evenodd" d="M56.5802 54.5342C54.0385 54.9174 51.8955 56.4309 51.0444 58.0713C50.9669 58.2207 50.7829 58.279 50.6335 58.2015C50.4841 58.1239 50.4258 57.94 50.5033 57.7906C51.4601 55.9464 53.7914 54.3382 56.4893 53.9314C59.2095 53.5213 62.3197 54.3279 64.8255 57.3348C64.9333 57.4642 64.9158 57.6563 64.7865 57.7641C64.6572 57.8719 64.465 57.8544 64.3572 57.7251C61.9942 54.8895 59.0996 54.1543 56.5802 54.5342Z" fill="#10004F"/>
<path fill-rule="evenodd" clip-rule="evenodd" d="M84.02 18.9709C84.0239 19.3514 83.7186 19.663 83.3382 19.6669C80.393 19.697 74.1215 21.4827 72.3957 28.2902C72.3022 28.659 71.9274 28.8822 71.5586 28.7887C71.1898 28.6952 70.9666 28.3205 71.0601 27.9516C73.0042 20.2829 80.0629 18.3225 83.3241 18.2891C83.7045 18.2852 84.0161 18.5905 84.02 18.9709Z" fill="#7F8DE4"/>
<path d="M83.1891 10.1247C77.2732 6.79693 75.2359 11.67 73.3907 12.8979C72.5458 15.0612 66.9899 17.9501 65.6261 21.7719C63.9213 26.5491 67.6209 27.6391 69.7113 31.8194C71.1904 34.7773 78.5506 33.2644 80.2493 37.1807C82.0981 41.4434 84.5903 41.4612 88.6206 42.3678C92.6508 43.2745 93.618 49.1068 94.4943 51.8426C95.3706 54.5784 96.0281 58.0804 95.9132 61.5568C95.7982 65.0332 95.2191 70.1222 94.4943 73.7215C93.7695 77.3208 93.375 77.4847 93.7448 77.4847L91.7114 114.644C91.7114 114.644 97.9753 115.869 100.585 114.644C105.312 112.426 105.403 114.51 109.459 114.644C113.515 114.778 114.365 115.76 118.265 115.76C128.643 115.76 121.698 115.802 128.643 114.644C134.189 113.72 126.098 105.77 127.751 100.964C130.455 93.1039 122.386 91.2406 121.362 87.1464C120.337 83.0523 122.867 82.5559 122.814 78.3006C122.762 74.0453 116.693 74.461 116.38 68.2273C116.181 64.2486 118.442 57.6239 116.38 56.5282C113.565 55.0321 113.576 53.6337 112.545 49.7327C111.514 45.8317 113.155 42.9858 111.171 38.6666C109.187 34.3474 106.264 35.0242 103.463 32.0314C100.662 29.0386 103.075 26.2182 99.5209 22.6205C95.9663 19.0227 93.0958 20.2578 89.8445 19.1836C86.5931 18.1094 88.0994 12.8869 83.1891 10.1247Z" fill="#10004F"/>
<path d="M60.6331 78.1739C63.0116 74.8944 64.5825 75.3155 65.6031 75.4292C66.6238 75.5429 67.3071 76.385 68.7627 76.3317C69.5328 76.2855 70.2655 76.0469 70.8572 75.6495C71.4463 75.3338 72.1459 75.1769 72.8541 75.2018C75.0696 75.4292 75.0696 75.6238 76.768 77.3222C76.768 78.174 76.768 79.2578 75.9188 80.297C75.341 80.8906 74.2658 81.7456 73.4265 82.0843C72.0815 82.6672 70.2867 83.4629 68.7627 83.3598C67.4203 83.3881 66.2124 83.23 64.9712 82.8198C63.1247 82.1938 61.4823 80.297 60.6331 78.1739Z" fill="#BA19A1"/>
<path fill-rule="evenodd" clip-rule="evenodd" d="M79.9288 75.74C80.1013 76.0792 79.9662 76.4939 79.627 76.6664C79.3121 76.8266 77.2675 77.8403 76.9102 78.0018L76.9096 78.0021C75.075 78.8292 73.1321 79.4683 71.1217 79.9065C71.1043 79.9103 71.0867 79.9134 71.069 79.9159C69.9777 80.0663 68.8738 80.1405 67.7684 80.138L67.7665 80.138C65.9702 80.1291 64.1816 79.9309 62.4421 79.5478C61.1695 79.2882 59.9215 78.9475 58.7088 78.5286C58.3492 78.4043 58.1583 78.0121 58.2826 77.6525C58.4068 77.2929 58.7991 77.102 59.1587 77.2263C60.3153 77.6258 61.5067 77.951 62.7226 78.1988L62.7334 78.201L62.7334 78.2011C64.3782 78.5638 66.0711 78.7517 67.7724 78.7602C68.8049 78.7625 69.8356 78.6937 70.8545 78.5546C72.7638 78.1365 74.6061 77.5292 76.343 76.7462C76.6684 76.599 78.6846 75.5999 79.0025 75.4383C79.3416 75.2658 79.7563 75.4009 79.9288 75.74Z" fill="#10004F"/>
<path d="M66.9393 68.2401C66.304 68.5123 64.8521 69.4194 65.3058 70.1451C65.7596 70.7801 67.2115 70.0544 67.5745 69.6008C67.9375 69.1472 67.6653 67.8773 66.9393 68.2401Z" fill="#10004F"/>
<path d="M70.9608 68.2401C71.5961 68.5123 73.048 69.4194 72.5943 70.1451C72.1405 70.78 70.6886 70.0544 70.3256 69.6008C70.0533 69.1472 70.3256 67.8773 70.9608 68.2401Z" fill="#10004F"/>
<path fill-rule="evenodd" clip-rule="evenodd" d="M76.4746 12.9973C76.6599 12.9543 76.845 13.0696 76.8881 13.2549C77.8818 17.5357 76.2346 21.1262 74.0226 23.711C72.9167 25.0033 71.6644 26.0516 70.515 26.8208C69.3713 27.5862 68.3086 28.0892 67.5773 28.272C67.3927 28.3182 67.2057 28.206 67.1595 28.0214C67.1134 27.8368 67.2256 27.6498 67.4102 27.6037C68.0346 27.4476 69.0224 26.9908 70.1319 26.2483C71.2356 25.5096 72.439 24.5019 73.4992 23.2631C75.6195 20.7854 77.1459 17.4123 76.217 13.4107C76.174 13.2254 76.2893 13.0403 76.4746 12.9973Z" fill="#4658DF"/>
<path d="M54.3672 26.2733C44.6177 33.7204 43.4483 48.5111 44.7973 57.8206L45.901 58.811C45.4595 53.2649 46.8208 46.4643 47.5566 43.7573C49.8504 33.1405 58.6792 28.9011 63.426 28.3069C73.0952 27.0965 86.3503 29.8515 89.8629 35.7018C94.6995 43.7573 95.2243 50.6766 95.7789 58.811L96.7033 58.811C96.9976 51.8388 95.5272 40.5217 94.4848 36.6262C90.05 20.0532 66.07 17.334 54.3672 26.2733Z" fill="#E8B536"/>
<path d="M38.0618 65.3379C36.1938 61.3124 36.87 57.0325 39.5722 55.7785C42.2745 54.5246 45.9794 56.7715 47.8474 60.797C49.7154 64.8226 49.0391 69.1025 46.3369 70.3564C43.6347 71.6103 39.9298 69.3635 38.0618 65.3379Z" fill="#F9ACAC"/>
<path d="M104.202 64.386C105.889 59.9309 104.832 55.4012 101.842 54.2687C98.8512 53.1363 95.0592 55.8298 93.3721 60.2849C91.685 64.74 92.7417 69.2696 95.7323 70.4021C98.7229 71.5346 102.515 68.8411 104.202 64.386Z" fill="#F9ACAC"/>
<path fill-rule="evenodd" clip-rule="evenodd" d="M98.5588 66.1412C98.0102 65.9838 97.6931 65.4115 97.8505 64.8629L99.6676 58.5293C99.825 57.9807 100.397 57.6636 100.946 57.8209C101.495 57.9783 101.812 58.5506 101.654 59.0992L99.8371 65.4329C99.6797 65.9815 99.1074 66.2986 98.5588 66.1412Z" fill="#10004F"/>
<path fill-rule="evenodd" clip-rule="evenodd" d="M100.354 62.3397C100.062 62.8302 99.4276 62.9912 98.9371 62.6994L97.2078 61.6705C96.7173 61.3787 96.5563 60.7445 96.8481 60.254C97.1399 59.7636 97.7741 59.6025 98.2646 59.8943L99.9939 60.9233C100.484 61.2151 100.645 61.8493 100.354 62.3397Z" fill="#10004F"/>
<path fill-rule="evenodd" clip-rule="evenodd" d="M40.9678 59.0806C41.5133 58.9129 42.0915 59.2191 42.2593 59.7646L44.1962 66.0626C44.3639 66.6081 44.0577 67.1863 43.5122 67.3541C42.9667 67.5219 42.3885 67.2157 42.2208 66.6702L40.2838 60.3721C40.1161 59.8266 40.4223 59.2484 40.9678 59.0806Z" fill="#10004F"/>
<path fill-rule="evenodd" clip-rule="evenodd" d="M41.3847 62.1465C41.3613 61.5763 41.8046 61.095 42.3748 61.0716L44.3854 60.989C44.9556 60.9656 45.4369 61.4089 45.4603 61.9791C45.4837 62.5494 45.0404 63.0306 44.4702 63.054L42.4596 63.1366C41.8894 63.16 41.4081 62.7167 41.3847 62.1465Z" fill="#10004F"/>
<path d="M70.668 34.1585C77.3235 32.4947 72.9776 29.4138 72.4847 28.6743C71.5973 27.9348 63.4876 29.7861 60.8377 30.7104C57.8797 30.8953 50.8545 37.7356 50.115 38.8449C49.3755 39.9541 46.9722 47.534 46.6024 49.9373C46.3066 51.86 45.678 57.702 46.4176 58.4415C46.6024 57.702 46.7873 55.2987 46.9722 53.8197C47.1571 52.3407 48.0814 48.1767 50.115 43.7398C51.7617 40.147 54.3876 38.9002 56.9435 37.007C63.9352 31.8279 64.752 35.6375 70.668 34.1585Z" fill="#10004F"/>
<path fill-rule="evenodd" clip-rule="evenodd" d="M57.2447 113.092C58.1711 112.711 58.9184 111.214 58.6744 106.641V97.2415C59.1993 97.3717 59.8649 97.6634 60.6876 98.0239C62.8533 98.973 66.1072 100.399 70.7461 100.611C78.4951 100.966 82.2608 100.453 87.2107 98.6688C88.644 98.1521 89.8517 97.6903 90.8673 97.302C92.9893 96.4906 94.2723 96 95.021 96V106.641L97.741 112.688C104.781 112.453 119.906 114.676 126.736 122.896C126.83 123.045 126.924 123.194 127.019 123.344C130.914 129.516 135 135.99 135 150H17C18.7009 142.771 19.5507 139.911 20.5742 136.468C21.0125 134.993 21.4827 133.411 22.0652 131.333C25.4362 119.306 40.2959 113.423 57.2447 113.092Z" fill="#4658DF"/>
<path fill-rule="evenodd" clip-rule="evenodd" d="M95.6505 106.006C95.8251 106.344 95.6926 106.759 95.3545 106.934C89.615 109.898 76.1407 113.714 61.4791 107.135C61.1319 106.98 60.9768 106.572 61.1326 106.225C61.2883 105.878 61.696 105.722 62.0431 105.878C76.2219 112.24 89.2461 108.538 94.7223 105.71C95.0603 105.535 95.4759 105.668 95.6505 106.006Z" fill="#1B0088"/>
<path fill-rule="evenodd" clip-rule="evenodd" d="M58.1588 109.779C58.2924 109.423 58.6895 109.242 59.0457 109.376C62.2095 110.563 67.2449 112.028 72.5583 112.782C77.8907 113.54 83.4035 113.567 87.5827 111.966C87.938 111.83 88.3363 112.008 88.4724 112.363C88.6085 112.718 88.4307 113.117 88.0754 113.253C83.5656 114.98 77.7702 114.914 72.3645 114.146C66.9398 113.376 61.8071 111.883 58.562 110.666C58.2057 110.533 58.0252 110.135 58.1588 109.779Z" fill="#1B0088"/>
<path d="M67.3548 17.2479C69.7399 17.1442 72.4364 19.51 73.8428 20.9649C73.2507 22.7023 72.1058 28.9042 71.3289 30.0413C70.3578 31.4626 65.308 31.4663 61.4166 30.5108C58.2314 29.7287 61.7217 25.0129 61.9339 21.1891C62.1461 17.3654 64.3735 17.3774 67.3548 17.2479Z" fill="#E8B536"/>
<path d="M78.6185 18.6124C76.3287 17.9371 72.9286 19.2189 71.2131 20.2921C71.3692 22.1209 70.8343 28.9962 71.3143 30.287C71.9144 31.9004 76.9127 31.5988 80.0667 32.4984C83.2206 33.398 82.505 27.2028 82.7172 23.3791C82.941 19.3453 81.4807 19.4565 78.6185 18.6124Z" fill="#E8B536"/>
</g>
<rect x="2" y="2" width="146" height="146" rx="73" stroke="white" stroke-width="4"/>
<defs>
<clipPath id="clip0_2420_37659">
<rect width="150" height="150" rx="75" fill="white"/>
</clipPath>
</defs>
</svg>
