<svg width="150" height="150" viewBox="0 0 150 150" fill="none" xmlns="http://www.w3.org/2000/svg">
<g clip-path="url(#clip0_2420_37837)">
<rect width="150" height="150" rx="75" fill="white"/>
<g clip-path="url(#clip1_2420_37837)">
<path d="M46.2099 36.0493C48.9709 33.5257 57.4583 26.3415 70.1977 25.6402C73.8202 25.458 87.4928 24.7843 95.9526 32.9956C100.293 37.2089 100.922 42.9353 102.386 51.003C103.383 56.6025 101.482 62.5538 101.101 68.2287C100.541 73.066 99.566 78.341 98.8997 83.3145C98.3144 87.6733 98.8997 86.81 99.6358 95.5715C99.6358 95.5715 99.3265 112.916 99.6358 121.332C99.6358 121.332 90.436 141.565 75.7198 143.42C75.7198 143.42 60.9317 145.629 55.4152 136.446C55.4152 126.02 55.4814 111.536 55.4814 101.105C51.5957 96.7615 48.4839 91.7838 46.2817 86.3883C42.72 77.6027 42.6261 70.1424 42.604 62.4723C42.5806 53.5404 43.7941 44.6483 46.2099 36.0493Z" fill="#F9ACAC"/>
<path d="M55.304 101.012V119.379C55.304 119.379 90.3083 126.778 99.4805 95.4904C99.1933 97.147 99.4805 84.2344 99.4805 84.2344C91.8656 95.4552 64.8075 108.235 55.304 101.012Z" fill="#F48787"/>
<path d="M44.3317 35.4267C42.4959 32.2865 35.3032 28.2494 36.963 16.4062C39.9327 16.528 44.7936 13.4244 47.8229 13.3921C52.0026 13.3476 52.7083 18.3714 56.8422 18.2444C60.8625 18.1208 58.6829 7.16332 69.1747 16.4062C74.159 16.4405 72.4879 5.55584 84.8204 17.6232C89.2337 18.3834 86.1065 7.27034 96.7847 21.4293C98.0709 12.4945 101.912 25.5799 103.44 27.8759C108.343 35.2433 107.487 45.5224 101.659 65.8532C98.1635 59.9506 100.739 34.3148 93.748 37.8738C81.6762 44.0194 62.7736 40.2516 51.177 35.4267C43.7184 42.6338 42.4919 63.8449 44.3317 65.8532C38.3262 59.2673 40.0921 41.7232 44.3317 35.4267Z" fill="#10004F"/>
<path d="M64.6807 57.7426C64.0037 56.8174 63.1813 56.0081 62.2454 55.346C61.3012 54.6704 60.2581 54.1451 59.1531 53.7888C57.3238 53.3104 55.3968 53.3563 53.5924 53.9213C52.3697 54.3254 51.2402 54.9698 50.27 55.8166C49.2999 56.6635 48.5089 57.6956 47.9433 58.8525C48.6192 59.4429 49.3603 59.9542 50.1521 60.3766C51.5998 61.1474 53.182 61.6329 54.8128 61.8068C56.3467 62.0207 57.9082 61.9192 59.4016 61.5086C61.5205 60.8538 63.3719 59.5331 64.6807 57.7426V57.7426Z" fill="white"/>
<path d="M55.9851 62.0436C53.6215 62.0436 51.7055 60.1275 51.7055 57.764C51.7055 55.4004 53.6215 53.4844 55.9851 53.4844C58.3486 53.4844 60.2646 55.4004 60.2646 57.764C60.2646 60.1275 58.3486 62.0436 55.9851 62.0436Z" fill="#10004F"/>
<path d="M74.4591 58.1956C74.6855 57.8919 74.956 57.5606 75.2653 57.2182C75.7009 56.7388 76.1696 56.2904 76.6679 55.8764C77.2129 55.4198 77.7927 55.0062 78.4018 54.6394C79.6582 53.8581 81.0923 53.4082 82.5699 53.332C84.0475 53.2557 85.5203 53.5554 86.8505 54.2032C89.1864 55.3076 91.0142 57.1133 91.3621 57.7649C91.1025 58.3558 89.7054 59.4989 88.4354 60.4873C87.2697 61.3558 85.8895 61.8903 84.4429 62.0335C83.2697 62.0807 82.0955 61.9674 80.953 61.6966C79.5248 61.3366 78.1637 60.7492 76.9219 59.9572C76.0516 59.4422 75.2276 58.8529 74.4591 58.1956V58.1956Z" fill="white"/>
<path d="M82.8645 62.0436C80.5009 62.0436 78.5849 60.1275 78.5849 57.764C78.5849 55.4004 80.5009 53.4844 82.8645 53.4844C85.228 53.4844 87.144 55.4004 87.144 57.764C87.144 60.1275 85.228 62.0436 82.8645 62.0436Z" fill="#10004F"/>
<path d="M69.0964 59.177L67.6014 59.0781L64.6811 69.4648C64.6811 69.4648 65.3788 70.8339 66.7542 69.6033L69.0964 59.177Z" fill="#10004F"/>
<path d="M69.6482 70.4843C68.937 70.4843 68.3604 70.0724 68.3604 69.5644C68.3604 69.0564 68.937 68.6445 69.6482 68.6445C70.3595 68.6445 70.936 69.0564 70.936 69.5644C70.936 70.0724 70.3595 70.4843 69.6482 70.4843Z" fill="#10004F"/>
<path d="M61.6407 47.8906C62.3238 48.1234 62.9837 48.4192 63.6121 48.7741C63.9651 48.9796 64.3028 49.2103 64.6226 49.4643C65.23 49.7018 65.4675 50.254 65.23 50.6737C64.9734 51.0216 64.591 51.2555 64.1643 51.3253C63.8189 51.311 63.4771 51.2497 63.1482 51.1431C62.6993 50.9627 62.2775 50.7211 61.8947 50.4252C61.3922 50.1351 60.8538 49.9124 60.2933 49.7625C59.1097 49.4194 57.8809 49.2574 56.6488 49.2821C54.8969 49.1966 53.144 49.4286 51.4746 49.9669C50.5845 50.2643 49.7378 50.6783 48.9566 51.1983C48.4778 51.5174 48.0353 51.8877 47.6368 52.3027C46.7643 52.0652 46.6152 51.7505 46.5876 51.5959C46.4551 50.9443 47.8356 50.2098 48.8627 49.6687C49.9654 49.1015 51.1263 48.6553 52.325 48.3378C53.4237 48.0162 54.5464 47.7835 55.6824 47.6421C57.0408 47.493 59.5037 47.1948 61.6407 47.8906Z" fill="#10004F"/>
<path d="M78.111 47.938C77.4196 48.1953 76.7531 48.515 76.1197 48.8931C75.7657 49.1141 75.4268 49.3583 75.1051 49.6241C74.4913 49.8911 74.2752 50.4292 74.5389 50.8604C74.8234 51.1994 75.2285 51.4147 75.6687 51.4607C76.0267 51.4355 76.3794 51.3611 76.7171 51.2396C77.1713 51.0463 77.5954 50.7887 77.9763 50.4748C78.4832 50.1658 79.0286 49.925 79.5983 49.7584C80.8088 49.3608 82.0714 49.144 83.3451 49.115C85.1529 48.9638 86.9732 49.1285 88.7244 49.6017C89.6585 49.8651 90.5545 50.2484 91.3901 50.7422C91.9007 51.0508 92.3764 51.4137 92.809 51.8245C93.6995 51.547 93.8344 51.2322 93.8632 51.0731C93.9627 50.4196 92.4991 49.7388 91.415 49.2344C90.2436 48.7111 89.0215 48.3095 87.768 48.0359C86.6158 47.7662 85.4445 47.5856 84.2646 47.4957C82.8492 47.3752 80.2882 47.1622 78.111 47.938Z" fill="#10004F"/>
<path d="M101.046 74.8679C98.5265 73.6974 97.8126 69.8893 99.4513 66.3623C101.09 62.8354 104.461 60.925 106.98 62.0955C109.499 63.266 110.213 67.074 108.574 70.601C106.936 74.128 103.565 76.0384 101.046 74.8679Z" fill="#F9ACAC"/>
<path d="M106.813 64.6133C106.813 64.6133 102.323 69.0309 101.291 71.5655H102.323L106.813 65.6404V64.6133Z" fill="#10004F"/>
<path d="M35.3364 69.077C34.4728 65.1654 36.0377 61.4944 38.8317 60.8775C41.6257 60.2607 44.5908 62.9316 45.4544 66.8432C46.318 70.7548 44.7531 74.4258 41.9591 75.0427C39.1651 75.6596 36.2 72.9886 35.3364 69.077Z" fill="#F9ACAC"/>
<path d="M41.4502 71.241C41.4502 71.241 37.8779 65.8192 37.2333 62.9336L38.155 63.0179L41.5828 70.0964L41.4502 71.241Z" fill="#10004F"/>
<path fill-rule="evenodd" clip-rule="evenodd" d="M99.9772 84.594L99.9774 84.5911C100.462 77.182 101.011 68.7937 103.497 58.8465C102.823 56.7615 100.37 54.0633 100.002 61.9741C99.7112 68.2225 95.0343 79.6397 90.8029 82.9512C88.7638 84.547 85.7768 85.3539 83.764 85.6628C83.6067 81.1005 83.2402 75.9049 80.9261 74.4173C76.8788 70.7378 62.2773 69.6906 56.3788 72.8551C54.0593 74.0995 53.7189 79.073 53.7862 83.4648C48.4033 78.3758 45.1917 67.7144 43.4818 62.0381C42.3375 58.2396 41.8657 56.6734 41.8657 60.5034C41.9079 61.1494 42.0692 61.9744 42.2615 62.9583C42.7214 65.3101 43.3587 68.5696 42.9696 72.461C42.9696 76.6867 43.2691 77.9167 43.6771 79.5917C43.9085 80.5419 44.1748 81.6354 44.4411 83.5003C45.6813 92.1859 52.7904 102.361 58.368 105.613C58.3745 105.629 58.3809 105.644 58.3872 105.659C64.5687 110.075 74.2313 110.122 82.265 107.221L82.2682 107.203C89.6351 104.564 99.049 98.222 99.8177 86.9952C99.8717 86.2061 99.9241 85.4059 99.9772 84.594Z" fill="#10004F"/>
<path d="M76.4885 78.4123C76.377 77.9246 76.1907 77.4571 75.9363 77.0263C75.267 75.9349 74.2317 75.1169 73.0152 74.718C71.8163 74.328 70.5769 74.076 69.3209 73.9671C66.7588 73.7508 64.1809 74.1131 61.7778 75.0273C61.3058 75.2285 60.8515 75.4686 60.4194 75.7452C59.911 76.1124 59.509 76.6078 59.2542 77.1809C59.5424 77.9559 59.9383 78.6865 60.4304 79.3511C61.5563 80.8332 63.0923 81.9525 64.848 82.5704C65.7813 82.9183 68.8902 84.0779 72.2034 82.5704C74.0566 81.7025 75.5653 80.2385 76.4885 78.4123Z" fill="#E95878"/>
<path fill-rule="evenodd" clip-rule="evenodd" d="M56.8539 75.8504C57.0302 75.489 57.466 75.339 57.8274 75.5153C64.3465 78.6953 70.7722 77.89 75.5211 77.2948C76.3748 77.1878 77.1743 77.0876 77.9105 77.0185C78.3108 76.981 78.6657 77.2751 78.7033 77.6754C78.7408 78.0757 78.4467 78.4307 78.0464 78.4682C77.3651 78.5321 76.6061 78.6285 75.7808 78.7333C71.0476 79.3344 64.1353 80.2123 57.189 76.8239C56.8277 76.6476 56.6776 76.2118 56.8539 75.8504Z" fill="#10004F"/>
<path d="M54.8824 118.995C37.423 117.226 18.4909 125.344 11.5016 143.845C7.65218 154.035 7.34448 155.114 7.34448 155.114H146.065C146.065 155.114 145.014 151.148 140.002 137.21C134.99 123.273 111.039 117.766 101.211 118.995C80.1564 127.486 65.0437 120.024 54.8824 118.995Z" fill="#6617A3"/>
<path d="M54.9044 107.203L47.7012 117.768L72.192 137.937L77.7144 122.57L54.9044 107.203Z" fill="white"/>
<path d="M99.805 105.762L106.048 119.208L81.797 137.696L76.9949 122.329L99.805 105.762Z" fill="white"/>
</g>
</g>
<rect x="2" y="2" width="146" height="146" rx="73" stroke="white" stroke-width="4"/>
<defs>
<clipPath id="clip0_2420_37837">
<rect width="150" height="150" rx="75" fill="white"/>
</clipPath>
<clipPath id="clip1_2420_37837">
<rect width="143.182" height="143.182" fill="white" transform="translate(5.11353 11.9336)"/>
</clipPath>
</defs>
</svg>
