<svg width="150" height="150" viewBox="0 0 150 150" fill="none" xmlns="http://www.w3.org/2000/svg">
<g clip-path="url(#clip0_2420_37619)">
<rect width="150" height="150" rx="75" fill="white"/>
<path d="M57.2988 12.0018C63.0654 1.91046 82.6752 12.3277 86.2936 15.2084C75.3397 16.5975 73.7534 26.4423 74.3295 31.191L61.0022 29.4554C55.8524 29.6762 52.1154 37.2417 49.9192 44.2145C49.9227 44.596 49.5714 46.73 48.611 51.8084C45.9895 65.6714 52.9117 77.5909 55.3167 82.8622C57.7216 88.1334 63.5343 89.1333 66.6298 89.2964L64.9101 104.645C62.1257 103.522 52.5652 100.275 42.2289 100.054C34.3025 99.8836 25.4036 104.378 24.2544 103.773C23.1052 103.168 21.4188 95.0127 27.7966 87.6099C32.2297 82.4642 24.6958 83.188 24.9017 73.5835C25.1006 64.3083 28.3062 63.8423 33.6702 57.5777C39.0341 51.3131 34.3939 50.9236 35.1612 42.2405C35.9284 33.5575 40.8838 32.7938 46.1918 29.1378C58.1999 20.867 52.8195 19.8403 57.2988 12.0018Z" fill="#2D34CE"/>
<path d="M41.323 62.3397C39.7458 58.1749 40.7336 53.9404 43.5293 52.8817C46.325 51.823 49.8699 54.3411 51.4471 58.5059C53.0242 62.6707 52.0364 66.9051 49.2407 67.9638C46.445 69.0225 42.9001 66.5045 41.323 62.3397Z" fill="#F9ACAC"/>
<path d="M49.4263 63.4171L48.8814 62.5403C48.3087 61.5949 48.0637 61.1027 47.3886 59.8725C45.9337 57.2353 46.3951 58.2528 46.036 57.5201C45.677 56.7874 45.4113 56.1744 44.7684 55.9903C44.556 55.9279 44.331 55.9219 44.1142 55.9727C44.0285 56.0563 43.9577 56.1546 43.9053 56.2631C43.5553 57.0111 44.3391 57.9311 45.186 59.2339C45.8858 60.3215 47.9175 63.4169 48.7797 63.9915C48.8911 64.0685 49.1764 64.2595 49.4263 63.4171Z" fill="#10004F"/>
<path d="M62.6794 115.368V82.3712C81.8988 82.3712 91.9137 70.6003 94.5188 64.7148L94.7815 107.37C88.2979 119.874 70.591 116.912 62.6794 115.368Z" fill="#F9ACAC"/>
<path d="M95.3871 74.8477C86.5994 88.8948 69.7548 90.4385 62.6794 88.8948V96.6988C62.6794 96.6988 84.8701 100.844 95.3871 90.5719V74.8477Z" fill="#F48787"/>
<path d="M98.0243 62.4983C98.0243 81.5512 81.9862 93.1219 67.4359 91.716C58.1994 90.8235 48.0718 82.8612 48.0718 58.6356C48.0718 32.7674 54.5444 24.6413 75.1585 26.0909C94.1717 29.7273 98.0243 43.4454 98.0243 62.4983Z" fill="#F9ACAC"/>
<path d="M50.0888 48.9532C52.1374 46.9842 54.5352 45.6131 57.0949 44.947C58.5359 44.5238 60.0275 44.4108 61.5011 44.6132C62.9144 44.8803 64.2972 45.3446 65.6218 45.997C66.1391 46.2286 66.5583 46.4493 66.8527 46.6055C66.9017 46.6055 67.3878 46.8694 67.4324 47.3271C67.477 47.7848 67.0712 48.1886 66.7501 48.3448C66.0187 48.6948 65.5237 47.844 63.9583 47.2678C63.1437 47.0089 62.3104 46.8448 61.4698 46.7778C60.667 46.6521 59.8577 46.5963 59.0482 46.6109C58.4033 46.6328 57.7599 46.7012 57.1217 46.8155C56.0006 47.023 54.8932 47.3271 53.8081 47.7255C52.2874 48.2048 51.0208 48.6355 50.0888 48.9532Z" fill="#10004F"/>
<path d="M94.1772 50.201C92.2561 48.0939 89.936 46.5504 87.3979 45.6911C85.9728 45.1597 84.4728 44.9309 82.9668 45.0153C81.5168 45.1684 80.0824 45.5189 78.6926 46.0598C78.1516 46.2481 77.7107 46.4334 77.401 46.5647C77.3514 46.5609 76.8394 46.7835 76.7592 47.2325C76.679 47.6814 77.0585 48.1125 77.3714 48.292C78.0843 48.6954 78.6502 47.8932 80.2777 47.4466C81.1216 47.2546 81.977 47.1578 82.8324 47.1575C83.6541 47.0962 84.4769 47.1045 85.2946 47.1825C85.9453 47.2548 86.5908 47.3729 87.2276 47.536C88.3456 47.829 89.4423 48.2165 90.5093 48.6956C92.0108 49.2886 93.2588 49.8139 94.1772 50.201Z" fill="#10004F"/>
<path d="M77.1177 54.2886C77.1177 54.2886 79.3611 50.6655 85.2554 50.9937C90.054 51.2608 92.0442 55.3413 92.0442 55.3413C92.0442 55.3413 91.7509 59.3334 84.6103 59.4428C77.4696 59.5522 77.1177 54.2886 77.1177 54.2886Z" fill="white"/>
<path d="M84.1339 59.041C86.4733 59.041 88.3698 57.2349 88.3698 55.0068C88.3698 52.7788 86.4733 50.9727 84.1339 50.9727C81.7944 50.9727 79.8979 52.7788 79.8979 55.0068C79.8979 57.2349 81.7944 59.041 84.1339 59.041Z" fill="#10004F"/>
<path fill-rule="evenodd" clip-rule="evenodd" d="M83.5675 51.3924C80.9278 51.7762 78.5786 53.5045 77.1599 54.9445C76.9945 55.1124 76.7243 55.1144 76.5564 54.949C76.3886 54.7836 76.3865 54.5134 76.5519 54.3455C78.032 52.8432 80.5426 50.9698 83.4447 50.5478C84.9057 50.3354 86.4636 50.4918 88.024 51.2462C89.5815 51.9991 91.116 53.3353 92.5549 55.4428C92.6878 55.6375 92.6377 55.903 92.4431 56.0359C92.2484 56.1687 91.9829 56.1187 91.85 55.924C90.4754 53.9106 89.0471 52.6887 87.6526 52.0145C86.2609 51.3417 84.8774 51.202 83.5675 51.3924Z" fill="#10004F"/>
<path d="M50.2191 54.181C50.2191 54.181 52.2194 50.4898 58.2937 50.2846C63.5804 50.6356 65.6199 53.8751 65.6199 53.8751C65.6199 53.8751 65.651 57.7496 58.3344 58.4869C51.0178 59.2242 50.2191 54.181 50.2191 54.181Z" fill="white"/>
<path d="M57.7464 58.4522C59.9782 58.2598 61.6314 56.2945 61.4389 54.0627C61.2464 51.8309 59.2811 50.1777 57.0493 50.3702C54.8175 50.5627 53.1643 52.528 53.3568 54.7598C53.5493 56.9916 55.5146 58.6447 57.7464 58.4522Z" fill="#10004F"/>
<path fill-rule="evenodd" clip-rule="evenodd" d="M56.5234 50.9013C53.968 51.4486 51.8636 53.2316 50.5731 54.7657C50.4214 54.9461 50.1522 54.9693 49.9719 54.8176C49.7915 54.6659 49.7683 54.3967 49.92 54.2163C51.2726 52.6084 53.5297 50.6697 56.3447 50.0667C59.1999 49.4551 62.5358 50.2373 65.9597 53.8997C66.1206 54.0719 66.1115 54.3419 65.9394 54.5029C65.7672 54.6638 65.4972 54.6547 65.3362 54.4826C62.0818 51.0014 59.0386 50.3625 56.5234 50.9013Z" fill="#10004F"/>
<path d="M70.4191 53.1634L66.5963 66.0184C66.6569 65.8935 66.7466 65.7831 66.8586 65.6953C66.9706 65.6075 67.1023 65.5445 67.2439 65.511C67.3854 65.4775 67.5334 65.4742 67.677 65.5015C67.8206 65.5288 67.9561 65.5858 68.0737 65.6686L69.0805 66.2534L70.8322 53.5052L70.4191 53.1634Z" fill="#10004F"/>
<path d="M71.9925 67.2789C72.54 67.3119 73.0009 67.0543 73.0221 66.7036C73.0432 66.3529 72.6165 66.0419 72.069 66.0089C71.5215 65.976 71.0605 66.2335 71.0394 66.5842C71.0183 66.9349 71.445 67.2459 71.9925 67.2789Z" fill="#10004F"/>
<path d="M67.7783 67.0257C68.4627 67.067 69.0403 66.7213 69.0684 66.2537C69.0966 65.7861 68.5647 65.3737 67.8803 65.3325C67.1959 65.2912 66.6183 65.6369 66.5901 66.1044C66.562 66.572 67.0939 66.9845 67.7783 67.0257Z" fill="#10004F"/>
<path d="M61.8345 73.8364C62.0339 73.4179 62.2976 73.029 62.6171 72.6819C63.0476 72.1444 63.6335 71.7337 64.3055 71.4986C64.4164 71.4639 65.9445 71.0137 66.8627 71.7352C67.3125 72.0816 67.2201 72.4048 67.7069 72.6473C67.9554 72.75 68.224 72.8031 68.4956 72.8031C68.7673 72.8031 69.0359 72.75 69.2844 72.6473C69.9684 72.3702 70.0609 71.8507 70.3936 71.6198C70.9544 71.233 72.3469 71.5159 75.8778 74.2058C75.7926 74.653 75.6626 75.0917 75.4896 75.5162C75.3536 75.8813 75.176 76.2316 74.9597 76.561C74.1882 77.6091 73.0646 78.3854 71.7678 78.766C71.4658 78.8642 66.949 80.3592 63.8864 77.652C62.7719 76.6269 62.0505 75.2854 61.8345 73.8364Z" fill="#E95878"/>
<path fill-rule="evenodd" clip-rule="evenodd" d="M59.6483 72.316C59.8595 72.0214 60.2697 71.9538 60.5644 72.165C61.1353 72.5743 62.0564 73.2001 63.0214 73.7662C64.0051 74.3433 64.9667 74.8175 65.6388 74.9759C66.7741 75.2436 67.9505 75.3371 69.1216 75.2524L69.1256 75.2522L69.1256 75.2522C70.2667 75.1767 71.3934 74.9651 72.478 74.6227L72.4902 74.6189L72.4903 74.619C74.1146 74.1407 75.6604 73.4548 77.0834 72.5814C77.3924 72.3918 77.7966 72.4885 77.9863 72.7975C78.176 73.1065 78.0792 73.5108 77.7702 73.7005C76.2491 74.6341 74.5989 75.3663 72.8672 75.8767C71.6844 76.2496 70.4569 76.4798 69.2142 76.5622C67.9118 76.6562 66.6025 76.5522 65.3375 76.2539C64.4566 76.0462 63.3472 75.4796 62.3571 74.8987C61.3483 74.307 60.3928 73.6576 59.7993 73.2321C59.5046 73.0209 59.437 72.6107 59.6483 72.316Z" fill="#10004F"/>
<path d="M82.3045 39.0432C73.2605 35.569 71.6757 29.4892 72.4487 24.5675C73.3183 19.3562 81.3779 13.8555 83.407 13.8555C85.0303 13.8555 95.2917 19.2597 100.22 21.9619C109.918 27.2797 118.387 41.5534 114.603 53.2294C113.308 64.7899 118.748 75.2514 124.694 86.0636C125.206 86.4924 125.623 87.0715 125.961 87.7461C128.093 91.0518 127.967 94.055 127.217 96.376C126.061 99.9576 117.032 100.42 108.916 98.3937C99.2884 95.9898 96.798 97.1082 94.479 99.0382L94.9608 75.4316L95.6385 72.3374L97.0878 53.2294C96.624 46.7443 86.9423 41.9384 82.3045 39.0432Z" fill="#2D34CE"/>
<path d="M104.322 60.9655C105.86 56.9025 104.897 52.7715 102.169 51.7387C99.4419 50.7059 95.9837 53.1623 94.4451 57.2253C92.9065 61.2883 93.8701 65.4193 96.5975 66.4521C99.3249 67.4849 102.783 65.0285 104.322 60.9655Z" fill="#F9ACAC"/>
<path d="M96.4181 62.0179L96.9496 61.1625C97.5083 60.2402 97.7473 59.7601 98.406 58.56C99.8252 55.9872 99.3751 56.9798 99.7254 56.265C100.076 55.5503 100.335 54.9523 100.962 54.7726C101.169 54.7118 101.389 54.7059 101.6 54.7555C101.684 54.837 101.753 54.9329 101.804 55.0388C102.145 55.7685 101.381 56.6659 100.555 57.937C99.872 58.9979 97.8899 62.0177 97.0488 62.5783C96.9402 62.6534 96.6618 62.8397 96.4181 62.0179Z" fill="#10004F"/>
<path fill-rule="evenodd" clip-rule="evenodd" d="M84.6257 16.5404C84.6294 16.903 84.3385 17.1999 83.9759 17.2036C81.0681 17.2334 75.2644 18.6913 73.2363 24.5119C73.1171 24.8543 72.7428 25.0351 72.4004 24.9158C72.058 24.7965 71.8772 24.4222 71.9964 24.0799C74.2933 17.488 80.8208 15.9228 83.9625 15.8907C84.325 15.8869 84.622 16.1778 84.6257 16.5404Z" fill="#A7B1E9"/>
<path d="M96.995 105.615C75.2552 123.861 64.9176 113.217 59.7224 105.615C41.4774 105.615 25.2237 111.507 21.6196 123.941C19.6028 130.899 15.2756 140.261 14.876 149.998H139.549C139.549 135.593 134.412 121.807 130.282 115.471C121.813 105.615 101.058 104.348 96.995 105.615Z" fill="#E95878"/>
<path d="M81.6248 107.189C80.7598 108.487 77.8796 116.286 77.9396 117.787C91.7943 117.787 98.023 108.391 101.267 105.207C100.366 103.765 96.7619 101.603 95.3202 100.882C93.8786 100.161 82.706 105.567 81.6248 107.189Z" fill="white"/>
<path d="M75.1375 107.01C76.8675 107.875 78.7416 112.596 79.4624 116.2C80.003 119.444 71.8338 116.801 69.7314 116.02C62.8116 112.272 59.0394 107.19 58.5588 105.208C60.1807 102.685 61.4421 100.162 62.7035 100.703C63.9649 101.243 72.9751 105.929 75.1375 107.01Z" fill="white"/>
<path fill-rule="evenodd" clip-rule="evenodd" d="M76.3605 25.9215C76.7211 25.8836 77.0441 26.1453 77.082 26.5058C77.3059 28.6388 79.3973 33.8847 86.1143 36.7693C90.4498 38.6311 93.3595 40.0677 95.4331 41.8464C97.5411 43.6547 98.748 45.7819 99.7797 48.9264C99.8927 49.2709 99.705 49.6418 99.3605 49.7548C99.016 49.8678 98.6451 49.6802 98.5321 49.3357C97.5466 46.332 96.4452 44.4445 94.5782 42.843C92.6767 41.2118 89.9446 39.8431 85.5962 37.9757C78.4189 34.8934 76.047 29.2226 75.7761 26.643C75.7383 26.2824 75.9999 25.9594 76.3605 25.9215Z" fill="#A7B1E9"/>
</g>
<rect x="2" y="2" width="146" height="146" rx="73" stroke="white" stroke-width="4"/>
<defs>
<clipPath id="clip0_2420_37619">
<rect width="150" height="150" rx="75" fill="white"/>
</clipPath>
</defs>
</svg>
