<svg width="150" height="150" viewBox="0 0 150 150" fill="none" xmlns="http://www.w3.org/2000/svg">
<g clip-path="url(#clip0_2420_37593)">
<rect width="150" height="150" rx="75" fill="white"/>
<path d="M102.558 52.5856C101.727 52.5052 103.198 53.3284 102.426 53.648C103.702 51.4777 100.343 53.0038 99.8145 53.648C103.048 47.1614 102.802 43.5923 102.426 36.3593C102.145 31.42 100.978 26.5708 98.9806 22.0415C96.756 17.7188 93.3762 14.0921 89.2141 11.5613C85.0519 9.03057 80.2691 7.69409 75.393 7.69923C64.1173 7.79697 56.6553 15.5423 54.0924 18.1994C49.9598 22.4752 46.8634 27.8261 44.5028 35.7974C40.3702 49.7365 39.8061 78.7448 53.4914 95.9702C59.1753 103.129 70.4129 102.895 76.8877 99.0656C84.8585 93.7147 93.2171 75.2407 95.4796 68.5216C97.2618 72.6905 101.323 71.1776 101.323 71.1776C106.369 68.256 107.697 61.8816 107.697 61.8816C109.886 53.2445 102.558 52.5856 102.558 52.5856Z" fill="#F9ACAC"/>
<path d="M45.8122 15.9316C51.9741 9.34467 65.3781 6.81201 71.0442 6.90055C85.6522 6.10366 93.3545 11.4164 97.6042 15.1347C103.713 18.5876 103.979 35.8515 103.979 41.1635C103.979 45.4131 101.588 53.5848 100.791 56.5949L98.401 57.9229C97.2501 56.949 94.6826 54.2576 93.6202 51.2829C92.2922 47.5645 91.761 44.3507 91.761 39.3043C91.761 34.2579 91.761 28.414 90.433 30.2732C89.3706 31.7606 92.0251 36.9132 89.6362 37.4444C88.3613 32.5574 84.8554 25.4924 84.8554 23.8989C82.2879 23.5447 78.906 24.9613 76.3562 24.9613C73.169 24.9613 65.7322 25.7853 60.6858 23.1293C56.7758 21.0714 51.8955 23.5123 49.9137 24.8359C49.8524 24.8816 49.7909 24.9237 49.7298 24.9613C49.8075 24.9157 30.2722 49.9517 49.7269 24.9629C46.9098 26.6163 42.4733 32.3268 40.2346 32.9295C40.8721 29.9548 41.0314 25.4546 47.937 21.5085C53.5145 18.3213 53.2489 18.3486 50.3273 19.1453C47.4057 19.9421 39.9691 23.1293 43.4218 19.1453C43.9956 18.4833 45.1925 16.6398 45.8122 15.9316Z" fill="#10004F"/>
<path d="M102.65 52.5837C97.1252 51.9463 95.567 57.276 95.4785 60.0205L102.65 58.4268V52.5837Z" fill="#F9ACAC"/>
<path d="M69.0534 41.38C69.8164 40.7578 70.6525 40.2337 71.5425 39.8196C74.2911 38.6138 77.3607 38.384 80.2542 39.1673C81.8235 39.5423 83.3567 40.0584 84.8356 40.7095C85.7401 41.1066 86.6231 41.5522 87.4809 42.0444C87.4809 42.0444 87.3968 43.5134 84.6853 42.2699C82.4703 41.145 80.0197 40.5803 77.5427 40.6242C76.359 40.6066 75.1824 40.8133 74.0736 41.2337C72.8629 41.836 71.6991 42.5308 70.5925 43.3123V43.3123C70.3436 43.3736 70.0827 43.3621 69.8401 43.279C69.5974 43.1959 69.383 43.0447 69.2218 42.843C69.0605 42.6412 68.9592 42.3972 68.9294 42.1393C68.8996 41.8814 68.9426 41.6202 69.0534 41.3861V41.38Z" fill="#10004F"/>
<path d="M46.5618 43.5718C46.5618 43.5718 50.4845 39.367 56.0686 38.8004C56.0686 38.8004 60.3453 38.2458 63.0744 39.8979C63.0744 39.8979 65.2157 40.9655 63.7881 42.379C63.4608 42.3928 63.1329 42.3708 62.8104 42.3134C62.306 42.2235 61.8198 42.0523 61.3709 41.8064C60.6667 41.4882 59.9363 41.2308 59.1877 41.037C57.7152 40.6539 56.1892 40.5148 54.6711 40.6255C53.3562 40.6431 52.0608 40.9443 50.8743 41.5082C50.0688 41.8363 49.3184 42.2848 48.6491 42.8382C48.1932 43.2557 47.7074 43.8283 47.0896 43.7686C46.8992 43.7507 46.7171 43.6827 46.5618 43.5718Z" fill="#10004F"/>
<path d="M67.6531 51.0868C67.6531 51.0868 71.4826 46.8518 76.8887 46.5493C76.8887 46.5493 81.4792 45.8414 85.792 50.2761C85.4359 51.1756 84.9429 52.0145 84.3303 52.7627C83.157 54.1549 81.6133 55.185 79.8786 55.7333C77.9451 56.3295 75.8829 56.3673 73.9289 55.8422C71.3241 55.0844 69.0897 53.3913 67.6531 51.0868V51.0868Z" fill="white"/>
<path d="M77.3568 55.3664C79.9195 55.3664 81.9969 53.3833 81.9969 50.9371C81.9969 48.4909 79.9195 46.5078 77.3568 46.5078C74.7941 46.5078 72.7166 48.4909 72.7166 50.9371C72.7166 53.3833 74.7941 55.3664 77.3568 55.3664Z" fill="#10004F"/>
<path d="M47.405 51.4768C47.8932 50.6298 48.5234 49.868 49.2698 49.2226C50.3373 48.3069 51.6102 47.6461 52.9872 47.293C54.8799 46.7676 56.8922 46.813 58.7578 47.4231C60.6234 48.0332 62.2544 49.1793 63.4348 50.7097C63.4348 50.7097 60.8168 56.2802 55.2103 56.2094C55.2103 56.2094 49.0268 55.9202 47.405 51.4768Z" fill="white"/>
<path d="M55.2093 55.3664C57.6555 55.3664 59.6386 53.4778 59.6386 51.1481C59.6386 48.8183 57.6555 46.9297 55.2093 46.9297C52.7631 46.9297 50.78 48.8183 50.78 51.1481C50.78 53.4778 52.7631 55.3664 55.2093 55.3664Z" fill="#10004F"/>
<path d="M65.5442 63.7772L65.8613 62.1133C65.8613 62.1133 67.7268 62.6612 68.075 63.844C68.075 63.844 68.1434 65.6884 65.5442 63.7772Z" fill="#10004F"/>
<path d="M61.0751 62.1133L62.1697 63.1787C62.1697 63.1787 61.0751 64.7872 60.0462 64.634C60.0298 64.634 58.6452 63.868 61.0751 62.1133Z" fill="#10004F"/>
<path fill-rule="evenodd" clip-rule="evenodd" d="M102.571 56.655C102.674 56.7099 102.712 56.8377 102.657 56.9405L98.5175 64.6807C98.4625 64.7834 98.3347 64.8221 98.232 64.7672C98.1293 64.7122 98.0905 64.5844 98.1455 64.4817L102.285 56.7415C102.34 56.6388 102.468 56.6 102.571 56.655Z" fill="#10004F"/>
<path fill-rule="evenodd" clip-rule="evenodd" d="M100.243 60.8211C100.299 60.7187 100.427 60.6807 100.529 60.7362L103.719 62.4655C103.822 62.521 103.86 62.6491 103.804 62.7515C103.749 62.8539 103.621 62.8919 103.518 62.8364L100.328 61.1071C100.226 61.0516 100.188 60.9235 100.243 60.8211Z" fill="#10004F"/>
<path d="M95.4944 67.4583L97.3382 138.373C97.3382 138.373 83.73 151.401 60.0603 139.701V100.536C61.3687 100.962 62.7213 101.239 64.092 101.362C65.4826 101.476 66.8815 101.439 68.2643 101.252C71.2468 100.963 74.1333 100.041 76.7312 98.5472C79.3068 96.9869 80.5977 95.2369 83.1121 91.8164C85.6265 88.3959 86.9724 85.6975 89.1809 81.2735C90.5087 78.6388 91.7032 75.9389 92.7598 73.1842C93.3716 71.6362 93.806 70.3022 94.1363 69.2865C94.1363 69.2865 93.9711 66.2773 95.4944 67.4583Z" fill="#F9ACAC"/>
<path d="M60.0603 119.063C65.5825 116.896 70.6403 113.709 74.9652 109.669C85.9652 99.3531 88.0185 88.3333 90.4324 78.9883C88.5991 82.253 85.898 87.7204 84.688 89.644C83.7041 91.1975 82.9036 92.4111 81.7852 93.8918C80.1475 96.0217 79.3408 97.0836 77.9536 98.1395C76.2456 99.3573 74.3184 100.239 72.2763 100.737C68.3182 101.943 64.1019 102.041 60.0909 101.022L60.0603 119.063Z" fill="#DD5252"/>
<path d="M53.5138 67.2474C50.2749 68.9851 51.4682 79.0091 51.4682 82.0763C51.4681 88.1759 53.2849 94.882 54.5763 98.0031C60.0004 101.878 66.2627 103.846 77.6203 99.0655C78.1584 95.9983 77.7495 84.0781 77.6203 79.8163C77.4912 75.5544 77.8186 68.7004 75.5586 67.2474C72.0071 64.0187 58.6897 64.4706 53.5138 67.2474Z" fill="#10004F"/>
<path d="M56.2637 73.7557C56.4757 73.1086 56.7783 72.4948 57.1625 71.9327C58.1797 70.5102 59.6379 69.4635 61.3105 68.955C61.9542 68.7484 66.1689 67.4784 69.6124 69.9212C70.5261 70.578 71.2951 71.4157 71.8716 72.3824C71.6039 73.9404 70.91 75.3939 69.867 76.5813C68.8239 77.7688 67.4724 78.6438 65.9624 79.1094C64.7492 79.457 63.4695 79.503 62.2344 79.2436C60.9993 78.9841 59.8463 78.427 58.8751 77.6206C57.6528 76.609 56.7464 75.2676 56.2637 73.7557V73.7557Z" fill="#E95878"/>
<path fill-rule="evenodd" clip-rule="evenodd" d="M75.6143 70.7664C75.7283 70.9697 75.6559 71.2268 75.4527 71.3407C72.3628 73.0732 68.8865 74.0564 65.3202 74.2073C61.7342 74.3942 58.1405 74.3942 54.5545 74.2072C54.3218 74.1951 54.143 73.9966 54.1551 73.764C54.1673 73.5313 54.3657 73.3525 54.5984 73.3646C58.1558 73.5501 61.721 73.5501 65.2784 73.3646L65.2825 73.3644L65.2825 73.3644C68.7183 73.2193 72.066 72.2722 75.04 70.6048C75.2433 70.4908 75.5004 70.5632 75.6143 70.7664Z" fill="#10004F"/>
<path fill-rule="evenodd" clip-rule="evenodd" d="M44.907 45.5204C45.1785 44.8478 45.8647 44.543 46.5037 44.543H62.826C63.7277 44.543 64.5434 45.1413 64.739 46.0473C65.1246 47.8328 65.4143 50.1801 65.1991 52.3225C64.9854 54.4506 64.2619 56.4742 62.523 57.4652L62.5025 57.4769L62.4806 57.4856C60.43 58.3013 57.1435 59.1386 53.893 59.0174C50.6415 58.8962 47.3632 57.81 45.4493 54.7072C45.3621 54.5659 45.2955 54.4125 45.2505 54.2552C44.9504 53.2064 44.6149 51.6554 44.4767 50.059C44.3394 48.4725 44.3925 46.7945 44.907 45.5204ZM46.5037 45.218C46.0486 45.218 45.671 45.431 45.5329 45.7731C45.0792 46.8968 45.0146 48.4449 45.1492 50.0008C45.2831 51.547 45.6092 53.0549 45.8995 54.0695C45.9282 54.1698 45.9703 54.2662 46.0238 54.3529C47.7727 57.1882 50.7852 58.2261 53.9181 58.3429C57.0404 58.4593 60.2201 57.6549 62.2089 56.8672C63.6424 56.0378 64.3214 54.3072 64.5275 52.2551C64.7331 50.2077 64.4563 47.9361 64.0792 46.1898C63.9559 45.6188 63.4353 45.218 62.826 45.218H46.5037Z" fill="#10004F"/>
<path fill-rule="evenodd" clip-rule="evenodd" d="M68.28 45.5204C68.5516 44.8478 69.2377 44.543 69.8768 44.543H86.199C87.1007 44.543 87.9164 45.1413 88.1121 46.0473C88.4977 47.8328 88.7873 50.1801 88.5722 52.3225C88.3585 54.4506 87.6349 56.4742 85.8961 57.4652L85.8756 57.4769L85.8537 57.4856C83.803 58.3013 80.5165 59.1386 77.266 59.0174C74.0145 58.8962 70.7362 57.81 68.8223 54.7072C68.7352 54.5659 68.6686 54.4125 68.6236 54.2552C68.3235 53.2064 67.9879 51.6554 67.8498 50.059C67.7125 48.4725 67.7655 46.7945 68.28 45.5204ZM69.8768 45.218C69.4216 45.218 69.0441 45.431 68.9059 45.7731C68.4522 46.8968 68.3876 48.4449 68.5223 50.0008C68.6561 51.547 68.9822 53.0549 69.2726 54.0695C69.3013 54.1698 69.3434 54.2662 69.3968 54.3529C71.1458 57.1882 74.1582 58.2261 77.2912 58.3429C80.4135 58.4593 83.5931 57.6549 85.5819 56.8672C87.0155 56.0378 87.6945 54.3072 87.9006 52.2551C88.1062 50.2077 87.8294 47.9361 87.4523 46.1898C87.329 45.6188 86.8083 45.218 86.199 45.218H69.8768Z" fill="#10004F"/>
<path d="M64.936 47.5391H68.1232V49.6639H64.936V47.5391Z" fill="#10004F"/>
<path d="M25.3605 135.452C32.1599 131.627 52.9829 120.844 59.3573 119.781C56.3826 136.142 72.0175 141.295 80.3397 139.967C95.4257 139.967 97.6922 124.739 96.5413 118.453L119.383 125.359C129.476 128.015 144.455 133.167 150.192 139.967C155.929 146.766 155.12 150.002 155.12 150.002H14.7217C19.9451 139.024 18.5612 139.276 25.3605 135.452Z" fill="#4658DF"/>
<path d="M69.9823 135.451C63.3856 132.744 61.5846 126.485 61.6189 121.723C61.6305 120.107 60.1292 118.683 58.5658 119.094C57.6242 119.342 56.9615 120.192 57.0175 121.165C57.2762 125.656 58.5736 131.744 61.4831 134.654C64.9359 138.107 69.9823 141.294 77.6847 141.825C85.3871 142.356 90.9758 137.823 95.4799 130.67C99.258 124.669 100.061 121.706 99.5997 119.446C99.4332 118.63 98.7198 118.074 97.9089 117.883C96.2614 117.496 94.7301 118.752 94.515 120.431C94.206 122.842 93.3292 125.947 90.8411 129.663C90.748 129.802 90.6401 129.937 90.5263 130.059C83.9939 137.09 80.2505 139.663 69.9823 135.451Z" fill="white"/>
</g>
<rect x="2" y="2" width="146" height="146" rx="73" stroke="white" stroke-width="4"/>
<defs>
<clipPath id="clip0_2420_37593">
<rect width="150" height="150" rx="75" fill="white"/>
</clipPath>
</defs>
</svg>
