<svg width="150" height="150" viewBox="0 0 150 150" fill="none" xmlns="http://www.w3.org/2000/svg">
<g clip-path="url(#clip0_2420_37712)">
<rect width="150" height="150" rx="75" fill="white"/>
<path d="M74.6692 42.9184C81.3358 43.5353 87.759 45.7231 93.4071 49.3005C94.6996 50.173 95.8667 51.2167 96.8761 52.4026C97.9185 53.667 98.7925 55.06 99.4764 56.547C100.607 58.9589 101.421 61.5057 101.898 64.1246C102.563 67.4352 103.315 71.1136 102.773 75.9937C102.44 79.0184 101.683 81.9818 100.524 84.7974C99.3894 87.6212 97.9427 90.3107 96.2107 92.8164C93.9261 95.9405 91.121 98.6527 87.9169 100.835C85.9822 102.092 80.8556 105.17 74.5767 105.924C72.4586 106.16 70.322 106.182 68.1993 105.991C66.4378 105.86 64.6971 105.529 63.0111 105.004C59.7661 103.906 56.8635 101.988 54.588 99.4376C51.9939 96.4703 51.0327 93.454 49.9112 89.9227C49.6031 88.9602 49.295 87.734 48.7343 85.294C47.502 80.2484 47.1323 77.324 46.9351 76.0979C46.4192 73.0411 46.4005 69.9216 46.8796 66.8589C47.5309 62.6895 49.1328 58.7238 51.5626 55.2657C53.4646 52.1493 56.0101 49.4703 59.0306 47.4061C63.6438 44.3204 69.113 42.751 74.6692 42.9184V42.9184Z" fill="#F283C5"/>
<path d="M67.6313 63.0401C67.8152 62.86 67.9583 62.6422 68.0509 62.4016C68.1435 62.161 68.1835 61.9032 68.1681 61.6457C68.134 61.3434 68.0141 61.0573 67.8226 60.8215C64.2876 59.1579 60.3266 58.634 56.4833 59.3219C54.9594 59.7212 53.5036 60.3479 52.1648 61.181C51.0357 61.8889 49.9994 62.7363 49.0801 63.7031L49.1788 64.1183C49.1788 64.1183 49.9561 63.6412 50.3448 63.4243C51.0939 63.0334 51.8666 62.6898 52.6583 62.3956C53.9847 61.844 54.1513 61.7759 54.4228 61.6953C55.0025 61.5211 55.5943 61.3906 56.1934 61.3049C57.6073 61.0471 59.0485 60.9742 60.4811 61.088C61.8996 61.29 63.2959 61.6261 64.6515 62.0919C65.8916 62.4451 66.9219 62.7922 67.6313 63.0401Z" fill="#10004F"/>
<path d="M78.0879 63.4619C77.904 63.2818 77.761 63.0641 77.6683 62.8235C77.5757 62.5829 77.5358 62.3251 77.5512 62.0676C77.5853 61.7653 77.7052 61.4792 77.8966 61.2434C81.4317 59.5798 85.3927 59.0559 89.2359 59.7437C90.7599 60.1431 92.2156 60.7697 93.5545 61.6028C94.6836 62.3108 95.7199 63.1581 96.6392 64.125L96.5404 64.5402C96.5404 64.5402 95.7631 64.063 95.3744 63.8461C94.6253 63.4552 93.8527 63.1117 93.0609 62.8174C91.7345 62.2659 91.5679 62.1977 91.2965 62.1172C90.7168 61.943 90.1249 61.8125 89.5259 61.7268C88.1119 61.469 86.6707 61.3961 85.2382 61.5099C83.8196 61.7118 82.4233 62.048 81.0677 62.5138C79.8277 62.867 78.7974 63.214 78.0879 63.4619Z" fill="#10004F"/>
<path d="M72.4676 65.3906L69.8677 78.4571C69.913 78.3287 69.9838 78.2131 70.0748 78.1187C70.1659 78.0243 70.2749 77.9535 70.3939 77.9115C70.5129 77.8695 70.639 77.8574 70.7628 77.876C70.8867 77.8945 71.0052 77.9434 71.1097 78.019L71.9984 78.5423L72.8374 65.7071L72.4676 65.3906Z" fill="#10004F"/>
<path d="M74.535 79.3938C75.0037 79.3938 75.3835 79.1089 75.3835 78.7575C75.3835 78.406 75.0037 78.1211 74.535 78.1211C74.0664 78.1211 73.6865 78.406 73.6865 78.7575C73.6865 79.1089 74.0664 79.3938 74.535 79.3938Z" fill="#10004F"/>
<path d="M70.9283 79.3923C71.5141 79.3923 71.9889 79.0124 71.9889 78.5438C71.9889 78.0752 71.5141 77.6953 70.9283 77.6953C70.3425 77.6953 69.8677 78.0752 69.8677 78.5438C69.8677 79.0124 70.3425 79.3923 70.9283 79.3923Z" fill="#10004F"/>
<path d="M63.0798 90.0802C67.6769 82.5535 67.0607 87.1099 71.8692 86.2841C72.7632 85.9158 72.8901 85.2624 73.476 84.9178C74.4107 84.8611 75.3463 85.0134 76.2125 85.3634C77.7628 86.0464 78.9853 87.2912 79.6256 88.8386V88.8386C79.6256 88.8386 79.0819 90.5792 78.7194 91.3514C77.9341 93.0267 76.3031 93.8643 75.3729 94.3217C72.6122 95.7356 67.8883 96.3237 65.025 93.597C64.0483 92.6315 63.3733 91.4111 63.0798 90.0802V90.0802Z" fill="#A31F81"/>
<path fill-rule="evenodd" clip-rule="evenodd" d="M83.5501 87.1011C83.7441 87.3938 83.664 87.7884 83.3713 87.9824C82.049 88.8586 80.6421 89.5957 79.1724 90.1822L79.1643 90.1854L79.1643 90.1854C76.6386 91.1534 73.9775 91.7085 71.2802 91.8296C68.6829 91.9671 65.2254 92.1233 61.4784 90.3474C60.8893 90.07 60.3183 89.7549 59.7685 89.4042C59.4725 89.2153 59.3856 88.8222 59.5745 88.5261C59.7634 88.2301 60.1565 88.1432 60.4526 88.3321C60.9569 88.6538 61.4807 88.9428 62.0209 89.1972L62.0224 89.1979C65.458 90.8264 68.6308 90.6964 71.2155 90.5595L71.2206 90.5592L71.2206 90.5593C73.7808 90.4445 76.3069 89.9181 78.7051 88.9994C80.0922 88.4456 81.4203 87.7497 82.6688 86.9223C82.9615 86.7283 83.3561 86.8084 83.5501 87.1011Z" fill="#10004F"/>
<path d="M52.3062 70.5255C53.7016 68.697 55.6003 67.3155 57.7695 66.5505C59.1717 66.0656 60.6781 65.9646 62.1325 66.2579C63.3203 66.5422 64.4369 67.0677 65.4129 67.8019C66.3888 68.536 67.2033 69.4631 67.8057 70.5255C67.1944 71.0191 66.5435 71.4616 65.8595 71.8484C64.4039 72.6591 62.8245 73.2243 61.1849 73.5211C59.9526 73.6913 58.7001 73.6462 57.4833 73.3875C55.5148 72.9604 53.7148 71.9653 52.3062 70.5255V70.5255Z" fill="white"/>
<path d="M59.8981 73.4349C61.8897 73.4349 63.5042 71.8204 63.5042 69.8288C63.5042 67.8372 61.8897 66.2227 59.8981 66.2227C57.9065 66.2227 56.292 67.8372 56.292 69.8288C56.292 71.8204 57.9065 73.4349 59.8981 73.4349Z" fill="#10004F"/>
<path d="M77.5476 70.9474C78.1729 70.1005 78.9079 69.3458 79.7321 68.7042C80.8475 67.849 82.1009 67.2036 83.4345 66.7978C84.6338 66.4808 85.8875 66.4503 87.1 66.7088C88.2486 67.0022 89.3281 67.531 90.2738 68.2636C91.2195 68.9962 92.0122 69.9177 92.6043 70.9729C92.0112 71.4661 91.3797 71.9082 90.7161 72.2946C89.3049 73.1059 87.7719 73.6687 86.1805 73.9596C84.9853 74.1324 83.77 74.0894 82.5891 73.8325C80.6707 73.3997 78.9177 72.3965 77.5476 70.9474V70.9474Z" fill="white"/>
<path d="M85.1403 73.8763C87.249 73.8763 88.9585 72.2618 88.9585 70.2702C88.9585 68.2786 87.249 66.6641 85.1403 66.6641C83.0315 66.6641 81.322 68.2786 81.322 70.2702C81.322 72.2618 83.0315 73.8763 85.1403 73.8763Z" fill="#10004F"/>
<path d="M100.133 85.1367C98.0469 90.6723 96.4605 93.8105 94.5971 100.858C93.9205 103.417 93.2686 106.064 93.2686 110.6C93.2686 115.137 93.7207 115.934 93.9298 117.464C93.9298 117.464 94.8382 121.879 95.483 123.886C96.0981 125.661 97.2667 128.779 98.1401 130.75C99.1981 133.129 99.7043 134.258 101.019 136.507C101.019 136.507 81.4618 164.214 50.5571 140.285C53.3803 137.836 54.0399 137.965 55.676 131.819C58.6291 118.038 56.9889 114.199 56.8229 111.206C56.6002 107.232 55.8579 103.303 54.6148 99.5199C58.3337 103.077 63.0909 105.369 68.2016 106.064C73.9033 106.78 78.2825 105.158 80.9642 104.123C86.0001 102.091 90.4538 98.8531 93.9298 94.6962C97.0913 90.9498 99.2101 87.5853 100.133 85.1367Z" fill="#F283C5"/>
<path d="M54.5947 99.4048C55.8657 100.657 57.2819 101.752 58.8127 102.664C62.6779 104.901 67.0968 105.984 71.5524 105.789C71.5524 105.789 84.286 105.542 94.8984 93.3906C94.1076 95.8363 93.0204 98.1749 91.6614 100.354C88.9871 104.59 85.3605 108.136 81.0735 110.706C77.5635 113.072 73.5212 114.519 69.3136 114.916C65.106 115.313 60.8428 114.701 56.956 113.034C56.7046 108.289 56.109 103.669 54.5947 99.4048Z" fill="#A31F81"/>
<path d="M99.6297 86.6055C102.019 84.1469 103.996 81.3139 105.482 78.2171C109.772 69.2119 111.194 54.9824 102.7 43.6766C94.1205 32.2535 78.5489 29.262 66.6603 32.9381C55.1455 36.5032 49.3666 45.6318 48.4903 47.0628C47.044 49.4189 43.0065 53.6953 43.0063 64.3236C43.0063 68.9735 44.5563 72.5162 44.5563 72.5162L46.1063 75.8376L48.0307 77.8039C47.2664 74.8072 46.9993 71.7041 47.2401 68.6198C47.3337 66.9001 47.6488 65.2 48.1777 63.562C48.9514 61.3261 50.0996 59.24 51.5727 57.3941C52.1243 56.6971 52.9025 55.8891 54.4529 54.2669C55.6786 52.9963 56.4752 52.1513 57.3271 51.3742C58.9817 49.901 60.7946 48.6183 62.7321 47.55C64.2519 46.7544 69.4731 44.0158 74.6268 45.2556C79.2168 46.3596 78.5673 49.3264 83.8987 51.954C90.2353 55.0688 93.8447 52.2068 97.6993 55.4265C100.396 57.6716 100.935 60.9777 101.615 65.4988C102.626 72.5933 101.945 79.828 99.6297 86.6055Z" fill="#10004F"/>
<path d="M80.6483 38.6369C88.9639 38.6369 95.705 31.8958 95.705 23.5802C95.705 15.2646 88.9639 8.52344 80.6483 8.52344C72.3327 8.52344 65.5916 15.2646 65.5916 23.5802C65.5916 31.8958 72.3327 38.6369 80.6483 38.6369Z" fill="#10004F"/>
<path d="M111.229 77.0028C113.785 73.432 113.914 69.1462 111.517 67.4301C109.12 65.714 105.105 67.2176 102.549 70.7884C99.9921 74.3592 99.8628 78.645 102.26 80.3611C104.657 82.0772 108.672 80.5736 111.229 77.0028Z" fill="#F283C5"/>
<path d="M103.233 75.9795L103.974 75.2815C104.759 74.5253 105.117 74.1181 106.072 73.1163C108.125 70.9705 107.428 71.8236 107.956 71.2161C108.483 70.6085 108.891 70.0915 109.551 70.0786C109.769 70.0728 109.985 70.1239 110.179 70.2272C110.239 70.3285 110.282 70.4402 110.304 70.5568C110.449 71.3583 109.469 72.0369 108.333 73.0646C107.391 73.9242 104.671 76.3608 103.704 76.6904C103.579 76.7357 103.258 76.8456 103.233 75.9795Z" fill="#10004F"/>
<path d="M96.8082 126.994C73.045 146.913 61.7452 135.294 56.0665 126.994C36.1234 126.994 25.1293 137.6 20.7775 144.652L16.4258 151.705H132.735C132.735 151.705 133.017 150.434 125.372 138.719C119.361 129.509 101.249 125.611 96.8082 126.994Z" fill="#E8B536"/>
<path d="M48.0083 71.973C49.6009 76.3066 48.538 80.7621 45.6325 81.935C42.7271 83.1079 39.0803 80.5507 37.4861 76.2241C35.8919 71.8976 36.958 67.428 39.8634 66.2551C42.7689 65.0822 46.414 67.6464 48.0083 71.973Z" fill="#F283C5"/>
<path d="M40.136 71.331C40.3239 71.3591 40.5044 71.4202 40.6711 71.5121C41.0184 71.7118 41.3114 72.0067 41.5256 72.3723C41.6835 72.6065 41.4073 72.1639 42.8009 73.8365C43.1699 74.272 43.6294 74.8402 44.1707 75.5129C44.9191 76.3073 45.2349 77.0996 45.011 77.4384C44.9609 77.5097 44.8984 77.5689 44.8279 77.6118C44.7574 77.6547 44.6807 77.6802 44.6032 77.6865C44.4707 77.6825 44.3412 77.6557 44.2192 77.6068C43.8481 77.3967 43.5461 77.0669 43.348 76.6555C43.348 76.6555 42.9198 75.9538 42.5996 75.5371C42.1407 74.934 42.0389 75.0442 41.4125 74.3452C40.6772 73.5272 40.868 73.4267 40.2432 72.8505C39.844 72.4787 39.5467 72.3207 39.5645 72.018C39.5823 71.7152 39.9354 71.4733 40.136 71.331Z" fill="#10004F"/>
<path fill-rule="evenodd" clip-rule="evenodd" d="M83.7522 67.1886C81.1293 67.745 78.953 69.6101 78.123 70.9587C78.0034 71.1531 77.7488 71.2137 77.5544 71.0941C77.36 70.9744 77.2994 70.7199 77.419 70.5255C78.3605 68.9958 80.7233 66.986 83.5807 66.3799C85.0212 66.0743 86.5953 66.124 88.1738 66.7796C89.7514 67.4348 91.3045 68.683 92.7244 70.7277C92.8546 70.9152 92.8082 71.1727 92.6207 71.3029C92.4332 71.4331 92.1757 71.3867 92.0455 71.1992C90.6976 69.2583 89.2614 68.1263 87.8568 67.543C86.453 66.96 85.0518 66.9129 83.7522 67.1886Z" fill="#10004F"/>
<path fill-rule="evenodd" clip-rule="evenodd" d="M54.8949 68.468C53.8453 69.1775 53.063 69.9753 52.6594 70.6311C52.5398 70.8255 52.2852 70.8861 52.0908 70.7664C51.8964 70.6468 51.8358 70.3922 51.9554 70.1978C52.4375 69.4145 53.3159 68.5375 54.432 67.7831C55.5527 67.0257 56.9379 66.3748 58.452 66.0646C59.9684 65.754 61.6197 65.7843 63.2574 66.399C64.8966 67.0143 66.4953 68.205 67.9203 70.1721C68.0542 70.3569 68.0129 70.6154 67.8281 70.7493C67.6432 70.8832 67.3848 70.8419 67.2509 70.657C65.908 68.8033 64.4345 67.7238 62.9669 67.1729C61.4977 66.6215 60.0076 66.5897 58.6179 66.8744C57.2258 67.1596 55.9401 67.7616 54.8949 68.468Z" fill="#10004F"/>
<path d="M56.0715 126.984C51.4216 137.391 62.714 152.005 76.6636 137.391C73.7851 138.203 64.707 138.941 56.0715 126.984Z" fill="white"/>
<path d="M72.8984 137.834C77.0317 137.76 86.4052 135.62 96.5907 126.984C96.5907 140.491 87.2909 150.012 72.8984 137.834Z" fill="white"/>
</g>
<rect x="2" y="2" width="146" height="146" rx="73" stroke="white" stroke-width="4"/>
<defs>
<clipPath id="clip0_2420_37712">
<rect width="150" height="150" rx="75" fill="white"/>
</clipPath>
</defs>
</svg>
