<svg xmlns="http://www.w3.org/2000/svg" width="1920" height="3172" viewBox="0 0 1920 3172" fill="none"><script xmlns=""/>
    <rect width="1920" height="3172" fill="white"/>
    <rect y="523" width="1920" height="2649" fill="#F7F7FD"/>
    <path fill-rule="evenodd" clip-rule="evenodd" d="M378.345 277.812C380.237 278.437 382.26 278.776 384.362 278.776C394.95 278.776 403.532 270.193 403.532 259.606C403.532 249.018 394.95 240.436 384.362 240.436C376.668 240.436 370.032 244.97 366.98 251.512C364.065 247.764 359.512 245.353 354.397 245.353C352.708 245.353 351.081 245.616 349.553 246.103C346.154 242.375 341.257 240.035 335.814 240.035C326.486 240.035 318.763 246.905 317.429 255.861C317.096 255.793 316.752 255.757 316.399 255.757C313.796 255.757 311.647 257.703 311.328 260.219H289.497C284.393 260.219 280.256 264.357 280.256 269.46C280.256 274.564 284.393 278.701 289.497 278.701H356.177C356.615 278.747 357.06 278.77 357.51 278.77C357.96 278.77 358.405 278.747 358.843 278.701H372.665C374.647 278.701 376.555 278.389 378.345 277.812Z" fill="#F7F7FD"/>
    <path fill-rule="evenodd" clip-rule="evenodd" d="M1047.34 277.812C1049.24 278.437 1051.26 278.776 1053.36 278.776C1063.95 278.776 1072.53 270.193 1072.53 259.606C1072.53 249.018 1063.95 240.436 1053.36 240.436C1045.67 240.436 1039.03 244.97 1035.98 251.512C1033.06 247.764 1028.51 245.353 1023.4 245.353C1021.71 245.353 1020.08 245.616 1018.55 246.103C1015.15 242.375 1010.26 240.035 1004.81 240.035C995.486 240.035 987.763 246.905 986.429 255.861C986.096 255.793 985.752 255.757 985.399 255.757C982.796 255.757 980.647 257.703 980.328 260.219H958.497C953.393 260.219 949.256 264.357 949.256 269.46C949.256 274.564 953.393 278.701 958.497 278.701H1025.18C1025.62 278.747 1026.06 278.77 1026.51 278.77C1026.96 278.77 1027.4 278.747 1027.84 278.701H1041.66C1043.65 278.701 1045.56 278.389 1047.34 277.812Z" fill="#F7F7FD"/>
    <path d="M498.624 210.901L514.669 224.156C516.19 225.412 518.389 225.743 520.229 224.993L542.081 216.084L506.605 209.22C503.94 208.705 501.183 208.98 498.759 210.005C498.371 210.169 498.301 210.634 498.624 210.901Z" fill="#C0C2F1"/>
    <path fill-rule="evenodd" clip-rule="evenodd" d="M500.208 210.669L515.525 223.322C516.666 224.264 518.315 224.512 519.695 223.949L538.133 216.432L506.385 210.29C504.305 209.888 502.162 210.022 500.208 210.669ZM498.21 208.968C500.88 207.839 503.918 207.535 506.854 208.103L546.06 215.688L520.793 225.99C518.492 226.928 515.744 226.514 513.843 224.944L497.797 211.689C496.817 210.879 497.031 209.466 498.21 208.968Z" fill="#C0C2F1"/>
    <path d="M517.508 230.37C515.058 229.571 514.873 226.55 517.218 225.608L584.613 198.523L604.26 191.316C612.589 188.26 621.497 186.571 630.562 186.329L637.32 186.149L644.623 185.953C650.095 185.807 653.662 191.15 650.848 195.277C648.591 198.586 645.461 201.348 641.722 203.33L628.344 210.421C626.537 211.379 624.618 212.165 622.62 212.766L574.667 227.199C570.866 228.343 566.915 229.075 562.899 229.379L530.012 231.869C525.79 232.188 521.521 231.677 517.508 230.37Z" fill="#EEEFFB"/>
    <path fill-rule="evenodd" clip-rule="evenodd" d="M585.655 200.588L518.298 227.658C518.19 227.701 518.152 227.746 518.132 227.778C518.104 227.821 518.083 227.887 518.088 227.967C518.092 228.048 518.122 228.112 518.154 228.153C518.179 228.183 518.222 228.226 518.335 228.263C521.997 229.456 525.893 229.923 529.747 229.631L562.633 227.142C566.449 226.853 570.202 226.157 573.814 225.071L621.766 210.638C623.599 210.086 625.359 209.365 627.018 208.486L640.395 201.395C643.79 199.596 646.632 197.088 648.68 194.084C650.457 191.479 648.205 188.106 644.751 188.198L630.69 188.574C621.927 188.808 613.315 190.441 605.265 193.394L585.655 200.588ZM584.613 198.523L517.218 225.608C514.873 226.55 515.058 229.571 517.508 230.37C521.521 231.677 525.79 232.188 530.012 231.869L562.899 229.379C566.915 229.075 570.866 228.343 574.667 227.199L622.62 212.766C624.618 212.165 626.537 211.379 628.344 210.421L641.722 203.33C645.461 201.348 648.591 198.586 650.848 195.277C653.662 191.15 650.095 185.807 644.623 185.953L630.562 186.329C621.497 186.571 612.589 188.26 604.26 191.316L584.613 198.523Z" fill="#EEEFFB"/>
    <path fill-rule="evenodd" clip-rule="evenodd" d="M538.413 231.302L562.3 229.151C566.317 228.789 570.28 228.009 574.104 226.826L622.248 211.936C624.257 211.315 626.19 210.514 628.017 209.546L641.48 202.413C645.282 200.399 648.49 197.626 650.832 194.33C653.301 190.855 651.194 186.608 647.147 185.559C639.519 194.205 629.264 200.875 617.556 204.796L538.413 231.302Z" fill="#E6E7FA"/>
    <path d="M583.817 219.397C582.97 218.186 583.216 216.607 584.405 215.628L596.324 205.809C598.279 204.198 601.36 204.399 602.992 206.242C604.592 208.05 604.13 210.689 601.981 212.014L588.622 220.254C587.025 221.239 584.833 220.848 583.817 219.397Z" fill="#F8F9FE"/>
    <path fill-rule="evenodd" clip-rule="evenodd" d="M598.014 207.412L586.094 217.231C585.78 217.49 585.715 217.907 585.939 218.227C586.207 218.61 586.787 218.714 587.209 218.454L600.568 210.214C601.538 209.615 601.747 208.424 601.024 207.608C600.287 206.775 598.896 206.685 598.014 207.412ZM584.405 215.628C583.216 216.607 582.97 218.186 583.817 219.397C584.833 220.848 587.025 221.239 588.622 220.254L601.981 212.014C604.13 210.689 604.592 208.05 602.992 206.242C601.36 204.399 598.279 204.198 596.324 205.809L584.405 215.628Z" fill="#F8F9FE"/>
    <path d="M625.495 191.244C624.795 190.102 625.311 188.662 626.642 188.048L629.705 186.634C630.505 186.265 631.385 186.055 632.282 186.018L638.885 185.751L644.116 185.734L628.99 192.205C627.701 192.756 626.163 192.334 625.495 191.244Z" fill="#C0C2F1"/>
    <path fill-rule="evenodd" clip-rule="evenodd" d="M638.885 185.751L644.116 185.734L628.99 192.205C627.701 192.756 626.163 192.334 625.495 191.244C624.795 190.102 625.311 188.662 626.642 188.048L629.705 186.634C630.505 186.265 631.385 186.055 632.282 186.018L638.885 185.751ZM632.714 188.192L632.352 188.206C631.826 188.228 631.31 188.351 630.841 188.567L627.778 189.981C627.694 190.02 627.662 190.11 627.706 190.181C627.748 190.249 627.844 190.275 627.924 190.241L632.714 188.192Z" fill="#C0C2F1"/>
    <path fill-rule="evenodd" clip-rule="evenodd" d="M1362.78 107.9C1362.97 106.594 1363.06 105.259 1363.06 103.902C1363.06 88.4919 1350.57 76 1335.16 76C1323.39 76 1313.32 83.2933 1309.22 93.6086C1305.57 90.0748 1300.6 87.9001 1295.12 87.9001C1287.9 87.9001 1281.56 91.6693 1277.97 97.3466C1274.25 93.0673 1268.77 90.3617 1262.65 90.3617C1254.78 90.3617 1247.96 94.8443 1244.6 101.396C1243.11 99.5862 1240.86 98.4322 1238.33 98.4322C1233.89 98.4322 1230.28 102.005 1230.22 106.434H1215.93C1208.79 106.434 1203 112.225 1203 119.369C1203 126.512 1208.79 132.303 1215.93 132.303H1341.19C1353.11 132.303 1362.78 122.636 1362.78 110.711V107.9Z" fill="#F7F7FD"/>
    <path fill-rule="evenodd" clip-rule="evenodd" d="M728.781 79.9C728.968 78.5942 729.065 77.2592 729.065 75.9015C729.065 60.4919 716.573 48 701.163 48C689.389 48 679.318 55.2933 675.222 65.6086C671.572 62.0748 666.598 59.9001 661.117 59.9001C653.9 59.9001 647.564 63.6693 643.969 69.3466C640.251 65.0673 634.769 62.3617 628.654 62.3617C620.785 62.3617 613.962 66.8443 610.6 73.3956C609.112 71.5862 606.856 70.4322 604.331 70.4322C599.887 70.4322 596.278 74.0047 596.219 78.4341H581.935C574.791 78.4341 569 84.2252 569 91.3688C569 98.5124 574.791 104.303 581.935 104.303H707.188C719.113 104.303 728.781 94.636 728.781 82.7107V79.9Z" fill="#F7F7FD"/>
    <path d="M468.678 401.981C468.678 397.211 472.545 393.344 477.315 393.344H883.64H1012.81C1017.58 393.344 1021.45 397.211 1021.45 401.981V509.944C1021.45 514.714 1017.58 518.581 1012.81 518.581H477.315C472.545 518.581 468.678 514.714 468.678 509.944V401.981Z" fill="#EEEFFB"/>
    <path fill-rule="evenodd" clip-rule="evenodd" d="M1019.29 509.944V401.981C1019.29 398.403 1016.39 395.503 1012.81 395.503H477.315C473.737 395.503 470.837 398.403 470.837 401.981V509.944C470.837 513.522 473.737 516.422 477.315 516.422H1012.81C1016.39 516.422 1019.29 513.522 1019.29 509.944ZM477.315 393.344C472.545 393.344 468.678 397.211 468.678 401.981V509.944C468.678 514.714 472.545 518.581 477.315 518.581H1012.81C1017.58 518.581 1021.45 514.714 1021.45 509.944V401.981C1021.45 397.211 1017.58 393.344 1012.81 393.344H477.315Z" fill="#EDF2FB"/>
    <path d="M497.566 441.886C497.566 440.693 498.533 439.727 499.726 439.727H526.922C528.115 439.727 529.081 440.693 529.081 441.886V520.857C529.081 522.049 528.115 523.016 526.922 523.016H499.726C498.533 523.016 497.566 522.049 497.566 520.857V441.886Z" fill="#EEEFFB"/>
    <path fill-rule="evenodd" clip-rule="evenodd" d="M501.885 444.045V518.698H524.763V444.045H501.885ZM499.726 439.727C498.533 439.727 497.566 440.693 497.566 441.886V520.857C497.566 522.049 498.533 523.016 499.726 523.016H526.922C528.115 523.016 529.081 522.049 529.081 520.857V441.886C529.081 440.693 528.115 439.727 526.922 439.727H499.726Z" fill="white"/>
    <path d="M245.707 385.668C245.707 380.766 249.783 376.847 254.681 377.038L525.544 387.619C530.18 387.8 533.844 391.61 533.844 396.249V424.327C533.844 429.097 529.977 432.964 525.207 432.964H254.344C249.574 432.964 245.707 429.097 245.707 424.327V385.668Z" fill="#F7F7FD"/>
    <path d="M245.707 423.962L533.844 425.763C533.844 429.741 530.619 432.966 526.641 432.966H254.344C249.574 432.966 245.707 429.099 245.707 424.329V423.962Z" fill="#DDDFF8"/>
    <path d="M255.98 432.516H444.972V510.157C444.972 514.927 441.105 518.794 436.335 518.794H264.618C259.847 518.794 255.98 514.927 255.98 510.157V432.516Z" fill="#EEEFFB"/>
    <path fill-rule="evenodd" clip-rule="evenodd" d="M442.813 434.675H258.14V510.157C258.14 513.735 261.04 516.635 264.618 516.635H436.335C439.913 516.635 442.813 513.735 442.813 510.157V434.675ZM255.98 432.516V510.157C255.98 514.927 259.847 518.794 264.618 518.794H436.335C441.105 518.794 444.972 514.927 444.972 510.157V432.516H255.98Z" fill="#EDF2FB"/>
    <path fill-rule="evenodd" clip-rule="evenodd" d="M258.452 441.141H289.72V502.75H297.937V441.141H334.043V502.75H258.452C253.681 502.75 249.814 498.884 249.814 494.113V449.778C249.814 445.008 253.681 441.141 258.452 441.141ZM342.26 502.75H362.21C366.98 502.75 370.847 498.884 370.847 494.113V449.778C370.847 445.008 366.98 441.141 362.21 441.141H342.26V502.75Z" fill="white"/>
    <path fill-rule="evenodd" clip-rule="evenodd" d="M651.71 441.141H612.501V481.894H607.387V441.141H580.227C575.457 441.141 571.59 445.008 571.59 449.778V473.26C571.59 478.03 575.457 481.897 580.227 481.897H683.986C688.756 481.897 692.623 478.03 692.623 473.26V449.778C692.623 445.008 688.756 441.141 683.986 441.141H656.824V481.892H651.71V441.141Z" fill="white"/>
    <path d="M629.974 425.553C631.425 424.586 633.314 424.586 634.765 425.553L646.695 433.507C648.473 434.692 647.634 437.463 645.497 437.463H619.241C617.105 437.463 616.266 434.692 618.044 433.507L629.974 425.553Z" fill="#FCFDFF"/>
    <path fill-rule="evenodd" clip-rule="evenodd" d="M645.498 435.304L633.567 427.35C632.842 426.867 631.897 426.867 631.172 427.35L619.241 435.304L645.498 435.304ZM634.765 425.553C633.314 424.586 631.425 424.586 629.974 425.553L618.044 433.507C616.266 434.692 617.105 437.463 619.241 437.463H645.497C647.634 437.463 648.473 434.692 646.695 433.507L634.765 425.553Z" fill="#FCFDFF"/>
    <path d="M791.678 412.526C791.678 410.14 793.611 408.207 795.996 408.207H834.632C837.017 408.207 838.95 410.141 838.95 412.526V478.174C838.95 480.559 837.017 482.492 834.632 482.492H795.996C793.611 482.492 791.678 480.559 791.678 478.174V412.526Z" fill="white"/>
    <path d="M719.906 412.526C719.906 410.14 721.84 408.207 724.225 408.207H758.358C760.743 408.207 762.677 410.141 762.677 412.526V478.174C762.677 480.559 760.743 482.492 758.358 482.492H724.225C721.84 482.492 719.906 480.559 719.906 478.174V412.526Z" fill="white"/>
    <path d="M1047.98 412.526C1047.98 410.14 1049.92 408.207 1052.3 408.207H1086.44C1088.82 408.207 1090.75 410.141 1090.75 412.526V478.174C1090.75 480.559 1088.82 482.492 1086.44 482.492H1052.3C1049.92 482.492 1047.98 480.559 1047.98 478.174V412.526Z" fill="white"/>
    <path d="M976.213 412.526C976.213 410.14 978.146 408.207 980.531 408.207H1014.66C1017.05 408.207 1018.98 410.141 1018.98 412.526V478.174C1018.98 480.559 1017.05 482.492 1014.66 482.492H980.531C978.146 482.492 976.213 480.559 976.213 478.174V412.526Z" fill="white"/>
    <path d="M1157.68 401.981C1157.68 397.211 1161.54 393.344 1166.31 393.344H1572.64H1701.81C1706.58 393.344 1710.45 397.211 1710.45 401.981V509.944C1710.45 514.714 1706.58 518.581 1701.81 518.581H1166.31C1161.54 518.581 1157.68 514.714 1157.68 509.944V401.981Z" fill="#EEEFFB"/>
    <path fill-rule="evenodd" clip-rule="evenodd" d="M1708.29 509.944V401.981C1708.29 398.403 1705.39 395.503 1701.81 395.503H1166.31C1162.74 395.503 1159.84 398.403 1159.84 401.981V509.944C1159.84 513.522 1162.74 516.422 1166.31 516.422H1701.81C1705.39 516.422 1708.29 513.522 1708.29 509.944ZM1166.31 393.344C1161.54 393.344 1157.68 397.211 1157.68 401.981V509.944C1157.68 514.714 1161.54 518.581 1166.31 518.581H1701.81C1706.58 518.581 1710.45 514.714 1710.45 509.944V401.981C1710.45 397.211 1706.58 393.344 1701.81 393.344H1166.31Z" fill="#EDF2FB"/>
    <path d="M1186.57 441.886C1186.57 440.693 1187.53 439.727 1188.73 439.727H1215.92C1217.11 439.727 1218.08 440.693 1218.08 441.886V520.857C1218.08 522.049 1217.11 523.016 1215.92 523.016H1188.73C1187.53 523.016 1186.57 522.049 1186.57 520.857V441.886Z" fill="#EEEFFB"/>
    <path fill-rule="evenodd" clip-rule="evenodd" d="M1190.88 444.045V518.698H1213.76V444.045H1190.88ZM1188.73 439.727C1187.53 439.727 1186.57 440.693 1186.57 441.886V520.857C1186.57 522.049 1187.53 523.016 1188.73 523.016H1215.92C1217.11 523.016 1218.08 522.049 1218.08 520.857V441.886C1218.08 440.693 1217.11 439.727 1215.92 439.727H1188.73Z" fill="white"/>
    <path d="M1550.47 234.69C1550.47 232.305 1552.4 230.371 1554.79 230.371H1602.43C1604.81 230.371 1606.75 232.305 1606.75 234.69V259.819C1606.75 262.204 1604.81 264.137 1602.43 264.137H1554.79C1552.4 264.137 1550.47 262.204 1550.47 259.819V234.69Z" fill="#EEEFFB"/>
    <path fill-rule="evenodd" clip-rule="evenodd" d="M1602.43 232.53H1554.79C1553.59 232.53 1552.63 233.497 1552.63 234.69V259.819C1552.63 261.011 1553.59 261.978 1554.79 261.978H1602.43C1603.62 261.978 1604.59 261.011 1604.59 259.819V234.69C1604.59 233.497 1603.62 232.53 1602.43 232.53ZM1554.79 230.371C1552.4 230.371 1550.47 232.305 1550.47 234.69V259.819C1550.47 262.204 1552.4 264.137 1554.79 264.137H1602.43C1604.81 264.137 1606.75 262.204 1606.75 259.819V234.69C1606.75 232.305 1604.81 230.371 1602.43 230.371H1554.79Z" fill="#EDF2FB"/>
    <path d="M1543.71 261.694C1543.71 259.308 1545.64 257.375 1548.03 257.375H1609.18C1611.56 257.375 1613.49 259.308 1613.49 261.694V282.32C1613.49 284.705 1611.56 286.639 1609.18 286.639H1548.03C1545.64 286.639 1543.71 284.705 1543.71 282.32V261.694Z" fill="#EEEFFB"/>
    <path fill-rule="evenodd" clip-rule="evenodd" d="M1609.18 259.534H1548.03C1546.84 259.534 1545.87 260.501 1545.87 261.694V282.32C1545.87 283.513 1546.84 284.48 1548.03 284.48H1609.18C1610.37 284.48 1611.33 283.513 1611.33 282.32V261.694C1611.33 260.501 1610.37 259.534 1609.18 259.534ZM1548.03 257.375C1545.64 257.375 1543.71 259.308 1543.71 261.694V282.32C1543.71 284.705 1545.64 286.639 1548.03 286.639H1609.18C1611.56 286.639 1613.49 284.705 1613.49 282.32V261.694C1613.49 259.308 1611.56 257.375 1609.18 257.375H1548.03Z" fill="#EDF2FB"/>
    <path d="M1550.47 340.484C1550.47 338.099 1552.4 336.165 1554.79 336.165H1600.18C1602.56 336.165 1604.49 338.099 1604.49 340.484V518.685C1604.49 521.07 1602.56 523.004 1600.18 523.004H1554.79C1552.4 523.004 1550.47 521.07 1550.47 518.685V340.484Z" fill="#EEEFFB"/>
    <path fill-rule="evenodd" clip-rule="evenodd" d="M1600.18 340.484H1554.79L1554.79 518.685H1600.18L1600.18 340.484ZM1554.79 336.165C1552.4 336.165 1550.47 338.099 1550.47 340.484V518.685C1550.47 521.07 1552.4 523.004 1554.79 523.004H1600.18C1602.56 523.004 1604.49 521.07 1604.49 518.685V340.484C1604.49 338.099 1602.56 336.165 1600.18 336.165H1554.79Z" fill="white"/>
    <path d="M1601.68 340.291C1601.68 337.906 1603.62 335.973 1606 335.973H1615.85C1618.24 335.973 1620.17 337.906 1620.17 340.291V518.591C1620.17 520.976 1618.24 522.91 1615.85 522.91H1606C1603.62 522.91 1601.68 520.976 1601.68 518.591V340.291Z" fill="#E6E7FA"/>
    <path d="M1509.76 292.48C1508.7 287.136 1512.78 282.149 1518.23 282.149H1638.56C1644.15 282.149 1648.26 287.371 1646.96 292.802L1637.6 331.805C1636.67 335.688 1633.19 338.426 1629.2 338.426H1526.03C1521.92 338.426 1518.37 335.52 1517.56 331.483L1509.76 292.48Z" fill="#F7F7FD"/>
    <path fill-rule="evenodd" clip-rule="evenodd" d="M1638.56 284.309H1518.23C1514.15 284.309 1511.08 288.048 1511.88 292.057L1519.68 331.06C1520.29 334.087 1522.95 336.267 1526.03 336.267H1629.2C1632.2 336.267 1634.8 334.213 1635.5 331.301L1644.86 292.298C1645.84 288.225 1642.75 284.309 1638.56 284.309ZM1518.23 282.149C1512.78 282.149 1508.7 287.136 1509.76 292.48L1517.56 331.483C1518.37 335.52 1521.92 338.426 1526.03 338.426H1629.2C1633.19 338.426 1636.67 335.688 1637.6 331.805L1646.96 292.802C1648.26 287.371 1644.15 282.149 1638.56 282.149H1518.23Z" fill="#F8F9FE"/>
    <path d="M1511.07 295.653H1646.13L1640.51 315.913H1515.57L1511.07 295.653Z" fill="#C0C2F1"/>
    <path fill-rule="evenodd" clip-rule="evenodd" d="M1511.07 295.653L1515.57 315.913H1640.51L1646.13 295.653H1511.07ZM1513.76 297.813L1517.3 313.754H1638.87L1643.29 297.813H1513.76Z" fill="#F7F7FD"/>
    <path d="M1523.45 295.653H1530.21V315.913H1523.45V295.653Z" fill="#F7F7FD"/>
    <path fill-rule="evenodd" clip-rule="evenodd" d="M1528.05 297.813H1525.61V313.754H1528.05V297.813ZM1523.45 295.653V315.913H1530.21V295.653H1523.45Z" fill="#F7F7FD"/>
    <path d="M1583.97 295.652H1590.73V315.912H1583.97V295.652Z" fill="#F7F7FD"/>
    <path fill-rule="evenodd" clip-rule="evenodd" d="M1588.57 297.812H1586.13V313.753H1588.57V297.812ZM1583.97 295.652V315.912H1590.73V295.652H1583.97Z" fill="#F7F7FD"/>
    <path d="M1624.49 295.652H1631.25V315.912H1624.49V295.652Z" fill="#F7F7FD"/>
    <path fill-rule="evenodd" clip-rule="evenodd" d="M1629.09 297.812H1626.65V313.753H1629.09V297.812ZM1624.49 295.652V315.912H1631.25V295.652H1624.49Z" fill="#F7F7FD"/>
    <path d="M1543.71 295.653H1550.47V315.913H1543.71V295.653Z" fill="#F7F7FD"/>
    <path fill-rule="evenodd" clip-rule="evenodd" d="M1548.31 297.813H1545.87V313.754H1548.31V297.813ZM1543.71 295.653V315.913H1550.47V295.653H1543.71Z" fill="#F7F7FD"/>
    <path d="M1604.23 295.652H1610.99V315.912H1604.23V295.652Z" fill="#F7F7FD"/>
    <path fill-rule="evenodd" clip-rule="evenodd" d="M1608.83 297.812H1606.39V313.753H1608.83V297.812ZM1604.23 295.652V315.912H1610.99V295.652H1604.23Z" fill="#F7F7FD"/>
    <path d="M1644.75 295.652H1651.51V315.912H1644.75V295.652Z" fill="#F7F7FD"/>
    <path fill-rule="evenodd" clip-rule="evenodd" d="M1649.35 297.812H1646.91V313.753H1649.35V297.812ZM1644.75 295.652V315.912H1651.51V295.652H1644.75Z" fill="#F7F7FD"/>
    <path d="M1536.96 260.189C1536.96 258.635 1538.22 257.375 1539.78 257.375H1617.44C1618.99 257.375 1620.25 258.635 1620.25 260.189C1620.25 264.851 1616.48 268.63 1611.81 268.63H1545.41C1540.74 268.63 1536.96 264.851 1536.96 260.189Z" fill="#DDDFF8"/>
    <path fill-rule="evenodd" clip-rule="evenodd" d="M1617.44 259.534H1539.78C1539.42 259.534 1539.12 259.827 1539.12 260.189C1539.12 263.658 1541.94 266.471 1545.41 266.471H1611.81C1615.28 266.471 1618.1 263.658 1618.1 260.189C1618.1 259.827 1617.8 259.534 1617.44 259.534ZM1539.78 257.375C1538.22 257.375 1536.96 258.635 1536.96 260.189C1536.96 264.851 1540.74 268.63 1545.41 268.63H1611.81C1616.48 268.63 1620.25 264.851 1620.25 260.189C1620.25 258.635 1618.99 257.375 1617.44 257.375H1539.78Z" fill="#DDDFF8"/>
    <path d="M1545.96 338.416C1545.96 337.173 1546.97 336.165 1548.21 336.165H1606.74C1607.99 336.165 1608.99 337.173 1608.99 338.416C1608.99 342.146 1605.97 345.169 1602.24 345.169H1552.72C1548.99 345.169 1545.96 342.146 1545.96 338.416Z" fill="#DDDFF8"/>
    <path fill-rule="evenodd" clip-rule="evenodd" d="M1606.74 338.324H1548.21C1548.16 338.324 1548.12 338.365 1548.12 338.416C1548.12 340.953 1550.18 343.01 1552.72 343.01H1602.24C1604.78 343.01 1606.83 340.953 1606.83 338.416C1606.83 338.365 1606.79 338.324 1606.74 338.324ZM1548.21 336.165C1546.97 336.165 1545.96 337.173 1545.96 338.416C1545.96 342.146 1548.99 345.169 1552.72 345.169H1602.24C1605.97 345.169 1608.99 342.146 1608.99 338.416C1608.99 337.173 1607.99 336.165 1606.74 336.165H1548.21Z" fill="#DDDFF8"/>
    <path d="M1544.66 230.959C1544.2 229.561 1545.24 228.117 1546.71 228.117H1610.5C1611.98 228.117 1613.02 229.561 1612.55 230.959L1612.23 231.918C1611.64 233.681 1609.99 234.87 1608.14 234.87H1549.08C1547.22 234.87 1545.57 233.681 1544.98 231.918L1544.66 230.959Z" fill="#DDDFF8"/>
    <path fill-rule="evenodd" clip-rule="evenodd" d="M1610.5 230.276L1546.71 230.276L1547.03 231.235C1547.33 232.116 1548.15 232.711 1549.08 232.711H1608.14C1609.07 232.711 1609.89 232.116 1610.18 231.235L1610.5 230.276ZM1546.71 228.117C1545.24 228.117 1544.2 229.561 1544.66 230.959L1544.98 231.918C1545.57 233.681 1547.22 234.87 1549.08 234.87H1608.14C1609.99 234.87 1611.64 233.681 1612.23 231.918L1612.55 230.959C1613.02 229.561 1611.98 228.117 1610.5 228.117H1546.71Z" fill="#DDDFF8"/>
    <path d="M914.707 385.668C914.707 380.766 918.783 376.847 923.681 377.038L1194.54 387.619C1199.18 387.8 1202.84 391.61 1202.84 396.249V424.327C1202.84 429.097 1198.98 432.964 1194.21 432.964H923.344C918.574 432.964 914.707 429.097 914.707 424.327V385.668Z" fill="#F7F7FD"/>
    <path d="M914.707 423.961L1202.84 425.762C1202.84 429.74 1199.62 432.965 1195.64 432.965H923.344C918.574 432.965 914.707 429.098 914.707 424.328V423.961Z" fill="#DDDFF8"/>
    <path d="M924.98 432.516H1113.97V510.157C1113.97 514.927 1110.11 518.794 1105.33 518.794H933.618C928.847 518.794 924.98 514.927 924.98 510.157V432.516Z" fill="#EEEFFB"/>
    <path fill-rule="evenodd" clip-rule="evenodd" d="M927.452 441.141H958.72V502.75H966.937V441.141H1003.04V502.75H927.452C922.681 502.75 918.814 498.884 918.814 494.113V449.778C918.814 445.008 922.681 441.141 927.452 441.141ZM1011.26 502.75H1031.21C1035.98 502.75 1039.85 498.884 1039.85 494.113V449.778C1039.85 445.008 1035.98 441.141 1031.21 441.141H1011.26V502.75Z" fill="white"/>
    <path fill-rule="evenodd" clip-rule="evenodd" d="M1340.71 441.141H1301.5V481.894H1296.39V441.141H1269.23C1264.46 441.141 1260.59 445.008 1260.59 449.778V473.26C1260.59 478.03 1264.46 481.897 1269.23 481.897H1372.99C1377.76 481.897 1381.62 478.03 1381.62 473.26V449.778C1381.62 445.008 1377.76 441.141 1372.99 441.141H1345.82V481.892H1340.71V441.141Z" fill="white"/>
    <path d="M1318.97 425.553C1320.42 424.586 1322.31 424.586 1323.76 425.553L1335.7 433.507C1337.47 434.692 1336.63 437.463 1334.5 437.463H1308.24C1306.1 437.463 1305.27 434.692 1307.04 433.507L1318.97 425.553Z" fill="#FCFDFF"/>
    <path fill-rule="evenodd" clip-rule="evenodd" d="M1334.5 435.304L1322.57 427.35C1321.84 426.867 1320.9 426.867 1320.17 427.35L1308.24 435.304L1334.5 435.304ZM1323.76 425.553C1322.31 424.586 1320.42 424.586 1318.97 425.553L1307.04 433.507C1305.27 434.692 1306.1 437.463 1308.24 437.463H1334.5C1336.63 437.463 1337.47 434.692 1335.7 433.507L1323.76 425.553Z" fill="#FCFDFF"/>
    <path d="M1480.68 412.526C1480.68 410.14 1482.61 408.207 1485 408.207H1523.63C1526.02 408.207 1527.95 410.141 1527.95 412.526V478.174C1527.95 480.559 1526.02 482.492 1523.63 482.492H1485C1482.61 482.492 1480.68 480.559 1480.68 478.174V412.526Z" fill="white"/>
    <path d="M1408.91 412.526C1408.91 410.14 1410.84 408.207 1413.22 408.207H1447.36C1449.74 408.207 1451.68 410.141 1451.68 412.526V478.174C1451.68 480.559 1449.74 482.492 1447.36 482.492H1413.22C1410.84 482.492 1408.91 480.559 1408.91 478.174V412.526Z" fill="white"/>
    <path d="M1665.21 412.526C1665.21 410.14 1667.15 408.207 1669.53 408.207H1703.66C1706.05 408.207 1707.98 410.141 1707.98 412.526V478.174C1707.98 480.559 1706.05 482.492 1703.66 482.492H1669.53C1667.15 482.492 1665.21 480.559 1665.21 478.174V412.526Z" fill="white"/>
    <path d="M280 514H1673V523H280V514Z" fill="#E6E7FA"/>
    <path fill-rule="evenodd" clip-rule="evenodd" d="M1709.78 169.9C1709.97 168.594 1710.06 167.259 1710.06 165.902C1710.06 150.492 1697.57 138 1682.16 138C1670.39 138 1660.32 145.293 1656.22 155.609C1652.57 152.075 1647.6 149.9 1642.12 149.9C1634.9 149.9 1628.56 153.669 1624.97 159.347C1621.25 155.067 1615.77 152.362 1609.65 152.362C1601.78 152.362 1594.96 156.844 1591.6 163.396C1590.11 161.586 1587.86 160.432 1585.33 160.432C1580.89 160.432 1577.28 164.005 1577.22 168.434H1562.93C1555.79 168.434 1550 174.225 1550 181.369C1550 188.512 1555.79 194.303 1562.93 194.303H1688.19C1700.11 194.303 1709.78 184.636 1709.78 172.711V169.9Z" fill="#F7F7FD"/>
  </svg>