<svg width="26" height="41" viewBox="0 0 26 41" fill="none" xmlns="http://www.w3.org/2000/svg">
<path d="M25.5098 7.60175C25.5098 8.52929 25.5292 9.55346 25.5098 10.5969C25.4905 11.4086 25.1234 11.9303 24.2925 12.2202C18.4377 14.3071 12.5828 16.4328 6.74731 18.5584C6.10965 18.7903 5.52997 18.8289 4.89231 18.5777C3.38513 17.9787 1.83929 17.4376 0.158203 16.8192C8.71825 13.7081 17.1044 10.6549 25.5098 7.60175Z" fill="#2316A6"/>
<path d="M6.01202 26.1333C6.01202 24.8966 6.05066 23.6985 5.99269 22.5198C5.97337 21.8241 6.51441 21.8628 6.88155 21.7275C12.3886 19.7178 17.9149 17.7275 23.4413 15.7371C24.1369 15.4859 24.7939 15.1767 25.4895 14.6936C25.4895 15.9303 25.5281 17.0704 25.4702 18.1912C25.4508 18.8482 25.0837 19.2927 24.4267 19.5439C18.456 21.6889 12.4852 23.8725 6.53373 26.0367C6.37915 26.0754 6.22457 26.0947 6.01202 26.1333Z" fill="#2316A6"/>
<path d="M24.9685 6.71283C24.4854 7.33119 23.6931 7.42781 23.0555 7.77564C20.5628 9.10899 18.1861 9.07034 15.5968 7.83361C13.2588 6.71283 10.7275 6.01717 8.2928 5.10895C6.32186 4.39396 6.0127 3.93019 6.0127 1.86253C6.0127 -0.301744 6.01269 -0.282421 8.02227 0.432563C13.3554 2.36495 18.6885 4.29734 24.041 6.24905C24.3501 6.38432 24.7173 6.42297 24.9685 6.71283Z" fill="#2316A6"/>
<path d="M15.4614 10.5009C13.3553 11.2546 11.4809 11.9309 9.62594 12.6266C9.2588 12.7618 8.94964 12.6845 8.62115 12.5686C6.39902 11.757 4.15756 10.9454 1.93543 10.1144C0.389596 9.53473 0.0224609 8.97434 0.0224609 7.29316C0.0224609 4.83903 0.0224612 4.85835 2.32189 5.68928C6.47631 7.19654 10.6307 8.72313 14.7658 10.2304C14.9204 10.2884 15.0557 10.3463 15.4614 10.5009Z" fill="#2316A6"/>
<path d="M6.0127 33.4571C6.0127 32.1045 6.03202 30.7325 6.0127 29.3605C6.0127 28.974 6.24457 28.8967 6.53441 28.8001C9.35555 27.7759 12.196 26.7711 14.9978 25.7083C15.7514 25.4184 15.9833 25.7662 16.022 26.3459C16.0799 27.1382 16.0606 27.9498 16.022 28.7614C16.0026 29.6503 15.5775 30.1914 14.6693 30.5006C12.0221 31.3895 9.3942 32.375 6.74696 33.3412C6.51509 33.4185 6.32186 33.5151 6.0127 33.4571Z" fill="#2316A6"/>
<path d="M6.0127 38.5767C6.0127 36.3544 6.01269 36.3544 8.11889 35.5815C8.48602 35.4462 8.83384 35.3303 9.20097 35.195C10.2444 34.8279 10.4183 34.9631 10.4376 36.0839C10.4763 40.0646 10.4376 39.2723 7.48124 40.4125C6.03202 40.9728 6.0127 40.9535 6.0127 39.4269C6.0127 39.1564 6.0127 38.8665 6.0127 38.5767Z" fill="#2316A6"/>
<path d="M25.0068 14.0165C24.659 14.5189 24.1373 14.7122 23.6349 14.9054C22.7653 15.2339 21.8572 15.4658 21.0263 15.8716C19.693 16.5286 18.4563 16.374 17.123 15.5431C18.7655 14.9441 20.3886 14.4223 21.9344 13.746C23.0745 13.2629 24.0213 13.3981 25.0068 14.0165Z" fill="#2316A6"/>
<path d="M5.39433 14.153C3.71324 14.752 2.30266 15.2738 0.892093 15.7762C0.312407 15.9888 -0.0354051 15.8728 0.00324064 15.1578C0.0418864 14.4429 0.0418864 13.7472 0.00324064 13.0322C-0.0354051 12.3366 0.273761 12.2593 0.814802 12.4718C2.26402 12.9936 3.69391 13.5153 5.39433 14.153Z" fill="#2316A6"/>
</svg>
