<svg width="200" height="131" viewBox="0 0 200 131" fill="none" xmlns="http://www.w3.org/2000/svg">
<path d="M178.184 103.307C182.347 103.307 185.754 101.036 185.754 96.6834C185.754 94.2232 183.766 92.1414 181.212 92.1414C177.143 92.1414 173.736 95.8318 172.695 102.456C174.493 103.023 176.386 103.307 178.184 103.307ZM197.487 125.165C192.85 128.099 187.741 130.275 179.981 130.275C164.842 130.275 158.123 119.866 158.123 107.092C158.123 93.1823 166.639 80.2188 182.252 80.2188C194.648 80.2188 199.663 88.0726 199.663 95.2641C199.663 107.944 189.16 113.337 180.171 113.337C177.616 113.337 175.061 112.959 172.979 112.202C174.304 116.46 177.521 118.636 182.82 118.636C187.835 118.636 191.147 116.744 194.27 114.757L197.487 125.165Z" fill="#1B0088"/>
<path fill-rule="evenodd" clip-rule="evenodd" d="M197.809 125.067C197.853 125.212 197.795 125.369 197.667 125.451C192.989 128.41 187.817 130.613 179.981 130.613C172.328 130.613 166.764 127.978 163.118 123.693C159.48 119.416 157.786 113.535 157.786 107.093C157.786 100.073 159.935 93.2755 164.072 88.2266C168.216 83.1706 174.343 79.8828 182.252 79.8828C188.525 79.8828 192.97 81.8721 195.847 84.8098C198.72 87.7433 200 91.5932 200 95.2648C200 101.71 197.325 106.325 193.495 109.322C189.676 112.309 184.726 113.675 180.171 113.675C177.846 113.675 175.513 113.365 173.52 112.741C174.18 114.49 175.202 115.817 176.595 116.736C178.156 117.765 180.215 118.3 182.82 118.3C187.736 118.3 190.98 116.452 194.089 114.473C194.177 114.417 194.287 114.405 194.386 114.441C194.484 114.478 194.56 114.558 194.591 114.658L197.809 125.067ZM173.113 112.607C173.066 112.474 173.022 112.34 172.979 112.203C173.11 112.25 173.243 112.296 173.378 112.341C175.382 113.006 177.776 113.338 180.171 113.338C189.16 113.338 199.663 107.945 199.663 95.2648C199.663 88.0734 194.648 80.2195 182.252 80.2195C166.639 80.2195 158.123 93.1831 158.123 107.093C158.123 119.867 164.841 130.276 179.981 130.276C187.741 130.276 192.85 128.1 197.487 125.166L194.27 114.757C194.172 114.82 194.073 114.882 193.975 114.944C190.937 116.862 187.678 118.637 182.82 118.637C177.692 118.637 174.513 116.598 173.113 112.607ZM183.318 101.367C184.608 100.322 185.417 98.7634 185.417 96.6842C185.417 94.4053 183.576 92.4789 181.211 92.4789C177.449 92.4789 174.157 95.8467 173.075 102.221C174.756 102.721 176.512 102.971 178.183 102.971C180.208 102.971 182.019 102.419 183.318 101.367ZM172.695 102.456C173.736 95.8326 177.143 92.1422 181.211 92.1422C183.766 92.1422 185.753 94.2239 185.753 96.6842C185.753 101.037 182.347 103.308 178.183 103.308C176.386 103.308 174.493 103.024 172.695 102.456Z" fill="white"/>
<path d="M138.371 111.539L136.762 128.95H121.622L125.786 81.638H134.491C136.478 81.638 137.425 82.395 137.614 84.4767L138.371 93.3714C140.831 85.9907 145.752 80.9756 152.943 80.9756C154.552 80.9756 155.877 81.1648 157.107 81.5433L155.498 96.1155C154.173 95.737 152.092 95.4531 150.861 95.4531C145.373 95.4531 139.506 99.522 138.371 111.539Z" fill="#1B0088"/>
<path fill-rule="evenodd" clip-rule="evenodd" d="M155.169 96.027C153.848 95.6935 151.994 95.4529 150.861 95.4529C145.373 95.4529 139.506 99.5218 138.371 111.539L136.762 128.95H121.622L125.786 81.6377H134.491C136.478 81.6377 137.425 82.3947 137.614 84.4765L138.371 93.3712C138.458 93.1088 138.549 92.8494 138.643 92.5931C141.184 85.6402 146.007 80.9754 152.943 80.9754C154.552 80.9754 155.876 81.1646 157.107 81.5431L155.498 96.1153C155.393 96.0853 155.283 96.0558 155.169 96.027ZM138.577 91.8188L137.949 84.4479L137.949 84.446C137.851 83.3655 137.551 82.5551 136.95 82.0242C136.351 81.4952 135.519 81.301 134.491 81.301H125.786C125.611 81.301 125.466 81.4344 125.45 81.6082L121.287 128.92C121.279 129.015 121.31 129.108 121.374 129.177C121.438 129.247 121.528 129.287 121.622 129.287H136.762C136.936 129.287 137.082 129.154 137.098 128.981L138.706 111.571C138.706 111.571 138.706 111.571 138.706 111.571C139.269 105.61 141.002 101.665 143.233 99.2162C145.459 96.772 148.205 95.7896 150.861 95.7896C152.06 95.7896 154.11 96.069 155.405 96.439C155.501 96.4663 155.603 96.4501 155.686 96.3948C155.768 96.3396 155.822 96.2508 155.833 96.1522L157.441 81.5801C157.459 81.4194 157.36 81.2688 157.206 81.2213C155.938 80.8314 154.579 80.6387 152.943 80.6387C146.041 80.6387 141.21 85.1459 138.577 91.8188Z" fill="white"/>
<path d="M88.7995 130.276C80.0941 130.276 73.3757 127.437 69.8746 125.544L75.836 57.9824H90.3135L87.4748 89.3032C90.0297 83.9096 95.234 80.3138 101.479 80.3138C109.617 80.3138 116.241 87.1268 116.241 99.428C116.241 118.542 105.927 130.276 88.7995 130.276ZM85.7716 116.934C86.6232 117.407 88.1372 118.069 90.4082 118.069C96.8426 118.069 100.628 110.783 100.628 101.415C100.628 95.8322 98.7351 92.7096 95.1394 92.7096C90.7867 92.7096 87.4748 97.7247 86.3393 110.688L85.7716 116.934Z" fill="#1B0088"/>
<path fill-rule="evenodd" clip-rule="evenodd" d="M69.7144 125.84C69.5962 125.776 69.5273 125.648 69.5392 125.515L75.5005 57.9526C75.5158 57.7788 75.6614 57.6455 75.8359 57.6455H90.3134C90.408 57.6455 90.4982 57.6853 90.562 57.7551C90.6258 57.825 90.6573 57.9184 90.6488 58.0126L87.9595 87.6843C90.7672 83.0082 95.6842 79.9769 101.479 79.9769C105.648 79.9769 109.434 81.7248 112.171 85.0435C114.905 88.3582 116.577 93.2185 116.577 99.4278C116.577 109.043 113.983 116.842 109.195 122.243C104.402 127.648 97.4441 130.612 88.7995 130.612C80.0213 130.612 73.2475 127.75 69.7144 125.84ZM87.8863 88.4915C87.7424 88.7571 87.6051 89.0277 87.4747 89.3029L90.3134 57.9822H75.8359L69.8745 125.544C73.3757 127.437 80.094 130.275 88.7995 130.275C105.926 130.275 116.241 118.542 116.241 99.4278C116.241 87.1266 109.617 80.3136 101.479 80.3136C95.5526 80.3136 90.5635 83.5517 87.8863 88.4915ZM86.3392 110.688L85.7715 116.933C86.6231 117.406 88.1371 118.069 90.4081 118.069C96.8425 118.069 100.628 110.783 100.628 101.415C100.628 95.832 98.735 92.7094 95.1393 92.7094C90.7866 92.7094 87.4747 97.7245 86.3392 110.688ZM86.1269 116.742C86.9701 117.183 88.3709 117.732 90.4081 117.732C93.4756 117.732 95.933 116.003 97.6401 113.085C99.3516 110.159 100.291 106.059 100.291 101.415C100.291 98.6524 99.8211 96.5489 98.9462 95.1468C98.0847 93.7664 96.8204 93.0461 95.1393 93.0461C93.1261 93.0461 91.3067 94.1922 89.8307 96.9943C88.3478 99.8096 87.241 104.251 86.6746 110.717L86.6745 110.719L86.1269 116.742Z" fill="white"/>
<path d="M67.5067 67.3493C67.5067 72.1752 63.8164 75.8655 59.0851 75.8655C54.2593 75.8655 50.6636 72.1752 50.6636 67.3493C50.6636 62.6181 54.2593 58.9277 59.0851 58.9277C63.8164 58.9277 67.5067 62.6181 67.5067 67.3493ZM61.1669 128.95H46.1216L50.2851 81.6376H65.3304L61.1669 128.95Z" fill="#1B0088"/>
<path fill-rule="evenodd" clip-rule="evenodd" d="M61.5023 128.98C61.487 129.154 61.3414 129.287 61.1669 129.287H46.1216C46.0272 129.287 45.9371 129.248 45.8733 129.178C45.8095 129.108 45.7779 129.015 45.7862 128.921L49.9497 81.6089C49.965 81.435 50.1106 81.3017 50.2851 81.3017H65.3304C65.4248 81.3017 65.5149 81.3413 65.5787 81.411C65.6425 81.4806 65.6741 81.5738 65.6658 81.6679L61.5023 128.98ZM67.8435 67.3501C67.8435 72.3594 64.0048 76.203 59.0852 76.203C54.0684 76.203 50.3269 72.3569 50.3269 67.3501C50.3269 62.4354 54.0709 58.5918 59.0852 58.5918C64.0024 58.5918 67.8435 62.4329 67.8435 67.3501ZM50.2851 81.6384H65.3304L61.1669 128.951H46.1216L50.2851 81.6384ZM59.0852 75.8663C63.8164 75.8663 67.5068 72.1759 67.5068 67.3501C67.5068 62.6189 63.8164 58.9285 59.0852 58.9285C54.2593 58.9285 50.6636 62.6189 50.6636 67.3501C50.6636 72.1759 54.2593 75.8663 59.0852 75.8663Z" fill="white"/>
<path d="M41.3091 128.95H1.62402L0.33667 128.092L6.20339 62.7129H21.3433L16.6121 115.135H42.4446L41.3091 128.95Z" fill="#1B0088"/>
<path fill-rule="evenodd" clip-rule="evenodd" d="M41.6447 128.977C41.6303 129.152 41.4844 129.287 41.3091 129.287H1.62406C1.55758 129.287 1.4926 129.267 1.43729 129.23L0.149937 128.372C0.0473325 128.303 -0.00966985 128.184 0.00135143 128.062L5.86807 62.6826C5.88365 62.509 6.02913 62.376 6.20343 62.376H21.3434C21.4379 62.376 21.5281 62.4157 21.5919 62.4855C21.6557 62.5554 21.6872 62.6488 21.6787 62.7429L16.9806 114.798H42.4446C42.5387 114.798 42.6285 114.837 42.6923 114.907C42.756 114.976 42.7879 115.068 42.7802 115.162L41.6447 128.977ZM42.4446 115.135L41.3091 128.95H1.62406L0.336704 128.092L6.20343 62.7127H21.3434L16.6121 115.135H42.4446Z" fill="white"/>
<path d="M129.258 46.6462C127.884 48.1509 124.678 49.5902 121.08 49.5902C114.603 49.5902 110.678 46.1228 110.678 39.4497C110.678 38.7955 110.743 38.0104 110.809 37.2908L112.313 24.4025L107.014 23.0941L107.603 16.3556H113.033L113.753 8.43945H124.155L123.435 16.3556H131.482L130.828 23.6175L122.716 24.7951L121.473 35.9169C121.407 36.4403 121.407 36.8328 121.407 37.2908C121.407 39.4497 122.519 40.6273 124.417 40.6273C125.66 40.6273 126.772 39.9731 127.295 39.4497L129.258 46.6462Z" fill="#1B0088"/>
<path d="M85.7585 41.0851C87.9829 41.0851 92.0391 36.5055 93.0858 23.3556V23.0285C92.497 22.8976 91.9082 22.8322 91.1886 22.8322C86.4782 22.8322 82.9453 27.9351 82.9453 35.9821C82.9453 38.9261 84.0575 41.0851 85.7585 41.0851ZM92.2353 49.0666L93.0204 39.1224C91.0577 45.9918 86.3473 49.9825 81.6369 49.9825C76.2723 49.9825 72.1506 45.7955 72.1506 36.7672C72.1506 24.3369 79.6088 15.4395 90.2727 15.4395C93.6746 15.4395 96.3569 16.3554 98.385 17.533L102.31 16.2245L103.75 16.6171L101.198 49.0666H92.2353Z" fill="#1B0088"/>
<path d="M48.2826 31.2065L46.7125 49.0669H36.2449L40.6282 0H50.8341L49.1331 18.9071C51.2266 16.8136 54.1052 15.4397 57.638 15.4397C64.6382 15.4397 67.8439 20.1501 67.8439 26.5615C67.8439 27.412 67.7785 28.1317 67.7131 28.9822L65.8813 49.0669H55.4137L56.9838 30.6177C57.0492 29.8981 57.1146 29.1784 57.1146 28.4588C57.1146 25.3185 55.4791 23.9446 53.3201 23.9446C50.8995 23.9446 48.7406 26.0382 48.2826 31.2065Z" fill="#1B0088"/>
<path d="M31.1507 47.2998C28.3375 49.0008 24.8701 49.9821 20.0943 49.9821C8.05652 49.9821 0.33667 41.9352 0.33667 28.7852C0.33667 14.9811 9.23413 2.94336 23.8233 2.94336C28.6646 2.94336 32.0011 3.9247 34.4872 5.62568L31.2815 14.654C29.3188 13.4764 27.029 12.7567 24.4121 12.7567C17.4119 12.7567 11.1314 18.6448 11.1314 28.1964C11.1314 36.5051 16.6269 40.1688 22.1224 40.1688C24.9355 40.1688 27.2253 39.3837 29.2534 38.1407L31.1507 47.2998Z" fill="#1B0088"/>
<path fill-rule="evenodd" clip-rule="evenodd" d="M146.347 0C141.884 0 138.266 3.6179 138.266 8.08082V43.7711C138.266 47.672 141.03 50.9272 144.706 51.6853L145.095 59.1296C145.178 60.7101 146.963 61.5861 148.264 60.6843L161.002 51.8519H191.465C195.928 51.8519 199.545 48.234 199.545 43.7711V8.08082C199.545 3.6179 195.928 0 191.465 0H146.347Z" fill="#E8114B"/>
<path d="M180.559 12.8447C180.559 13.6724 180.576 14.5863 180.559 15.5175C180.542 16.2417 180.214 16.7073 179.473 16.9659C174.248 18.8282 169.023 20.725 163.815 22.6218C163.246 22.8287 162.729 22.8632 162.16 22.6391C160.815 22.1045 159.435 21.6217 157.935 21.0699C165.574 18.2937 173.058 15.5692 180.559 12.8447Z" fill="white"/>
<path d="M163.16 29.3801C163.16 28.2765 163.195 27.2074 163.143 26.1555C163.126 25.5347 163.608 25.5692 163.936 25.4485C168.85 23.6552 173.782 21.8791 178.714 20.103C179.334 19.8789 179.921 19.603 180.542 19.1719C180.542 20.2755 180.576 21.2928 180.524 22.293C180.507 22.8792 180.179 23.2758 179.593 23.5C174.265 25.414 168.937 27.3626 163.626 29.2938C163.488 29.3283 163.35 29.3456 163.16 29.3801Z" fill="white"/>
<path d="M180.076 12.0507C179.645 12.6025 178.938 12.6887 178.369 12.9991C176.145 14.1889 174.024 14.1544 171.713 13.0508C169.626 12.0507 167.368 11.4299 165.195 10.6195C163.436 9.98147 163.16 9.56763 163.16 7.72257C163.16 5.79129 163.16 5.80853 164.953 6.44654C169.713 8.1709 174.472 9.89525 179.248 11.6369C179.524 11.7576 179.852 11.792 180.076 12.0507Z" fill="white"/>
<path d="M171.592 15.4306C169.713 16.1031 168.04 16.7067 166.385 17.3274C166.057 17.4481 165.781 17.3792 165.488 17.2757C163.505 16.5515 161.505 15.8273 159.522 15.0858C158.142 14.5685 157.815 14.0684 157.815 12.5682C157.815 10.3783 157.815 10.3955 159.867 11.137C163.574 12.482 167.281 13.8442 170.972 15.1892C171.109 15.241 171.23 15.2927 171.592 15.4306Z" fill="white"/>
<path d="M163.16 35.9158C163.16 34.7088 163.177 33.4845 163.16 32.2602C163.16 31.9153 163.367 31.8464 163.626 31.7601C166.143 30.8462 168.678 29.9496 171.178 29.0012C171.851 28.7425 172.058 29.0529 172.092 29.5702C172.144 30.2772 172.127 31.0014 172.092 31.7257C172.075 32.5189 171.696 33.0017 170.885 33.2776C168.523 34.0708 166.178 34.9502 163.815 35.8124C163.608 35.8814 163.436 35.9676 163.16 35.9158Z" fill="white"/>
<path d="M163.16 40.485C163.16 38.502 163.16 38.502 165.04 37.8122C165.367 37.6915 165.678 37.5881 166.005 37.4674C166.936 37.1397 167.092 37.2604 167.109 38.2606C167.143 41.8127 167.109 41.1058 164.471 42.1231C163.177 42.6232 163.16 42.6059 163.16 41.2437C163.16 41.0023 163.16 40.7436 163.16 40.485Z" fill="white"/>
<path d="M180.11 18.5691C179.8 19.0174 179.334 19.1899 178.886 19.3623C178.11 19.6554 177.3 19.8623 176.558 20.2245C175.368 20.8107 174.265 20.6728 173.075 19.9313C174.541 19.3968 175.989 18.9312 177.369 18.3277C178.386 17.8966 179.231 18.0173 180.11 18.5691Z" fill="white"/>
<path d="M162.608 18.689C161.108 19.2235 159.849 19.6891 158.591 20.1375C158.073 20.3271 157.763 20.2237 157.797 19.5857C157.832 18.9476 157.832 18.3269 157.797 17.6889C157.763 17.0681 158.039 16.9991 158.522 17.1888C159.815 17.6544 161.091 18.12 162.608 18.689Z" fill="white"/>
</svg>
