<svg width="178" height="53" viewBox="0 0 178 53" fill="none" xmlns="http://www.w3.org/2000/svg">
<path d="M154.316 26.4241C153.141 30.9713 152.017 35.2936 150.968 39.616C150.743 40.5154 150.443 40.9402 149.419 40.8402C148.345 40.7403 147.245 40.7903 146.171 40.8153C145.546 40.8402 145.372 40.6654 145.546 40.0407C147.07 34.2193 148.594 28.3978 150.093 22.5764C150.243 21.9768 150.493 21.7769 151.093 21.8019C152.667 21.8518 154.266 21.8019 155.84 21.8269C157.788 21.8269 158.288 22.1766 158.888 24.0755C159.787 26.8488 160.661 29.5971 161.536 32.3954C162.086 32.1705 162.061 31.6459 162.21 31.2461C163.21 28.3978 164.234 25.5246 165.183 22.6514C165.383 22.0267 165.633 21.8019 166.308 21.8019C167.882 21.8518 169.481 21.8019 171.055 21.8269C172.554 21.8518 173.328 22.4015 173.703 23.8007C175.152 29.4222 176.551 35.0688 178 40.8153C176.401 40.8153 174.852 40.7903 173.328 40.8153C172.529 40.8402 172.679 40.1657 172.554 39.7659C171.429 35.5935 170.355 31.421 169.256 27.2485C169.206 27.0986 169.156 26.9487 169.106 26.7489C168.606 26.8738 168.656 27.3235 168.556 27.6233C167.457 30.5715 166.383 33.5447 165.333 36.5179C165.109 37.1425 164.834 37.3674 164.184 37.3424C162.685 37.2924 161.186 37.3174 159.687 37.3174C158.563 37.3174 157.838 36.8427 157.489 35.6934C156.614 32.9201 155.69 30.1718 154.765 27.4234C154.615 27.1486 154.516 26.8988 154.316 26.4241Z" fill="#2316A6"/>
<path d="M143.098 40.8155C141.274 40.8155 139.65 40.7906 138.026 40.8405C137.427 40.8655 137.077 40.6407 136.952 40.091C136.377 37.5925 134.754 37.0429 132.38 37.2927C130.331 37.5176 128.233 37.3677 126.134 37.3177C125.385 37.2927 124.835 37.4176 124.635 38.2171C124.086 40.5157 122.612 41.2403 120.363 40.8655C119.514 40.7156 118.639 40.8405 117.79 40.8405C117.615 40.3658 117.915 40.066 118.09 39.7412C120.888 34.0947 123.736 28.4481 126.534 22.8015C126.909 22.052 127.308 21.7772 128.133 21.8271C129.457 21.9021 130.806 21.8521 132.13 21.8521C132.955 21.8521 133.604 22.1519 133.979 22.9015C136.952 28.7729 139.975 34.6943 143.098 40.8155ZM130.281 25.9746C129.132 28.4231 128.083 30.5968 127.059 32.7954C126.734 33.495 127.308 33.4201 127.708 33.4201C129.357 33.4201 131.031 33.3951 132.68 33.445C133.629 33.47 133.604 33.1452 133.255 32.4457C132.28 30.3969 131.331 28.3232 130.281 25.9746Z" fill="#2316A6"/>
<path d="M95.8297 40.8161C94.0309 40.8161 92.432 40.7661 90.858 40.841C90.1585 40.866 89.7338 40.6661 89.5839 39.9916C89.0592 37.693 87.6601 37.0184 85.3617 37.2682C83.1381 37.4931 80.8646 37.3432 78.6411 37.2932C78.0165 37.2932 77.5918 37.4431 77.4419 38.0677C76.8423 40.4163 75.3683 41.2658 72.9948 40.8161C72.1954 40.6661 71.3459 40.7911 70.5465 40.7911C70.3216 40.3164 70.6464 40.0165 70.7963 39.7167C73.6194 34.0452 76.4675 28.3737 79.2907 22.6771C79.6155 22.0275 79.9652 21.7527 80.7147 21.7777C81.9139 21.8526 83.1381 21.8526 84.3373 21.7777C85.6864 21.6777 86.4859 22.2524 87.0855 23.4517C89.5339 28.3986 92.0572 33.2956 94.5556 38.2176C94.9303 39.0421 95.355 39.8416 95.8297 40.8161ZM83.0382 25.9751C81.8889 28.3986 80.8646 30.5723 79.8403 32.721C79.6155 33.1707 79.5655 33.4705 80.265 33.4705C82.0888 33.4456 83.9126 33.4456 85.7364 33.4705C86.4359 33.4705 86.361 33.1957 86.1361 32.721C85.1118 30.5473 84.1375 28.3737 83.0382 25.9751Z" fill="#2316A6"/>
<path d="M106.748 21.8265C110.32 21.8265 113.893 21.8515 117.466 21.8015C118.215 21.8015 118.44 21.9764 118.465 22.7509C118.49 25.6991 118.515 25.6741 115.542 25.824C113.893 25.899 112.219 26.0989 110.57 26.0989C109.471 26.1238 109.246 26.5736 109.246 27.5979C109.321 31.5955 109.246 35.5931 109.296 39.5656C109.296 40.4901 109.146 40.9148 108.097 40.8149C107.072 40.7149 106.023 40.7399 104.974 40.8149C104.149 40.8648 103.949 40.59 103.949 39.7905C103.999 35.643 103.949 31.4706 103.999 27.3231C103.999 26.4736 103.8 26.1738 102.925 26.1488C100.602 26.0489 98.2782 25.824 95.9547 25.7241C95.0054 25.6991 94.8055 25.3243 94.8305 24.4499C94.8805 21.8265 94.8305 21.8265 97.5037 21.8265C100.602 21.8265 103.675 21.8265 106.748 21.8265Z" fill="#2316A6"/>
<path d="M68.5229 36.3414C67.7984 37.7905 67.1488 39.0897 66.5492 40.3889C66.3244 40.8386 65.9746 40.7887 65.5998 40.7887C60.778 40.7887 55.9562 40.7886 51.1344 40.8136C50.4599 40.8136 50.31 40.5888 50.31 39.9642C50.335 34.1927 50.335 28.3962 50.31 22.6247C50.31 21.9252 50.5598 21.7753 51.1844 21.8252C52.7084 21.9252 54.2324 21.6753 55.7564 21.9751C55.7813 23.4243 55.8313 24.8734 55.8313 26.3225C55.8313 29.2707 55.8813 32.2189 55.8063 35.1921C55.7813 36.2164 56.1311 36.4163 57.0555 36.3913C60.803 36.3164 64.5256 36.3414 68.5229 36.3414Z" fill="#2316A6"/>
<path d="M32.9829 9.82925C32.9829 11.0285 33.0078 12.3527 32.9829 13.7019C32.9579 14.7512 32.4832 15.4258 31.4089 15.8006C23.8389 18.499 16.2689 21.2473 8.72392 23.9956C7.89947 24.2954 7.14997 24.3454 6.32551 24.0206C4.3768 23.2461 2.37813 22.5465 0.204567 21.747C11.2722 17.7244 22.1151 13.7768 32.9829 9.82925Z" fill="#2316A6"/>
<path d="M7.77384 33.7892C7.77384 32.1902 7.8238 30.6411 7.74885 29.1171C7.72387 28.2176 8.42341 28.2676 8.89809 28.0927C16.0184 25.4943 23.1636 22.9208 30.3089 20.3474C31.2083 20.0226 32.0578 19.6229 32.9572 18.9982C32.9572 20.5973 33.0071 22.0714 32.9322 23.5205C32.9072 24.37 32.4325 24.9446 31.5831 25.2694C23.8632 28.0427 16.1433 30.866 8.44839 33.6643C8.24852 33.7142 8.04865 33.7392 7.77384 33.7892Z" fill="#2316A6"/>
<path d="M32.2828 8.67932C31.6582 9.47884 30.6339 9.60376 29.8094 10.0535C26.5866 11.7774 23.5136 11.7275 20.1658 10.1284C17.1428 8.67932 13.87 7.77987 10.7221 6.60559C8.17374 5.68115 7.77401 5.08152 7.77401 2.40815C7.77401 -0.390139 7.77401 -0.365155 10.3723 0.559281C17.2677 3.05776 24.1632 5.55623 31.0836 8.07969C31.4833 8.25458 31.958 8.30455 32.2828 8.67932Z" fill="#2316A6"/>
<path d="M19.9913 13.5781C17.2681 14.5525 14.8447 15.427 12.4463 16.3264C11.9716 16.5013 11.5718 16.4014 11.1471 16.2515C8.27403 15.2021 5.37595 14.1528 2.50286 13.0784C0.504181 12.3289 0.0294952 11.6043 0.0294952 9.43064C0.0294952 6.25757 0.0294956 6.28256 3.00253 7.3569C8.37397 9.30571 13.7454 11.2795 19.0919 13.2283C19.2917 13.3033 19.4666 13.3782 19.9913 13.5781Z" fill="#2316A6"/>
<path d="M7.77401 43.2587C7.77401 41.5098 7.79899 39.7359 7.77401 37.9619C7.77401 37.4623 8.07381 37.3623 8.44856 37.2374C12.0961 35.9132 15.7687 34.614 19.3913 33.2398C20.3657 32.8651 20.6655 33.3148 20.7154 34.0643C20.7904 35.0887 20.7654 36.1381 20.7154 37.1874C20.6905 38.3367 20.1408 39.0363 18.9666 39.436C15.5439 40.5853 12.1461 41.8596 8.72338 43.1088C8.42358 43.2087 8.17374 43.3337 7.77401 43.2587Z" fill="#2316A6"/>
<path d="M7.77401 49.8775C7.77401 47.0043 7.77401 47.0043 10.4972 46.0049C10.9719 45.83 11.4216 45.6801 11.8963 45.5052C13.2454 45.0305 13.4702 45.2054 13.4952 46.6545C13.5452 51.8013 13.4952 50.777 9.67275 52.2511C7.79899 52.9756 7.77401 52.9506 7.77401 50.9768C7.77401 50.627 7.77401 50.2523 7.77401 49.8775Z" fill="#2316A6"/>
<path d="M32.3328 18.1219C31.8831 18.7715 31.2085 19.0213 30.559 19.2712C29.4347 19.6959 28.2605 19.9957 27.1862 20.5204C25.4623 21.3699 23.8634 21.17 22.1395 20.0957C24.2631 19.3211 26.3617 18.6466 28.3604 17.7721C29.8344 17.1475 31.0586 17.3224 32.3328 18.1219Z" fill="#2316A6"/>
<path d="M6.97457 18.2998C4.80101 19.0743 2.97722 19.7489 1.15343 20.3985C0.403925 20.6734 -0.0457769 20.5235 0.00418997 19.599C0.0541569 18.6746 0.0541569 17.7751 0.00418997 16.8507C-0.0457769 15.9513 0.353958 15.8513 1.0535 16.1261C2.92725 16.8007 4.77603 17.4753 6.97457 18.2998Z" fill="#2316A6"/>
</svg>
