<svg width="277" height="152" viewBox="0 0 277 152" fill="none" xmlns="http://www.w3.org/2000/svg">
<path d="M257.965 132.016L256.334 149.68H240.974L245.198 101.68H254.03C256.046 101.68 257.005 102.448 257.197 104.56L257.965 113.584C260.461 106.096 265.453 101.008 272.749 101.008C274.381 101.008 275.725 101.2 276.973 101.584L275.342 116.368C273.998 115.984 271.885 115.696 270.637 115.696C265.069 115.696 259.117 119.824 257.965 132.016Z" fill="#1B0088"/>
<path d="M214.638 123.663C218.862 123.663 222.318 121.359 222.318 116.943C222.318 114.447 220.302 112.335 217.71 112.335C213.582 112.335 210.126 116.079 209.07 122.799C210.894 123.375 212.814 123.663 214.638 123.663ZM234.222 145.839C229.518 148.815 224.334 151.023 216.462 151.023C201.102 151.023 194.286 140.463 194.286 127.503C194.286 113.391 202.926 100.239 218.766 100.239C231.342 100.239 236.43 108.207 236.43 115.503C236.43 128.367 225.774 133.839 216.654 133.839C214.062 133.839 211.47 133.455 209.358 132.687C210.702 137.007 213.966 139.215 219.342 139.215C224.43 139.215 227.79 137.295 230.958 135.279L234.222 145.839Z" fill="#1B0088"/>
<path d="M157.097 146.608C155.369 148.72 153.736 149.68 150.76 149.68H143.849L150.185 77.6797H165.064L160.745 124.912L177.737 101.68H193.769L176.681 122.608L190.312 149.68H174.761L167.081 134.416L157.097 146.608Z" fill="#1B0088"/>
<path d="M111.794 137.968C115.058 137.968 121.01 131.248 122.546 111.952V111.472C121.682 111.28 120.818 111.184 119.762 111.184C112.85 111.184 107.666 118.672 107.666 130.48C107.666 134.8 109.298 137.968 111.794 137.968ZM121.298 149.68L122.45 135.088C119.57 145.168 112.658 151.024 105.746 151.024C97.8743 151.024 91.8263 144.88 91.8263 131.632C91.8263 113.392 102.77 100.336 118.418 100.336C123.41 100.336 127.346 101.68 130.322 103.408L136.082 101.488L138.194 102.064L134.45 149.68H121.298Z" fill="#1B0088"/>
<path d="M36.192 136.432L30.048 101.392L15.168 149.68H0L21.504 82H34.656C37.44 82 38.784 83.056 39.264 86.128L45.408 120.88L61.536 82H74.496C77.664 82 79.008 83.248 79.296 86.512L85.152 149.68H70.368L66.144 101.488L50.688 139.696H40.224C37.824 139.696 36.576 138.736 36.192 136.432Z" fill="#1B0088"/>
<path d="M155.528 64.3198C153.8 66.3358 149.576 68.3518 144.776 68.3518C136.52 68.3518 130.76 63.9358 130.76 54.2398C130.76 53.2798 130.856 52.2238 130.952 51.1678L133.448 28.9918L125.288 27.4558L125.96 19.6798H134.312L135.656 7.00781H147.368L146.12 19.6798H159.08L158.312 28.0318L145.256 29.5678L143.048 49.6318C142.952 50.5918 142.856 51.2638 142.856 52.1278C142.856 56.1598 144.776 58.0798 148.04 58.0798C150.152 58.0798 151.976 57.0238 152.936 56.1598L155.528 64.3198Z" fill="#1B0088"/>
<path d="M101.702 49.8241L99.8775 67.6801H87.9735L92.5815 19.6801H98.7255C100.742 19.6801 101.702 20.6401 101.894 22.9441L102.47 30.6241C104.966 23.6161 110.438 18.9121 117.158 18.9121C119.462 18.9121 121.19 19.2961 122.726 19.9681L120.71 31.6801C119.27 30.7201 117.062 30.0481 115.142 30.0481C109.382 30.0481 103.142 35.1361 101.702 49.8241Z" fill="#1B0088"/>
<path d="M63.648 41.184L59.136 14.592L47.904 41.184H63.648ZM68.064 67.68L65.28 50.784H43.872L36.768 67.68H24L54.528 0H61.248C65.856 0 67.584 2.304 68.256 5.952L80.832 67.68H68.064Z" fill="#1B0088"/>
<path fill-rule="evenodd" clip-rule="evenodd" d="M201.846 0C196.458 0 192.09 4.36795 192.09 9.7561V12.0647L179.444 21.3701C178.731 21.8944 178.914 23.0936 179.728 23.2392L192.09 25.4486V70.2439C192.09 75.6321 196.458 80 201.846 80H267.212C272.6 80 276.968 75.6321 276.968 70.2439V9.7561C276.968 4.36795 272.6 0 267.212 0H201.846Z" fill="#E8114B"/>
<path opacity="0.982" fill-rule="evenodd" clip-rule="evenodd" d="M208.854 69.6748L210.633 69.6748C210.956 69.5569 211.29 69.4326 211.635 69.3017C216.921 64.9978 217.525 65.3349 226.907 56.9451C232.835 51.6444 238.263 46.7906 241.527 43.9791C243.798 41.8747 245.819 39.5827 247.589 37.1033C247.797 36.8827 247.909 36.634 247.923 36.3571C245.602 34.1687 243.322 31.9478 241.082 29.6944C240.971 29.6233 240.859 29.6233 240.748 29.6944C238.298 31.3228 235.981 33.1172 233.796 35.0778C230.312 38.8256 223.798 45.4924 217.052 52.3967C209.143 60.4905 210.947 59.0643 206.907 63.4919C206.469 64.0475 206.154 64.6516 205.962 65.3041L205.962 66.7965C206.395 68.2423 207.359 69.2017 208.854 69.6748ZM263.662 11.1991L259.992 11.1991C252.401 12.465 246.821 16.3738 243.251 22.9254C242.466 24.6275 242.169 26.4042 242.361 28.2555C244.719 30.4794 247.036 32.7357 249.313 35.0247C250.431 35.1133 251.543 35.0778 252.65 34.9181C255.23 34.2904 257.491 33.1178 259.435 31.4002C262.197 29.1102 263.736 26.2141 264.052 22.7122C264.14 21.0405 264.251 19.3704 264.385 17.7019C264.506 16.6186 264.877 15.6236 265.498 14.717C266.061 14.1594 266.635 13.6264 267.222 13.118L267.222 12.3718C267.059 12.2696 266.911 12.1453 266.777 11.9987C265.753 11.6292 264.715 11.3627 263.662 11.1991ZM250.426 30.6007C250.532 31.6971 251.162 32.2301 252.316 32.1997C254.645 31.7853 256.592 30.7192 258.156 29.0017C258.598 28.4551 258.913 27.8511 259.102 27.1894C258.78 25.8676 257.964 25.459 256.655 25.9635C256.223 26.4127 255.833 26.8924 255.487 27.4026C254.346 28.4312 252.993 29.0532 251.427 29.2682C250.854 29.5498 250.521 29.994 250.426 30.6007Z" fill="white"/>
</svg>
