<svg width="26" height="41" viewBox="0 0 26 41" fill="none" xmlns="http://www.w3.org/2000/svg">
<path d="M25.5096 7.60181C25.5096 8.52935 25.5289 9.55352 25.5096 10.597C25.4903 11.4086 25.1231 11.9304 24.2923 12.2202C18.4374 14.3072 12.5826 16.4328 6.74707 18.5585C6.10941 18.7903 5.52972 18.829 4.89207 18.5778C3.38488 17.9787 1.83905 17.4377 0.157959 16.8193C8.718 13.7082 17.1041 10.655 25.5096 7.60181Z" fill="white"/>
<path d="M6.01226 26.1333C6.01226 24.8966 6.0509 23.6985 5.99294 22.5198C5.97361 21.8241 6.51465 21.8628 6.88179 21.7275C12.3888 19.7178 17.9152 17.7275 23.4415 15.7371C24.1371 15.4859 24.7941 15.1767 25.4897 14.6936C25.4897 15.9303 25.5284 17.0704 25.4704 18.1912C25.4511 18.8482 25.084 19.2927 24.427 19.5439C18.4562 21.6889 12.4854 23.8725 6.53398 26.0367C6.37939 26.0754 6.22481 26.0947 6.01226 26.1333Z" fill="white"/>
<path d="M24.9682 6.71283C24.4851 7.33119 23.6929 7.42781 23.0552 7.77564C20.5626 9.10899 18.1859 9.07034 15.5966 7.83361C13.2585 6.71283 10.7272 6.01717 8.29255 5.10895C6.32162 4.39396 6.01245 3.93019 6.01245 1.86253C6.01245 -0.301744 6.01245 -0.282421 8.02203 0.432563C13.3551 2.36495 18.6883 4.29734 24.0407 6.24905C24.3499 6.38432 24.717 6.42297 24.9682 6.71283Z" fill="#E8114C"/>
<path d="M15.4614 10.501C13.3553 11.2547 11.4809 11.931 9.62594 12.6267C9.2588 12.7619 8.94964 12.6846 8.62115 12.5687C6.39902 11.7571 4.15756 10.9455 1.93543 10.1146C0.389596 9.53485 0.0224609 8.97446 0.0224609 7.29328C0.0224609 4.83915 0.0224612 4.85847 2.32189 5.6894C6.47631 7.19666 10.6307 8.72325 14.7658 10.2305C14.9204 10.2885 15.0557 10.3465 15.4614 10.501Z" fill="#E8114C"/>
<path d="M6.01245 33.4571C6.01245 32.1044 6.03177 30.7324 6.01245 29.3604C6.01245 28.9739 6.24433 28.8966 6.53417 28.8C9.35531 27.7758 12.1958 26.771 14.9976 25.7082C15.7512 25.4183 15.9831 25.7662 16.0217 26.3459C16.0797 27.1382 16.0604 27.9498 16.0217 28.7614C16.0024 29.6503 15.5773 30.1913 14.6691 30.5005C12.0219 31.3894 9.39396 32.3749 6.74672 33.3411C6.51485 33.4184 6.32162 33.515 6.01245 33.4571Z" fill="white"/>
<path d="M6.01245 38.5767C6.01245 36.3544 6.01245 36.3544 8.11865 35.5815C8.48578 35.4462 8.83359 35.3303 9.20073 35.195C10.2442 34.8279 10.4181 34.9631 10.4374 36.0839C10.476 40.0646 10.4374 39.2723 7.48099 40.4125C6.03177 40.9728 6.01245 40.9535 6.01245 39.4269C6.01245 39.1564 6.01245 38.8665 6.01245 38.5767Z" fill="white"/>
<path d="M25.0073 14.0166C24.6595 14.519 24.1377 14.7122 23.6354 14.9055C22.7658 15.234 21.8576 15.4659 21.0268 15.8717C19.6935 16.5287 18.4568 16.3741 17.1235 15.5432C18.766 14.9441 20.3891 14.4224 21.9349 13.746C23.075 13.2629 24.0218 13.3982 25.0073 14.0166Z" fill="#E8114C"/>
<path d="M5.39433 14.1529C3.71324 14.752 2.30266 15.2737 0.892093 15.7762C0.312407 15.9887 -0.0354051 15.8728 0.00324064 15.1578C0.0418864 14.4428 0.0418864 13.7471 0.00324064 13.0322C-0.0354051 12.3365 0.273761 12.2592 0.814802 12.4718C2.26402 12.9935 3.69391 13.5153 5.39433 14.1529Z" fill="#E8114C"/>
</svg>
