<svg width="30" height="30" viewBox="0 0 30 30" fill="none" xmlns="http://www.w3.org/2000/svg">
<path fill-rule="evenodd" clip-rule="evenodd" d="M14.8561 28.1753C15.2385 28.1753 15.6172 28.1593 15.9915 28.1278L16.521 28.0472C16.521 28.0472 17.2581 27.9191 17.4175 27.9191C17.8418 27.9191 18.1859 28.2633 18.1859 28.6876C18.1859 29.0418 18.1859 29.3279 17.6736 29.456L17.6298 29.4535C16.7312 29.6236 15.804 29.7121 14.8561 29.7121C6.6513 29.7121 0 23.061 0 14.8561C0 6.65111 6.6513 0 14.8561 0C22.7282 0 29.1702 6.12282 29.6797 13.866C29.6828 13.9131 29.6817 13.9676 29.6807 14.0215C29.6802 14.0483 29.6797 14.075 29.6797 14.1005C29.6797 14.1491 29.6752 14.1961 29.6667 14.2421L29.6674 14.2591L29.6635 14.2581C29.5907 14.6068 29.314 14.8561 28.9437 14.8561C28.5194 14.8561 28.1753 14.5119 28.1753 14.0876V13.9596V13.8315L28.0322 12.8965C27.0846 6.46951 21.5464 1.53683 14.8561 1.53683C7.50007 1.53683 1.53683 7.50007 1.53683 14.8561C1.53683 22.212 7.50007 28.1753 14.8561 28.1753ZM13.9136 8.27719C13.3987 8.27719 12.959 8.46001 12.5942 8.82511C12.2295 9.19021 12.0469 9.6302 12.0469 10.1564C12.0469 10.6718 12.2295 11.1231 12.5942 11.5097C12.959 11.8962 13.3987 12.0785 13.9136 12.0785C14.4392 12.0785 14.8895 11.8855 15.2649 11.5097C15.651 11.1338 15.8332 10.6825 15.8332 10.1564C15.8332 9.6302 15.6403 9.19021 15.2649 8.82511C14.8895 8.46001 14.4392 8.27719 13.9136 8.27719ZM13.9136 13.6893C12.9482 13.6893 12.1219 13.3459 11.4462 12.648C10.7704 11.95 10.4379 11.1228 10.4379 10.1564C10.4379 9.18993 10.7704 8.3633 11.4462 7.6868C12.1219 7.01029 12.9482 6.66646 13.9136 6.66646C14.8897 6.66646 15.7152 7.01029 16.4124 7.6868C17.1097 8.3633 17.4531 9.18993 17.4531 10.1564C17.4531 11.1228 17.1097 11.9607 16.4124 12.648C15.7152 13.3352 14.8897 13.6893 13.9136 13.6893ZM19.1155 13.6893C19.8771 13.4101 20.51 13.4426 21.0141 13.7648C21.5183 14.0977 21.7652 14.6238 21.7652 15.354V19.5452C21.7652 19.7492 21.6899 19.9315 21.529 20.0926C21.3681 20.2429 21.175 20.329 20.9283 20.329C20.7244 20.329 20.5423 20.2536 20.3815 20.0926C20.2206 19.9315 20.1452 19.7599 20.1452 19.5452V15.504C20.1452 15.1603 19.9201 15.0747 19.4696 15.2465L9.80525 18.629V21.8504C9.80525 22.0974 9.72993 22.2907 9.56904 22.4518C9.41887 22.6129 9.21527 22.6878 8.97929 22.6878C8.76476 22.6878 8.58213 22.6129 8.43196 22.4518C8.27106 22.2907 8.19627 22.0974 8.19627 21.8504V18.049C8.19627 17.7054 8.36762 17.4477 8.7216 17.2652L19.1155 13.6893ZM22.0136 27.1391C22.0873 27.1314 22.1469 27.1011 22.192 27.0442L25.9251 22.4336C25.9806 22.3636 26.0038 22.2848 25.9873 22.2022C25.9709 22.1195 25.9366 22.0549 25.8808 22.0085C25.825 21.9621 25.7561 21.9411 25.6738 21.9416C25.5919 21.9461 25.5211 21.9817 25.4656 22.0517L21.9317 26.4287L20.6219 25.3398L26.0249 18.4946L27.3562 19.6013L27.0373 20.004C26.9922 20.0609 26.9721 20.1313 26.973 20.2156C26.9778 20.2995 27.0129 20.3721 27.0816 20.4293C27.137 20.4717 27.2058 20.4926 27.2951 20.4833C27.3844 20.474 27.4517 20.4429 27.4968 20.386L27.9624 19.7712C27.974 19.77 27.9818 19.7692 27.981 19.7612C27.9806 19.7572 27.9879 19.7525 27.9995 19.7512L29.9307 17.3127C29.9411 17.2995 29.9545 17.2781 29.9637 17.253C29.9681 17.2385 29.9735 17.2249 29.979 17.2112C29.9844 17.1976 29.9898 17.1839 29.9942 17.1694C29.993 17.1575 29.9948 17.1373 30.0001 17.1126C30.0011 17.0844 29.9947 17.061 29.9801 17.0344C29.9777 17.0105 29.9713 16.987 29.9653 16.9676C29.9555 16.9485 29.9375 16.9263 29.9117 16.9049L28.9115 16.0771C28.6062 15.8196 28.2851 15.7126 27.9475 15.7477C27.6099 15.7829 27.3104 15.9586 27.0526 16.2706L19.9833 25.1975C19.9716 25.1987 19.9643 25.2035 19.9647 25.2074C19.9656 25.2154 19.9582 25.2202 19.9466 25.2214C19.942 25.2339 19.9375 25.2474 19.933 25.2609C19.9286 25.2745 19.9241 25.288 19.9195 25.3005C19.9097 25.3197 19.9023 25.341 19.8953 25.361L19.8886 25.38L19.3173 28.1068C19.2956 28.2376 19.3258 28.339 19.4074 28.4068C19.4632 28.4532 19.5394 28.4693 19.6403 28.4588L19.7179 28.4507L21.2668 27.8034C21.3509 27.7826 21.4084 27.7324 21.439 27.6489C21.4699 27.5693 21.466 27.4934 21.4344 27.4163C21.4033 27.3433 21.3504 27.2885 21.2769 27.26C21.2029 27.2276 21.1322 27.2269 21.0575 27.2628L19.9988 27.6823L20.3832 25.911L21.7961 27.0854C21.8558 27.1314 21.9243 27.1484 22.0136 27.1391Z" fill="white"/>
</svg>
