<svg width="36" height="30" viewBox="0 0 36 30" fill="none" xmlns="http://www.w3.org/2000/svg">
<path fill-rule="evenodd" clip-rule="evenodd" d="M13.1175 1.13884C13.2684 1.01462 13.4651 0.970621 13.6507 1.01958L22.5292 3.36071C22.5928 3.37748 22.652 3.40423 22.7055 3.43914L29.4878 2.08347C30.086 1.95641 30.6318 1.95765 31.0782 2.20171C31.5562 2.46299 31.7839 2.92398 31.8911 3.38095C31.9942 3.82046 32.0049 4.33262 31.9981 4.82991C31.995 5.05286 31.9887 5.26695 31.9823 5.48281C31.9732 5.79151 31.964 6.10383 31.964 6.4509V26.9498C31.964 27.2726 31.7424 27.5469 31.4429 27.5948L22.7024 28.9925C22.6319 29.0037 22.5624 29.0017 22.4962 28.9881C22.4084 29.006 22.3168 29.0039 22.2278 28.9804L16.9007 27.5757C16.5677 27.4879 16.3652 27.132 16.4485 26.7808C16.5317 26.4296 16.8691 26.216 17.2021 26.3038L21.757 27.5049V21.9354C21.3162 21.8734 20.9314 21.7449 20.652 21.6332C20.3279 21.5035 20.1702 21.1357 20.2999 20.8115C20.4295 20.4874 20.7974 20.3298 21.1215 20.4594C21.3156 20.537 21.5306 20.6088 21.757 20.6552V4.50847L14.1215 2.4951V13.0904C14.3172 13.0724 14.5306 13.07 14.7514 13.0918C15.271 13.1433 15.8747 13.3353 16.3664 13.827C16.6132 14.0738 16.6132 14.4741 16.3664 14.7209C16.1195 14.9678 15.7193 14.9678 15.4724 14.7209C15.2417 14.4902 14.9424 14.3812 14.6267 14.3499C14.4416 14.3315 14.2657 14.3418 14.1215 14.3632V23.2194V23.2194C14.1215 23.8535 14.1215 24.377 14.092 24.795C14.0625 25.2142 13.9996 25.6111 13.8248 25.9522C13.6352 26.322 13.3523 26.556 13.0163 26.7234C12.7036 26.8791 12.3137 26.9918 11.875 27.1075C11.8631 27.1107 11.851 27.1135 11.8388 27.1159L4.73604 28.5205C4.55432 28.5565 4.36687 28.5052 4.2246 28.3807C4.08233 28.2561 4.00001 28.0713 4.00001 27.8762V16.0828C4 16.0804 4 16.078 4.00001 16.0757V7.74248L4.00001 7.64069C3.99991 6.42094 3.99984 5.5439 4.1246 4.92546C4.19326 4.58508 4.30691 4.27592 4.50664 4.00675C4.70613 3.73788 4.95755 3.55478 5.23141 3.41035C5.25772 3.39648 5.28492 3.38459 5.31282 3.37478L7.97637 2.43833C8.302 2.32384 8.65396 2.50946 8.76251 2.85291C8.87105 3.19637 8.69507 3.5676 8.36944 3.68208L5.75072 4.60278C5.60526 4.68371 5.53197 4.75212 5.4855 4.81475C5.43552 4.88211 5.38269 4.98851 5.34037 5.1983C5.24661 5.66311 5.243 6.39333 5.243 7.74248V15.6247C5.77962 15.831 6.56069 16.2106 7.33676 16.9867C7.58361 17.2335 7.58361 17.6338 7.33676 17.8806C7.08991 18.1275 6.68968 18.1275 6.44283 17.8806C6.0233 17.4611 5.60611 17.1895 5.243 17.0056V27.0864L11.5914 25.8309C12.0301 25.7149 12.3012 25.6297 12.4855 25.5379C12.6488 25.4565 12.6989 25.392 12.7313 25.3288C12.7785 25.2367 12.8265 25.0659 12.8525 24.6978C12.8781 24.3342 12.8785 23.8594 12.8785 23.194V1.65552C12.8785 1.45367 12.9667 1.26307 13.1175 1.13884ZM23 21.8919C23.5015 21.7754 24.0161 21.5199 24.4943 21.0418C24.7411 20.7949 24.7411 20.3947 24.4943 20.1478C24.2474 19.901 23.8472 19.901 23.6003 20.1478C23.4086 20.3395 23.2064 20.4733 23 20.562V4.70749L29.7168 3.3649L29.7168 3.36495L29.724 3.36341C30.2169 3.25833 30.4346 3.31584 30.5198 3.36245C30.5745 3.39235 30.6472 3.45548 30.704 3.69734C30.7648 3.95665 30.7813 4.31801 30.7745 4.81073C30.7721 4.98472 30.7664 5.18416 30.7604 5.3967V5.39675V5.39679V5.39683V5.39687C30.7508 5.73179 30.7403 6.09922 30.7403 6.4509V26.3881L23 27.6258V21.8919ZM29.4855 11.6017C29.7004 11.3869 29.7004 11.0385 29.4855 10.8237C29.2707 10.6088 28.9224 10.6088 28.7075 10.8237L27.5241 12.0071L26.3407 10.8237C26.1259 10.6088 25.7775 10.6088 25.5627 10.8237C25.3479 11.0385 25.3479 11.3869 25.5627 11.6017L26.7461 12.7851L25.5638 13.9674C25.349 14.1822 25.349 14.5306 25.5638 14.7454C25.7787 14.9603 26.127 14.9603 26.3418 14.7454L27.5241 13.5631L28.7064 14.7454C28.9212 14.9603 29.2696 14.9603 29.4844 14.7454C29.6993 14.5306 29.6993 14.1822 29.4844 13.9674L28.3021 12.7851L29.4855 11.6017ZM17.4775 15.9503C17.7984 15.8128 18.17 15.9615 18.3075 16.2823C18.3876 16.4693 18.4653 16.6548 18.5416 16.8371L18.5416 16.8371L18.5416 16.8371L18.5416 16.8371L18.5416 16.8372L18.5416 16.8372L18.5416 16.8372L18.5416 16.8373L18.5417 16.8374L18.5417 16.8375C18.6892 17.19 18.8318 17.5306 18.9777 17.8467C19.2069 18.3434 19.3923 18.6577 19.528 18.7934C19.7748 19.0402 19.7748 19.4405 19.528 19.6873C19.2811 19.9342 18.8809 19.9342 18.6341 19.6873C18.3183 19.3716 18.0521 18.858 17.8298 18.3765C17.6747 18.0404 17.5161 17.6616 17.3629 17.2956C17.2888 17.1188 17.216 16.9449 17.1455 16.7803C17.008 16.4595 17.1566 16.0879 17.4775 15.9503ZM26.7567 15.8991C27.1058 15.8991 27.3888 16.1821 27.3888 16.5312C27.3888 17.2026 27.199 17.7185 26.9762 18.1374C26.8728 18.3318 26.7606 18.508 26.6665 18.6558L26.6551 18.6737C26.5535 18.8335 26.4774 18.9549 26.4191 19.0714C26.263 19.3836 25.8833 19.5102 25.571 19.3541C25.2588 19.1979 25.1322 18.8183 25.2884 18.506C25.3801 18.3226 25.4913 18.1477 25.5869 17.9976L25.5869 17.9976L25.5909 17.9914L25.5909 17.9913C25.6911 17.8338 25.7802 17.6939 25.86 17.5437C26.0135 17.2552 26.1246 16.9433 26.1246 16.5312C26.1246 16.1821 26.4076 15.8991 26.7567 15.8991ZM9.71344 16.362C9.8373 16.1142 10.0905 15.7244 10.4215 15.4062C10.7606 15.0801 11.0998 14.9054 11.4056 14.9054C11.7547 14.9054 12.0377 14.6224 12.0377 14.2733C12.0377 13.9242 11.7547 13.6412 11.4056 13.6412C10.6278 13.6412 9.98871 14.0685 9.54523 14.4949C9.09363 14.9291 8.75983 15.4423 8.58269 15.7966C8.42657 16.1088 8.55313 16.4885 8.86538 16.6447C9.17762 16.8008 9.55731 16.6742 9.71344 16.362Z" fill="white"/>
</svg>
