<svg width="36" height="30" viewBox="0 0 36 30" fill="none" xmlns="http://www.w3.org/2000/svg">
<path d="M18.9291 16.9481C18.9291 17.2403 18.8288 17.4838 18.6289 17.6786C18.4289 17.8733 18.1791 17.9707 17.8792 17.9707C17.6126 17.9707 17.3709 17.8733 17.171 17.6786C16.9711 17.4838 16.8712 17.2403 16.8712 16.9481C16.8712 16.6641 16.9711 16.4206 17.171 16.2177C17.3709 16.0229 17.6043 15.9255 17.8792 15.9255C18.1791 15.9255 18.4206 16.0229 18.6289 16.2177C18.8288 16.4124 18.9291 16.6559 18.9291 16.9481ZM17.6376 14.1887C17.2877 14.1887 17.0877 14.0102 17.0294 13.6368C16.9461 13.1174 17.0464 12.6386 17.313 12.2084C17.5795 11.7783 18.121 11.34 18.9291 10.8936L19.0121 10.853C19.7118 10.4635 20.1618 10.1307 20.3617 9.87102C20.5617 9.61131 20.6615 9.29476 20.6615 8.92954C20.6615 8.45882 20.4286 8.06929 19.9537 7.75277C19.4789 7.43625 18.8954 7.28198 18.1957 7.28198C17.4709 7.28198 16.8461 7.43625 16.3212 7.75277C15.7964 8.06929 15.4715 8.49942 15.3299 9.0513C15.3049 9.2055 15.2051 9.33533 15.0468 9.4246C14.8885 9.51388 14.7218 9.53819 14.5636 9.4895C14.4053 9.4408 14.2804 9.34344 14.1971 9.21358C14.1137 9.08373 14.0887 8.92956 14.1137 8.74289C14.3303 7.9313 14.8053 7.282 15.5467 6.79504C16.2882 6.30809 17.1712 6.06459 18.1875 6.06459C19.2872 6.06459 20.1867 6.33241 20.8698 6.86806C21.5529 7.40371 21.903 8.0936 21.903 8.92954C21.903 9.53012 21.7447 10.0576 21.4364 10.504C21.1282 10.9504 20.5285 11.413 19.6454 11.8756L19.5205 11.9568C18.954 12.2733 18.5958 12.533 18.4291 12.744C18.2709 12.955 18.2126 13.1985 18.2709 13.4907C18.2959 13.7017 18.246 13.8722 18.1127 14.002C17.996 14.1238 17.8292 14.1887 17.6376 14.1887ZM15.1383 27.9128C14.98 28.0183 14.8303 28.0669 14.697 28.0669H14.5969C14.5553 28.0669 14.5137 28.0508 14.4554 28.0264C14.2138 27.8966 14.0889 27.6936 14.0889 27.442V21.5823H4.65003C4.45842 21.5823 4.30842 21.5255 4.18346 21.4038C4.05849 21.282 4 21.1359 4 20.9492V5.03384C4 4.11674 4.29161 3.37821 4.86643 2.81821C5.44126 2.2582 6.21624 1.95794 7.18261 1.93359H31.3919C31.5502 1.93359 31.6916 1.99038 31.8165 2.11212C31.9415 2.23386 32 2.38 32 2.56666V18.5632C32 19.5046 31.7167 20.2431 31.1502 20.7626C30.6421 21.3145 29.884 21.5904 28.8926 21.5904H22.0698C21.9115 21.5904 21.7697 21.5336 21.6447 21.4119C21.5281 21.2901 21.4617 21.144 21.4617 20.9573C21.4617 20.8031 21.5197 20.6652 21.6447 20.5434C21.7697 20.4217 21.9032 20.3649 22.0698 20.3649H28.8926C29.5091 20.3649 29.9839 20.2107 30.3005 19.8942C30.6004 19.6101 30.7418 19.1637 30.7418 18.5551V3.15099H7.18261C6.56614 3.17533 6.08277 3.35391 5.74954 3.67854C5.41631 4.00318 5.24961 4.45761 5.24961 5.03384V20.3649H14.6884C14.8717 20.3649 15.03 20.4217 15.155 20.5434C15.2716 20.6652 15.3385 20.795 15.3385 20.9573V26.0298L18.279 23.2786C18.4123 23.1487 18.5707 23.0919 18.7456 23.1C18.9206 23.1162 19.0624 23.1731 19.1707 23.2786C19.279 23.3841 19.3371 23.522 19.3537 23.6924C19.3704 23.8629 19.304 24.0171 19.1707 24.147L15.1383 27.9128Z" fill="white"/>
</svg>
