<svg width="26" height="30" viewBox="0 0 26 30" fill="none" xmlns="http://www.w3.org/2000/svg">
<path d="M11.3653 14.2864C11.2158 14.2864 11.0895 14.2312 10.9872 14.1129C10.885 13.9947 10.8378 13.8606 10.8378 13.7108V10.5016C10.8378 10.3439 10.885 10.2177 10.9872 10.1152C11.0895 10.0127 11.2158 9.95749 11.3653 9.95749C11.5148 9.95749 11.6486 10.0127 11.743 10.1152C11.8453 10.2177 11.8924 10.3439 11.8924 10.5016V13.1746H13.7178V10.5016C13.7178 10.3439 13.765 10.2098 13.8673 10.0994C13.9696 9.98114 14.0955 9.92594 14.245 9.92594H16.4953L12.8364 6.25937L8.49295 10.6119C8.39066 10.7144 8.26496 10.7697 8.10759 10.7697C7.95809 10.7697 7.81624 10.7144 7.69034 10.6119C7.58805 10.4858 7.54088 10.3438 7.54088 10.194C7.54088 10.0442 7.58805 9.91807 7.69034 9.81556L12.4511 5.0845C12.5298 4.98199 12.6557 4.92679 12.8288 4.92679C12.9783 4.92679 13.1118 4.98199 13.2141 5.0845L18.1635 10.0837C18.313 10.2414 18.3523 10.4464 18.2815 10.6987C18.1792 10.9274 18.014 11.0456 17.7858 11.0456H14.8117V13.7187C14.8117 13.8685 14.7485 14.0104 14.6226 14.1366C14.5203 14.2391 14.3945 14.2864 14.245 14.2864H11.3653ZM11.247 17.7953C11.1683 18.0713 10.9795 18.2132 10.6726 18.2132H10.5231C9.96445 18.1107 9.45303 17.9214 8.99665 17.6376V27.4939L12.5767 26.2323C12.7262 26.1614 12.8837 26.1614 13.0332 26.2323L16.5425 27.4939V17.6376C16.0862 17.8899 15.63 18.0712 15.1736 18.1737C15.0241 18.2289 14.8667 18.2053 14.7172 18.1186C14.5677 18.0318 14.4653 17.9057 14.4102 17.7558C14.3866 17.5745 14.4102 17.4168 14.4889 17.2828C14.5676 17.1408 14.6777 17.0462 14.8351 16.991C15.9288 16.6835 16.889 16.1631 17.7309 15.4297C18.5728 14.6885 19.2023 13.8291 19.635 12.8277C20.0678 11.8341 20.2801 10.7933 20.2801 9.69727C20.2801 8.7274 20.0913 7.78908 19.7057 6.87441C19.328 5.95974 18.7772 5.13181 18.069 4.39061C17.3294 3.68095 16.5032 3.13688 15.5905 2.76628C14.6777 2.39568 13.7257 2.21431 12.7342 2.21431C11.7428 2.21431 10.7908 2.40356 9.87803 2.78993C8.96527 3.16842 8.13914 3.72036 7.39949 4.43002C6.71492 5.16334 6.17964 5.99915 5.80195 6.91383C5.42425 7.8285 5.22755 8.77473 5.22755 9.7446C5.22755 11.4714 5.74706 13.0169 6.79359 14.3653C7.83225 15.7136 9.18538 16.6046 10.8378 17.0383C11.184 17.1329 11.3257 17.3931 11.247 17.7953ZM8.39075 28.9842C8.33567 28.9842 8.28081 28.9763 8.21786 28.9685C8.15491 28.9527 8.09966 28.9211 8.04458 28.8738C7.89508 28.7713 7.81636 28.6215 7.81636 28.4165V16.9595C6.62033 16.1473 5.68392 15.1065 5.01508 13.8291C4.33838 12.5517 4 11.1955 4 9.7446C4 7.40272 4.84981 5.35258 6.5573 3.5942C7.39924 2.75838 8.34376 2.1118 9.39815 1.67024C10.4525 1.22079 11.5618 1 12.7342 1C13.8988 1 15.0163 1.22867 16.0865 1.67024C17.1566 2.1118 18.0927 2.74262 18.9031 3.55479C19.7451 4.3433 20.3826 5.27372 20.8311 6.3461C21.2717 7.41847 21.5 8.53816 21.5 9.70516C21.5 11.156 21.1614 12.528 20.4926 13.8133C19.8238 15.0986 18.9033 16.1473 17.7309 16.9673V28.385C17.7309 28.59 17.6285 28.7556 17.4239 28.8817C17.298 28.9842 17.1169 29.0079 16.8887 28.9606L12.8522 27.4309L8.61897 28.9606C8.59537 28.9842 8.5638 29 8.52446 29H8.39075V28.9842Z" fill="white"/>
</svg>
