<svg width="36" height="30" viewBox="0 0 36 30" fill="none" xmlns="http://www.w3.org/2000/svg">
<path d="M11.6364 3.66667C11.6364 3.29848 11.3515 3 11 3C10.6485 3 10.3636 3.29848 10.3636 3.66667V7H7.144C6.53988 6.99998 6.03326 6.99996 5.63995 7.04575C5.24316 7.09193 4.82137 7.19671 4.50457 7.5286C4.18777 7.86048 4.08776 8.30236 4.04367 8.71805C3.99997 9.13007 3.99998 9.66081 4 10.2937V17C4 17.3682 4.28491 17.6667 4.63637 17.6667C4.98782 17.6667 5.27273 17.3682 5.27273 17V10.3333C5.27273 9.65038 5.27367 9.19469 5.30861 8.86529C5.34375 8.53399 5.40218 8.47382 5.40458 8.47135C5.40693 8.46884 5.46427 8.40773 5.7805 8.37092C6.09493 8.33432 6.52991 8.33333 7.18182 8.33333H30.7273V23.6667C30.7273 24.3496 30.7263 24.8053 30.6914 25.1347C30.6562 25.466 30.5978 25.5262 30.5954 25.5287C30.5931 25.5312 30.5357 25.5923 30.2195 25.6291C29.9051 25.6657 29.4701 25.6667 28.8182 25.6667H5.27273V21C5.27273 20.6318 4.98782 20.3333 4.63637 20.3333C4.28491 20.3333 4 20.6318 4 21V27H28.856C29.4601 27 29.9667 27 30.36 26.9543C30.7568 26.9081 31.1786 26.8033 31.4954 26.4714C31.8122 26.1395 31.9122 25.6976 31.9563 25.282C32 24.87 32 24.3393 32 23.7066V7H26.2727V3.66667C26.2727 3.29848 25.9878 3 25.6364 3C25.2849 3 25 3.29848 25 3.66667V7L11.6364 7V3.66667Z" fill="white"/>
<path d="M7.18182 20.3333C7.18182 19.9651 7.46673 19.6667 7.81818 19.6667H16.7273C17.0787 19.6667 17.3636 19.9651 17.3636 20.3333C17.3636 20.7015 17.0787 21 16.7273 21H7.81818C7.46673 21 7.18182 20.7015 7.18182 20.3333Z" fill="white"/>
<path d="M7.81818 22.3333C7.46673 22.3333 7.18182 22.6318 7.18182 23C7.18182 23.3682 7.46673 23.6667 7.81818 23.6667H16.7273C17.0787 23.6667 17.3636 23.3682 17.3636 23C17.3636 22.6318 17.0787 22.3333 16.7273 22.3333H7.81818Z" fill="white"/>
<path d="M19.9091 17.6667C19.9091 17.2985 20.194 17 20.5455 17H28.1818C28.5333 17 28.8182 17.2985 28.8182 17.6667C28.8182 18.0349 28.5333 18.3333 28.1818 18.3333H20.5455C20.194 18.3333 19.9091 18.0349 19.9091 17.6667Z" fill="white"/>
<path d="M20.5455 14.3333C20.194 14.3333 19.9091 14.6318 19.9091 15C19.9091 15.3682 20.194 15.6667 20.5455 15.6667H28.1818C28.5333 15.6667 28.8182 15.3682 28.8182 15C28.8182 14.6318 28.5333 14.3333 28.1818 14.3333H20.5455Z" fill="white"/>
<path d="M19.9091 12.3333C19.9091 11.9651 20.194 11.6667 20.5455 11.6667H28.1818C28.5333 11.6667 28.8182 11.9651 28.8182 12.3333C28.8182 12.7015 28.5333 13 28.1818 13H20.5455C20.194 13 19.9091 12.7015 19.9091 12.3333Z" fill="white"/>
<path d="M20.5455 19.6667C20.194 19.6667 19.9091 19.9651 19.9091 20.3333C19.9091 20.7015 20.194 21 20.5455 21H28.1818C28.5333 21 28.8182 20.7015 28.8182 20.3333C28.8182 19.9651 28.5333 19.6667 28.1818 19.6667H20.5455Z" fill="white"/>
<path d="M19.9091 23C19.9091 22.6318 20.194 22.3333 20.5455 22.3333H28.1818C28.5333 22.3333 28.8182 22.6318 28.8182 23C28.8182 23.3682 28.5333 23.6667 28.1818 23.6667H20.5455C20.194 23.6667 19.9091 23.3682 19.9091 23Z" fill="white"/>
<path d="M17.442 14.7195C17.7611 14.5265 17.9713 14.2793 18.0707 13.9746C18.1445 13.7122 18.1192 13.434 18.0052 13.1383C17.66 12.3822 17.0077 12.2165 16.051 12.6395L14.3433 13.4145C14.2841 13.4369 14.2425 13.4843 14.2212 13.555C14.1999 13.6257 14.2011 13.6962 14.2275 13.7646C14.2698 13.8413 14.3217 13.8944 14.3878 13.9256C14.4539 13.9568 14.5146 13.9645 14.5766 13.9403L16.2844 13.1653C16.6189 13.0208 16.887 12.9609 17.0964 12.9854C17.3057 13.01 17.456 13.1325 17.5512 13.3462C17.6086 13.4982 17.6241 13.6356 17.5911 13.7534C17.5226 13.9638 17.3448 14.1469 17.0496 14.2943L10.6829 17.1981C9.97149 17.4238 9.40065 17.2489 8.96773 16.6614L7.90591 15.0626L8.42481 14.8155L9.93028 15.928C10.0177 15.9774 10.0981 15.9866 10.1658 15.959L12.086 15.0777C12.1763 15.0231 12.2229 14.9505 12.2247 14.8649C12.2304 14.7592 12.1948 14.674 12.1187 14.6044L9.84268 12.4283L10.5158 12.1945L10.53 12.186L10.5391 12.2027L12.805 13.4378C12.8711 13.469 12.9346 13.475 12.9938 13.4526C13.0558 13.4284 13.0974 13.381 13.1187 13.3103C13.1483 13.2479 13.149 13.1809 13.1245 13.1023C13.1001 13.0237 13.0539 12.9672 12.9877 12.936L10.7127 11.6842C10.5945 11.6267 10.4599 11.6148 10.3089 11.6483L9.33613 12.001L9.322 12.0095L9.29868 12.0014C9.19703 12.0629 9.141 12.1457 9.12962 12.2548C9.11246 12.3808 9.15913 12.486 9.27047 12.5787L11.5067 14.7167L10.0612 15.3731L9.41663 14.9003C9.29865 14.8161 9.17416 14.7268 9.04883 14.6292C8.92252 14.5367 8.79338 14.4458 8.66693 14.3667C8.52591 14.2474 8.37365 14.2239 8.20732 14.2978L7.53349 14.5987C7.41233 14.6453 7.33853 14.7299 7.31289 14.8611C7.30599 14.8964 7.30925 14.9433 7.31889 15.0086C7.33136 15.0722 7.35964 15.144 7.40007 15.2174L8.56425 16.9677L8.57344 16.9844C8.88368 17.397 9.23465 17.665 9.62637 17.7882C10.0153 17.9131 10.4309 17.8885 10.8741 17.7227L10.8883 17.7141L17.2691 14.8019C17.3 14.7965 17.3602 14.769 17.442 14.7195Z" fill="white"/>
</svg>
