<svg width="22" height="28" viewBox="0 0 22 28" fill="none" xmlns="http://www.w3.org/2000/svg">
<path d="M15.2454 1.06355C14.9673 0.917212 14.6273 1.03218 14.4861 1.32034C14.3448 1.6085 14.4558 1.96073 14.7339 2.10707L19.5579 4.64532V23.1923C19.5579 23.783 19.5569 24.2467 19.507 24.6342C19.4581 25.0143 19.3687 25.2578 19.2349 25.4312C18.9703 25.774 18.3385 26.0796 16.5488 26.0796H2.12961V5.82954C2.12961 5.06192 2.14969 4.44547 2.21783 3.94609C2.28605 3.44611 2.39697 3.10939 2.5481 2.87445C2.81592 2.45809 3.34249 2.1705 4.72359 2.1705H10.4764V7.75873C10.4764 7.94954 10.5662 8.12837 10.717 8.23791C10.8678 8.34744 11.0606 8.37391 11.2338 8.30884L16.3668 6.37965C16.66 6.26944 16.8115 5.9338 16.7052 5.62998C16.5988 5.32617 16.2748 5.16921 15.9816 5.27942L11.606 6.92395V1.58531C11.606 1.26212 11.3531 1.00013 11.0412 1.00013H4.72359C3.26179 1.00013 2.20896 1.2913 1.60812 2.22537C1.32491 2.66565 1.17919 3.19706 1.09934 3.78226C1.01941 4.36805 1 5.0538 1 5.82954V26.6648C1 26.988 1.25287 27.25 1.56481 27.25H16.5488C18.333 27.25 19.4882 26.9769 20.117 26.1622C20.4299 25.7568 20.5639 25.2769 20.6267 24.7888C20.6875 24.316 20.6875 23.7768 20.6875 23.2198V4.28618C20.6875 4.06585 20.5681 3.86419 20.3784 3.76442L15.2454 1.06355Z" fill="white"/>
<path d="M5.67578 12.4846C5.35865 12.4846 5.10156 12.7417 5.10156 13.0588C5.10156 13.3759 5.35865 13.633 5.67578 13.633H16.3398C16.657 13.633 16.9141 13.3759 16.9141 13.0588C16.9141 12.7417 16.657 12.4846 16.3398 12.4846H5.67578Z" fill="white"/>
<path d="M5.10156 17.9807C5.10156 17.6635 5.35865 17.4065 5.67578 17.4065H16.3398C16.657 17.4065 16.9141 17.6635 16.9141 17.9807C16.9141 18.2978 16.657 18.5549 16.3398 18.5549H5.67578C5.35865 18.5549 5.10156 18.2978 5.10156 17.9807Z" fill="white"/>
<path d="M5.67578 22.3283C5.35865 22.3283 5.10156 22.5854 5.10156 22.9025C5.10156 23.2197 5.35865 23.4768 5.67578 23.4768H16.3398C16.657 23.4768 16.9141 23.2197 16.9141 22.9025C16.9141 22.5854 16.657 22.3283 16.3398 22.3283H5.67578Z" fill="white"/>
</svg>
