<svg width="29" height="29" viewBox="0 0 29 29" fill="none" xmlns="http://www.w3.org/2000/svg">
<g clip-path="url(#clip0_1641_7482)">
<path d="M3.22222 29C2.33611 29 1.57755 28.6845 0.946528 28.0535C0.315509 27.4225 0 26.6639 0 25.7778V3.22222C0 2.33611 0.315509 1.57755 0.946528 0.946528C1.57755 0.315509 2.33611 0 3.22222 0H17.2222C17.4984 0 17.7222 0.223858 17.7222 0.5V2.72222C17.7222 2.99836 17.4984 3.22222 17.2222 3.22222H3.72222C3.44608 3.22222 3.22222 3.44608 3.22222 3.72222V25.2778C3.22222 25.5539 3.44608 25.7778 3.72222 25.7778H25.2778C25.5539 25.7778 25.7778 25.5539 25.7778 25.2778V11.7778C25.7778 11.5016 26.0016 11.2778 26.2778 11.2778H28.5C28.7761 11.2778 29 11.5016 29 11.7778V25.7778C29 26.6639 28.6845 27.4225 28.0535 28.0535C27.4225 28.6845 26.6639 29 25.7778 29H3.22222ZM23.0556 9.66667C22.7794 9.66667 22.5556 9.44281 22.5556 9.16667V6.94444C22.5556 6.6683 22.3317 6.44444 22.0556 6.44444H19.8333C19.5572 6.44444 19.3333 6.22059 19.3333 5.94444V3.72222C19.3333 3.44608 19.5572 3.22222 19.8333 3.22222H22.0556C22.3317 3.22222 22.5556 2.99836 22.5556 2.72222V0.5C22.5556 0.223858 22.7794 0 23.0556 0H25.2778C25.5539 0 25.7778 0.223858 25.7778 0.5V2.72222C25.7778 2.99836 26.0016 3.22222 26.2778 3.22222H28.5C28.7761 3.22222 29 3.44608 29 3.72222V5.94444C29 6.22059 28.7761 6.44444 28.5 6.44444H26.2778C26.0016 6.44444 25.7778 6.6683 25.7778 6.94444V9.16667C25.7778 9.44281 25.5539 9.66667 25.2778 9.66667H23.0556ZM5.43333 21.7556C5.18612 22.0852 5.42131 22.5556 5.83333 22.5556H23.1667C23.5787 22.5556 23.8139 22.0852 23.5667 21.7556L18.525 15.0333C18.325 14.7667 17.925 14.7667 17.725 15.0333L13.6917 20.4111C13.4917 20.6778 13.0917 20.6778 12.8917 20.4111L10.0667 16.6444C9.86667 16.3778 9.46667 16.3778 9.26667 16.6444L5.43333 21.7556Z" fill="white"/>
</g>
<defs>
<clipPath id="clip0_1641_7482">
<rect width="29" height="29" fill="white"/>
</clipPath>
</defs>
</svg>
