<svg width="40" height="40" viewBox="0 0 50 50" fill="none" xmlns="http://www.w3.org/2000/svg">
<path d="M23.4135 14.5745C22.6521 14.5745 22.0018 14.8448 21.4625 15.3847C20.9231 15.9247 20.6531 16.5753 20.6531 17.3535C20.6531 18.1157 20.9231 18.7831 21.4625 19.3548C22.0018 19.9264 22.6521 20.1961 23.4135 20.1961C24.1908 20.1961 24.8567 19.9106 25.4119 19.3548C25.9829 18.7989 26.2523 18.1316 26.2523 17.3535C26.2523 16.5753 25.9671 15.9247 25.4119 15.3847C24.8567 14.8448 24.1908 14.5745 23.4135 14.5745ZM23.4135 22.5781C21.9859 22.5781 20.764 22.0703 19.7646 21.0381C18.7653 20.0059 18.2736 18.7827 18.2736 17.3535C18.2736 15.9243 18.7653 14.7018 19.7646 13.7014C20.764 12.7009 21.9859 12.1924 23.4135 12.1924C24.8571 12.1924 26.0778 12.7009 27.1089 13.7014C28.14 14.7018 28.648 15.9243 28.648 17.3535C28.648 18.7827 28.14 20.0218 27.1089 21.0381C26.0778 22.0545 24.8571 22.5781 23.4135 22.5781ZM31.1064 22.5781C32.2326 22.1652 33.1686 22.2133 33.9141 22.6897C34.6597 23.182 35.0248 23.9601 35.0248 25.0399V34.6471C35.0248 34.9488 34.9134 35.2184 34.6755 35.4566C34.4376 35.6789 34.1519 35.8063 33.7871 35.8063C33.4857 35.8063 33.2164 35.6948 32.9785 35.4566C32.7405 35.2184 32.6291 34.9647 32.6291 34.6471V25.2617C32.6291 24.7535 32.2962 24.6269 31.63 24.881L17.338 29.883V34.6471C17.338 35.0123 17.2266 35.2982 16.9887 35.5364C16.7666 35.7746 16.4655 35.8854 16.1165 35.8854C15.7993 35.8854 15.5292 35.7746 15.3071 35.5364C15.0692 35.2982 14.9586 35.0123 14.9586 34.6471V29.0255C14.9586 28.5173 15.212 28.1362 15.7354 27.8662L31.1064 22.5781ZM35.4051 44.1906C32.1215 45.985 28.68 46.875 25.0316 46.875C22.1604 46.875 19.384 46.3191 16.6874 45.2234C14.0066 44.1277 11.5958 42.5397 9.50187 40.4912C7.45557 38.4427 5.86932 36.0607 4.77479 33.377C3.68026 30.6932 3.125 27.882 3.125 24.9601C3.125 21.9905 3.68026 19.18 4.77479 16.544C5.88518 13.9079 7.45557 11.5573 9.50187 9.50881C11.5482 7.46028 13.8954 5.87231 16.5286 4.77659C19.1618 3.68086 21.97 3.125 24.9363 3.125C27.8551 3.125 30.6625 3.68086 33.3433 4.77659C36.0241 5.87231 38.4035 7.46028 40.4498 9.50881C43.8761 12.9389 45.9381 17.0363 46.6361 21.7686C47.3182 26.5167 46.5409 31.0107 44.2884 35.2666C44.1457 35.5683 43.8919 35.7742 43.5588 35.8854C43.2257 35.9806 42.9405 35.9651 42.6867 35.8063C42.3694 35.6475 42.1788 35.4093 42.0678 35.0758C41.9726 34.7424 41.9882 34.4406 42.1468 34.1865C43.5269 31.6298 44.2886 28.946 44.4472 26.1511C44.6058 23.3562 44.1938 20.6568 43.2103 18.0684C42.2426 15.4799 40.7673 13.1931 38.7527 11.1922C36.9126 9.3501 34.8029 7.9369 32.4076 6.95234C30.0282 5.98366 27.5374 5.4915 24.92 5.4915C22.3661 5.4915 19.892 5.98366 17.4968 6.95234C15.1173 7.9369 13.0072 9.33422 11.1671 11.1922C9.32707 13.0343 7.91503 15.1467 6.9474 17.5287C5.97977 19.9107 5.48815 22.3879 5.48815 24.9446C5.48815 27.5648 5.97977 30.0575 6.9474 32.4395C7.91503 34.8215 9.32707 36.9336 11.1671 38.7915C14.1811 41.8246 17.8294 43.6349 22.1123 44.2542C26.3953 44.8735 30.4242 44.1432 34.2154 42.0947C34.5168 41.9359 34.8183 41.92 35.1356 42.0311C35.437 42.1264 35.6748 42.3175 35.8335 42.5716C36.0397 42.8733 36.0874 43.1902 35.9922 43.492C35.9129 43.7937 35.7065 44.0318 35.4051 44.1906Z" fill="white"/>
</svg>
