<svg width="74" height="75" viewBox="0 0 74 75" fill="none" xmlns="http://www.w3.org/2000/svg">
<path d="M10.0208 10.1562V21.0938H4.625V10.1562C4.625 8.70585 5.19349 7.31485 6.2054 6.28926C7.21732 5.26367 8.58977 4.6875 10.0208 4.6875H20.8125V10.1562H10.0208ZM63.9792 4.6875C65.4102 4.6875 66.7827 5.26367 67.7946 6.28926C68.8065 7.31485 69.375 8.70585 69.375 10.1562V21.0938H63.9792V10.1562H53.1875V4.6875H63.9792ZM10.0208 53.9062V64.8438H20.8125V70.3125H10.0208C8.58977 70.3125 7.21732 69.7363 6.2054 68.7107C5.19349 67.6852 4.625 66.2942 4.625 64.8438V53.9062H10.0208ZM63.9792 64.8438V53.9062H69.375V64.8438C69.375 66.2942 68.8065 67.6852 67.7946 68.7107C66.7827 69.7363 65.4102 70.3125 63.9792 70.3125H53.1875V64.8438H63.9792Z" fill="white"/>
<path fill-rule="evenodd" clip-rule="evenodd" d="M36.8987 14.9016C37.1663 15.443 37.1666 15.4429 37.1666 15.4429L36.8987 14.9016ZM19.5236 39V22.0942C19.5236 20.5892 19.5645 19.4115 19.6961 18.4724C19.8281 17.5307 20.0346 16.966 20.2711 16.6081C20.6334 16.06 21.4067 15.5016 24.1408 15.5016H36.8987C36.9913 15.5016 37.083 15.4815 37.1666 15.4429L37.1692 15.4417L37.1738 15.4396L37.1877 15.433C37.199 15.4275 37.2144 15.42 37.2334 15.4105C37.2712 15.3916 37.3234 15.3647 37.3853 15.3305C37.5077 15.2629 37.6747 15.1633 37.8451 15.0381C38.0124 14.9151 38.2033 14.7528 38.3572 14.5554C38.509 14.3608 38.6605 14.0858 38.6605 13.7513C38.6605 12.8241 37.9005 12.001 36.8987 12.001H24.1408C21.1371 12.001 18.7186 12.5787 17.3256 14.6866C16.6851 15.656 16.3733 16.7978 16.2062 17.9893C16.0389 19.1833 16 20.5653 16 22.0942V39H19.5236ZM57 39H53.4764V20.1274L44.0649 15.307C43.1952 14.8615 42.8714 13.8127 43.2968 12.968C43.7289 12.1099 44.7938 11.7417 45.6799 12.1956L56.0457 17.5047C56.6404 17.8093 57 18.4148 57 19.0604V39Z" fill="white"/>
<path fill-rule="evenodd" clip-rule="evenodd" d="M5 37C5 36.4477 5.44771 36 6 36C26.6664 36 47.3336 36 68 36C68.5523 36 69 36.4477 69 37C69 37.6667 69 38.3333 69 39C69 39.5523 68.5523 40 68 40C67.3781 40 66.7562 40 66.1343 40C46.0899 40 26.0445 40 6 40C5.44771 40 5 39.5523 5 39C5 38.3333 5 37.6667 5 37Z" fill="white"/>
<path fill-rule="evenodd" clip-rule="evenodd" d="M24 23C31.6666 23 39.3334 23 47 23C47 24.6667 47 26.3333 47 28C46.6567 28 46.3134 28 45.9701 28C38.6469 28 31.3233 28 24 28C24 26.3333 24 24.6667 24 23Z" fill="white"/>
<path fill-rule="evenodd" clip-rule="evenodd" d="M24 31C32.6665 31 41.3335 31 50 31C50 32 50 33 50 34C49.6119 34 49.2239 34 48.8358 34C40.5573 34 32.2785 34 24 34C24 33 24 32 24 31Z" fill="white"/>
<path fill-rule="evenodd" clip-rule="evenodd" d="M17 44.3108V42H18.9048V44.3108C18.9048 44.8048 18.4784 45.2053 17.9524 45.2053C17.4264 45.2053 17 44.8048 17 44.3108ZM57 42V45.4289C57 45.9229 56.5736 46.3234 56.0476 46.3234C55.5216 46.3234 55.0952 45.9229 55.0952 45.4289V42H57ZM17.9524 48.0379C18.4784 48.0379 18.9048 48.4384 18.9048 48.9324V53.554C18.9048 54.048 18.4784 54.4485 17.9524 54.4485C17.4264 54.4485 17 54.048 17 53.554V48.9324C17 48.4384 17.4264 48.0379 17.9524 48.0379ZM17.9524 57.281C18.4784 57.281 18.9048 57.6815 18.9048 58.1755V60.1882H21.2328C21.7588 60.1882 22.1852 60.5887 22.1852 61.0827C22.1852 61.5767 21.7588 61.9772 21.2328 61.9772H18.5873C17.7107 61.9772 17 61.3097 17 60.4863V58.1755C17 57.6815 17.4264 57.281 17.9524 57.281ZM55.8945 58.1851C56.3641 58.4078 56.5526 58.9458 56.3156 59.3868C56.1021 59.7839 55.8211 60.1751 55.4512 60.5225C55.0813 60.8699 54.6648 61.1339 54.242 61.3343C53.7724 61.557 53.1996 61.3799 52.9626 60.9389C52.7256 60.4979 52.9141 59.9599 53.3836 59.7373C53.6561 59.6081 53.8996 59.4498 54.1043 59.2575C54.3091 59.0652 54.4776 58.8365 54.6152 58.5806C54.8522 58.1396 55.425 57.9625 55.8945 58.1851ZM24.3016 61.0827C24.3016 60.5887 24.728 60.1882 25.254 60.1882H30.545C31.071 60.1882 31.4974 60.5887 31.4974 61.0827C31.4974 61.5767 31.071 61.9772 30.545 61.9772H25.254C24.728 61.9772 24.3016 61.5767 24.3016 61.0827ZM34.8836 61.0827C34.8836 60.5887 35.31 60.1882 35.836 60.1882H42.3968C42.9228 60.1882 43.3492 60.5887 43.3492 61.0827C43.3492 61.5767 42.9228 61.9772 42.3968 61.9772H35.836C35.31 61.9772 34.8836 61.5767 34.8836 61.0827ZM45.4656 61.0827C45.4656 60.5887 45.892 60.1882 46.418 60.1882H49.0635C49.0968 60.1882 49.13 60.1898 49.1631 60.1931L49.165 60.1933L49.1725 60.1939C49.182 60.1947 49.1985 60.1961 49.2213 60.1976C49.2669 60.2008 49.3377 60.2048 49.429 60.2077C49.6124 60.2133 49.8749 60.2138 50.181 60.1926C50.7056 60.1562 51.1623 60.5261 51.201 61.0187C51.2398 61.5114 50.8459 61.9403 50.3214 61.9767C49.9353 62.0035 49.6038 62.003 49.3664 61.9957C49.2474 61.992 49.151 61.9866 49.0822 61.9818C49.0578 61.9802 49.0368 61.9786 49.0194 61.9772H46.418C45.892 61.9772 45.4656 61.5767 45.4656 61.0827Z" fill="white"/>
<path d="M56.0476 48.0379C56.5736 48.0379 57 48.4384 57 48.9324V54.7466C57 55.2406 56.5736 55.6411 56.0476 55.6411C55.5216 55.6411 55.0952 55.2406 55.0952 54.7466V48.9324C55.0952 48.4384 55.5216 48.0379 56.0476 48.0379Z" fill="white"/>
<path d="M55.8946 58.1832C56.3642 58.4058 56.5527 58.9438 56.3157 59.3848C56.1022 59.7819 55.8212 60.1731 55.4513 60.5206C55.0814 60.868 54.6649 61.1319 54.2421 61.3324C53.7725 61.555 53.1997 61.378 52.9627 60.937C52.7257 60.4959 52.9142 59.958 53.3837 59.7353C53.6562 59.6061 53.8997 59.4478 54.1044 59.2556C54.3092 59.0633 54.4777 58.8346 54.6153 58.5786C54.8523 58.1376 55.4251 57.9606 55.8946 58.1832Z" fill="white"/>
<path fill-rule="evenodd" clip-rule="evenodd" d="M24 44V42H27.3485V44H24ZM29.3182 42H36.0152V44H29.3182V42ZM37.9848 42L44.6818 42V44L37.9848 44V42ZM46.6515 42H50V44H46.6515V42Z" fill="white"/>
<path fill-rule="evenodd" clip-rule="evenodd" d="M24 50V47H26.8068V50H24ZM27.6932 47H33.3068V50H27.6932V47ZM34.1932 47L39.8068 47V50L34.1932 50V47ZM40.6932 47H46.3068V50H40.6932V47ZM47.1932 47H50V50H47.1932V47Z" fill="white"/>
<path fill-rule="evenodd" clip-rule="evenodd" d="M24 57V53H27.3485V57H24ZM29.3182 53H36.0152V57H29.3182V53ZM37.9848 53L44.6818 53V57L37.9848 57V53ZM46.6515 53H50V57H46.6515V53Z" fill="white"/>
</svg>
