<svg width="12" height="47" viewBox="0 0 12 47" fill="none" xmlns="http://www.w3.org/2000/svg">
<path d="M6.16723 23.3483C4.29249 18.7691 2.48257 14.3349 0.737463 10.0457C-0.338149 7.40174 -0.215641 3.57621 0.9645 1.2214C1.53321 0.0848494 2.21507 -0.258508 3.01008 0.191341C3.64286 0.552135 4.08457 1.77499 4.52178 2.85462C6.73895 8.34642 8.87818 13.5729 10.9395 18.5341C11.3651 19.5604 11.6506 20.451 11.7959 21.2056C12.1736 23.1831 12.0241 25.8161 11.3722 27.397C8.80437 33.625 6.39389 39.5208 4.14076 45.0842C3.39334 46.9295 2.39303 47.574 1.39946 46.431C0.190101 45.0401 -0.360632 41.457 0.25866 38.5486C0.394282 37.9114 0.670773 37.0861 1.08813 36.0726C2.79952 31.9156 4.49255 27.7734 6.16723 23.6458C6.20769 23.5466 6.20769 23.4475 6.16723 23.3483Z" fill="white"/>
</svg>
