<svg width="12" height="47" viewBox="0 0 12 47" fill="none" xmlns="http://www.w3.org/2000/svg">
<path d="M5.83277 23.6517C7.70751 28.2309 9.51743 32.6651 11.2625 36.9543C12.3382 39.5983 12.2156 43.4238 11.0355 45.7786C10.4668 46.9151 9.78493 47.2585 8.98993 46.8087C8.35715 46.4479 7.91544 45.225 7.47822 44.1454C5.26106 38.6536 3.12182 33.4271 1.06051 28.4659C0.634912 27.4396 0.349427 26.549 0.204064 25.7944C-0.173581 23.8169 -0.0240942 21.1839 0.627793 19.603C3.19563 13.375 5.60611 7.47921 7.85924 1.9158C8.60666 0.0705128 9.60697 -0.573961 10.6005 0.569016C11.8099 1.95987 12.3606 5.54303 11.7413 8.45143C11.6057 9.08856 11.3292 9.91389 10.9119 10.9274C9.20048 15.0844 7.50745 19.2266 5.83277 23.3542C5.79231 23.4534 5.79231 23.5525 5.83277 23.6517Z" fill="white"/>
</svg>
